<?xml version='1.0' encoding='ascii'?>
<svg xmlns="http://www.w3.org/2000/svg" version="1.1" width="1000" height="590">
    <g id="ViewLayer_Visible" xmlns:inkscape="http://www.inkscape.org/namespaces/inkscape" inkscape:groupmode="lineset" inkscape:label="ViewLayer_Visible">
        <g xmlns:inkscape="http://www.inkscape.org/namespaces/inkscape" inkscape:groupmode="layer" id="strokes" inkscape:label="strokes">
            <path fill="none" stroke-width="3.0" stroke-linecap="butt" stroke-opacity="1.0" stroke="rgb(0, 0, 0)" stroke-linejoin="round" d=" M 715.551, 270.672 714.776, 271.161 714.644, 271.245 712.953, 272.313 711.262, 273.381 710.913, 273.602 709.930, 274.181 708.207, 275.197 706.484, 276.213 706.062, 276.463 704.310, 277.428 702.559, 278.394 701.003, 279.251 699.225, 280.168 697.448, 281.085 695.742, 281.965 693.941, 282.834 692.140, 283.704 690.284, 284.600 688.462, 285.424 686.640, 286.248 684.818, 287.072 684.636, 287.154 682.795, 287.934 681.529, 288.470 " />
            <path fill="none" stroke-width="3.0" stroke-linecap="butt" stroke-opacity="1.0" stroke="rgb(0, 0, 0)" stroke-linejoin="round" d=" M 801.795, 512.173 803.596, 511.303 805.397, 510.433 807.198, 509.564 808.999, 508.694 810.669, 507.888 812.447, 506.971 814.224, 506.054 816.002, 505.137 817.779, 504.221 819.224, 503.475 820.975, 502.510 822.727, 501.544 824.478, 500.579 826.230, 499.613 827.450, 498.941 829.173, 497.925 830.895, 496.909 832.618, 495.893 834.341, 494.877 835.338, 494.289 837.029, 493.221 838.720, 492.153 840.411, 491.085 842.102, 490.017 842.880, 489.525 844.556, 488.434 846.233, 487.343 847.909, 486.252 849.585, 485.161 851.261, 484.070 852.938, 482.979 853.162, 482.833 854.817, 481.711 856.473, 480.589 858.128, 479.467 859.784, 478.345 860.573, 477.810 862.190, 476.632 863.806, 475.455 865.422, 474.277 867.039, 473.099 867.612, 472.682 869.185, 471.447 870.758, 470.211 872.331, 468.976 873.904, 467.741 874.270, 467.454 875.794, 466.159 877.319, 464.865 878.844, 463.571 880.368, 462.276 880.540, 462.131 882.011, 460.777 883.482, 459.422 884.954, 458.067 886.425, 456.713 887.897, 455.358 889.368, 454.004 890.294, 453.151 891.765, 451.797 893.236, 450.442 894.707, 449.087 896.178, 447.732 896.325, 447.597 897.737, 446.181 899.149, 444.764 900.560, 443.348 901.945, 441.958 903.291, 440.479 904.637, 439.000 905.983, 437.520 907.147, 436.240 908.421, 434.698 909.694, 433.155 910.967, 431.613 911.927, 430.450 913.167, 428.881 914.407, 427.312 915.647, 425.742 916.887, 424.173 918.128, 422.604 919.368, 421.035 920.617, 419.454 921.810, 417.849 923.003, 416.243 924.195, 414.638 925.063, 413.470 926.168, 411.802 927.272, 410.135 928.376, 408.467 929.067, 407.424 930.075, 405.696 931.082, 403.968 932.090, 402.240 932.625, 401.323 933.609, 399.581 934.592, 397.840 935.576, 396.099 936.560, 394.357 937.544, 392.616 938.528, 390.875 939.512, 389.134 939.724, 388.757 940.626, 386.972 941.528, 385.187 942.430, 383.402 942.884, 382.504 943.672, 380.666 944.460, 378.827 945.248, 376.989 945.583, 376.208 946.297, 374.340 947.012, 372.472 947.727, 370.604 948.442, 368.736 949.156, 366.868 949.871, 365.000 950.586, 363.132 950.814, 362.535 951.480, 360.649 952.145, 358.763 952.811, 356.877 953.076, 356.126 953.611, 354.199 954.147, 352.272 954.682, 350.346 954.865, 349.688 955.301, 347.736 955.737, 345.784 956.173, 343.833 956.609, 341.881 957.045, 339.929 957.481, 337.977 957.917, 336.025 958.087, 335.266 958.486, 333.307 958.885, 331.347 959.283, 329.387 959.411, 328.759 959.669, 326.775 959.926, 324.792 960.183, 322.808 960.257, 322.235 960.405, 320.240 960.553, 318.246 960.700, 316.251 960.848, 314.257 960.996, 312.262 961.143, 310.268 961.291, 308.273 961.353, 307.430 961.465, 305.434 961.577, 303.437 961.689, 301.440 961.720, 300.882 961.685, 298.882 961.650, 296.883 961.615, 294.883 961.606, 294.332 961.458, 292.337 961.311, 290.343 961.163, 288.348 961.015, 286.354 960.868, 284.359 960.720, 282.365 960.573, 280.370 960.510, 279.519 960.328, 277.527 960.147, 275.535 959.966, 273.544 959.915, 272.990 959.590, 271.016 959.265, 269.043 958.940, 267.070 958.842, 266.473 958.406, 264.521 957.970, 262.569 957.534, 260.617 957.098, 258.665 956.661, 256.713 956.225, 254.762 955.789, 252.810 955.614, 252.026 955.150, 250.081 954.685, 248.136 954.221, 246.190 954.074, 245.575 953.476, 243.667 952.877, 241.759 952.279, 239.850 952.060, 239.150 951.345, 237.282 950.630, 235.414 949.916, 233.547 949.201, 231.679 948.487, 229.811 947.772, 227.943 947.057, 226.075 946.814, 225.438 946.089, 223.574 945.364, 221.710 944.640, 219.846 944.358, 219.122 943.515, 217.308 942.672, 215.495 941.829, 213.681 941.440, 212.845 940.487, 211.087 939.534, 209.328 938.581, 207.570 938.063, 206.614 937.079, 204.873 936.095, 203.131 935.111, 201.390 934.127, 199.649 933.143, 197.908 932.159, 196.166 931.175, 194.425 930.991, 194.098 929.936, 192.399 928.882, 190.699 927.827, 189.000 927.220, 188.022 926.073, 186.384 924.926, 184.746 923.778, 183.108 923.006, 182.005 921.774, 180.429 920.542, 178.853 919.310, 177.278 918.351, 176.052 917.111, 174.482 915.871, 172.913 914.631, 171.344 913.391, 169.775 912.151, 168.206 910.911, 166.637 909.709, 165.116 908.401, 163.604 907.092, 162.091 905.783, 160.579 904.728, 159.359 903.350, 157.910 901.972, 156.460 900.594, 155.011 899.326, 153.678 897.886, 152.291 896.445, 150.904 895.004, 149.517 893.510, 148.079 892.039, 146.724 890.567, 145.370 889.096, 144.015 887.624, 142.661 886.153, 141.306 884.681, 139.952 883.673, 139.024 882.176, 137.698 880.679, 136.372 879.181, 135.046 877.684, 133.720 877.609, 133.654 876.061, 132.388 874.513, 131.122 872.965, 129.856 871.416, 128.590 871.154, 128.376 869.560, 127.168 867.966, 125.961 866.372, 124.753 864.778, 123.545 864.315, 123.195 862.679, 122.043 861.043, 120.892 859.408, 119.741 857.772, 118.590 857.098, 118.115 855.425, 117.019 853.752, 115.923 852.079, 114.827 850.406, 113.731 849.512, 113.144 847.836, 112.053 846.159, 110.962 844.483, 109.871 842.807, 108.780 841.131, 107.689 839.455, 106.598 839.340, 106.523 837.634, 105.480 835.928, 104.437 834.221, 103.394 832.515, 102.351 831.633, 101.812 829.896, 100.820 828.159, 99.828 826.423, 98.837 824.686, 97.845 823.583, 97.215 821.819, 96.273 820.055, 95.331 818.290, 94.389 816.526, 93.447 815.200, 92.738 813.411, 91.844 811.622, 90.950 809.833, 90.056 808.044, 89.161 806.492, 88.386 804.681, 87.538 802.869, 86.690 801.058, 85.842 799.247, 84.994 797.469, 84.162 795.638, 83.359 793.806, 82.556 791.974, 81.753 790.142, 80.950 788.311, 80.147 788.141, 80.073 786.291, 79.313 784.441, 78.554 782.590, 77.794 780.740, 77.034 778.890, 76.275 778.517, 76.122 776.662, 75.373 774.808, 74.624 772.953, 73.875 771.099, 73.126 769.363, 72.424 767.496, 71.707 765.629, 70.989 763.763, 70.271 761.896, 69.554 760.029, 68.836 759.795, 68.746 757.913, 68.069 756.031, 67.392 754.149, 66.715 752.267, 66.039 750.385, 65.362 749.961, 65.209 748.065, 64.572 746.170, 63.935 744.274, 63.297 742.378, 62.660 740.482, 62.023 739.873, 61.818 737.964, 61.219 736.056, 60.620 734.148, 60.021 732.240, 59.422 730.331, 58.823 729.540, 58.575 727.621, 58.013 725.701, 57.452 723.782, 56.890 721.862, 56.328 719.943, 55.767 718.976, 55.484 717.046, 54.959 715.116, 54.434 713.186, 53.909 711.256, 53.383 709.326, 52.858 708.189, 52.549 706.250, 52.059 704.311, 51.570 702.372, 51.080 700.433, 50.591 698.494, 50.101 697.193, 49.773 695.245, 49.318 693.298, 48.863 691.350, 48.408 689.403, 47.953 687.455, 47.498 685.999, 47.158 684.043, 46.737 682.088, 46.316 680.133, 45.895 678.178, 45.474 676.223, 45.053 674.618, 44.708 672.656, 44.320 670.694, 43.932 668.732, 43.545 666.770, 43.157 664.808, 42.769 663.064, 42.425 661.095, 42.070 659.127, 41.715 657.159, 41.359 655.191, 41.004 653.223, 40.649 651.348, 40.311 649.374, 39.988 647.400, 39.665 645.426, 39.342 643.453, 39.019 641.479, 38.696 639.482, 38.370 637.504, 38.078 635.525, 37.787 633.547, 37.495 631.568, 37.204 629.589, 36.912 627.611, 36.621 627.481, 36.602 625.498, 36.341 623.515, 36.081 621.532, 35.821 619.549, 35.560 617.566, 35.300 615.583, 35.039 615.356, 35.010 613.370, 34.780 611.383, 34.550 609.396, 34.321 607.409, 34.091 605.423, 33.861 603.436, 33.632 603.121, 33.595 601.131, 33.396 599.141, 33.197 597.151, 32.997 595.161, 32.798 593.171, 32.598 591.181, 32.399 590.788, 32.360 588.795, 32.190 586.803, 32.021 584.810, 31.852 582.817, 31.682 580.824, 31.513 578.831, 31.344 578.371, 31.305 576.376, 31.165 574.381, 31.025 572.386, 30.886 570.391, 30.746 568.396, 30.607 566.401, 30.467 565.884, 30.431 563.887, 30.321 561.890, 30.211 559.893, 30.101 557.896, 29.991 555.899, 29.881 553.902, 29.771 553.338, 29.740 551.340, 29.659 549.341, 29.578 547.343, 29.498 545.345, 29.417 543.346, 29.336 541.348, 29.256 540.749, 29.232 538.749, 29.180 536.750, 29.129 534.751, 29.077 532.751, 29.026 530.752, 28.974 528.753, 28.923 528.129, 28.907 526.129, 28.885 524.129, 28.862 522.129, 28.840 520.129, 28.818 518.129, 28.796 516.129, 28.774 515.492, 28.766 513.492, 28.773 511.492, 28.780 509.492, 28.787 507.492, 28.794 505.492, 28.801 503.492, 28.808 502.851, 28.810 500.851, 28.846 498.852, 28.883 496.852, 28.919 494.852, 28.955 492.853, 28.991 490.853, 29.027 490.220, 29.038 488.221, 29.104 486.223, 29.169 484.224, 29.234 482.225, 29.299 480.226, 29.365 478.227, 29.430 477.613, 29.450 475.616, 29.545 473.618, 29.639 471.620, 29.734 469.622, 29.828 467.625, 29.923 465.627, 30.017 465.043, 30.045 463.047, 30.169 461.051, 30.293 459.055, 30.417 457.059, 30.541 455.062, 30.665 453.066, 30.789 452.524, 30.823 450.530, 30.977 448.535, 31.131 446.541, 31.284 444.547, 31.438 442.553, 31.592 440.559, 31.745 440.068, 31.783 438.076, 31.967 436.085, 32.150 434.093, 32.334 432.102, 32.518 430.110, 32.701 428.118, 32.885 427.689, 32.924 425.701, 33.138 423.712, 33.352 421.724, 33.565 419.735, 33.779 417.747, 33.993 415.758, 34.206 415.401, 34.245 413.416, 34.489 411.431, 34.733 409.446, 34.977 407.461, 35.222 405.476, 35.466 403.491, 35.710 403.217, 35.744 401.236, 36.019 399.255, 36.294 397.274, 36.569 395.293, 36.844 393.312, 37.119 391.331, 37.394 391.149, 37.420 389.173, 37.726 387.196, 38.032 385.220, 38.339 383.243, 38.645 381.267, 38.951 379.211, 39.270 377.239, 39.608 375.268, 39.947 373.297, 40.285 371.326, 40.623 369.355, 40.961 367.415, 41.294 365.449, 41.664 363.484, 42.035 361.519, 42.405 359.553, 42.776 357.588, 43.146 355.774, 43.488 353.815, 43.892 351.856, 44.295 349.897, 44.698 347.938, 45.102 345.980, 45.505 344.301, 45.851 342.349, 46.288 340.397, 46.725 338.446, 47.162 336.494, 47.599 334.542, 48.036 333.007, 48.380 331.063, 48.851 329.120, 49.322 327.176, 49.793 325.232, 50.265 323.289, 50.736 321.905, 51.071 319.970, 51.578 318.036, 52.084 316.101, 52.590 314.166, 53.097 312.231, 53.603 311.007, 53.924 309.082, 54.466 307.157, 55.008 305.232, 55.550 303.307, 56.093 301.382, 56.635 300.325, 56.933 298.411, 57.512 296.496, 58.091 294.582, 58.670 292.668, 59.250 290.753, 59.829 289.869, 60.096 287.967, 60.713 286.064, 61.330 284.162, 61.947 282.259, 62.564 280.357, 63.181 279.651, 63.410 277.762, 64.066 275.873, 64.722 273.983, 65.378 272.094, 66.034 270.205, 66.690 269.683, 66.871 267.808, 67.567 265.933, 68.264 264.058, 68.960 262.183, 69.656 260.308, 70.352 259.974, 70.476 258.115, 71.213 256.256, 71.951 254.397, 72.688 252.538, 73.426 250.679, 74.163 250.535, 74.220 248.681, 74.969 246.826, 75.718 244.972, 76.467 243.117, 77.216 241.223, 77.981 239.381, 78.761 237.540, 79.541 235.698, 80.321 233.856, 81.101 232.015, 81.881 231.738, 81.998 229.916, 82.823 228.093, 83.647 226.271, 84.471 224.449, 85.295 222.554, 86.152 220.753, 87.022 218.952, 87.892 217.151, 88.761 215.350, 89.631 213.679, 90.437 211.902, 91.354 210.124, 92.271 208.347, 93.188 206.569, 94.104 205.125, 94.850 203.373, 95.815 201.622, 96.781 199.870, 97.746 198.118, 98.712 196.899, 99.384 195.176, 100.400 193.453, 101.416 191.730, 102.432 190.008, 103.448 189.010, 104.036 187.320, 105.104 185.629, 106.172 183.938, 107.240 182.247, 108.308 181.468, 108.800 179.792, 109.891 178.116, 110.982 176.440, 112.073 174.763, 113.164 173.087, 114.255 171.411, 115.346 171.187, 115.492 169.531, 116.614 167.876, 117.736 166.220, 118.858 164.564, 119.980 163.775, 120.515 162.159, 121.693 160.542, 122.870 158.926, 124.048 157.309, 125.226 156.737, 125.643 155.164, 126.878 153.591, 128.114 152.018, 129.349 150.445, 130.584 150.079, 130.871 148.554, 132.166 147.029, 133.460 145.505, 134.754 143.980, 136.049 143.809, 136.194 142.338, 137.548 140.866, 138.903 139.395, 140.258 137.923, 141.612 136.452, 142.967 134.980, 144.321 134.055, 145.173 132.584, 146.528 131.112, 147.883 129.641, 149.238 128.170, 150.593 128.024, 150.728 126.612, 152.144 125.200, 153.561 123.788, 154.977 122.403, 156.367 121.057, 157.846 119.712, 159.325 118.366, 160.805 117.201, 162.085 115.928, 163.627 114.655, 165.169 113.382, 166.712 112.422, 167.875 111.181, 169.444 109.941, 171.013 108.701, 172.583 107.461, 174.152 106.221, 175.721 104.981, 177.290 103.731, 178.871 102.539, 180.476 101.346, 182.082 100.153, 183.687 99.285, 184.855 98.181, 186.523 97.077, 188.190 95.972, 189.858 95.281, 190.901 94.274, 192.629 93.266, 194.357 92.259, 196.085 91.724, 197.002 90.740, 198.744 89.756, 200.485 88.772, 202.226 87.788, 203.967 86.804, 205.709 85.820, 207.450 84.837, 209.191 84.624, 209.567 83.722, 211.353 82.820, 213.138 81.918, 214.923 81.464, 215.821 80.676, 217.659 79.889, 219.498 79.101, 221.336 78.766, 222.117 78.051, 223.985 77.336, 225.853 76.622, 227.721 75.907, 229.589 75.192, 231.457 74.478, 233.325 73.763, 235.193 73.534, 235.790 72.869, 237.676 72.203, 239.562 71.538, 241.448 71.273, 242.199 70.737, 244.126 70.202, 246.053 69.666, 247.979 69.484, 248.637 69.048, 250.589 68.612, 252.540 68.175, 254.492 67.739, 256.444 67.303, 258.396 66.867, 260.348 66.431, 262.300 66.262, 263.059 65.863, 265.018 65.464, 266.978 65.065, 268.938 64.937, 269.566 64.680, 271.550 64.423, 273.533 64.165, 275.517 64.091, 276.090 63.943, 278.085 63.796, 280.079 63.648, 282.074 63.501, 284.068 63.353, 286.063 63.205, 288.057 63.058, 290.052 62.995, 290.895 62.883, 292.891 62.771, 294.888 62.659, 296.885 62.628, 297.443 62.663, 299.443 62.698, 301.442 62.733, 303.442 62.743, 303.993 62.890, 305.988 63.038, 307.982 63.185, 309.977 63.333, 311.971 63.481, 313.966 63.628, 315.960 63.776, 317.955 63.839, 318.806 64.020, 320.798 64.201, 322.789 64.383, 324.781 64.433, 325.335 64.758, 327.308 65.083, 329.282 65.408, 331.255 65.507, 331.852 65.943, 333.804 66.379, 335.756 66.815, 337.708 67.251, 339.660 67.687, 341.611 68.123, 343.563 68.559, 345.515 68.734, 346.299 69.199, 348.244 69.663, 350.189 70.128, 352.135 70.275, 352.750 70.873, 354.658 71.471, 356.566 72.069, 358.475 72.289, 359.175 73.003, 361.042 73.718, 362.910 74.433, 364.778 75.147, 366.646 75.862, 368.514 76.576, 370.382 77.291, 372.250 77.535, 372.887 78.259, 374.751 78.984, 376.615 79.709, 378.479 79.990, 379.203 80.833, 381.017 81.676, 382.830 82.520, 384.644 82.908, 385.480 83.861, 387.238 84.814, 388.997 85.768, 390.755 86.286, 391.711 87.270, 393.452 88.254, 395.194 89.237, 396.935 90.221, 398.676 91.205, 400.417 92.189, 402.159 93.173, 403.900 93.358, 404.227 94.412, 405.926 95.467, 407.626 96.521, 409.325 97.128, 410.303 98.276, 411.941 99.423, 413.579 100.570, 415.217 101.343, 416.320 102.575, 417.896 103.807, 419.472 105.039, 421.047 105.997, 422.273 107.237, 423.843 108.477, 425.412 109.717, 426.981 110.957, 428.550 112.198, 430.119 113.438, 431.688 114.639, 433.209 115.948, 434.721 117.256, 436.234 118.565, 437.746 119.620, 438.966 120.998, 440.415 122.376, 441.865 123.755, 443.314 125.022, 444.647 126.463, 446.034 127.904, 447.421 129.344, 448.808 130.838, 450.246 132.310, 451.601 133.781, 452.955 135.253, 454.310 136.724, 455.664 138.196, 457.019 139.667, 458.373 140.675, 459.301 142.172, 460.627 143.670, 461.953 145.167, 463.279 146.664, 464.605 146.739, 464.671 148.287, 465.937 149.835, 467.203 151.384, 468.469 152.932, 469.735 153.194, 469.949 154.788, 471.157 156.382, 472.364 157.977, 473.572 159.571, 474.780 160.034, 475.130 161.669, 476.281 163.305, 477.433 164.940, 478.584 166.576, 479.735 167.251, 480.209 168.923, 481.306 170.596, 482.402 172.269, 483.498 173.942, 484.594 174.837, 485.181 176.513, 486.272 178.189, 487.363 179.865, 488.454 181.541, 489.545 183.217, 490.636 184.894, 491.727 185.008, 491.801 186.714, 492.845 188.421, 493.888 190.127, 494.931 191.834, 495.974 192.715, 496.513 194.452, 497.505 196.189, 498.497 197.926, 499.488 199.663, 500.480 200.765, 501.110 202.529, 502.052 204.294, 502.994 206.058, 503.936 207.822, 504.878 209.149, 505.587 210.938, 506.481 212.727, 507.375 214.516, 508.269 216.305, 509.163 217.856, 509.939 219.668, 510.787 221.479, 511.635 223.290, 512.483 225.102, 513.331 226.879, 514.163 228.711, 514.966 230.542, 515.769 232.374, 516.571 234.206, 517.374 236.038, 518.177 236.208, 518.252 238.058, 519.012 239.908, 519.771 241.758, 520.531 243.608, 521.291 245.458, 522.050 245.832, 522.203 247.686, 522.952 249.540, 523.701 251.395, 524.450 253.249, 525.199 254.985, 525.901 256.852, 526.618 258.719, 527.336 260.586, 528.053 262.453, 528.771 264.319, 529.489 264.554, 529.579 266.436, 530.256 268.318, 530.933 270.200, 531.610 272.082, 532.286 273.964, 532.963 274.387, 533.116 276.283, 533.753 278.179, 534.390 280.075, 535.028 281.970, 535.665 283.866, 536.302 284.476, 536.507 286.384, 537.106 288.292, 537.705 290.200, 538.304 292.109, 538.903 294.017, 539.502 294.808, 539.750 296.727, 540.312 298.647, 540.873 300.567, 541.435 302.486, 541.996 304.406, 542.558 305.373, 542.841 307.303, 543.366 309.232, 543.891 311.162, 544.416 313.092, 544.941 315.022, 545.467 316.159, 545.776 318.098, 546.266 320.037, 546.755 321.976, 547.245 323.916, 547.734 325.855, 548.224 327.155, 548.552 329.103, 549.007 331.051, 549.462 332.998, 549.917 334.946, 550.372 336.893, 550.827 338.350, 551.167 340.305, 551.588 342.260, 552.009 344.215, 552.430 346.171, 552.851 348.126, 553.272 349.730, 553.617 351.692, 554.005 353.654, 554.393 355.617, 554.780 357.579, 555.168 359.541, 555.556 361.285, 555.900 363.253, 556.255 365.221, 556.610 367.189, 556.965 369.158, 557.321 371.126, 557.676 373.001, 558.014 374.975, 558.337 376.948, 558.660 378.922, 558.983 380.896, 559.306 382.870, 559.629 384.866, 559.955 386.845, 560.247 388.823, 560.538 390.802, 560.830 392.781, 561.121 394.759, 561.413 396.738, 561.704 396.867, 561.723 398.850, 561.984 400.833, 562.244 402.816, 562.504 404.799, 562.765 406.782, 563.025 408.765, 563.286 408.992, 563.315 410.979, 563.545 412.966, 563.775 414.952, 564.004 416.939, 564.234 418.926, 564.464 420.913, 564.693 421.227, 564.730 423.217, 564.929 425.207, 565.128 427.198, 565.328 429.188, 565.527 431.178, 565.727 433.168, 565.926 433.560, 565.965 435.553, 566.135 437.546, 566.304 439.539, 566.473 441.531, 566.643 443.524, 566.812 445.517, 566.981 445.977, 567.020 447.972, 567.160 449.967, 567.300 451.962, 567.439 453.957, 567.579 455.953, 567.718 457.948, 567.858 458.465, 567.894 460.462, 568.004 462.459, 568.114 464.456, 568.224 466.453, 568.334 468.450, 568.444 470.447, 568.554 471.010, 568.585 473.008, 568.666 475.007, 568.747 477.005, 568.827 479.004, 568.908 481.002, 568.989 483.000, 569.069 483.599, 569.093 485.599, 569.145 487.598, 569.196 489.597, 569.248 491.597, 569.299 493.596, 569.351 495.595, 569.402 496.219, 569.418 498.219, 569.440 500.219, 569.462 502.219, 569.485 504.219, 569.507 506.219, 569.529 508.219, 569.551 508.857, 569.559 510.856, 569.552 512.856, 569.545 514.856, 569.538 516.856, 569.531 518.856, 569.524 520.856, 569.517 521.497, 569.515 523.497, 569.479 525.497, 569.443 527.496, 569.406 529.496, 569.370 531.496, 569.334 533.495, 569.298 534.128, 569.287 536.127, 569.221 538.126, 569.156 540.125, 569.091 542.124, 569.026 544.122, 568.960 546.121, 568.895 546.735, 568.875 548.733, 568.780 550.731, 568.686 552.728, 568.591 554.726, 568.497 556.724, 568.402 558.722, 568.308 559.305, 568.280 561.301, 568.156 563.297, 568.032 565.294, 567.908 567.290, 567.784 569.286, 567.660 571.282, 567.535 571.825, 567.502 573.819, 567.348 575.813, 567.194 577.807, 567.041 579.801, 566.887 581.795, 566.733 583.789, 566.580 584.281, 566.542 586.272, 566.358 588.264, 566.175 590.255, 565.991 592.247, 565.807 594.238, 565.624 596.230, 565.440 596.659, 565.401 598.648, 565.187 600.636, 564.973 602.625, 564.760 604.613, 564.546 606.602, 564.332 608.590, 564.119 608.947, 564.080 610.932, 563.836 612.917, 563.592 614.902, 563.348 616.887, 563.103 618.872, 562.859 620.857, 562.615 621.132, 562.581 623.113, 562.306 625.094, 562.031 627.075, 561.756 629.056, 561.481 631.037, 561.206 633.018, 560.931 633.199, 560.905 635.176, 560.599 637.152, 560.293 639.129, 559.986 641.105, 559.680 643.081, 559.373 645.138, 559.055 647.109, 558.717 649.080, 558.378 651.051, 558.040 653.023, 557.702 654.994, 557.364 656.934, 557.031 658.899, 556.661 660.864, 556.290 662.830, 555.920 664.795, 555.549 666.760, 555.179 668.574, 554.837 670.533, 554.433 672.492, 554.030 674.451, 553.627 676.410, 553.223 678.369, 552.820 680.048, 552.474 681.999, 552.037 683.951, 551.600 685.903, 551.163 687.854, 550.726 689.806, 550.289 691.341, 549.945 693.285, 549.474 695.229, 549.003 697.172, 548.532 699.116, 548.060 701.060, 547.589 702.443, 547.254 704.378, 546.747 706.313, 546.241 708.248, 545.734 710.182, 545.228 712.117, 544.722 713.341, 544.401 715.266, 543.859 717.191, 543.317 719.116, 542.774 721.041, 542.232 722.966, 541.690 724.023, 541.392 725.938, 540.813 727.852, 540.234 729.766, 539.655 731.681, 539.075 733.595, 538.496 734.479, 538.229 736.382, 537.612 738.284, 536.995 740.187, 536.378 742.089, 535.761 743.991, 535.144 744.697, 534.915 746.586, 534.259 748.476, 533.603 750.365, 532.947 752.254, 532.291 754.144, 531.635 754.665, 531.454 756.540, 530.758 758.415, 530.061 760.290, 529.365 762.165, 528.669 764.040, 527.973 764.374, 527.849 766.234, 527.112 768.093, 526.374 769.952, 525.637 771.811, 524.899 773.670, 524.162 773.813, 524.105 775.668, 523.356 777.522, 522.607 779.377, 521.858 781.231, 521.109 783.126, 520.344 784.967, 519.564 786.809, 518.784 788.651, 518.004 790.492, 517.224 792.334, 516.444 792.611, 516.327 794.433, 515.502 796.255, 514.678 798.078, 513.854 799.900, 513.030 801.795, 512.173 " />
            <path fill="none" stroke-width="3.0" stroke-linecap="butt" stroke-opacity="1.0" stroke="rgb(0, 0, 0)" stroke-linejoin="round" d=" M 720.773, 265.640 719.249, 266.934 718.598, 267.487 717.589, 268.343 717.331, 268.562 717.223, 268.654 717.209, 268.665 715.636, 269.900 714.063, 271.135 713.453, 271.615 711.836, 272.793 710.220, 273.970 709.930, 274.181 " />
            <path fill="none" stroke-width="3.0" stroke-linecap="butt" stroke-opacity="1.0" stroke="rgb(0, 0, 0)" stroke-linejoin="round" d=" M 722.396, 262.681 721.123, 264.224 719.882, 265.727 718.536, 267.206 717.732, 268.090 717.408, 268.446 717.209, 268.665 " />
            <path fill="none" stroke-width="3.0" stroke-linecap="butt" stroke-opacity="1.0" stroke="rgb(0, 0, 0)" stroke-linejoin="round" d=" M 719.630, 264.730 718.623, 266.458 717.875, 267.741 717.408, 268.446 " />
            <path fill="none" stroke-width="3.0" stroke-linecap="butt" stroke-opacity="1.0" stroke="rgb(0, 0, 0)" stroke-linejoin="round" d=" M 375.668, 299.159 376.898, 298.813 378.833, 298.306 380.768, 297.800 382.702, 297.294 384.226, 296.895 386.170, 296.423 388.114, 295.952 390.057, 295.481 391.692, 295.085 393.643, 294.648 395.595, 294.211 397.547, 293.774 399.286, 293.384 401.245, 292.981 403.204, 292.577 405.163, 292.174 407.002, 291.795 408.967, 291.425 410.932, 291.054 412.898, 290.684 414.829, 290.320 416.801, 289.982 418.772, 289.643 420.743, 289.305 422.762, 288.959 424.738, 288.653 426.714, 288.346 428.691, 288.040 430.667, 287.733 430.790, 287.715 432.771, 287.439 434.752, 287.164 436.733, 286.889 438.714, 286.614 438.905, 286.588 440.890, 286.343 442.875, 286.099 444.860, 285.855 446.845, 285.611 447.098, 285.580 449.087, 285.366 451.075, 285.152 453.064, 284.938 455.052, 284.725 455.361, 284.691 457.353, 284.508 459.345, 284.324 461.336, 284.141 463.328, 283.957 463.686, 283.924 465.680, 283.771 467.674, 283.617 469.668, 283.463 471.662, 283.310 472.061, 283.279 474.058, 283.155 476.054, 283.031 478.050, 282.906 480.046, 282.782 480.480, 282.755 482.478, 282.661 484.476, 282.566 486.474, 282.472 488.471, 282.377 488.933, 282.355 490.932, 282.290 492.931, 282.225 494.930, 282.159 496.929, 282.094 497.411, 282.078 499.411, 282.042 501.410, 282.006 503.410, 281.970 505.410, 281.934 505.905, 281.925 507.905, 281.918 509.905, 281.911 511.905, 281.904 513.905, 281.897 514.405, 281.896 516.405, 281.918 518.405, 281.940 520.404, 281.962 522.404, 281.985 522.903, 281.990 524.902, 282.042 526.901, 282.093 528.901, 282.144 530.900, 282.196 531.389, 282.208 533.388, 282.289 535.386, 282.370 537.384, 282.450 539.383, 282.531 539.855, 282.550 541.852, 282.660 543.849, 282.770 545.846, 282.880 547.843, 282.990 548.291, 283.015 550.286, 283.154 552.281, 283.294 554.277, 283.434 556.272, 283.573 556.689, 283.602 558.682, 283.772 560.674, 283.941 562.667, 284.110 564.660, 284.280 565.039, 284.312 567.029, 284.511 569.019, 284.711 571.009, 284.910 572.999, 285.109 573.332, 285.143 575.319, 285.372 577.305, 285.602 579.292, 285.832 581.279, 286.061 581.560, 286.094 583.543, 286.354 585.526, 286.615 587.509, 286.875 589.492, 287.135 589.713, 287.164 591.692, 287.456 593.670, 287.747 595.649, 288.039 597.628, 288.330 597.783, 288.353 599.757, 288.676 601.731, 288.999 603.705, 289.322 605.678, 289.645 605.762, 289.659 607.730, 290.014 609.699, 290.369 611.667, 290.724 613.641, 291.080 615.603, 291.468 617.565, 291.856 619.527, 292.243 621.411, 292.615 623.366, 293.036 625.321, 293.457 627.276, 293.878 629.063, 294.263 631.011, 294.718 632.959, 295.173 634.906, 295.628 636.591, 296.021 638.530, 296.511 640.470, 297.001 642.409, 297.490 643.986, 297.888 645.916, 298.413 647.845, 298.939 648.680, 299.166 " />
            <path fill="none" stroke-width="3.0" stroke-linecap="butt" stroke-opacity="1.0" stroke="rgb(0, 0, 0)" stroke-linejoin="round" d=" M 307.150, 268.644 306.902, 268.384 306.598, 268.064 305.739, 267.160 304.430, 265.647 303.119, 264.132 " />
            <path fill="none" stroke-width="3.0" stroke-linecap="butt" stroke-opacity="1.0" stroke="rgb(0, 0, 0)" stroke-linejoin="round" d=" M 314.536, 274.249 312.901, 273.098 312.763, 273.001 311.169, 271.794 309.575, 270.586 308.890, 270.067 307.342, 268.801 307.150, 268.644 306.975, 268.502 306.734, 268.304 305.835, 267.569 305.235, 267.078 303.737, 265.752 302.240, 264.426 301.801, 264.038 " />
            <path fill="none" stroke-width="3.0" stroke-linecap="butt" stroke-opacity="1.0" stroke="rgb(0, 0, 0)" stroke-linejoin="round" d=" M 342.028, 288.148 340.196, 287.345 338.365, 286.542 336.724, 285.823 334.913, 284.976 333.102, 284.128 331.290, 283.280 331.176, 283.226 329.387, 282.332 327.598, 281.438 325.821, 280.549 324.056, 279.607 322.292, 278.665 320.665, 277.796 318.928, 276.805 317.191, 275.813 315.715, 274.969 314.536, 274.249 312.830, 273.206 311.123, 272.163 310.975, 272.072 " />
            <path fill="none" stroke-width="3.0" stroke-linecap="butt" stroke-opacity="1.0" stroke="rgb(0, 0, 0)" stroke-linejoin="round" d=" M 688.116, 285.864 686.257, 286.601 684.398, 287.339 682.538, 288.076 681.768, 288.382 681.529, 288.470 679.654, 289.166 677.779, 289.863 675.904, 290.559 675.240, 290.805 673.350, 291.461 671.461, 292.117 669.571, 292.773 668.536, 293.133 666.634, 293.750 664.731, 294.367 662.829, 294.984 661.665, 295.361 659.751, 295.941 657.836, 296.520 655.922, 297.099 654.634, 297.489 652.709, 298.031 650.784, 298.573 648.859, 299.116 648.680, 299.166 647.451, 299.512 645.516, 300.019 643.581, 300.525 641.646, 301.031 640.122, 301.430 638.178, 301.902 636.235, 302.373 634.291, 302.844 632.657, 303.240 630.705, 303.677 628.753, 304.114 626.802, 304.551 625.062, 304.941 623.103, 305.344 621.144, 305.748 619.185, 306.151 617.347, 306.530 615.381, 306.900 613.416, 307.271 611.451, 307.641 609.519, 308.005 607.548, 308.343 605.577, 308.682 603.605, 309.020 601.587, 309.366 599.610, 309.672 597.634, 309.979 595.658, 310.285 593.681, 310.592 593.559, 310.611 591.578, 310.886 589.597, 311.161 587.616, 311.436 585.635, 311.711 585.444, 311.737 583.459, 311.982 581.474, 312.226 579.489, 312.470 577.504, 312.714 577.250, 312.745 575.262, 312.959 573.273, 313.173 571.285, 313.387 569.296, 313.600 568.987, 313.634 566.995, 313.817 565.004, 314.001 563.012, 314.184 561.021, 314.368 560.663, 314.401 558.669, 314.554 556.675, 314.708 554.681, 314.862 552.687, 315.016 552.287, 315.046 550.291, 315.170 548.295, 315.294 546.299, 315.418 544.302, 315.543 543.868, 315.570 541.870, 315.664 539.872, 315.759 537.875, 315.853 535.877, 315.948 535.415, 315.970 533.416, 316.035 531.417, 316.100 529.418, 316.166 527.419, 316.231 526.937, 316.247 524.938, 316.283 522.938, 316.319 520.938, 316.355 518.939, 316.391 518.444, 316.400 516.444, 316.407 514.444, 316.414 512.444, 316.421 510.444, 316.428 509.943, 316.429 507.944, 316.407 505.944, 316.385 503.944, 316.363 501.944, 316.340 501.446, 316.335 499.446, 316.283 497.447, 316.232 495.448, 316.181 493.448, 316.129 492.959, 316.117 490.961, 316.036 488.962, 315.955 486.964, 315.875 484.966, 315.794 484.493, 315.775 482.496, 315.665 480.499, 315.555 478.502, 315.445 476.505, 315.335 476.057, 315.310 474.062, 315.171 472.067, 315.031 470.072, 314.891 468.077, 314.752 467.660, 314.723 465.667, 314.553 463.674, 314.384 461.681, 314.215 459.688, 314.045 459.310, 314.013 457.320, 313.814 455.330, 313.614 453.340, 313.415 451.350, 313.216 451.017, 313.182 449.030, 312.953 447.043, 312.723 445.056, 312.493 443.069, 312.264 442.789, 312.231 440.806, 311.971 438.823, 311.710 436.840, 311.450 434.857, 311.190 434.635, 311.160 432.657, 310.869 430.678, 310.578 428.699, 310.286 426.721, 309.995 426.565, 309.972 424.591, 309.649 422.618, 309.326 420.644, 309.003 418.670, 308.680 418.586, 308.666 416.618, 308.311 414.650, 307.956 412.682, 307.601 410.708, 307.245 408.746, 306.857 406.784, 306.469 404.821, 306.082 402.938, 305.710 400.983, 305.289 399.027, 304.868 397.072, 304.447 395.285, 304.062 393.337, 303.607 391.390, 303.152 389.442, 302.697 387.757, 302.304 385.818, 301.814 383.879, 301.324 381.940, 300.835 380.363, 300.437 378.433, 299.912 376.503, 299.386 375.668, 299.159 373.738, 298.634 373.109, 298.463 371.190, 297.901 369.270, 297.340 367.351, 296.778 366.005, 296.385 364.097, 295.786 362.188, 295.187 360.280, 294.588 359.057, 294.204 357.161, 293.567 355.265, 292.929 353.370, 292.292 352.273, 291.923 350.391, 291.246 348.509, 290.569 346.627, 289.892 345.660, 289.545 343.793, 288.827 342.028, 288.148 340.161, 287.431 339.226, 287.071 " />
            <path fill="none" stroke-width="3.0" stroke-linecap="butt" stroke-opacity="1.0" stroke="rgb(0, 0, 0)" stroke-linejoin="round" d=" M 306.902, 268.384 305.848, 266.684 305.525, 266.164 " />
        </g>
    </g>
</svg>
