<?xml version='1.0' encoding='ascii'?>
<svg xmlns="http://www.w3.org/2000/svg" version="1.1" width="1920" height="1080">
    <g id="ViewLayer_LineSet" xmlns:inkscape="http://www.inkscape.org/namespaces/inkscape" inkscape:groupmode="lineset" inkscape:label="ViewLayer_LineSet">
        <g xmlns:inkscape="http://www.inkscape.org/namespaces/inkscape" inkscape:groupmode="layer" id="strokes" inkscape:label="strokes">
            <path fill="none" stroke-width="3.0" stroke-linecap="butt" stroke-opacity="1.0" stroke="rgb(0, 0, 0)" stroke-linejoin="round" d=" M 571.853, 523.416 580.936, 519.232 587.167, 516.361 596.372, 512.455 603.381, 509.482 612.694, 505.841 620.028, 502.974 629.437, 499.585 637.067, 496.838 646.559, 493.692 654.454, 491.075 664.020, 488.162 672.151, 485.685 681.782, 482.995 690.118, 480.667 699.807, 478.193 708.318, 476.019 718.058, 473.753 726.715, 471.740 736.500, 469.676 745.274, 467.826 755.098, 465.959 763.961, 464.274 773.820, 462.599 782.744, 461.082 792.633, 459.594 801.591, 458.246 811.505, 456.941 820.470, 455.762 830.407, 454.637 839.353, 453.625 849.308, 452.677 858.210, 451.831 868.180, 451.058 877.012, 450.374 886.995, 449.775 895.734, 449.251 905.725, 448.824 914.347, 448.455 924.344, 448.199 932.826, 447.982 942.826, 447.896 951.146, 447.825 961.145, 447.910 969.280, 447.979 979.277, 448.234 987.205, 448.437 997.196, 448.864 1004.897, 449.193 1014.879, 449.793 1022.331, 450.241 1032.301, 451.016 1039.486, 451.574 1049.440, 452.526 1056.337, 453.186 1066.273, 454.318 1072.863, 455.068 1082.776, 456.384 1089.040, 457.216 1098.927, 458.719 1104.848, 459.619 1114.703, 461.315 1120.264, 462.272 1130.083, 464.166 1135.268, 465.167 1145.045, 467.266 1149.837, 468.294 1159.566, 470.606 1163.951, 471.647 1173.625, 474.179 1177.589, 475.217 1187.200, 477.979 1190.731, 478.994 1200.270, 481.999 1203.357, 482.971 1212.811, 486.229 1215.446, 487.138 1224.804, 490.665 1226.979, 491.485 1236.224, 495.296 1237.937, 496.002 1247.051, 500.117 1248.299, 500.681 1257.260, 505.119 1258.048, 505.510 1266.829, 510.295 1267.166, 510.479 1275.633, 515.577 1283.432, 520.792 1290.546, 526.114 1296.959, 531.531 1302.654, 537.030 1307.615, 542.600 1311.828, 548.226 1315.278, 553.897 1317.953, 559.598 1319.838, 565.317 1320.924, 571.039 1321.198, 576.749 1320.652, 582.434 1319.278, 588.077 1317.067, 593.665 1314.014, 599.180 1310.115, 604.609 1305.368, 609.934 1299.771, 615.140 1293.324, 620.211 1286.030, 625.129 1277.894, 629.879 1268.922, 634.443 1259.786, 638.511 1259.122, 638.806 1249.807, 642.443 1248.506, 642.951 1239.046, 646.191 1237.087, 646.861 1227.509, 649.733 1224.881, 650.521 1224.881, 650.521 1230.979, 653.372 " />
            <path fill="none" stroke-width="3.0" stroke-linecap="butt" stroke-opacity="1.0" stroke="rgb(0, 0, 0)" stroke-linejoin="round" d=" M 1237.101, 656.235 1243.247, 659.109 1249.418, 661.995 1255.614, 664.892 " />
            <path fill="none" stroke-width="3.0" stroke-linecap="butt" stroke-opacity="1.0" stroke="rgb(0, 0, 0)" stroke-linejoin="round" d=" M 1261.834, 667.801 1268.080, 670.721 1274.350, 673.654 1280.646, 676.598 1286.968, 679.554 1293.314, 682.522 1299.687, 685.502 1306.086, 688.494 1312.510, 691.498 1318.961, 694.515 1325.439, 697.544 1331.943, 700.585 1338.473, 703.639 1345.031, 706.705 1351.615, 709.784 1358.227, 712.876 1364.866, 715.981 1371.533, 719.098 1378.227, 722.229 1384.949, 725.372 1391.700, 728.529 1398.479, 731.699 1405.286, 734.882 " />
            <path fill="none" stroke-width="3.0" stroke-linecap="butt" stroke-opacity="1.0" stroke="rgb(0, 0, 0)" stroke-linejoin="round" d=" M 1412.121, 738.079 1418.986, 741.289 1425.879, 744.512 1432.802, 747.749 1432.802, 747.749 1440.837, 741.796 1448.871, 735.843 1453.240, 732.606 1460.932, 726.216 1468.624, 719.826 1471.922, 717.087 1479.219, 710.249 1486.516, 703.412 1488.818, 701.254 1495.661, 693.962 1502.503, 686.669 1503.908, 685.171 1510.229, 677.422 1516.550, 669.673 1517.182, 668.897 1522.909, 660.699 1528.641, 652.492 1533.695, 643.863 1538.294, 636.011 1542.596, 626.983 1546.158, 619.508 1549.631, 610.131 1552.260, 603.035 1554.836, 593.372 1556.631, 586.640 1558.255, 576.773 1559.310, 570.368 1559.948, 560.388 1560.340, 554.261 1559.983, 544.267 1559.771, 538.359 1558.431, 528.449 1557.653, 522.697 1555.368, 512.961 1554.041, 507.309 1550.868, 497.826 1548.994, 492.224 1545.002, 483.056 1542.570, 477.471 1537.836, 468.662 1534.831, 463.072 1529.432, 454.655 1525.838, 449.051 1519.850, 441.041 1515.652, 435.426 1509.147, 427.831 1504.337, 422.214 1497.380, 415.031 1491.954, 409.431 1484.602, 402.653 1478.565, 397.088 1470.868, 390.704 1464.230, 385.198 1456.233, 379.193 1449.009, 373.768 1440.751, 368.128 1432.960, 362.807 1424.474, 357.516 1416.141, 352.321 1407.456, 347.364 1398.607, 342.314 1389.748, 337.676 1380.888, 333.038 1380.414, 332.790 1371.401, 328.457 1362.389, 324.124 1361.613, 323.751 1352.466, 319.710 1343.319, 315.669 1342.258, 315.200 1332.992, 311.438 1323.727, 307.677 1322.397, 307.137 1313.027, 303.643 1303.657, 300.150 1302.079, 299.562 1292.617, 296.326 1283.155, 293.090 1281.352, 292.474 1271.809, 289.486 1262.265, 286.499 1260.261, 285.872 1250.646, 283.124 1241.031, 280.377 1238.851, 279.754 1229.172, 277.239 1219.494, 274.724 1217.165, 274.119 1207.430, 271.829 1197.696, 269.540 1195.244, 268.963 1185.460, 266.893 1175.677, 264.823 1173.130, 264.284 1163.303, 262.428 1153.477, 260.573 1150.861, 260.079 1140.998, 258.433 1131.134, 256.787 1128.478, 256.344 1118.582, 254.904 1108.687, 253.464 1106.017, 253.076 1096.094, 251.839 1086.171, 250.601 1083.516, 250.270 1073.570, 249.234 1063.624, 248.197 1061.010, 247.924 1051.045, 247.086 1041.081, 246.247 1038.536, 246.033 1028.556, 245.392 1018.577, 244.750 1016.127, 244.593 1006.137, 244.148 996.147, 243.703 993.819, 243.599 983.822, 243.351 973.825, 243.102 971.645, 243.048 961.645, 242.996 951.645, 242.945 949.638, 242.934 939.639, 243.081 929.641, 243.227 927.833, 243.253 917.839, 243.600 907.845, 243.946 906.261, 244.001 896.276, 244.550 886.291, 245.098 884.955, 245.172 874.984, 245.926 865.012, 246.681 863.948, 246.761 853.995, 247.725 844.041, 248.689 843.272, 248.763 833.342, 249.942 823.412, 251.120 822.960, 251.173 813.058, 252.571 803.042, 253.985 793.175, 255.609 783.552, 257.193 773.726, 259.051 764.521, 260.791 754.744, 262.891 745.982, 264.772 736.262, 267.123 727.965, 269.130 718.313, 271.743 710.503, 273.857 700.929, 276.745 693.628, 278.947 684.145, 282.121 677.370, 284.390 667.994, 287.867 661.761, 290.178 652.510, 293.973 646.833, 296.302 637.727, 300.435 632.615, 302.754 623.679, 307.242 619.139, 309.522 610.402, 314.386 606.433, 316.596 597.930, 321.858 594.527, 323.964 586.299, 329.647 583.450, 331.615 575.545, 337.740 573.229, 339.535 565.705, 346.123 563.890, 347.712 556.814, 354.779 555.460, 356.131 548.908, 363.686 547.962, 364.777 542.021, 372.820 541.420, 373.634 536.182, 382.152 535.854, 382.686 531.417, 391.647 531.284, 391.915 527.728, 401.304 525.201, 410.833 523.716, 420.484 523.284, 430.235 523.913, 440.066 525.608, 449.956 528.290, 459.590 528.371, 459.882 531.968, 469.213 532.203, 469.822 536.624, 478.792 537.098, 479.753 542.250, 488.324 543.049, 489.652 548.843, 497.802 550.046, 499.494 556.398, 507.218 558.075, 509.257 564.908, 516.558 567.116, 518.916 571.853, 523.416 577.150, 528.448 584.759, 534.937 588.151, 537.829 596.070, 543.935 600.091, 547.035 608.278, 552.777 612.936, 556.045 621.356, 561.440 626.653, 564.834 635.274, 569.900 641.201, 573.382 649.999, 578.134 656.538, 581.666 665.492, 586.121 672.621, 589.668 681.710, 593.839 689.400, 597.367 698.608, 601.267 706.825, 604.746 716.139, 608.385 724.843, 611.786 734.251, 615.177 743.399, 618.473 752.890, 621.623 762.436, 624.791 772.001, 627.709 781.566, 630.627 781.896, 630.728 791.526, 633.421 801.157, 636.114 801.718, 636.271 811.407, 638.746 821.096, 641.221 821.842, 641.411 831.583, 643.672 841.324, 645.934 842.207, 646.139 851.995, 648.191 861.782, 650.243 862.751, 650.446 872.579, 652.293 882.407, 654.140 883.413, 654.329 893.277, 655.974 903.141, 657.618 904.130, 657.783 914.025, 659.227 923.921, 660.671 924.842, 660.805 934.765, 662.050 944.687, 663.294 945.490, 663.395 955.435, 664.441 965.380, 665.486 966.014, 665.553 975.978, 666.400 985.942, 667.246 986.357, 667.281 996.336, 667.928 1006.462, 668.584 1016.452, 669.028 1026.277, 669.465 1036.274, 669.704 1045.749, 669.931 1055.749, 669.961 1064.829, 669.989 1074.827, 669.806 1083.469, 669.648 1093.461, 669.247 1101.623, 668.919 1111.604, 668.291 1119.251, 667.810 1129.214, 666.949 1136.311, 666.335 1146.250, 665.229 1152.767, 664.505 1162.674, 663.145 1168.585, 662.333 1178.452, 660.706 1183.733, 659.835 1193.549, 657.924 1198.182, 657.023 1207.934, 654.813 1211.906, 653.913 1221.580, 651.384 1224.881, 650.521 1224.881, 650.521 1230.979, 653.372 1237.101, 656.235 1243.247, 659.109 " />
            <path fill="none" stroke-width="3.0" stroke-linecap="butt" stroke-opacity="1.0" stroke="rgb(0, 0, 0)" stroke-linejoin="round" d=" M 527.728, 401.304 525.806, 407.573 523.888, 413.825 521.753, 420.738 520.933, 423.391 " />
            <path fill="none" stroke-width="3.0" stroke-linecap="butt" stroke-opacity="1.0" stroke="rgb(0, 0, 0)" stroke-linejoin="round" d=" M 521.753, 420.738 518.807, 429.646 516.686, 435.887 514.570, 442.112 512.459, 448.321 510.354, 454.516 508.253, 460.695 506.158, 466.860 503.451, 474.696 502.750, 476.723 " />
            <path fill="none" stroke-width="3.0" stroke-linecap="butt" stroke-opacity="1.0" stroke="rgb(0, 0, 0)" stroke-linejoin="round" d=" M 503.451, 474.696 500.448, 482.898 498.151, 489.059 495.860, 495.206 493.574, 501.338 491.293, 507.456 489.018, 513.560 486.748, 519.649 484.358, 526.041 482.924, 529.877 " />
            <path fill="none" stroke-width="3.0" stroke-linecap="butt" stroke-opacity="1.0" stroke="rgb(0, 0, 0)" stroke-linejoin="round" d=" M 484.358, 526.041 480.700, 535.348 480.449, 535.987 477.980, 542.083 475.516, 548.166 473.058, 554.235 470.605, 560.291 468.158, 566.333 465.716, 572.362 463.279, 578.378 460.178, 585.948 458.890, 589.092 " />
            <path fill="none" stroke-width="3.0" stroke-linecap="butt" stroke-opacity="1.0" stroke="rgb(0, 0, 0)" stroke-linejoin="round" d=" M 460.178, 585.948 456.252, 595.139 453.619, 601.174 450.991, 607.196 448.369, 613.205 445.753, 619.202 443.142, 625.186 440.536, 631.158 437.936, 637.117 " />
            <path fill="none" stroke-width="3.0" stroke-linecap="butt" stroke-opacity="1.0" stroke="rgb(0, 0, 0)" stroke-linejoin="round" d=" M 1432.802, 747.749 1432.802, 747.749 1424.470, 753.280 1416.139, 758.810 1410.652, 762.453 1402.063, 767.575 1393.475, 772.698 1386.844, 776.653 1378.033, 781.382 1369.222, 786.112 1361.444, 790.287 1352.440, 794.638 1343.436, 798.988 1334.531, 803.292 1325.360, 807.278 1316.189, 811.265 1307.018, 815.251 1306.195, 815.609 1296.880, 819.244 1287.563, 822.878 1278.247, 826.513 1276.539, 827.180 1267.098, 830.475 1257.656, 833.770 1248.215, 837.065 1245.676, 837.951 1236.125, 840.916 1226.575, 843.881 1217.025, 846.847 1213.728, 847.871 1204.084, 850.516 1194.440, 853.161 1184.796, 855.806 1180.828, 856.894 1171.104, 859.227 1161.380, 861.559 1151.656, 863.891 1147.119, 864.980 1137.326, 867.006 1127.534, 869.032 1117.741, 871.059 1112.748, 872.092 1102.898, 873.817 1093.048, 875.543 1083.198, 877.268 1077.870, 878.202 1067.972, 879.630 1058.075, 881.058 1048.177, 882.487 1042.642, 883.285 1032.707, 884.419 1022.771, 885.553 1012.836, 886.687 1007.228, 887.327 997.263, 888.168 987.299, 889.008 977.334, 889.849 971.789, 890.317 961.804, 890.864 951.819, 891.412 941.834, 891.959 936.487, 892.252 926.490, 892.505 916.494, 892.758 906.497, 893.011 901.483, 893.138 891.483, 893.093 881.483, 893.049 871.483, 893.004 866.933, 892.984 856.939, 892.638 846.945, 892.292 836.951, 891.946 832.989, 891.809 823.011, 891.156 813.032, 890.503 803.053, 889.850 799.795, 889.637 789.842, 888.669 779.889, 887.702 769.936, 886.735 767.489, 886.497 757.573, 885.206 747.657, 883.916 737.740, 882.626 736.199, 882.425 726.332, 880.801 716.465, 879.176 706.597, 877.552 706.043, 877.461 696.239, 875.490 686.435, 873.520 677.129, 871.649 667.405, 869.318 657.681, 866.987 649.555, 865.039 639.929, 862.330 630.303, 859.621 623.405, 857.680 613.899, 854.575 604.393, 851.470 598.753, 849.627 589.393, 846.105 580.034, 842.582 575.660, 840.936 566.479, 836.973 557.298, 833.010 554.179, 831.663 545.213, 827.235 536.247, 822.806 534.346, 821.867 525.641, 816.946 516.935, 812.026 516.191, 811.605 507.799, 806.165 499.730, 800.934 491.718, 794.951 484.972, 789.912 477.415, 783.362 471.914, 778.594 464.903, 771.463 460.548, 767.034 454.184, 759.320 450.854, 755.283 445.250, 747.001 442.808, 743.393 438.081, 734.581 436.380, 731.410 432.642, 722.135 431.531, 719.380 428.880, 709.738 428.222, 707.346 426.726, 697.459 426.406, 695.349 426.096, 685.353 426.035, 683.424 426.897, 673.461 427.058, 671.608 429.040, 661.806 429.419, 659.932 432.439, 650.399 433.064, 648.426 437.021, 639.242 437.936, 637.117 " />
            <path fill="none" stroke-width="3.0" stroke-linecap="butt" stroke-opacity="1.0" stroke="rgb(0, 0, 0)" stroke-linejoin="round" d=" M 1405.286, 734.882 1412.121, 738.079 1418.986, 741.289 1425.879, 744.512 " />
            <path fill="none" stroke-width="3.0" stroke-linecap="butt" stroke-opacity="1.0" stroke="rgb(0, 0, 0)" stroke-linejoin="round" d=" M 1384.949, 725.372 1391.700, 728.529 " />
            <path fill="none" stroke-width="3.0" stroke-linecap="butt" stroke-opacity="1.0" stroke="rgb(0, 0, 0)" stroke-linejoin="round" d=" M 1358.227, 712.876 1364.866, 715.981 1371.533, 719.098 " />
            <path fill="none" stroke-width="3.0" stroke-linecap="butt" stroke-opacity="1.0" stroke="rgb(0, 0, 0)" stroke-linejoin="round" d=" M 1331.943, 700.585 1338.473, 703.639 1345.031, 706.705 " />
            <path fill="none" stroke-width="3.0" stroke-linecap="butt" stroke-opacity="1.0" stroke="rgb(0, 0, 0)" stroke-linejoin="round" d=" M 1306.086, 688.494 1312.510, 691.498 1318.961, 694.515 " />
            <path fill="none" stroke-width="3.0" stroke-linecap="butt" stroke-opacity="1.0" stroke="rgb(0, 0, 0)" stroke-linejoin="round" d=" M 1286.968, 679.554 1293.314, 682.522 " />
            <path fill="none" stroke-width="3.0" stroke-linecap="butt" stroke-opacity="1.0" stroke="rgb(0, 0, 0)" stroke-linejoin="round" d=" M 1255.614, 664.892 1261.834, 667.801 1268.080, 670.721 1274.350, 673.654 " />
        </g>
    </g>
</svg>
