<?xml version="1.0" encoding="UTF-8" standalone="no"?>
<!-- Created with Inkscape (http://www.inkscape.org/) -->

<svg
   width="6in"
   height="3.4000001in"
   viewBox="0 0 152.4 86.360002"
   version="1.1"
   id="svg1"
   inkscape:version="1.3.2 (091e20e, 2023-11-25)"
   sodipodi:docname="connected-sum.svg"
   inkscape:export-filename="connected-sum.pdf"
   inkscape:export-xdpi="96"
   inkscape:export-ydpi="96"
   xmlns:inkscape="http://www.inkscape.org/namespaces/inkscape"
   xmlns:sodipodi="http://sodipodi.sourceforge.net/DTD/sodipodi-0.dtd"
   xmlns="http://www.w3.org/2000/svg"
   xmlns:svg="http://www.w3.org/2000/svg">
  <sodipodi:namedview
     id="namedview1"
     pagecolor="#ffffff"
     bordercolor="#000000"
     borderopacity="0.25"
     inkscape:showpageshadow="2"
     inkscape:pageopacity="0.0"
     inkscape:pagecheckerboard="0"
     inkscape:deskcolor="#d1d1d1"
     inkscape:document-units="mm"
     inkscape:zoom="0.76844023"
     inkscape:cx="530.29499"
     inkscape:cy="191.94726"
     inkscape:window-width="1728"
     inkscape:window-height="1051"
     inkscape:window-x="0"
     inkscape:window-y="38"
     inkscape:window-maximized="0"
     inkscape:current-layer="layer1" />
  <defs
     id="defs1">
    <marker
       style="overflow:visible"
       id="ArrowWide"
       refX="0"
       refY="0"
       orient="auto-start-reverse"
       inkscape:stockid="Wide arrow"
       markerWidth="1"
       markerHeight="1"
       viewBox="0 0 1 1"
       inkscape:isstock="true"
       inkscape:collect="always"
       preserveAspectRatio="xMidYMid">
      <path
         style="fill:none;stroke:context-stroke;stroke-width:1;stroke-linecap:butt"
         d="M 3,-3 0,0 3,3"
         transform="rotate(180,0.125,0)"
         sodipodi:nodetypes="ccc"
         id="path3" />
    </marker>
    <inkscape:path-effect
       effect="bspline"
       id="path-effect7"
       is_visible="true"
       lpeversion="1.3"
       weight="33.333333"
       steps="2"
       helper_size="0"
       apply_no_weight="true"
       apply_with_weight="true"
       only_selected="false"
       uniform="false" />
    <inkscape:path-effect
       effect="bspline"
       id="path-effect4"
       is_visible="true"
       lpeversion="1.3"
       weight="33.333333"
       steps="2"
       helper_size="0"
       apply_no_weight="true"
       apply_with_weight="true"
       only_selected="false"
       uniform="false" />
    <inkscape:path-effect
       effect="bspline"
       id="path-effect2"
       is_visible="true"
       lpeversion="1.3"
       weight="33.333333"
       steps="2"
       helper_size="0"
       apply_no_weight="true"
       apply_with_weight="true"
       only_selected="false"
       uniform="false" />
    <inkscape:path-effect
       effect="bspline"
       id="path-effect2-7"
       is_visible="true"
       lpeversion="1.3"
       weight="33.333333"
       steps="2"
       helper_size="0"
       apply_no_weight="true"
       apply_with_weight="true"
       only_selected="false"
       uniform="false" />
    <inkscape:path-effect
       effect="bspline"
       id="path-effect4-5"
       is_visible="true"
       lpeversion="1.3"
       weight="33.333333"
       steps="2"
       helper_size="0"
       apply_no_weight="true"
       apply_with_weight="true"
       only_selected="false"
       uniform="false" />
    <inkscape:path-effect
       effect="bspline"
       id="path-effect4-9"
       is_visible="true"
       lpeversion="1.3"
       weight="33.333333"
       steps="2"
       helper_size="0"
       apply_no_weight="true"
       apply_with_weight="true"
       only_selected="false"
       uniform="false" />
    <inkscape:path-effect
       effect="bspline"
       id="path-effect4-5-0"
       is_visible="true"
       lpeversion="1.3"
       weight="33.333333"
       steps="2"
       helper_size="0"
       apply_no_weight="true"
       apply_with_weight="true"
       only_selected="false"
       uniform="false" />
    <inkscape:path-effect
       effect="bspline"
       id="path-effect4-9-9"
       is_visible="true"
       lpeversion="1.3"
       weight="33.333333"
       steps="2"
       helper_size="0"
       apply_no_weight="true"
       apply_with_weight="true"
       only_selected="false"
       uniform="false" />
    <inkscape:path-effect
       effect="bspline"
       id="path-effect4-5-0-9"
       is_visible="true"
       lpeversion="1.3"
       weight="33.333333"
       steps="2"
       helper_size="0"
       apply_no_weight="true"
       apply_with_weight="true"
       only_selected="false"
       uniform="false" />
  </defs>
  <g
     inkscape:label="Layer 1"
     inkscape:groupmode="layer"
     id="layer1">
    <path
       id="path19"
       style="fill:none;stroke:#000000;stroke-width:0.352777;stroke-linejoin:round"
       d="M 53.61821,67.186071 C 53.57653,76.153278 35.035399,77.945644 33.115729,78.029988 30.514322,78.144286 10.118882,77.656289 10.225192,64.993781 c 0.10735,-12.785806 21.101087,-12.79575 22.890537,-12.79575 1.225219,0 18.530432,-0.370635 20.712271,7.573572"
       sodipodi:nodetypes="csssc" />
    <path
       d="m 23.333432,66.157033 c 2.88231,-1.297331 12.669667,-1.942981 18.715907,-0.04301 m 5.05359,-2.149318 c -1.74481,1.135291 -3.25956,1.828427 -5.05359,2.149318 -3.03896,0.543567 -6.13564,1.028579 -9.28934,1.041052 -3.222907,0.01275 -6.414497,-0.140731 -9.426567,-0.998039 -1.84872,-0.526194 -3.75754,-0.985917 -5.26778,-2.192331"
       style="display:inline;fill:none;stroke:#000000;stroke-width:0.352776;stroke-dasharray:none;stroke-opacity:1"
       id="path1" />
    <path
       style="fill:none;stroke:#808080;stroke-width:0.352778;stroke-linecap:butt;stroke-linejoin:round;stroke-dasharray:0.705555, 0.705555;stroke-dashoffset:0;stroke-opacity:1"
       d="m 104.87101,73.258612 c -0.74666,-2e-5 -1.54667,-3.463444 -1.54668,-7.764993 -1e-5,-4.301613 0.65668,-7.603138 1.40335,-7.603161"
       id="path18-1"
       sodipodi:nodetypes="ccc" />
    <path
       style="fill:none;stroke:#000000;stroke-width:0.352778;stroke-linecap:round;stroke-linejoin:round;stroke-dasharray:none;stroke-dashoffset:3.06667"
       d="m 104.72768,57.890458 c 0.88456,2.3e-5 1.75805,3.466566 1.75804,7.764991 -1e-5,4.298359 -0.73017,7.603143 -1.61471,7.603163"
       id="path17-2"
       sodipodi:nodetypes="ccc" />
    <path
       style="fill:none;stroke:#808080;stroke-width:0.352778;stroke-linecap:butt;stroke-linejoin:round;stroke-dasharray:0.705557, 0.705557;stroke-dashoffset:0.317501;stroke-opacity:1"
       d="m 62.549359,67.020131 c -0.16531,-1.2e-5 -0.344683,-1.226676 -0.344685,-3.416203 -3e-6,-2.189559 0.145367,-3.625673 0.310679,-3.625691"
       id="path18-1-0"
       sodipodi:nodetypes="ccc" />
    <path
       style="fill:none;stroke:#000000;stroke-width:0.352778;stroke-linecap:round;stroke-linejoin:round;stroke-dasharray:none;stroke-dashoffset:3.06667"
       d="m 62.515353,59.978237 c 0.19584,1.7e-5 0.391503,0.983887 0.391501,3.17182 -2e-6,2.187903 -0.161659,3.870062 -0.357495,3.870074"
       id="path17-2-9"
       sodipodi:nodetypes="ccc" />
    <path
       style="fill:none;stroke:#808080;stroke-width:0.352778;stroke-linecap:butt;stroke-linejoin:round;stroke-dasharray:0.705557, 0.705557;stroke-dashoffset:0.317501;stroke-opacity:1"
       d="m 55.803434,66.974798 c -0.16531,-1.2e-5 -0.345052,-1.193453 -0.345054,-3.376002 -3e-6,-2.182579 0.214761,-3.594433 0.380073,-3.594451"
       id="path18-1-0-0"
       sodipodi:nodetypes="ccc" />
    <path
       style="fill:none;stroke:#000000;stroke-width:0.352778;stroke-linecap:round;stroke-linejoin:round;stroke-dasharray:none;stroke-dashoffset:3.06667"
       d="m 55.838453,60.004345 c 0.19584,1.8e-5 0.319857,1.551846 0.319855,3.712492 -2e-6,2.160615 -0.159038,3.257949 -0.354874,3.257961"
       id="path17-2-9-5"
       sodipodi:nodetypes="ccc" />
    <path
       style="fill:#000000;fill-opacity:0.15000001;stroke:none;stroke-width:0.352778;stroke-linecap:round;stroke-linejoin:round;stroke-dasharray:none;stroke-dashoffset:3.06667"
       d="m 62.448179,67.020947 c 0.195836,-1.2e-5 0.357493,-1.682171 0.357495,-3.870074 2e-6,-2.187933 -0.195661,-3.171803 -0.391501,-3.17182 l -6.6769,0.02611 c 0.19584,1.8e-5 0.319857,1.551846 0.319855,3.712492 -2e-6,2.160615 -0.159038,3.257949 -0.354874,3.257961 z"
       id="path17-2-9-4"
       sodipodi:nodetypes="ccccccc" />
    <path
       id="path19-2"
       style="fill:none;stroke:#000000;stroke-width:0.352777;stroke-linejoin:round"
       d="m 64.677829,67.186071 c 2.413417,7.538786 7.615843,11.185985 17.86156,11.03216 8.026337,-0.120503 16.759568,-4.290286 22.401281,-4.959619 5.48034,-0.650187 14.04174,4.247264 21.93763,4.440734 10.20199,0.249975 19.29298,-4.755975 19.19164,-12.635582 -0.10056,-7.819085 -9.82948,-12.115243 -19.92897,-11.892669 -8.10318,0.178579 -16.01208,5.507577 -21.61629,4.720497 -5.433563,-0.763115 -14.084614,-5.105388 -21.989198,-5.141557 -8.677058,-0.0397 -16.326729,2.978158 -17.690289,6.948972"
       sodipodi:nodetypes="csssssssc" />
    <path
       d="m 77.796852,66.150489 c 2.027162,-1.11605 8.910725,-1.671481 13.163116,-0.037 m 3.554248,-1.848986 c -1.227145,0.976653 -2.292486,1.572935 -3.554248,1.848986 -2.137336,0.467613 -4.315267,0.884853 -6.5333,0.895583 -2.26671,0.01097 -4.511392,-0.121066 -6.629816,-0.85858 -1.300226,-0.452667 -2.64272,-0.848151 -3.70489,-1.885989"
       style="display:inline;fill:none;stroke:#000000;stroke-width:0.352776;stroke-dasharray:none;stroke-opacity:1"
       id="path1-4" />
    <path
       d="m 119.15877,66.15049 c 2.02716,-1.11605 8.91073,-1.671481 13.16312,-0.037 m 3.55425,-1.848986 c -1.22715,0.976653 -2.29249,1.572935 -3.55425,1.848986 -2.13734,0.467609 -4.31527,0.884849 -6.5333,0.895579 -2.26671,0.011 -4.51139,-0.12106 -6.62982,-0.858576 -1.30022,-0.452667 -2.64272,-0.848151 -3.70489,-1.885989"
       style="display:inline;fill:none;stroke:#000000;stroke-width:0.352776;stroke-dasharray:none;stroke-opacity:1"
       id="path1-4-9" />
    <path
       style="fill:none;fill-opacity:1;fill-rule:nonzero;stroke:#000000;stroke-width:0.290272;stroke-linecap:round;stroke-linejoin:round;stroke-dasharray:none;stroke-dashoffset:1.16417;stroke-opacity:1;paint-order:stroke markers fill"
       inkscape:path-effect="#path-effect4"
       inkscape:original-d="m 56.258234,15.796049 c 0.266598,-0.440314 0.53319,-0.880619 0.799794,-1.320941 3.048083,0.03161 6.095989,0.06322 9.144068,0.09482 0.341063,0.41706 0.682112,0.834103 1.023169,1.251155"
       transform="matrix(1.4770344,0,0,-1,-31.738425,74.638362)"
       d="m 56.258234,15.796049 c 0.266598,-0.440314 0.533191,-0.880619 2.190534,-1.084976 1.657343,-0.204358 4.705249,-0.172752 6.39982,0.05158 1.694571,0.224334 2.03562,0.641377 2.376677,1.058429"
       id="path2"
       sodipodi:nodetypes="cccc" />
    <path
       style="fill:none;fill-opacity:1;fill-rule:nonzero;stroke:#000000;stroke-width:0.290272;stroke-linecap:round;stroke-linejoin:round;stroke-dasharray:none;stroke-dashoffset:1.16417;stroke-opacity:1;paint-order:stroke markers fill"
       inkscape:path-effect="#path-effect4-5"
       inkscape:original-d="m 56.108105,15.437554 c 0.391707,-0.43169 0.783405,-0.863371 1.17512,-1.29507 2.918142,0.02828 5.836112,0.05656 8.754252,0.08484 0.430197,0.437931 0.860377,0.875845 1.290567,1.313768"
       transform="matrix(1.4770344,0,0,1,-31.922242,52.679335)"
       d="m 56.108105,15.437554 c 0.391707,-0.43169 0.783405,-0.863371 2.438334,-1.06508 1.654928,-0.201709 4.572898,-0.173431 6.247067,0.05968 1.674168,0.233106 2.104348,0.67102 2.534538,1.108943"
       id="path2-9"
       sodipodi:nodetypes="cccc" />
    <path
       id="path19-8"
       style="fill:none;stroke:#000000;stroke-width:0.352777;stroke-linejoin:round"
       d="M 53.634697,17.577662 C 53.593017,26.544869 35.051886,28.337235 33.132216,28.421579 30.530809,28.535877 10.135369,28.04788 10.241679,15.385372 10.349029,2.5995658 31.342766,2.5896218 33.132216,2.5896218 c 1.225219,0 18.68981,-0.2298464 20.871649,7.7143612"
       sodipodi:nodetypes="csssc" />
    <path
       d="m 23.349919,16.548624 c 2.88231,-1.297331 12.669667,-1.942981 18.715907,-0.04301 m 5.05359,-2.149318 c -1.74481,1.135291 -3.25956,1.828427 -5.05359,2.149318 -3.03896,0.543567 -6.13564,1.028579 -9.28934,1.041052 -3.222907,0.01275 -6.414497,-0.140731 -9.426567,-0.998039 -1.84872,-0.526194 -3.75754,-0.985917 -5.26778,-2.192331"
       style="display:inline;fill:none;stroke:#000000;stroke-width:0.352776;stroke-dasharray:none;stroke-opacity:1"
       id="path1-3" />
    <path
       style="fill:none;stroke:#808080;stroke-width:0.352778;stroke-linecap:butt;stroke-linejoin:round;stroke-dasharray:0.705555, 0.705555;stroke-dashoffset:0;stroke-opacity:1"
       d="m 105.92642,39.714601 c -0.74666,-2e-5 -1.54667,-3.463444 -1.54668,-7.764993 -1e-5,-4.301613 0.65668,-7.603138 1.40335,-7.603161"
       id="path18-1-1"
       sodipodi:nodetypes="ccc" />
    <path
       style="fill:none;stroke:#000000;stroke-width:0.352778;stroke-linecap:round;stroke-linejoin:round;stroke-dasharray:none;stroke-dashoffset:3.06667"
       d="m 105.78309,24.346447 c 0.88456,2.3e-5 1.75805,3.466566 1.75804,7.764991 -10e-6,4.298359 -0.73017,7.603143 -1.61471,7.603163"
       id="path17-2-0"
       sodipodi:nodetypes="ccc" />
    <path
       style="fill:none;stroke:#808080;stroke-width:0.352778;stroke-linecap:butt;stroke-linejoin:round;stroke-dasharray:0.705557, 0.705557;stroke-dashoffset:0.317501;stroke-opacity:1"
       d="m 62.464666,17.412538 c -0.16531,-1.2e-5 -0.344683,-1.226676 -0.344685,-3.416203 -3e-6,-2.189559 0.145367,-3.625673 0.310679,-3.625691"
       id="path18-1-0-08-1"
       sodipodi:nodetypes="ccc" />
    <path
       style="fill:none;stroke:#000000;stroke-width:0.352778;stroke-linecap:round;stroke-linejoin:round;stroke-dasharray:none;stroke-dashoffset:3.06667"
       d="m 62.43066,10.370644 c 0.19584,1.7e-5 0.391503,0.983887 0.391501,3.17182 -2e-6,2.187903 -0.161659,3.870062 -0.357495,3.870074"
       id="path17-2-9-0-2"
       sodipodi:nodetypes="ccc" />
    <path
       style="fill:none;stroke:#808080;stroke-width:0.352778;stroke-linecap:butt;stroke-linejoin:round;stroke-dasharray:0.705557, 0.705557;stroke-dashoffset:0.317501;stroke-opacity:1"
       d="m 55.819921,17.366389 c -0.16531,-1.2e-5 -0.345052,-1.193453 -0.345054,-3.376002 -3e-6,-2.182579 0.214761,-3.594433 0.380073,-3.594451"
       id="path18-1-0-0-4"
       sodipodi:nodetypes="ccc" />
    <path
       style="fill:none;stroke:#000000;stroke-width:0.352778;stroke-linecap:round;stroke-linejoin:round;stroke-dasharray:none;stroke-dashoffset:3.06667"
       d="m 55.85494,10.395936 c 0.19584,1.8e-5 0.319857,1.551846 0.319855,3.712492 -2e-6,2.160615 -0.159038,3.257949 -0.354874,3.257961"
       id="path17-2-9-5-7"
       sodipodi:nodetypes="ccc" />
    <path
       style="fill:#000000;fill-opacity:0.15000001;stroke:none;stroke-width:0.352778;stroke-linecap:round;stroke-linejoin:round;stroke-dasharray:none;stroke-dashoffset:3.06667"
       d="m 62.464666,17.412538 c 0.195836,-1.2e-5 0.357493,-1.682171 0.357495,-3.870074 2e-6,-2.187933 -0.195661,-3.171803 -0.391501,-3.17182 l -6.6769,0.02611 c 0.19584,1.8e-5 0.319857,1.551846 0.319855,3.712492 -2e-6,2.160615 -0.159038,3.257949 -0.354874,3.257961 z"
       id="path17-2-9-4-6"
       sodipodi:nodetypes="ccccccc" />
    <path
       id="path19-2-1"
       style="fill:none;stroke:#000000;stroke-width:0.352777;stroke-linejoin:round"
       d="m 65.733235,33.64206 c 2.413417,7.538786 7.615843,11.185985 17.86156,11.03216 8.026337,-0.120503 16.759565,-4.290286 22.401285,-4.959619 5.48034,-0.650187 14.04174,4.247264 21.93763,4.440734 10.20199,0.249975 19.29298,-4.755975 19.19164,-12.635582 -0.10056,-7.819085 -9.82948,-12.115243 -19.92897,-11.892669 -8.10318,0.178579 -16.01208,5.507577 -21.61629,4.720497 -5.43357,-0.763115 -14.084618,-5.105388 -21.989202,-5.141557 -8.677058,-0.0397 -16.326729,2.978158 -17.690289,6.948972"
       sodipodi:nodetypes="csssssssc" />
    <path
       d="m 78.852258,32.606478 c 2.027162,-1.11605 8.910725,-1.671481 13.163116,-0.037 m 3.554248,-1.848986 c -1.227145,0.976653 -2.292486,1.572935 -3.554248,1.848986 -2.137336,0.467613 -4.315267,0.884853 -6.5333,0.895583 -2.26671,0.01097 -4.511392,-0.121066 -6.629816,-0.85858 -1.300226,-0.452667 -2.64272,-0.848151 -3.70489,-1.885989"
       style="display:inline;fill:none;stroke:#000000;stroke-width:0.352776;stroke-dasharray:none;stroke-opacity:1"
       id="path1-4-6" />
    <path
       d="m 120.21418,32.606479 c 2.02716,-1.11605 8.91073,-1.671481 13.16312,-0.037 m 3.55425,-1.848986 c -1.22715,0.976653 -2.29249,1.572935 -3.55425,1.848986 -2.13734,0.467609 -4.31527,0.884849 -6.5333,0.895579 -2.26671,0.011 -4.51139,-0.12106 -6.62982,-0.858576 -1.30022,-0.452667 -2.64272,-0.848151 -3.70489,-1.885989"
       style="display:inline;fill:none;stroke:#000000;stroke-width:0.352776;stroke-dasharray:none;stroke-opacity:1"
       id="path1-4-9-1" />
    <path
       style="fill:none;fill-opacity:1;fill-rule:nonzero;stroke:#000000;stroke-width:0.290272;stroke-linecap:round;stroke-linejoin:round;stroke-dasharray:none;stroke-dashoffset:1.16417;stroke-opacity:1;paint-order:stroke markers fill"
       inkscape:path-effect="#path-effect4-9"
       inkscape:original-d="m 56.258234,15.796049 c 0.266598,-0.440314 0.53319,-0.880618 0.799794,-1.320941 2.228823,0.0614 6.686322,0.184201 6.686322,0.184201"
       transform="matrix(1.4770344,0,0,-1,-31.721938,25.029953)"
       d="m 56.258234,15.796049 c 0.266598,-0.440314 0.53319,-0.880618 1.780904,-1.070079 1.247713,-0.18946 3.476438,-0.128061 5.705212,-0.06666"
       id="path2-4"
       sodipodi:nodetypes="ccc" />
    <path
       style="fill:none;fill-opacity:1;fill-rule:nonzero;stroke:#000000;stroke-width:0.290272;stroke-linecap:round;stroke-linejoin:round;stroke-dasharray:none;stroke-dashoffset:1.16417;stroke-opacity:1;paint-order:stroke markers fill"
       inkscape:path-effect="#path-effect4-5-0"
       inkscape:original-d="m 56.108105,15.437554 c 0.391707,-0.43169 0.783405,-0.86337 1.17512,-1.29507 2.202915,0.06638 6.608598,0.199128 6.608598,0.199128"
       transform="matrix(1.4770344,0,0,1,-31.905755,3.0709258)"
       d="m 56.108105,15.437554 c 0.391707,-0.43169 0.783405,-0.86337 2.08072,-1.046031 1.297315,-0.182662 3.500132,-0.116287 5.702998,-0.04991"
       id="path2-9-9"
       sodipodi:nodetypes="ccc" />
    <path
       style="fill:none;stroke:#808080;stroke-width:0.352778;stroke-linecap:butt;stroke-linejoin:round;stroke-dasharray:0.705557, 0.705557;stroke-dashoffset:0.317501;stroke-opacity:1"
       d="m 63.208945,33.465671 c -0.16531,-1.2e-5 -0.344683,-1.226676 -0.344685,-3.416203 -3e-6,-2.189559 0.145367,-3.625673 0.310679,-3.625691"
       id="path18-1-0-08-1-6"
       sodipodi:nodetypes="ccc" />
    <path
       style="fill:none;stroke:#000000;stroke-width:0.352778;stroke-linecap:round;stroke-linejoin:round;stroke-dasharray:none;stroke-dashoffset:3.06667"
       d="m 56.599219,26.449069 c -0.19584,1.7e-5 -0.391503,0.955708 -0.391501,3.080979 2e-6,2.125241 0.160645,3.889462 0.356481,3.889474"
       id="path6"
       sodipodi:nodetypes="csc" />
    <path
       style="fill:none;stroke:#000000;stroke-width:0.352778;stroke-linecap:round;stroke-linejoin:round;stroke-dasharray:none;stroke-dashoffset:3.06667"
       d="m 63.174939,26.423777 c 0.19584,1.7e-5 0.391503,0.983887 0.391501,3.17182 -2e-6,2.187903 -0.161659,3.870062 -0.357495,3.870074"
       id="path17-2-9-0-2-1" />
    <path
       style="fill:none;stroke:#000000;stroke-width:0.352778;stroke-linecap:round;stroke-linejoin:round;stroke-dasharray:none;stroke-dashoffset:3.06667"
       d="m 56.599219,26.449069 c 0.19584,1.8e-5 0.319857,1.551846 0.319855,3.712492 -2e-6,2.160615 -0.159039,3.257949 -0.354875,3.257961"
       id="path17-2-9-5-7-3"
       sodipodi:nodetypes="ccc" />
    <path
       style="fill:#000000;fill-opacity:0.14;stroke:none;stroke-width:0.352778;stroke-linecap:round;stroke-linejoin:round;stroke-dasharray:none;stroke-dashoffset:3.06667"
       d="m 63.208945,33.465671 c 0.195836,-1.2e-5 0.357493,-1.682171 0.357495,-3.870074 2e-6,-2.187933 -0.195661,-3.171803 -0.391501,-3.17182 l -6.6769,0.02611 c 0.19584,1.8e-5 0.319857,1.551846 0.319855,3.712492 -2e-6,2.160615 -0.159038,3.257949 -0.354874,3.257961 z"
       id="path17-2-9-4-6-9"
       sodipodi:nodetypes="ccccccc" />
    <path
       style="fill:none;fill-opacity:1;fill-rule:nonzero;stroke:#000000;stroke-width:0.290272;stroke-linecap:round;stroke-linejoin:round;stroke-dasharray:none;stroke-dashoffset:1.16417;stroke-opacity:1;paint-order:stroke markers fill"
       inkscape:path-effect="#path-effect4-9-9"
       inkscape:original-d="m 59.292375,14.634017 c 0,0 4.606433,-0.04273 6.909721,-0.06409 0.341063,0.41706 0.682112,0.834103 1.023169,1.251155"
       transform="matrix(1.4770344,0,0,-1,-30.977659,41.083086)"
       d="m 59.292375,14.634017 c 2.30324,-0.02136 4.606433,-0.04273 5.928609,0.155122 1.322175,0.197848 1.663224,0.614891 2.004281,1.031943"
       id="path2-4-8"
       sodipodi:nodetypes="ccc" />
    <path
       style="fill:none;fill-opacity:1;fill-rule:nonzero;stroke:#000000;stroke-width:0.290272;stroke-linecap:round;stroke-linejoin:round;stroke-dasharray:none;stroke-dashoffset:1.16417;stroke-opacity:1;paint-order:stroke markers fill"
       inkscape:path-effect="#path-effect4-5-0-9"
       inkscape:original-d="m 59.393116,14.295464 c 0,0 4.429526,-0.04543 6.644361,-0.06814 0.430198,0.437932 0.860377,0.875845 1.290567,1.313768"
       transform="matrix(1.4770344,0,0,1,-31.161476,19.124058)"
       d="m 59.393116,14.295464 c 2.214787,-0.02271 4.429526,-0.04543 5.752043,0.162183 1.322516,0.207609 1.752695,0.645522 2.182885,1.083445"
       id="path2-9-9-4"
       sodipodi:nodetypes="ccc" />
    <path
       style="fill:#000000;fill-opacity:0.25;fill-rule:nonzero;stroke:#000000;stroke-width:0.352778;stroke-linecap:round;stroke-linejoin:round;stroke-dasharray:none;stroke-dashoffset:0.599722;stroke-opacity:1;marker-end:url(#ArrowWide);paint-order:stroke markers fill"
       d="m 59.270451,44.414436 c 0.06194,3.283494 0.123873,6.566986 0.18581,9.850481"
       id="path7"
       inkscape:path-effect="#path-effect7"
       inkscape:original-d="m 59.270451,44.414436 c 0.06194,3.283494 0.123873,6.566986 0.18581,9.850481"
       sodipodi:nodetypes="cc" />
    <text
       xml:space="preserve"
       style="font-size:3.88056px;fill:#000000;fill-opacity:1;fill-rule:nonzero;stroke:none;stroke-width:0.352777;stroke-linecap:round;stroke-linejoin:round;stroke-dasharray:none;stroke-dashoffset:2.26667;stroke-opacity:1;paint-order:stroke markers fill"
       x="54.332806"
       y="7.8443685"
       id="text7-5"><tspan
         sodipodi:role="line"
         id="tspan7-4"
         style="fill:#000000;fill-opacity:1;stroke:none;stroke-width:0.352778"
         x="54.332806"
         y="7.8443685">$\iota_1(\partial D^n\times [0,1))$</tspan></text>
    <text
       xml:space="preserve"
       style="font-size:3.88056px;fill:#000000;fill-opacity:1;fill-rule:nonzero;stroke:none;stroke-width:0.352777;stroke-linecap:round;stroke-linejoin:round;stroke-dasharray:none;stroke-dashoffset:2.26667;stroke-opacity:1;paint-order:stroke markers fill"
       x="36.59623"
       y="38.600929"
       id="text7-5-3"><tspan
         sodipodi:role="line"
         id="tspan7-4-5"
         style="fill:#000000;fill-opacity:1;stroke:none;stroke-width:0.352778"
         x="36.59623"
         y="38.600929">$\iota_2(\partial D^n\times [0,1))$</tspan></text>
    <text
       xml:space="preserve"
       style="font-size:3.88056px;fill:#000000;fill-opacity:1;fill-rule:nonzero;stroke:none;stroke-width:0.352777;stroke-linecap:round;stroke-linejoin:round;stroke-dasharray:none;stroke-dashoffset:2.26667;stroke-opacity:1;paint-order:stroke markers fill"
       x="53.364216"
       y="77.130981"
       id="text7-4-1"><tspan
         sodipodi:role="line"
         id="tspan7-0-0"
         style="fill:#000000;fill-opacity:1;stroke:none;stroke-width:0.352778"
         x="53.364216"
         y="77.130981">$X\+Y$</tspan></text>
  </g>
</svg>
