<?xml version="1.0" encoding="UTF-8" standalone="no"?>
<!-- Created with Inkscape (http://www.inkscape.org/) -->

<svg
   version="1.1"
   id="svg1"
   width="575.99994"
   height="134.39999"
   viewBox="0 0 575.99994 134.39999"
   sodipodi:docname="double-point.svg"
   inkscape:version="1.3.2 (091e20e, 2023-11-25)"
   xmlns:inkscape="http://www.inkscape.org/namespaces/inkscape"
   xmlns:sodipodi="http://sodipodi.sourceforge.net/DTD/sodipodi-0.dtd"
   xmlns="http://www.w3.org/2000/svg"
   xmlns:svg="http://www.w3.org/2000/svg">
  <defs
     id="defs1" />
  <sodipodi:namedview
     id="namedview1"
     pagecolor="#ffffff"
     bordercolor="#000000"
     borderopacity="0.25"
     inkscape:showpageshadow="2"
     inkscape:pageopacity="0.0"
     inkscape:pagecheckerboard="0"
     inkscape:deskcolor="#d1d1d1"
     inkscape:zoom="2.212488"
     inkscape:cx="283.61735"
     inkscape:cy="68.022967"
     inkscape:window-width="1728"
     inkscape:window-height="1051"
     inkscape:window-x="0"
     inkscape:window-y="38"
     inkscape:window-maximized="0"
     inkscape:current-layer="g1">
    <inkscape:page
       x="0"
       y="0"
       inkscape:label="1"
       id="page1"
       width="575.99994"
       height="134.39999"
       margin="0"
       bleed="0" />
  </sodipodi:namedview>
  <g
     id="g1"
     inkscape:groupmode="layer"
     inkscape:label="1">
    <path
       id="path1"
       d="m 182.5,2.914 h 67 v 72.078 h -67 z"
       style="fill:none;stroke:#000000;stroke-width:1;stroke-linecap:square;stroke-linejoin:round;stroke-miterlimit:4;stroke-dasharray:2, 2;stroke-dashoffset:0;stroke-opacity:1"
       transform="scale(1.3333333)" />
    <path
       id="path2"
       d="m 298.98257,52.178504 c 0,4.990667 -4.18667,9.037334 -9.35334,9.037334 -5.16666,0 -9.36,-4.046667 -9.36,-9.037334 0,-4.983999 4.19334,-9.030666 9.36,-9.030666 5.16667,0 9.35334,4.046667 9.35334,9.030666 z"
       style="fill:none;stroke:#000000;stroke-width:1.33333;stroke-linecap:square;stroke-linejoin:round;stroke-miterlimit:4;stroke-dasharray:2.66667, 2.66667;stroke-dashoffset:2.93333;stroke-opacity:1" />
    <path
       id="path3"
       d="m 197.781,33.227 c 0.321,-6.481 2.723,-14.606 8.274,-17.977 48.062,-29.195 46.05,66.906 -1.137,51.215 -11.945,-3.973 -19.141,-18.903 -14.871,-31.313 4.723,-13.718 24.512,-20.273 36.18,-10.336 11.929,10.157 4.961,30.801 -10.012,28.946 -12.387,-0.43 -18.766,-8.039 -18.434,-20.535 z"
       style="fill:none;stroke:#0000ff;stroke-width:0.5;stroke-linecap:round;stroke-linejoin:round;stroke-miterlimit:4;stroke-dasharray:none;stroke-opacity:1"
       transform="scale(1.3333333)" />
    <path
       id="path4"
       d="m 144.98,102.568 -1.849,1.069 0.001,-2.136 z"
       style="fill:#0000ff;fill-opacity:1;fill-rule:evenodd;stroke:#0000ff;stroke-width:0.28489;stroke-linecap:butt;stroke-linejoin:miter;stroke-miterlimit:4;stroke-dasharray:none;stroke-opacity:1"
       transform="matrix(1.3333333,-0.80993867,0.80993867,1.3333333,0,0)" />
    <path
       id="path5"
       d="m -203.048,1.511 -2.051,1.186 V 0.325 Z"
       style="fill:#0000ff;fill-opacity:1;fill-rule:evenodd;stroke:#0000ff;stroke-width:0.316303;stroke-linecap:butt;stroke-linejoin:miter;stroke-miterlimit:4;stroke-dasharray:none;stroke-opacity:1"
       transform="matrix(-1.3333333,-0.443392,0.443392,-1.3333333,0,0)" />
    <path
       id="path6"
       d="m 28.398,180.749 -2.047,1.181 0.003,-2.364 z"
       style="fill:#0000ff;fill-opacity:1;fill-rule:evenodd;stroke:#0000ff;stroke-width:0.3152;stroke-linecap:butt;stroke-linejoin:miter;stroke-miterlimit:4;stroke-dasharray:none;stroke-opacity:1"
       transform="matrix(0.458736,-1.3333333,1.3333333,0.458736,0,0)" />
    <path
       id="path7"
       d="m 144.476,-97.286 -1.644,0.951 -0.002,-1.901 z"
       style="fill:#0000ff;fill-opacity:1;fill-rule:evenodd;stroke:#0000ff;stroke-width:0.253779;stroke-linecap:butt;stroke-linejoin:miter;stroke-miterlimit:4;stroke-dasharray:none;stroke-opacity:1"
       transform="matrix(1.3333333,1.1354693,-1.1354693,1.3333333,0,0)" />
    <path
       id="path8"
       d="m -217.656,-36.425 -2.159,1.245 0.002,-2.492 z"
       style="fill:#0000ff;fill-opacity:1;fill-rule:evenodd;stroke:#0000ff;stroke-width:0.332295;stroke-linecap:butt;stroke-linejoin:miter;stroke-miterlimit:4;stroke-dasharray:none;stroke-opacity:1"
       transform="matrix(-1.3333333,-0.1055104,0.1055104,-1.3333333,0,0)" />
    <path
       id="path9"
       d="m 200.234,23.922 c 0,0.363 -0.265,0.66 -0.593,0.66 -0.329,0 -0.59,-0.297 -0.59,-0.66 0,-0.363 0.261,-0.656 0.59,-0.656 0.328,0 0.593,0.293 0.593,0.656 z"
       style="fill:#000000;fill-opacity:1;fill-rule:nonzero;stroke:#000000;stroke-width:2;stroke-linecap:round;stroke-linejoin:round;stroke-miterlimit:4;stroke-dasharray:none;stroke-opacity:1"
       transform="scale(1.3333333)" />
    <path
       id="path10"
       d="m 146.523,36.441 c 0,0.27 -0.003,0.539 -0.019,0.805 -0.418,8.465 -7.422,15.203 -16.004,15.203 -8.848,0 -16.023,-7.168 -16.023,-16.008 0,-8.839 7.175,-16.003 16.023,-16.003 7,0 16.07,5.144 16.023,16.003 z"
       style="fill:none;stroke:#0000ff;stroke-width:0.5;stroke-linecap:square;stroke-linejoin:round;stroke-miterlimit:4;stroke-dasharray:none;stroke-opacity:1"
       transform="scale(1.3333333)" />
    <path
       id="path11"
       d="m 29.325,-147.991 2.16,1.248 0.001,-2.496 z"
       style="fill:#0000ff;fill-opacity:1;fill-rule:evenodd;stroke:#0000ff;stroke-width:0.332921;stroke-linecap:butt;stroke-linejoin:miter;stroke-miterlimit:4;stroke-dasharray:none;stroke-opacity:1"
       transform="matrix(-0.06636413,1.3333333,-1.3333333,-0.06636413,0,0)" />
    <path
       id="path12"
       d="m -131.055,-52.449 2.164,1.25 v -2.5 z"
       style="fill:#0000ff;fill-opacity:1;fill-rule:evenodd;stroke:#0000ff;stroke-width:0.333334;stroke-linecap:butt;stroke-linejoin:miter;stroke-miterlimit:4;stroke-dasharray:none;stroke-opacity:1"
       transform="scale(-1.3333333)" />
    <path
       id="path13"
       d="m -36.996,114.477 2.16,1.25 v -2.5 z"
       style="fill:#0000ff;fill-opacity:1;fill-rule:evenodd;stroke:#0000ff;stroke-width:0.333334;stroke-linecap:butt;stroke-linejoin:miter;stroke-miterlimit:4;stroke-dasharray:none;stroke-opacity:1"
       transform="matrix(0,-1.3333333,1.3333333,0,0,0)" />
    <path
       id="path14"
       d="m 129.949,20.438 2.16,1.25 v -2.5 z"
       style="fill:#0000ff;fill-opacity:1;fill-rule:evenodd;stroke:#0000ff;stroke-width:0.333334;stroke-linecap:butt;stroke-linejoin:miter;stroke-miterlimit:4;stroke-dasharray:none;stroke-opacity:1"
       transform="scale(1.3333333)" />
    <path
       id="path15"
       d="m 158.078,36.441 c 4.227,0 8.457,0 12.684,0"
       style="fill:none;stroke:#000000;stroke-width:1;stroke-linecap:square;stroke-linejoin:round;stroke-miterlimit:4;stroke-dasharray:none;stroke-opacity:1"
       transform="scale(1.3333333)" />
    <path
       id="path16"
       d="m 173.645,36.441 -4.325,2.5 v -5 z"
       style="fill:#000000;fill-opacity:1;fill-rule:evenodd;stroke:#000000;stroke-width:0.666667;stroke-linecap:butt;stroke-linejoin:miter;stroke-miterlimit:4;stroke-dasharray:none;stroke-opacity:1"
       transform="scale(1.3333333)" />
    <text
       xml:space="preserve"
       style="font-size:6.66667px;fill:#000000;fill-opacity:1;stroke:none;stroke-width:1.333;stroke-linecap:round;stroke-linejoin:round;stroke-dasharray:2.66601, 2.66601;stroke-dashoffset:4.39891;paint-order:stroke markers fill"
       x="117.07648"
       y="49.976261"
       id="text16"><tspan
         sodipodi:role="line"
         id="tspan16"
         x="117.07648"
         y="49.976261">$S^1$</tspan></text>
    <text
       xml:space="preserve"
       style="font-size:6.66667px;fill:#000000;fill-opacity:1;stroke:none;stroke-width:1.333;stroke-linecap:round;stroke-linejoin:round;stroke-dasharray:2.66601, 2.66601;stroke-dashoffset:4.39891;paint-order:stroke markers fill"
       x="343.08066"
       y="50.586124"
       id="text16-4"><tspan
         sodipodi:role="line"
         id="tspan16-6"
         x="343.08066"
         y="50.586124">$\R^2\setminus \{0\}$</tspan></text>
  </g>
</svg>
