<?xml version="1.0" encoding="UTF-8" standalone="no"?>
<!-- Created with Inkscape (http://www.inkscape.org/) -->

<svg
   width="6in"
   height="1.6in"
   viewBox="0 0 152.40001 40.639999"
   version="1.1"
   id="svg1"
   inkscape:version="1.3.2 (091e20e, 2023-11-25)"
   sodipodi:docname="pair-of-pants.svg"
   inkscape:export-filename="pair-of-pants.pdf"
   inkscape:export-xdpi="96"
   inkscape:export-ydpi="96"
   xmlns:inkscape="http://www.inkscape.org/namespaces/inkscape"
   xmlns:sodipodi="http://sodipodi.sourceforge.net/DTD/sodipodi-0.dtd"
   xmlns="http://www.w3.org/2000/svg"
   xmlns:svg="http://www.w3.org/2000/svg">
  <sodipodi:namedview
     id="namedview1"
     pagecolor="#ffffff"
     bordercolor="#000000"
     borderopacity="0.25"
     inkscape:showpageshadow="2"
     inkscape:pageopacity="0.0"
     inkscape:pagecheckerboard="0"
     inkscape:deskcolor="#d1d1d1"
     inkscape:document-units="mm"
     inkscape:zoom="1.3335656"
     inkscape:cx="361.06211"
     inkscape:cy="118.8543"
     inkscape:window-width="1728"
     inkscape:window-height="1051"
     inkscape:window-x="0"
     inkscape:window-y="38"
     inkscape:window-maximized="0"
     inkscape:current-layer="layer1" />
  <defs
     id="defs1">
    <inkscape:path-effect
       effect="simplify"
       id="path-effect6"
       is_visible="true"
       lpeversion="1.3"
       threshold="17.2414"
       steps="1"
       smooth_angles="360"
       helper_size="0"
       simplify_individual_paths="false"
       simplify_just_coalesce="false" />
    <inkscape:path-effect
       effect="simplify"
       id="path-effect4"
       is_visible="true"
       lpeversion="1.3"
       threshold="17.2414"
       steps="1"
       smooth_angles="360"
       helper_size="0"
       simplify_individual_paths="false"
       simplify_just_coalesce="false" />
    <inkscape:path-effect
       effect="simplify"
       id="path-effect3"
       is_visible="true"
       lpeversion="1.3"
       threshold="17.2414"
       steps="1"
       smooth_angles="360"
       helper_size="0"
       simplify_individual_paths="false"
       simplify_just_coalesce="false" />
    <inkscape:path-effect
       effect="simplify"
       id="path-effect2"
       is_visible="true"
       lpeversion="1.3"
       threshold="17.2414"
       steps="1"
       smooth_angles="360"
       helper_size="0"
       simplify_individual_paths="false"
       simplify_just_coalesce="false" />
    <inkscape:path-effect
       effect="simplify"
       id="path-effect2-5"
       is_visible="true"
       lpeversion="1.3"
       threshold="17.2414"
       steps="1"
       smooth_angles="360"
       helper_size="0"
       simplify_individual_paths="false"
       simplify_just_coalesce="false" />
    <inkscape:path-effect
       effect="simplify"
       id="path-effect2-5-5"
       is_visible="true"
       lpeversion="1.3"
       threshold="17.2414"
       steps="1"
       smooth_angles="360"
       helper_size="0"
       simplify_individual_paths="false"
       simplify_just_coalesce="false" />
    <inkscape:path-effect
       effect="simplify"
       id="path-effect6-6"
       is_visible="true"
       lpeversion="1.3"
       threshold="17.2414"
       steps="1"
       smooth_angles="360"
       helper_size="0"
       simplify_individual_paths="false"
       simplify_just_coalesce="false" />
  </defs>
  <g
     inkscape:label="Layer 1"
     inkscape:groupmode="layer"
     id="layer1">
    <path
       d="m 75.569886,20.18543 c 1.647816,-1.297346 7.243248,-1.943004 10.699879,-0.04301 m 2.889137,-2.149344 c -0.997508,1.135304 -1.86349,1.828449 -2.889137,2.149344 -1.73737,0.543573 -3.507742,1.028591 -5.310712,1.041064 -1.842535,0.01275 -3.667167,-0.140733 -5.389167,-0.998051 -1.056912,-0.5262 -2.148184,-0.985929 -3.011589,-2.192357"
       style="display:inline;fill:none;stroke:#000000;stroke-width:0.352776;stroke-dasharray:none;stroke-opacity:1"
       id="path1" />
    <path
       style="fill:none;stroke:#0000ff;stroke-width:0.352778;stroke-linecap:round;stroke-linejoin:round;stroke-dasharray:none;stroke-dashoffset:3.06667;stroke-opacity:1"
       d="m 110.19434,1.7417712 c 0.88456,1.69e-5 1.75805,2.5523976 1.75804,5.717285 -1e-5,3.1648388 -0.73017,5.5981178 -1.61471,5.5981328"
       id="path5" />
    <path
       style="fill:none;stroke:#0000ff;stroke-width:0.353;stroke-linecap:square;stroke-linejoin:round;stroke-dasharray:1.059, 1.059;stroke-dashoffset:0;stroke-opacity:0.5"
       d="m 110.19434,1.7417712 c -0.88456,1.69e-5 -1.75806,2.5523976 -1.75805,5.717285 1e-5,3.1648388 1.01684,5.5981178 1.90138,5.5981328"
       id="path17-2-9-9" />
    <path
       style="fill:none;stroke:#0000ff;stroke-width:0.352778;stroke-linecap:round;stroke-linejoin:round;stroke-dasharray:none;stroke-dashoffset:3.06667;stroke-opacity:1"
       d="m 110.19434,26.741943 c 0.88456,1.7e-5 1.75805,2.552398 1.75804,5.717285 -1e-5,3.164839 -0.73017,5.598118 -1.61471,5.598133"
       id="path5-4" />
    <path
       style="fill:none;stroke:#0000ff;stroke-width:0.353;stroke-linecap:square;stroke-linejoin:round;stroke-dasharray:1.059, 1.059;stroke-dashoffset:0;stroke-opacity:0.5"
       d="m 110.19434,26.741943 c -0.88456,1.7e-5 -1.75806,2.552398 -1.75805,5.717285 1e-5,3.164839 1.01684,5.598118 1.90138,5.598133"
       id="path17-2-9-9-1" />
    <path
       style="fill:none;fill-opacity:0.15;stroke:#000000;stroke-width:0.352999;stroke-linecap:round;stroke-linejoin:round;stroke-dasharray:none;stroke-dashoffset:0;stroke-opacity:1"
       d="m 95.048367,23.062612 c -1.284414,-0.07516 -2.572663,0.06122 -3.837367,0.276056 -2.03157,0.345108 -4.044768,0.871522 -5.930525,1.709861 -1.103306,0.490489 -2.155163,1.114189 -3.057598,1.927037 -0.603059,0.543192 -1.23889,1.08036 -1.657389,1.787319 -0.203719,0.344136 -0.302021,0.753641 -0.233483,1.153235 0.118585,0.691377 0.538819,1.284812 0.99465,1.798115 0.602677,0.678665 1.293837,1.278657 2.060884,1.765962 1.53608,0.975871 3.233176,1.676349 4.967166,2.211097 1.678135,0.517524 3.402544,0.926866 5.157638,1.047916 0.463328,0.03196 0.929202,0.04331 1.392697,0.0082"
       id="path3"
       inkscape:path-effect="#path-effect3"
       inkscape:original-d="m 95.048367,23.062612 c -3.073514,-0.211672 -9.831972,1.177645 -12.65871,3.76248 -0.75311,0.688661 -2.085148,1.736646 -2.081848,2.798947 0.0032,1.04134 0.920879,2.058889 1.762808,2.848124 2.814607,2.638448 9.664819,4.520836 12.834423,4.275199"
       transform="translate(15.289303,-10.005423)"
       sodipodi:nodetypes="csssc" />
    <path
       id="path17-2-9"
       style="fill:none;stroke:#0000ff;stroke-width:0.352778;stroke-linecap:round;stroke-linejoin:round;stroke-dasharray:none;stroke-dashoffset:3.06667;stroke-opacity:1"
       d="m 51.338811,12.635923 c -0.88456,2.3e-5 -1.758054,3.466566 -1.758048,7.764991 1.3e-5,4.298359 1.01684,7.603143 1.90138,7.603163 M 51.338811,12.635923 c 0.88456,2.3e-5 1.758054,3.466566 1.758048,7.764991 -1.3e-5,4.298359 -0.730176,7.603143 -1.614716,7.603163"
       inkscape:label="path17-2-9" />
    <text
       xml:space="preserve"
       style="font-size:3.88056px;fill:#0000ff;fill-opacity:1;stroke:none;stroke-width:0.352999;stroke-linecap:square;stroke-linejoin:round;stroke-dasharray:none;stroke-dashoffset:0;stroke-opacity:0.5"
       x="42.777294"
       y="21.471094"
       id="text5"><tspan
         sodipodi:role="line"
         id="tspan5"
         style="fill:#0000ff;fill-opacity:1;stroke:none;stroke-width:0.353;stroke-dasharray:none"
         x="42.777294"
         y="21.471094">$S^1$</tspan></text>
    <text
       xml:space="preserve"
       style="font-size:3.88056px;fill:#0000ff;fill-opacity:1;stroke:none;stroke-width:0.352999;stroke-linecap:square;stroke-linejoin:round;stroke-dasharray:none;stroke-dashoffset:0;stroke-opacity:0.5"
       x="111.83508"
       y="21.374458"
       id="text5-1"><tspan
         sodipodi:role="line"
         id="tspan5-8"
         style="fill:#0000ff;fill-opacity:1;stroke:none;stroke-width:0.353;stroke-dasharray:none"
         x="111.83508"
         y="21.374458">$S^1\sqcup S^1$</tspan></text>
    <text
       xml:space="preserve"
       style="font-size:3.88056px;fill:#000000;fill-opacity:1;stroke:none;stroke-width:0.352999;stroke-linecap:square;stroke-linejoin:round;stroke-dasharray:none;stroke-dashoffset:0;stroke-opacity:0.5"
       x="76.385315"
       y="7.4873314"
       id="text5-0"><tspan
         sodipodi:role="line"
         id="tspan5-6"
         style="fill:#000000;fill-opacity:1;stroke:none;stroke-width:0.353;stroke-dasharray:none"
         x="76.385315"
         y="7.4873314">$W$</tspan></text>
    <path
       style="fill:none;fill-opacity:1;stroke:#000000;stroke-width:0.35299902;stroke-linecap:square;stroke-linejoin:round;stroke-dasharray:none;stroke-dashoffset:0;stroke-opacity:1"
       d="m 51.33881,12.635923 c 10.017227,1.521054 20.360341,1.498911 30.245211,-0.875576 6.844778,-1.644215 12.820312,-5.5111622 19.144049,-8.6374469 2.91767,-1.4424149 6.27859,-1.5618824 9.46629,-1.3811239"
       id="path6"
       inkscape:path-effect="#path-effect6"
       inkscape:original-d="m 51.33881,12.635923 c 16.836158,2.573384 35.267234,0.725507 49.38926,-9.5130229 2.8883,-1.4344252 6.28346,-1.5653746 9.46629,-1.3811239"
       sodipodi:nodetypes="ccc" />
    <path
       style="fill:none;fill-opacity:1;stroke:#000000;stroke-width:0.352999;stroke-linecap:square;stroke-linejoin:round;stroke-dasharray:none;stroke-dashoffset:0;stroke-opacity:1"
       d="m 51.338833,11.79506 c 9.47881,1.439037 19.220675,1.755037 28.677637,-0.02408 7.402091,-1.39254 13.936203,-5.2985035 20.7116,-8.6480769 2.91767,-1.4424149 6.27859,-1.5618824 9.46629,-1.3811239"
       id="path6-4"
       inkscape:path-effect="#path-effect6-6"
       inkscape:original-d="m 51.338833,11.79506 c 16.836158,2.573384 35.267211,1.56637 49.389237,-8.6721599 2.8883,-1.4344252 6.28346,-1.5653746 9.46629,-1.3811239"
       sodipodi:nodetypes="ccc"
       transform="matrix(1,0,0,-1,0.14331,39.799137)" />
  </g>
</svg>
