<?xml version="1.0" encoding="UTF-8" standalone="no"?>
<!-- Created with Inkscape (http://www.inkscape.org/) -->

<svg
   width="6in"
   height="1.5in"
   viewBox="0 0 152.4 38.099999"
   version="1.1"
   id="svg1"
   inkscape:version="1.3.2 (091e20e, 2023-11-25)"
   sodipodi:docname="placeholder.svg"
   inkscape:export-filename="../../../Harvard-Thesis-v2/diagrams/placeholder.pdf"
   inkscape:export-xdpi="96"
   inkscape:export-ydpi="96"
   xmlns:inkscape="http://www.inkscape.org/namespaces/inkscape"
   xmlns:sodipodi="http://sodipodi.sourceforge.net/DTD/sodipodi-0.dtd"
   xmlns="http://www.w3.org/2000/svg"
   xmlns:svg="http://www.w3.org/2000/svg">
  <sodipodi:namedview
     id="namedview1"
     pagecolor="#ffffff"
     bordercolor="#000000"
     borderopacity="0.25"
     inkscape:showpageshadow="2"
     inkscape:pageopacity="0.0"
     inkscape:pagecheckerboard="0"
     inkscape:deskcolor="#d1d1d1"
     inkscape:document-units="mm"
     inkscape:zoom="1.1726564"
     inkscape:cx="302.3051"
     inkscape:cy="97.641563"
     inkscape:window-width="1728"
     inkscape:window-height="1051"
     inkscape:window-x="0"
     inkscape:window-y="38"
     inkscape:window-maximized="0"
     inkscape:current-layer="layer1" />
  <defs
     id="defs1" />
  <g
     inkscape:label="Layer 1"
     inkscape:groupmode="layer"
     id="layer1">
    <rect
       style="fill:none;stroke:#000000;stroke-width:0.352777;stroke-linecap:square;stroke-linejoin:round"
       id="rect1"
       width="148.74805"
       height="34.542522"
       x="1.7185607"
       y="1.7185605" />
    <path
       d="M 25.038458,12.715795 H 19.653686 V 27.20619 H 17.649578 V 12.715795 H 12.264805 V 10.773442 H 25.038458 Z M 36.992251,27.20619 H 27.06281 V 10.773442 h 9.929441 v 1.942353 h -7.925334 v 4.502728 h 7.925334 v 1.942352 h -7.925334 v 6.102962 h 7.925334 z m 16.599676,0 H 51.58782 V 13.046878 l -4.190407,9.634513 h -1.194367 l -4.16004,-9.634513 V 27.20619 H 40.170481 V 10.773442 h 2.732873 l 4.018337,9.148924 3.886753,-9.148924 h 2.783483 z M 67.499216,15.739685 q 0,1.092574 -0.354262,2.030642 -0.344139,0.927033 -0.971688,1.61127 -0.779375,0.849781 -1.842159,1.280188 -1.062784,0.419372 -2.682265,0.419372 H 59.644735 V 27.20619 H 57.640627 V 10.773442 h 4.089189 q 1.356315,0 2.297638,0.25383 0.941323,0.242794 1.67009,0.772527 0.860349,0.629058 1.32595,1.567126 0.475722,0.938068 0.475722,2.37276 z m -2.085081,0.05519 q 0,-0.849779 -0.273287,-1.478836 -0.273288,-0.629063 -0.829985,-1.026362 -0.485844,-0.342118 -1.113392,-0.485588 -0.617427,-0.154506 -1.568872,-0.154506 h -1.983864 v 6.566479 h 1.690333 q 1.21461,0 1.973742,-0.231758 0.759131,-0.242795 1.234854,-0.761491 0.475722,-0.529733 0.668036,-1.114646 0.202435,-0.584914 0.202435,-1.313296 z m 15.962007,-3.134256 q 0.92108,1.103611 1.406924,2.703845 0.495966,1.600234 0.495966,3.630876 0,2.030642 -0.506088,3.641912 -0.495966,1.600233 -1.396802,2.670735 -0.931202,1.114645 -2.206542,1.677487 -1.265219,0.562841 -2.894822,0.562841 -1.589116,0 -2.894821,-0.573877 -1.295585,-0.573878 -2.206543,-1.666451 -0.910957,-1.092574 -1.406924,-2.681771 -0.485844,-1.589198 -0.485844,-3.630876 0,-2.00857 0.485844,-3.597768 0.485844,-1.600234 1.417045,-2.736953 0.890715,-1.081537 2.206543,-1.655414 1.32595,-0.573877 2.8847,-0.573877 1.619481,0 2.904943,0.584913 1.295585,0.573877 2.196421,1.644378 z M 81.19395,18.99534 q 0,-3.200469 -1.315827,-4.933136 -1.315829,-1.743703 -3.593223,-1.743703 -2.297639,0 -3.613466,1.743703 -1.305707,1.732667 -1.305707,4.933136 0,3.233576 1.336072,4.955207 1.336071,1.710594 3.583101,1.710594 2.247029,0 3.572979,-1.710594 1.336071,-1.721631 1.336071,-4.955207 z m 17.733311,8.210855 h -2.601297 l -5.040628,-6.533369 h -2.82397 v 6.533369 H 86.457258 V 10.773442 h 4.220772 q 1.366437,0 2.277395,0.19865 0.910958,0.187614 1.639724,0.684238 0.819861,0.562841 1.275343,1.423656 0.465595,0.849779 0.465595,2.163075 0,1.776812 -0.81986,2.979747 -0.819861,1.191897 -2.25715,1.798883 z M 94.240887,15.397567 q 0,-0.706311 -0.2328,-1.247079 -0.222679,-0.551805 -0.74901,-0.927032 -0.435235,-0.320048 -1.032418,-0.441444 -0.597184,-0.132434 -1.406924,-0.132434 h -2.358369 v 6.202287 h 2.02435 q 0.951445,0 1.659968,-0.176577 0.708523,-0.187614 1.204489,-0.684239 0.455479,-0.463516 0.668036,-1.059465 0.222678,-0.606985 0.222678,-1.534017 z M 112.75358,27.20619 h -2.13569 l -1.47778,-4.57998 h -6.5184 l -1.47778,4.57998 h -2.034471 l 5.485991,-16.432748 h 2.67214 z m -4.23089,-6.456116 -2.64178,-8.067388 -2.6519,8.067388 z m 18.9884,6.456116 h -2.60129 l -5.04063,-6.533369 h -2.82397 v 6.533369 h -2.00411 V 10.773442 h 4.22077 q 1.36644,0 2.27739,0.19865 0.91096,0.187614 1.63973,0.684238 0.81986,0.562841 1.27535,1.423656 0.46559,0.849779 0.46559,2.163075 0,1.776812 -0.81986,2.979747 -0.81986,1.191897 -2.25715,1.798883 z m -4.68637,-11.808623 q 0,-0.706311 -0.2328,-1.247079 -0.22268,-0.551805 -0.74901,-0.927032 -0.43524,-0.320048 -1.03242,-0.441444 -0.59718,-0.132434 -1.40693,-0.132434 h -2.35836 v 6.202287 h 2.02434 q 0.95145,0 1.65998,-0.176577 0.70852,-0.187614 1.20448,-0.684239 0.45548,-0.463516 0.66804,-1.059465 0.22268,-0.606985 0.22268,-1.534017 z m 17.09564,-4.624125 -5.3038,9.226177 v 7.206571 h -2.00411 v -6.974812 l -5.32404,-9.457936 h 2.21667 l 4.11955,7.35004 4.16004,-7.35004 z"
       id="text1"
       style="font-size:21.6454px;fill-opacity:0.15;stroke-width:0.353;stroke-linecap:square;stroke-linejoin:round"
       aria-label="TEMPORARY" />
  </g>
</svg>
