<?xml version="1.0" encoding="UTF-8" standalone="no"?>
<!-- Created with Inkscape (http://www.inkscape.org/) -->

<svg
   width="6in"
   height="2in"
   viewBox="0 0 152.4 50.8"
   version="1.1"
   id="svg1"
   inkscape:version="1.3.2 (091e20e, 2023-11-25)"
   sodipodi:docname="placeholder.svg"
   inkscape:export-filename="../../../Harvard-Thesis-v2/diagrams/placeholder.pdf"
   inkscape:export-xdpi="96"
   inkscape:export-ydpi="96"
   xmlns:inkscape="http://www.inkscape.org/namespaces/inkscape"
   xmlns:sodipodi="http://sodipodi.sourceforge.net/DTD/sodipodi-0.dtd"
   xmlns="http://www.w3.org/2000/svg"
   xmlns:svg="http://www.w3.org/2000/svg">
  <sodipodi:namedview
     id="namedview1"
     pagecolor="#ffffff"
     bordercolor="#000000"
     borderopacity="0.25"
     inkscape:showpageshadow="2"
     inkscape:pageopacity="0.0"
     inkscape:pagecheckerboard="0"
     inkscape:deskcolor="#d1d1d1"
     inkscape:document-units="mm"
     inkscape:zoom="1.1726564"
     inkscape:cx="254.55028"
     inkscape:cy="128.34109"
     inkscape:window-width="1728"
     inkscape:window-height="1051"
     inkscape:window-x="0"
     inkscape:window-y="38"
     inkscape:window-maximized="0"
     inkscape:current-layer="layer1" />
  <defs
     id="defs1" />
  <g
     inkscape:label="Layer 1"
     inkscape:groupmode="layer"
     id="layer1">
    <rect
       style="fill:none;stroke:#000000;stroke-width:0.352777;stroke-linecap:square;stroke-linejoin:round"
       id="rect1"
       width="148.74805"
       height="47.362881"
       x="1.7185607"
       y="1.7185605" />
    <path
       d="m 27.021232,18.768054 h -5.62273 V 32.645206 H 19.305831 V 18.768054 h -5.62273 v -1.860152 h 13.338131 z m 12.48204,13.877152 H 29.135041 V 16.907902 h 10.368231 v 1.860152 h -8.27556 v 4.312169 h 8.27556 v 1.860151 h -8.27556 v 5.844681 h 8.27556 z m 17.333229,0 h -2.09267 V 19.085125 l -4.375584,9.226774 H 49.1211 L 44.777224,19.085125 V 32.645206 H 42.821951 V 16.907902 h 2.853641 l 4.19591,8.761736 4.058512,-8.761736 h 2.906487 z M 71.358365,21.663971 q 0,1.046335 -0.369917,1.944704 -0.359347,0.8878 -1.014628,1.54308 -0.813816,0.813817 -1.923566,1.226009 -1.109749,0.401624 -2.800796,0.401624 h -2.09267 v 5.865818 H 61.064117 V 16.907902 h 4.269893 q 1.416252,0 2.399173,0.243088 0.982921,0.232519 1.743892,0.739833 0.898369,0.602436 1.384545,1.500804 0.496745,0.898369 0.496745,2.272344 z m -2.177223,0.05285 q 0,-0.813816 -0.285364,-1.416251 -0.285364,-0.602436 -0.866662,-0.982921 -0.507314,-0.32764 -1.162594,-0.465038 -0.644712,-0.147967 -1.638202,-0.147967 h -2.071532 v 6.288581 h 1.76503 q 1.268285,0 2.060963,-0.22195 0.792678,-0.232519 1.289423,-0.729264 0.496745,-0.507314 0.697557,-1.067473 0.211381,-0.56016 0.211381,-1.257717 z m 16.667381,-3.001608 q 0.961783,1.056905 1.469097,2.589416 0.517883,1.532511 0.517883,3.477215 0,1.944704 -0.528452,3.487784 -0.517883,1.532511 -1.458528,2.557708 -0.972352,1.067473 -2.304051,1.606495 -1.32113,0.539021 -3.022746,0.539021 -1.65934,0 -3.022746,-0.54959 -1.352838,-0.549591 -2.304052,-1.595926 -0.951213,-1.046335 -1.469097,-2.568277 -0.507314,-1.521942 -0.507314,-3.477215 0,-1.923566 0.507314,-3.445508 0.507314,-1.532511 1.479666,-2.621123 0.930076,-1.035766 2.304052,-1.585356 1.384544,-0.54959 3.012177,-0.54959 1.691047,0 3.033315,0.560159 1.352837,0.54959 2.293482,1.574787 z m -0.190243,6.066631 q 0,-3.065023 -1.373975,-4.724362 -1.373976,-1.669909 -3.75201,-1.669909 -2.399173,0 -3.773148,1.669909 -1.363407,1.659339 -1.363407,4.724362 0,3.096729 1.395114,4.7455 1.395113,1.638201 3.741441,1.638201 2.346327,0 3.730872,-1.638201 1.395113,-1.648771 1.395113,-4.7455 z m 18.51696,7.863367 h -2.71625 l -5.263378,-6.256873 h -2.948763 v 6.256873 H 91.154178 V 16.907902 h 4.407291 q 1.426821,0 2.378035,0.190243 0.951214,0.179674 1.712185,0.655281 0.856091,0.539021 1.331701,1.363406 0.48617,0.813816 0.48617,2.071532 0,1.701616 -0.85609,2.853642 -0.856091,1.141456 -2.356895,1.722754 z M 99.281772,21.336331 q 0,-0.676419 -0.243088,-1.194302 -0.232519,-0.528452 -0.782109,-0.887799 -0.454469,-0.306503 -1.078042,-0.422762 -0.623574,-0.126829 -1.469097,-0.126829 h -2.462587 v 5.939802 h 2.113808 q 0.99349,0 1.733323,-0.169104 0.739833,-0.179674 1.257716,-0.655281 0.475607,-0.4439 0.697557,-1.014628 0.232519,-0.581297 0.232519,-1.469097 z m 19.330788,11.308875 h -2.23007 l -1.54308,-4.386152 h -6.80646 l -1.54308,4.386152 h -2.12438 l 5.72842,-15.737304 h 2.79023 z m -4.41786,-6.182889 -2.75852,-7.725971 -2.76909,7.725971 z m 19.82752,6.182889 h -2.71625 l -5.26338,-6.256873 h -2.94876 v 6.256873 h -2.09267 V 16.907902 h 4.40729 q 1.42682,0 2.37803,0.190243 0.95121,0.179674 1.71219,0.655281 0.85609,0.539021 1.3317,1.363406 0.48617,0.813816 0.48617,2.071532 0,1.701616 -0.85609,2.853642 -0.85609,1.141456 -2.3569,1.722754 z m -4.89347,-11.308875 q 0,-0.676419 -0.24309,-1.194302 -0.23252,-0.528452 -0.78211,-0.887799 -0.45447,-0.306503 -1.07804,-0.422762 -0.62357,-0.126829 -1.4691,-0.126829 h -2.46258 v 5.939802 h 2.1138 q 0.99349,0 1.73333,-0.169104 0.73983,-0.179674 1.25771,-0.655281 0.47561,-0.4439 0.69756,-1.014628 0.23252,-0.581297 0.23252,-1.469097 z m 17.85111,-4.428429 -5.53818,8.83572 v 6.901584 h -2.09267 v -6.679634 l -5.55931,-9.05767 h 2.31462 l 4.3016,7.038982 4.34387,-7.038982 z"
       id="text1"
       style="font-size:21.6454px;fill-opacity:0.15;stroke-width:0.353;stroke-linecap:square;stroke-linejoin:round"
       transform="scale(0.95767938,1.0441908)"
       aria-label="TEMPORARY" />
  </g>
</svg>
