<?xml version="1.0" encoding="UTF-8" standalone="no"?>
<!-- Created with Inkscape (http://www.inkscape.org/) -->

<svg
   width="6in"
   height="1.4in"
   viewBox="0 0 152.4 35.559999"
   version="1.1"
   id="svg1"
   inkscape:version="1.3.2 (091e20e, 2023-11-25)"
   sodipodi:docname="surgery-on-two-holed-torus.svg"
   inkscape:export-filename="surgery-on-two-holed-torus.pdf"
   inkscape:export-xdpi="96"
   inkscape:export-ydpi="96"
   xmlns:inkscape="http://www.inkscape.org/namespaces/inkscape"
   xmlns:sodipodi="http://sodipodi.sourceforge.net/DTD/sodipodi-0.dtd"
   xmlns="http://www.w3.org/2000/svg"
   xmlns:svg="http://www.w3.org/2000/svg">
  <sodipodi:namedview
     id="namedview1"
     pagecolor="#ffffff"
     bordercolor="#000000"
     borderopacity="0.25"
     inkscape:showpageshadow="2"
     inkscape:pageopacity="0.0"
     inkscape:pagecheckerboard="0"
     inkscape:deskcolor="#d1d1d1"
     inkscape:document-units="mm"
     inkscape:zoom="1.6369562"
     inkscape:cx="305.75039"
     inkscape:cy="105.9894"
     inkscape:window-width="1728"
     inkscape:window-height="1051"
     inkscape:window-x="0"
     inkscape:window-y="38"
     inkscape:window-maximized="0"
     inkscape:current-layer="layer1"
     showgrid="false" />
  <defs
     id="defs1">
    <inkscape:path-effect
       effect="bspline"
       id="path-effect5"
       is_visible="true"
       lpeversion="1.3"
       weight="33.333333"
       steps="2"
       helper_size="0"
       apply_no_weight="true"
       apply_with_weight="true"
       only_selected="false"
       uniform="false" />
    <inkscape:path-effect
       effect="bspline"
       id="path-effect4"
       is_visible="true"
       lpeversion="1.3"
       weight="33.333333"
       steps="2"
       helper_size="0"
       apply_no_weight="true"
       apply_with_weight="true"
       only_selected="false"
       uniform="false" />
    <inkscape:path-effect
       effect="bspline"
       id="path-effect3"
       is_visible="true"
       lpeversion="1.3"
       weight="33.333333"
       steps="2"
       helper_size="0"
       apply_no_weight="true"
       apply_with_weight="true"
       only_selected="false"
       uniform="false" />
    <marker
       style="overflow:visible"
       id="ArrowWide"
       refX="0"
       refY="0"
       orient="auto-start-reverse"
       inkscape:stockid="Wide arrow"
       markerWidth="1"
       markerHeight="1"
       viewBox="0 0 1 1"
       inkscape:isstock="true"
       inkscape:collect="always"
       preserveAspectRatio="xMidYMid">
      <path
         style="fill:none;stroke:context-stroke;stroke-width:1;stroke-linecap:butt"
         d="M 3,-3 0,0 3,3"
         transform="rotate(180,0.125,0)"
         sodipodi:nodetypes="ccc"
         id="path2" />
    </marker>
    <inkscape:path-effect
       effect="bspline"
       id="path-effect1"
       is_visible="true"
       lpeversion="1.3"
       weight="33.333333"
       steps="2"
       helper_size="0"
       apply_no_weight="true"
       apply_with_weight="true"
       only_selected="false"
       uniform="false" />
  </defs>
  <g
     inkscape:label="Layer 1"
     inkscape:groupmode="layer"
     id="layer1">
    <path
       style="fill:none;stroke:#8080eb;stroke-width:0.352778;stroke-linecap:butt;stroke-linejoin:round;stroke-dasharray:0.705555, 0.705555;stroke-dashoffset:0;stroke-opacity:1"
       d="m 24.217522,14.836786 c -0.74666,-1.6e-5 -1.546667,-2.73611 -1.546677,-6.1343204 -10e-6,-3.3982613 0.656132,-5.9537075 1.402802,-5.9537257"
       id="path18-1"
       sodipodi:nodetypes="ccc" />
    <path
       style="fill:none;stroke:#0000ff;stroke-width:0.352778;stroke-linecap:round;stroke-linejoin:round;stroke-dasharray:none;stroke-dashoffset:3.06667;stroke-opacity:1"
       d="m 24.073647,2.7487399 c 0.88456,1.82e-5 1.758595,2.6858282 1.758585,6.0815709 -10e-6,3.3956902 -0.73017,6.0064592 -1.61471,6.0064752"
       id="path17-2"
       sodipodi:nodetypes="ccc" />
    <path
       style="fill:none;stroke:#8080f4;stroke-width:0.352778;stroke-linecap:butt;stroke-linejoin:round;stroke-dasharray:0.705555, 0.705555;stroke-dashoffset:0;stroke-opacity:1"
       d="m 24.559023,27.580805 c -0.74666,-1.5e-5 -1.555757,-2.37419 -1.555767,-5.450923 -10e-6,-3.076777 0.656677,-5.43823 1.403347,-5.438247"
       id="path18-1-9"
       sodipodi:nodetypes="ccc" />
    <path
       style="fill:none;stroke:#0000ff;stroke-width:0.352778;stroke-linecap:round;stroke-linejoin:round;stroke-dasharray:none;stroke-dashoffset:3.06667;stroke-opacity:1"
       d="m 24.406603,16.691635 c 0.88456,1.7e-5 1.75805,2.479501 1.75804,5.553999 -1e-5,3.07445 -0.72108,5.335156 -1.60562,5.335171"
       id="path17-2-5"
       sodipodi:nodetypes="ccc" />
    <path
       id="path19-2"
       style="fill:none;stroke:#000000;stroke-width:0.352777;stroke-linejoin:round"
       d="M 24.239806,2.7768904 C 23.237307,2.6026365 22.183475,2.4992185 21.067602,2.4941126 12.390544,2.454409 3.065972,7.7572655 3.1884733,15.605235 c 0.1139736,7.301641 7.6373187,12.510898 17.8830357,12.357073 8.026337,-0.120503 12.107348,-4.381723 17.782952,-4.635526 5.48034,-0.245071 9.180345,3.274985 17.076235,3.468455 10.20199,0.249975 19.211957,-3.930174 19.110617,-11.809781 C 74.940753,7.1663715 67.398121,3.0166916 57.298631,3.2392656 49.195451,3.4178446 44.852914,7.7745635 39.248704,7.6356696 34.537836,7.5189162 30.338774,3.8370096 24.239806,2.7768904"
       sodipodi:nodetypes="cssssssssc" />
    <path
       d="m 16.328972,15.894566 c 2.027162,-1.11605 8.910725,-1.671481 13.163116,-0.037 m 3.554248,-1.848986 c -1.227145,0.976653 -2.292486,1.572935 -3.554248,1.848986 -2.137336,0.467613 -4.315267,0.884853 -6.5333,0.895583 -2.26671,0.01097 -4.511392,-0.121066 -6.629816,-0.85858 -1.300226,-0.452667 -2.64272,-0.848151 -3.70489,-1.885989"
       style="display:inline;fill:none;stroke:#000000;stroke-width:0.352776;stroke-dasharray:none;stroke-opacity:1"
       id="path1-4"
       sodipodi:nodetypes="cccsssc" />
    <path
       d="m 50.799106,15.479665 c 2.02716,-1.11605 8.91073,-1.671481 13.16312,-0.037 m 3.55425,-1.848986 c -1.22715,0.976653 -2.29249,1.572935 -3.55425,1.848986 -2.13734,0.467609 -4.31527,0.884849 -6.5333,0.895579 -2.26671,0.011 -4.51139,-0.12106 -6.62982,-0.858576 -1.30022,-0.452667 -2.64272,-0.848151 -3.70489,-1.885989"
       style="display:inline;fill:none;stroke:#000000;stroke-width:0.352776;stroke-dasharray:none;stroke-opacity:1"
       id="path1-4-9"
       sodipodi:nodetypes="cccscsc" />
    <path
       id="path1-4-0"
       style="display:inline;fill:#0000ff;fill-opacity:0.1;stroke:#0000ff;stroke-width:0.352776;stroke-dasharray:none;stroke-opacity:1"
       d="m 24.720205,27.606015 c -1.126716,0.205888 -2.334848,0.33656 -3.648696,0.35629 C 10.825792,28.116129 3.3024469,22.906873 3.1884733,15.605232 3.065972,7.7572624 12.390544,2.4544104 21.067602,2.4941104 c 1.088413,0.005 2.114148,0.102156 3.0472,0.260601 0.843405,-0.006 1.71744,2.679854 1.71743,6.075597 -10e-6,3.3956896 -0.73017,6.0064586 -1.61471,6.0064746 -0.990421,-0.06621 -1.954913,-0.01031 -2.856542,0.0386 -2.22549,0.120708 -4.074434,0.491994 -5.032008,1.019187 2.118424,0.737517 4.363106,0.869543 6.629816,0.858583 0.49915,-0.0024 1.113866,-0.02542 1.528382,-0.06323 0.803993,0.0017 1.677483,2.481218 1.677473,5.555716 -1e-5,3.07445 -0.723585,5.389646 -1.608125,5.389661"
       sodipodi:nodetypes="cssscscscccsc" />
    <path
       id="path17-2-0"
       style="fill:#0000d8;fill-opacity:0.1;stroke:#0000ff;stroke-width:0.352778;stroke-linecap:round;stroke-linejoin:round;stroke-dasharray:none;stroke-dashoffset:3.06667;stroke-opacity:1"
       d="m 97.078429,2.6959884 c 0.88456,1.9e-5 1.75805,2.738577 1.75804,6.13432 -10e-6,3.3956926 -0.73017,6.0064616 -1.61471,6.0064776 m 0,0 c -0.74666,-1.6e-5 -1.546667,-2.73611 -1.546677,-6.1343226 -1e-5,-3.398261 0.656677,-6.006456 1.403347,-6.006475" />
    <path
       id="path17-2-5-5"
       style="fill:#0000ff;fill-opacity:0.1;stroke:#0000ff;stroke-width:0.352778;stroke-linecap:round;stroke-linejoin:round;stroke-dasharray:none;stroke-dashoffset:3.06667;stroke-opacity:1"
       d="m 97.41084,16.691635 c 0.884559,1.7e-5 1.758049,2.479501 1.758039,5.553999 -1e-5,3.07445 -0.73017,5.438234 -1.614709,5.438249 m 0,0 c -0.74666,-1.5e-5 -1.546667,-2.477268 -1.546677,-5.554001 -1e-5,-3.076777 0.656677,-5.43823 1.403347,-5.438247" />
    <path
       id="path19-2-8"
       style="fill:none;stroke:#000000;stroke-width:0.352777;stroke-linejoin:round"
       d="m 97.55417,27.683883 c 6.01302,-0.973979 9.43853,-4.139502 14.30452,-4.357101 5.48034,-0.245071 9.18034,3.274985 17.07624,3.468455 10.20199,0.249975 19.21195,-3.930174 19.11061,-11.809781 -0.10056,-7.8190866 -7.64319,-11.9687666 -17.74268,-11.7461926 -8.10318,0.178579 -12.44572,4.535298 -18.04993,4.396404 -5.4852,-0.135945 -7.26993,-4.90351 -15.174501,-4.939679"
       sodipodi:nodetypes="csssssc" />
    <path
       d="m 97.221759,14.836786 c 1.86689,0.09622 3.740921,0.431294 5.274571,1.02078 m 3.55423,-1.848986 c -1.22714,0.976653 -2.29248,1.572935 -3.55423,1.848986 -2.13734,0.467613 -2.867451,0.823339 -5.08549,0.834069"
       style="display:inline;fill:none;stroke:#000000;stroke-width:0.352776;stroke-dasharray:none;stroke-opacity:1"
       id="path1-4-4"
       sodipodi:nodetypes="cccsc" />
    <path
       d="m 123.80333,15.479665 c 2.02717,-1.11605 8.91074,-1.671481 13.16313,-0.037 m 3.55425,-1.848986 c -1.22715,0.976653 -2.29249,1.572935 -3.55425,1.848986 -2.13734,0.467609 -4.31527,0.884849 -6.5333,0.895579 -2.26671,0.011 -4.51139,-0.12106 -6.62983,-0.858576 -1.30022,-0.452667 -2.64272,-0.848151 -3.70489,-1.885989"
       style="display:inline;fill:none;stroke:#000000;stroke-width:0.352776;stroke-dasharray:none;stroke-opacity:1"
       id="path1-4-9-7"
       sodipodi:nodetypes="cccscsc" />
    <path
       style="fill:#000000;fill-opacity:0.1;stroke:#000000;stroke-width:0.352999;stroke-linecap:round;stroke-linejoin:round;stroke-dasharray:none;stroke-dashoffset:0;stroke-opacity:1;marker-end:url(#ArrowWide);paint-order:stroke markers fill"
       d="m 77.703285,13.870567 c 0,0 13.494988,0 13.494988,0"
       id="path1"
       inkscape:path-effect="#path-effect1"
       inkscape:original-d="M 77.703285,13.870567 H 91.198273"
       transform="translate(0.82716002,2.644679)" />
    <path
       style="fill:none;stroke:#0000ea;stroke-width:0.352778;stroke-linecap:round;stroke-linejoin:round;stroke-dasharray:none;stroke-opacity:1"
       d="m 12.624082,14.00858 c 0.542102,0.407059 1.084204,0.814118 1.701686,1.12845 0.617482,0.314332 1.310343,0.535936 2.003204,0.75754"
       id="path3"
       inkscape:path-effect="#path-effect5"
       inkscape:original-d="m 12.624082,14.00858 c 0.542102,0.407059 1.084204,0.814118 1.626306,1.221178 0.692862,0.221604 1.385723,0.443208 2.078584,0.664812"
       sodipodi:nodetypes="ccc" />
    <text
       xml:space="preserve"
       style="font-size:3.88056px;fill:#0000ff;fill-opacity:1;stroke:none;stroke-width:0.352777;stroke-linecap:round;stroke-linejoin:round;stroke-dasharray:none;stroke-opacity:1"
       x="11.549468"
       y="32.832123"
       id="text5"><tspan
         sodipodi:role="line"
         id="tspan5"
         style="font-size:3.88056px;fill:#0000ff;fill-opacity:1;stroke:none;stroke-width:0.352778"
         x="11.549468"
         y="32.832123">$S^1\times D^1$</tspan></text>
    <text
       xml:space="preserve"
       style="font-size:3.88056px;fill:#0000ff;fill-opacity:1;stroke:none;stroke-width:0.352777;stroke-linecap:round;stroke-linejoin:round;stroke-dasharray:none;stroke-opacity:1"
       x="90.727287"
       y="32.832123"
       id="text5-3"><tspan
         sodipodi:role="line"
         id="tspan5-2"
         style="font-size:3.88056px;fill:#0000ff;fill-opacity:1;stroke:none;stroke-width:0.352778"
         x="90.727287"
         y="32.832123">$D^2\times S^0$</tspan></text>
  </g>
</svg>
