<?xml version='1.0' encoding='ascii'?>
<svg xmlns="http://www.w3.org/2000/svg" version="1.1" width="1920" height="1080">
    <g id="ViewLayer_LineSet" xmlns:inkscape="http://www.inkscape.org/namespaces/inkscape" inkscape:groupmode="lineset" inkscape:label="ViewLayer_LineSet">
        <g xmlns:inkscape="http://www.inkscape.org/namespaces/inkscape" inkscape:groupmode="layer" id="strokes" inkscape:label="strokes">
            <path fill="none" stroke-width="3.0" stroke-linecap="butt" stroke-opacity="1.0" stroke="rgb(0, 0, 0)" stroke-linejoin="round" d=" M 1378.761, 575.188 1376.236, 575.502 1375.580, 575.579 1373.675, 575.804 1371.077, 576.095 1368.444, 576.374 1365.775, 576.642 1363.070, 576.897 1361.103, 577.072 " />
            <path fill="none" stroke-width="3.0" stroke-linecap="butt" stroke-opacity="1.0" stroke="rgb(0, 0, 0)" stroke-linejoin="round" d=" M 1386.757, 573.961 1385.581, 574.146 1384.430, 574.328 1382.067, 574.684 1379.667, 575.029 1377.232, 575.364 1375.580, 575.579 " />
            <path fill="none" stroke-width="3.0" stroke-linecap="butt" stroke-opacity="1.0" stroke="rgb(0, 0, 0)" stroke-linejoin="round" d=" M 1393.724, 572.640 1392.407, 572.898 1391.593, 573.058 1389.425, 573.466 1387.221, 573.863 1385.581, 574.146 " />
            <path fill="none" stroke-width="3.0" stroke-linecap="butt" stroke-opacity="1.0" stroke="rgb(0, 0, 0)" stroke-linejoin="round" d=" M 1423.800, 867.311 1427.076, 866.499 1430.303, 865.671 1433.482, 864.826 1436.612, 863.966 1440.527, 862.865 1443.622, 861.984 1446.669, 861.088 1449.665, 860.176 1452.613, 859.248 1456.542, 857.976 1459.453, 857.029 1462.313, 856.066 1465.123, 855.089 1467.884, 854.097 1471.814, 852.657 1474.534, 851.646 1477.205, 850.621 1479.825, 849.580 1483.733, 847.981 1486.311, 846.923 1488.838, 845.850 1491.315, 844.764 1495.191, 843.008 1497.624, 841.905 1500.006, 840.788 1502.338, 839.657 1506.172, 837.748 1508.458, 836.601 1510.694, 835.441 1512.878, 834.268 1516.660, 832.211 1518.798, 831.022 1520.885, 829.820 1524.603, 827.621 1526.642, 826.405 1528.630, 825.176 1530.566, 823.935 1534.216, 821.595 1536.103, 820.341 1537.939, 819.074 1541.510, 816.600 1543.297, 815.320 1545.032, 814.028 1548.517, 811.423 1550.202, 810.120 1553.595, 807.388 1555.229, 806.073 1556.812, 804.746 1560.107, 801.891 1561.638, 800.554 1563.118, 799.205 1566.309, 796.231 1567.737, 794.873 1569.113, 793.504 1572.197, 790.416 1573.521, 789.038 1576.494, 785.842 1577.765, 784.455 1578.986, 783.059 1581.843, 779.759 1583.010, 778.355 1585.751, 774.957 1586.865, 773.546 1589.485, 770.054 1590.546, 768.637 1591.557, 767.210 1594.051, 763.633 1595.008, 762.200 1597.376, 758.540 1598.280, 757.102 1600.519, 753.364 1601.370, 751.922 1603.477, 748.110 1604.274, 746.664 1605.022, 745.211 1606.991, 741.335 1607.686, 739.879 1609.518, 735.941 1610.161, 734.482 1611.853, 730.486 1612.443, 729.025 1613.992, 724.976 1614.531, 723.515 1615.935, 719.418 1616.422, 717.956 1617.679, 713.816 1618.114, 712.354 1619.222, 708.176 1619.606, 706.715 1619.942, 705.246 1620.899, 701.044 1621.184, 699.577 1621.992, 695.349 1622.228, 693.883 1622.886, 689.634 1623.073, 688.171 1623.583, 683.907 1623.721, 682.447 1624.083, 678.173 1624.173, 676.716 1624.387, 672.437 1624.431, 670.984 1624.497, 666.706 1624.494, 665.257 1624.414, 660.986 1624.365, 659.541 1624.138, 655.282 1624.044, 653.843 1623.672, 649.600 1623.534, 648.166 1623.016, 643.946 1622.834, 642.517 1622.172, 638.325 1621.948, 636.902 1621.679, 635.474 1620.875, 631.326 1620.564, 629.904 1619.618, 625.794 1619.267, 624.379 1618.179, 620.312 1617.788, 618.904 1616.559, 614.885 1616.128, 613.484 1615.655, 612.077 1614.292, 608.124 1613.782, 606.725 1612.284, 602.828 1611.737, 601.437 1611.148, 600.041 1609.524, 596.218 1608.900, 594.831 1607.149, 591.073 1606.489, 589.694 1605.789, 588.309 1603.920, 584.634 1603.187, 583.259 1601.197, 579.658 1600.432, 578.290 1599.627, 576.919 1597.527, 573.408 1596.691, 572.046 1595.817, 570.680 1593.610, 567.263 1592.706, 565.906 1591.764, 564.545 1589.456, 561.227 1588.486, 559.875 1587.478, 558.520 1585.072, 555.304 1584.037, 553.958 1582.966, 552.608 1580.466, 549.498 1579.369, 548.158 1578.236, 546.815 1575.647, 543.815 1574.489, 542.481 1573.296, 541.144 1572.069, 539.804 1569.405, 536.930 1568.155, 535.600 1566.870, 534.267 1565.552, 532.932 1562.819, 530.186 1561.479, 528.860 1560.106, 527.532 1558.700, 526.202 1555.905, 523.588 1554.479, 522.268 1553.021, 520.945 1551.531, 519.621 1550.009, 518.294 1547.168, 515.827 1545.629, 514.510 1544.058, 513.192 1542.456, 511.872 1540.824, 510.550 1537.946, 508.230 1536.298, 506.918 1534.620, 505.605 1532.911, 504.291 1531.174, 502.975 1528.267, 500.804 1526.516, 499.498 1524.735, 498.191 1522.926, 496.883 1521.089, 495.573 1519.223, 494.263 1517.329, 492.952 1514.433, 490.953 1512.528, 489.652 1510.595, 488.351 1508.635, 487.048 1506.648, 485.746 1504.635, 484.442 1502.595, 483.138 1499.720, 481.310 1497.671, 480.017 1495.596, 478.723 1493.495, 477.429 1491.369, 476.134 1489.218, 474.840 1487.042, 473.545 1484.841, 472.251 1482.014, 470.604 1479.807, 469.320 1477.575, 468.036 1475.320, 466.752 1473.040, 465.468 1470.737, 464.184 1468.411, 462.901 1466.062, 461.619 1463.689, 460.336 1461.294, 459.055 1456.166, 456.337 1453.745, 455.066 1451.302, 453.796 1448.838, 452.527 1446.352, 451.259 1443.844, 449.991 1441.316, 448.724 1438.766, 447.459 1436.196, 446.194 1433.606, 444.930 1430.995, 443.668 1428.364, 442.407 1425.804, 441.186 1423.173, 439.935 1420.522, 438.686 1417.852, 437.438 1415.162, 436.191 1412.454, 434.946 1409.726, 433.702 1406.980, 432.459 1404.216, 431.219 1401.433, 429.979 1398.633, 428.742 1395.814, 427.506 1392.978, 426.272 1390.124, 425.040 1387.253, 423.809 1384.365, 422.581 1381.460, 421.354 1379.168, 420.389 1376.267, 419.173 1373.349, 417.959 1370.415, 416.748 1367.465, 415.538 1364.498, 414.330 1361.516, 413.125 1358.519, 411.922 1355.506, 410.721 1352.477, 409.522 1349.434, 408.326 1346.375, 407.132 1343.302, 405.941 1340.215, 404.752 1337.112, 403.566 1333.996, 402.382 1330.866, 401.201 1327.721, 400.022 1324.563, 398.846 1321.392, 397.673 1318.206, 396.503 1315.008, 395.335 1311.797, 394.170 1308.573, 393.008 1306.720, 392.343 1303.505, 391.192 1300.277, 390.044 1297.037, 388.898 1293.785, 387.756 1290.520, 386.616 1287.243, 385.480 1283.955, 384.347 1280.656, 383.217 1277.344, 382.090 1274.022, 380.966 1270.688, 379.846 1267.343, 378.728 1263.988, 377.614 1260.621, 376.504 1257.245, 375.397 1253.857, 374.293 1250.460, 373.192 1247.052, 372.095 1243.635, 371.002 1240.208, 369.912 1236.771, 368.826 1233.325, 367.743 1229.869, 366.664 1226.404, 365.588 1222.930, 364.517 1219.448, 363.449 1215.956, 362.384 1212.456, 361.324 1208.947, 360.267 1205.430, 359.214 1201.905, 358.165 1198.371, 357.120 1194.830, 356.079 1191.281, 355.042 1187.724, 354.009 1184.160, 352.980 1180.588, 351.955 1177.009, 350.934 1173.423, 349.917 1169.831, 348.904 1166.231, 347.896 1162.624, 346.891 1159.011, 345.891 1155.392, 344.895 1151.766, 343.904 1148.134, 342.917 1147.262, 342.681 1143.646, 341.704 1140.025, 340.731 1136.398, 339.763 1132.765, 338.799 1129.127, 337.840 1125.483, 336.885 1121.834, 335.935 1118.180, 334.989 1114.521, 334.047 1110.858, 333.111 1107.189, 332.178 1103.516, 331.251 1099.838, 330.328 1096.156, 329.409 1092.470, 328.496 1088.780, 327.587 1085.085, 326.682 1081.387, 325.783 1077.685, 324.888 1073.980, 323.998 1070.271, 323.113 1066.558, 322.233 1062.843, 321.358 1059.124, 320.488 1055.403, 319.622 1051.678, 318.762 1047.951, 317.906 1044.222, 317.056 1040.489, 316.211 1036.755, 315.371 1033.018, 314.536 1029.279, 313.706 1025.538, 312.881 1021.796, 312.061 1018.051, 311.247 1014.305, 310.438 1010.558, 309.634 1006.809, 308.835 1003.059, 308.042 999.307, 307.254 995.555, 306.471 991.802, 305.694 988.048, 304.922 984.294, 304.156 980.539, 303.395 976.784, 302.640 973.028, 301.890 969.272, 301.146 965.517, 300.407 961.761, 299.674 958.006, 298.947 954.251, 298.225 950.496, 297.509 946.742, 296.798 942.989, 296.094 939.237, 295.395 935.486, 294.702 931.736, 294.014 927.987, 293.333 924.239, 292.657 920.493, 291.988 916.749, 291.324 913.006, 290.666 909.265, 290.014 905.526, 289.369 901.790, 288.729 898.055, 288.095 894.323, 287.467 890.594, 286.846 886.867, 286.230 883.143, 285.621 879.421, 285.018 875.703, 284.421 871.988, 283.831 868.276, 283.246 864.568, 282.668 860.863, 282.097 859.981, 281.961 856.256, 281.392 852.536, 280.830 848.820, 280.274 845.107, 279.725 841.399, 279.182 837.695, 278.645 833.996, 278.115 830.301, 277.592 826.611, 277.075 822.925, 276.565 819.245, 276.062 815.570, 275.565 811.900, 275.075 808.236, 274.592 804.577, 274.116 800.924, 273.646 797.277, 273.183 793.636, 272.728 790.000, 272.279 786.372, 271.837 782.749, 271.402 779.133, 270.974 775.524, 270.553 771.922, 270.139 768.326, 269.732 764.738, 269.332 761.157, 268.940 757.583, 268.554 754.017, 268.176 750.459, 267.805 746.909, 267.441 743.366, 267.085 739.832, 266.736 736.306, 266.394 732.789, 266.059 729.280, 265.732 725.780, 265.413 722.289, 265.101 718.807, 264.797 715.334, 264.500 711.871, 264.210 708.417, 263.928 704.973, 263.654 701.539, 263.388 698.115, 263.129 694.701, 262.878 692.748, 262.738 689.321, 262.493 685.905, 262.256 682.500, 262.026 679.106, 261.805 675.722, 261.591 672.350, 261.386 668.990, 261.188 665.640, 260.999 662.303, 260.818 658.977, 260.644 655.664, 260.479 652.362, 260.322 649.073, 260.173 645.797, 260.032 642.533, 259.900 639.283, 259.776 636.045, 259.660 632.821, 259.552 629.610, 259.453 626.413, 259.362 623.230, 259.280 620.061, 259.206 616.906, 259.141 613.766, 259.084 611.265, 259.040 608.117, 258.992 604.983, 258.952 601.864, 258.921 598.760, 258.898 595.672, 258.885 592.600, 258.880 589.543, 258.883 586.502, 258.896 583.477, 258.918 580.469, 258.948 577.477, 258.988 574.502, 259.036 571.544, 259.094 568.603, 259.160 565.679, 259.236 562.851, 259.317 559.923, 259.402 557.013, 259.497 554.121, 259.600 551.247, 259.713 548.391, 259.836 545.554, 259.967 542.736, 260.108 539.937, 260.259 537.157, 260.418 534.397, 260.588 531.656, 260.766 528.936, 260.955 525.861, 261.173 523.140, 261.373 520.438, 261.582 517.758, 261.800 515.098, 262.029 512.460, 262.267 509.842, 262.515 507.247, 262.772 504.673, 263.040 502.121, 263.317 498.876, 263.679 496.325, 263.969 493.797, 264.268 491.292, 264.578 488.810, 264.897 486.351, 265.227 483.916, 265.567 481.505, 265.917 479.117, 266.277 475.734, 266.788 473.351, 267.161 470.992, 267.545 468.658, 267.939 466.349, 268.343 464.066, 268.758 461.807, 269.183 458.336, 269.843 456.084, 270.282 453.858, 270.731 451.659, 271.191 449.487, 271.662 447.341, 272.143 443.809, 272.952 441.672, 273.449 439.562, 273.956 437.480, 274.473 435.426, 275.002 433.400, 275.541 429.816, 276.503 427.801, 277.057 425.815, 277.623 423.858, 278.200 421.930, 278.788 418.321, 279.900 416.406, 280.504 414.520, 281.119 412.665, 281.746 409.054, 283.004 407.213, 283.647 405.403, 284.302 403.624, 284.968 401.877, 285.645 398.254, 287.056 396.523, 287.750 394.823, 288.456 393.157, 289.174 389.546, 290.731 387.896, 291.466 386.280, 292.214 382.701, 293.909 381.104, 294.674 379.540, 295.452 378.010, 296.241 374.454, 298.080 372.945, 298.888 371.470, 299.707 367.958, 301.681 366.505, 302.521 365.087, 303.372 361.623, 305.479 360.228, 306.350 358.869, 307.233 355.459, 309.472 354.124, 310.375 352.826, 311.290 349.475, 313.659 348.202, 314.595 344.927, 317.082 343.681, 318.039 342.473, 319.008 339.267, 321.621 338.086, 322.611 334.967, 325.338 333.814, 326.350 332.701, 327.374 329.662, 330.222 328.578, 331.268 325.634, 334.224 324.581, 335.292 323.568, 336.373 320.715, 339.446 319.734, 340.549 316.986, 343.726 316.037, 344.851 313.399, 348.129 312.484, 349.276 311.611, 350.437 309.077, 353.821 308.239, 355.004 305.821, 358.482 305.019, 359.687 302.719, 363.253 301.954, 364.481 299.775, 368.130 299.047, 369.381 296.992, 373.110 296.302, 374.384 294.374, 378.187 293.723, 379.483 291.924, 383.356 291.313, 384.676 290.748, 386.008 289.076, 389.956 288.552, 391.311 287.015, 395.320 286.532, 396.697 285.133, 400.761 284.693, 402.161 283.433, 406.276 283.037, 407.698 281.920, 411.859 281.568, 413.304 280.595, 417.506 280.288, 418.971 279.464, 423.210 279.202, 424.697 278.527, 428.966 278.312, 430.475 277.789, 434.770 277.621, 436.299 277.251, 440.614 277.129, 442.164 276.911, 446.494 276.838, 448.064 276.813, 449.647 276.747, 453.993 276.771, 455.596 276.856, 459.946 276.930, 461.567 277.167, 465.915 277.290, 467.555 277.678, 471.895 277.851, 473.553 278.390, 477.879 278.613, 479.555 279.301, 483.862 279.575, 485.554 279.899, 487.259 280.738, 491.545 281.113, 493.267 282.101, 497.521 282.527, 499.259 283.663, 503.476 284.141, 505.228 284.669, 506.992 285.953, 511.170 286.533, 512.948 287.963, 517.076 288.595, 518.868 289.277, 520.671 290.854, 524.745 291.588, 526.561 293.310, 530.574 294.096, 532.402 294.933, 534.240 296.798, 538.186 297.686, 540.036 298.627, 541.896 300.631, 545.769 301.623, 547.639 302.667, 549.519 304.806, 553.313 305.901, 555.202 307.048, 557.102 309.318, 560.810 310.515, 562.717 311.765, 564.634 314.162, 568.250 315.461, 570.175 316.812, 572.108 319.331, 575.626 320.732, 577.566 322.185, 579.514 323.690, 581.472 326.322, 584.882 327.875, 586.844 329.481, 588.814 332.224, 592.114 333.878, 594.088 335.584, 596.070 337.343, 598.060 340.186, 601.237 341.991, 603.229 343.849, 605.229 345.758, 607.236 348.695, 610.284 350.649, 612.292 352.656, 614.307 354.715, 616.329 357.737, 619.239 359.840, 621.260 361.995, 623.288 364.201, 625.322 366.460, 627.362 369.550, 630.120 371.850, 632.157 374.202, 634.201 376.606, 636.250 379.061, 638.305 382.208, 640.900 384.703, 642.951 387.249, 645.006 389.846, 647.066 392.495, 649.131 395.194, 651.201 398.373, 653.615 401.110, 655.678 403.897, 657.745 406.734, 659.816 409.623, 661.890 412.561, 663.968 415.550, 666.049 418.727, 668.261 421.749, 670.333 424.821, 672.408 427.942, 674.486 431.113, 676.566 434.333, 678.648 437.602, 680.732 440.756, 682.729 444.054, 684.802 447.401, 686.877 450.797, 688.952 454.241, 691.029 457.732, 693.106 461.272, 695.184 464.859, 697.263 468.493, 699.341 471.553, 701.086 475.211, 703.151 478.916, 705.215 482.666, 707.279 486.463, 709.341 490.306, 711.403 494.194, 713.463 498.128, 715.522 502.107, 717.579 506.131, 719.634 509.031, 721.102 513.071, 723.141 517.155, 725.176 521.282, 727.209 525.453, 729.239 529.666, 731.266 533.922, 733.289 538.221, 735.309 542.561, 737.325 546.943, 739.336 551.365, 741.343 555.829, 743.346 560.333, 745.343 564.878, 747.336 567.436, 748.457 571.986, 750.429 576.574, 752.396 581.201, 754.356 585.866, 756.310 590.568, 758.258 595.308, 760.200 600.084, 762.135 604.897, 764.062 609.745, 765.982 614.629, 767.895 619.547, 769.800 624.500, 771.697 629.487, 773.586 634.507, 775.466 639.560, 777.337 644.646, 779.199 649.763, 781.053 651.734, 781.759 656.842, 783.588 661.979, 785.407 667.147, 787.216 672.344, 789.015 677.570, 790.804 682.825, 792.582 688.107, 794.350 693.416, 796.106 698.751, 797.852 704.113, 799.585 709.500, 801.307 714.912, 803.017 720.348, 804.715 725.808, 806.401 731.291, 808.074 736.796, 809.734 742.323, 811.381 747.871, 813.015 753.440, 814.636 759.029, 816.242 764.637, 817.835 770.263, 819.414 775.907, 820.979 781.569, 822.529 787.247, 824.065 792.941, 825.585 798.651, 827.091 804.375, 828.581 810.113, 830.056 815.865, 831.515 821.628, 832.959 827.404, 834.386 833.191, 835.797 838.989, 837.192 844.797, 838.570 850.613, 839.932 856.439, 841.276 862.271, 842.604 868.111, 843.914 873.958, 845.208 879.810, 846.483 885.667, 847.741 891.528, 848.981 897.393, 850.203 903.261, 851.407 909.130, 852.593 915.001, 853.760 920.874, 854.908 926.746, 856.038 932.617, 857.150 938.487, 858.242 944.355, 859.315 950.220, 860.369 956.081, 861.403 961.939, 862.419 967.791, 863.414 973.638, 864.390 979.479, 865.347 985.312, 866.283 991.138, 867.200 996.956, 868.096 1002.765, 868.973 1008.564, 869.829 1014.352, 870.665 1020.129, 871.481 1025.895, 872.276 1031.648, 873.051 1037.388, 873.805 1043.114, 874.539 1048.826, 875.252 1054.523, 875.944 1060.204, 876.615 1065.869, 877.266 1071.516, 877.895 1077.146, 878.504 1082.758, 879.092 1088.351, 879.659 1093.924, 880.205 1099.477, 880.729 1105.009, 881.233 1110.520, 881.716 1116.009, 882.177 1121.475, 882.618 1126.918, 883.037 1132.337, 883.435 1134.404, 883.583 1139.842, 883.963 1145.256, 884.322 1150.643, 884.659 1156.005, 884.975 1161.339, 885.270 1166.646, 885.544 1171.925, 885.797 1177.176, 886.028 1182.397, 886.238 1187.589, 886.427 1192.750, 886.595 1197.881, 886.741 1202.981, 886.867 1208.049, 886.972 1213.085, 887.055 1218.089, 887.118 1223.059, 887.160 1227.996, 887.181 1230.807, 887.188 1235.746, 887.188 1240.651, 887.168 1245.521, 887.127 1250.355, 887.065 1255.153, 886.982 1259.915, 886.879 1264.639, 886.756 1269.326, 886.612 1273.975, 886.448 1278.586, 886.264 1283.158, 886.059 1287.692, 885.834 1290.919, 885.662 1295.445, 885.416 1299.931, 885.150 1304.376, 884.864 1308.780, 884.558 1313.144, 884.232 1317.466, 883.887 1321.746, 883.523 1325.985, 883.139 1330.181, 882.736 1334.335, 882.314 1337.849, 881.951 1341.987, 881.506 1346.080, 881.043 1350.130, 880.561 1354.136, 880.061 1358.097, 879.541 1362.014, 879.003 1365.886, 878.447 1369.713, 877.873 1373.412, 877.317 1377.216, 876.721 1380.975, 876.107 1384.687, 875.475 1388.353, 874.825 1391.973, 874.158 1395.546, 873.473 1399.352, 872.731 1402.897, 872.024 1406.396, 871.301 1409.847, 870.561 1413.250, 869.803 1416.605, 869.029 1420.476, 868.106 1423.800, 867.311 " />
            <path fill="none" stroke-width="3.0" stroke-linecap="butt" stroke-opacity="1.0" stroke="rgb(0, 0, 0)" stroke-linejoin="round" d=" M 1399.691, 571.238 1398.651, 571.488 1398.648, 571.489 1397.752, 571.705 1397.052, 571.867 1395.778, 572.161 1393.768, 572.608 1392.407, 572.898 " />
            <path fill="none" stroke-width="3.0" stroke-linecap="butt" stroke-opacity="1.0" stroke="rgb(0, 0, 0)" stroke-linejoin="round" d=" M 1401.156, 570.782 1401.014, 570.820 1400.855, 570.863 1399.966, 571.104 1399.336, 571.276 1397.480, 571.759 1397.052, 571.867 " />
            <path fill="none" stroke-width="3.0" stroke-linecap="butt" stroke-opacity="1.0" stroke="rgb(0, 0, 0)" stroke-linejoin="round" d=" M 1403.956, 569.875 1402.349, 570.384 1402.316, 570.395 1402.287, 570.404 1402.287, 570.404 1402.167, 570.440 1402.106, 570.459 1402.068, 570.471 1402.051, 570.476 1401.688, 570.587 1400.584, 570.923 1399.966, 571.104 " />
            <path fill="none" stroke-width="3.0" stroke-linecap="butt" stroke-opacity="1.0" stroke="rgb(0, 0, 0)" stroke-linejoin="round" d=" M 1404.655, 569.549 1403.101, 570.103 1402.760, 570.220 1402.550, 570.291 1402.412, 570.338 1402.402, 570.342 1402.217, 570.405 1402.181, 570.418 1401.688, 570.587 " />
            <path fill="none" stroke-width="3.0" stroke-linecap="butt" stroke-opacity="1.0" stroke="rgb(0, 0, 0)" stroke-linejoin="round" d=" M 1405.053, 569.300 1403.610, 569.877 1402.659, 570.243 1402.426, 570.333 1402.402, 570.342 " />
            <path fill="none" stroke-width="3.0" stroke-linecap="butt" stroke-opacity="1.0" stroke="rgb(0, 0, 0)" stroke-linejoin="round" d=" M 1403.829, 569.726 1402.461, 570.318 1402.426, 570.333 " />
            <path fill="none" stroke-width="3.0" stroke-linecap="butt" stroke-opacity="1.0" stroke="rgb(0, 0, 0)" stroke-linejoin="round" d=" M 1402.511, 570.263 1402.181, 570.418 " />
            <path fill="none" stroke-width="3.0" stroke-linecap="butt" stroke-opacity="1.0" stroke="rgb(0, 0, 0)" stroke-linejoin="round" d=" M 781.544, 491.780 784.167, 492.028 787.450, 492.345 790.738, 492.671 794.032, 493.006 797.329, 493.348 800.632, 493.699 803.939, 494.057 807.250, 494.424 810.565, 494.799 813.885, 495.182 817.208, 495.574 820.535, 495.973 823.866, 496.380 827.201, 496.795 830.539, 497.218 833.880, 497.649 837.224, 498.088 840.571, 498.535 843.922, 498.990 847.275, 499.452 850.630, 499.922 853.989, 500.400 857.349, 500.886 860.712, 501.380 864.077, 501.881 867.444, 502.390 870.813, 502.907 874.184, 503.431 877.556, 503.963 880.930, 504.502 884.305, 505.049 887.681, 505.603 891.059, 506.165 894.437, 506.735 897.817, 507.312 901.197, 507.896 904.578, 508.488 907.959, 509.087 911.341, 509.693 914.723, 510.307 918.106, 510.928 921.488, 511.556 924.870, 512.192 928.252, 512.834 931.633, 513.484 935.014, 514.141 938.395, 514.806 941.775, 515.477 945.154, 516.155 948.532, 516.841 951.908, 517.534 955.284, 518.233 958.658, 518.940 962.031, 519.653 965.403, 520.374 968.772, 521.101 972.140, 521.835 975.506, 522.576 978.870, 523.324 982.231, 524.079 985.591, 524.841 988.948, 525.609 992.302, 526.384 995.654, 527.166 999.002, 527.954 1002.348, 528.749 1005.691, 529.551 1009.031, 530.359 1012.367, 531.174 1015.700, 531.995 1019.030, 532.823 1022.356, 533.657 1025.677, 534.498 1028.996, 535.345 1032.310, 536.199 1035.620, 537.059 1038.925, 537.925 1042.227, 538.798 1045.523, 539.677 1048.815, 540.562 1052.103, 541.454 1055.385, 542.352 1058.662, 543.255 1061.934, 544.165 1065.201, 545.082 1068.463, 546.004 1071.719, 546.932 1074.969, 547.867 1078.213, 548.807 1081.452, 549.754 1084.684, 550.706 1087.911, 551.664 1091.131, 552.628 1094.344, 553.599 1097.552, 554.574 1100.752, 555.556 1103.945, 556.544 1107.132, 557.537 1110.311, 558.536 1113.484, 559.541 1116.649, 560.551 1119.806, 561.567 1122.956, 562.589 1126.098, 563.616 1129.232, 564.648 1132.359, 565.687 1133.361, 566.022 " />
            <path fill="none" stroke-width="3.0" stroke-linecap="butt" stroke-opacity="1.0" stroke="rgb(0, 0, 0)" stroke-linejoin="round" d=" M 535.414, 388.638 534.266, 387.659 534.119, 387.530 533.769, 387.225 533.730, 387.192 533.701, 387.166 533.655, 387.126 533.551, 387.035 533.546, 387.030 533.484, 386.977 532.933, 386.497 " />
            <path fill="none" stroke-width="3.0" stroke-linecap="butt" stroke-opacity="1.0" stroke="rgb(0, 0, 0)" stroke-linejoin="round" d=" M 537.814, 390.543 536.697, 389.665 535.414, 388.638 535.211, 388.474 534.665, 388.028 534.560, 387.942 534.199, 387.647 534.153, 387.610 534.116, 387.580 534.113, 387.577 533.966, 387.457 533.944, 387.439 533.908, 387.410 533.902, 387.404 533.841, 387.355 533.761, 387.289 " />
            <path fill="none" stroke-width="3.0" stroke-linecap="butt" stroke-opacity="1.0" stroke="rgb(0, 0, 0)" stroke-linejoin="round" d=" M 534.119, 387.530 533.667, 387.118 533.636, 387.090 533.584, 387.042 533.555, 387.015 533.522, 386.984 533.397, 386.867 533.170, 386.656 532.365, 385.903 " />
            <path fill="none" stroke-width="3.0" stroke-linecap="butt" stroke-opacity="1.0" stroke="rgb(0, 0, 0)" stroke-linejoin="round" d=" M 533.555, 387.015 533.503, 386.964 533.332, 386.796 533.150, 386.617 532.044, 385.502 " />
            <path fill="none" stroke-width="3.0" stroke-linecap="butt" stroke-opacity="1.0" stroke="rgb(0, 0, 0)" stroke-linejoin="round" d=" M 533.503, 386.964 532.953, 386.379 531.956, 385.286 " />
            <path fill="none" stroke-width="3.0" stroke-linecap="butt" stroke-opacity="1.0" stroke="rgb(0, 0, 0)" stroke-linejoin="round" d=" M 555.816, 402.522 555.614, 402.400 553.499, 401.107 551.422, 399.818 549.382, 398.534 547.475, 397.315 547.380, 397.254 545.416, 395.979 " />
            <path fill="none" stroke-width="3.0" stroke-linecap="butt" stroke-opacity="1.0" stroke="rgb(0, 0, 0)" stroke-linejoin="round" d=" M 547.475, 397.315 546.949, 396.968 545.072, 395.711 543.232, 394.458 541.623, 393.344 541.430, 393.211 539.665, 391.968 " />
            <path fill="none" stroke-width="3.0" stroke-linecap="butt" stroke-opacity="1.0" stroke="rgb(0, 0, 0)" stroke-linejoin="round" d=" M 541.623, 393.344 541.358, 393.154 539.678, 391.930 538.036, 390.711 537.814, 390.543 536.516, 389.561 536.452, 389.513 536.430, 389.496 " />
            <path fill="none" stroke-width="3.0" stroke-linecap="butt" stroke-opacity="1.0" stroke="rgb(0, 0, 0)" stroke-linejoin="round" d=" M 587.557, 419.632 585.305, 418.510 582.595, 417.144 579.922, 415.782 577.286, 414.422 574.688, 413.065 572.126, 411.712 569.602, 410.361 568.362, 409.690 567.116, 409.014 " />
            <path fill="none" stroke-width="3.0" stroke-linecap="butt" stroke-opacity="1.0" stroke="rgb(0, 0, 0)" stroke-linejoin="round" d=" M 568.362, 409.690 568.108, 409.550 565.715, 408.221 563.359, 406.894 561.041, 405.572 558.760, 404.253 556.517, 402.938 555.816, 402.522 554.312, 401.628 " />
            <path fill="none" stroke-width="3.0" stroke-linecap="butt" stroke-opacity="1.0" stroke="rgb(0, 0, 0)" stroke-linejoin="round" d=" M 665.728, 453.114 662.776, 451.986 659.106, 450.570 655.467, 449.154 651.862, 447.737 648.289, 446.320 644.749, 444.902 641.243, 443.484 637.770, 442.067 634.332, 440.650 630.927, 439.232 627.557, 437.816 624.222, 436.400 620.921, 434.985 617.656, 433.570 616.794, 433.193 614.426, 432.157 " />
            <path fill="none" stroke-width="3.0" stroke-linecap="butt" stroke-opacity="1.0" stroke="rgb(0, 0, 0)" stroke-linejoin="round" d=" M 616.794, 433.193 614.408, 432.139 611.276, 430.740 608.180, 429.342 605.119, 427.946 602.094, 426.552 599.105, 425.160 596.152, 423.769 593.236, 422.381 590.357, 420.994 587.557, 419.632 587.514, 419.610 584.708, 418.229 " />
            <path fill="none" stroke-width="3.0" stroke-linecap="butt" stroke-opacity="1.0" stroke="rgb(0, 0, 0)" stroke-linejoin="round" d=" M 765.218, 486.885 762.223, 485.969 757.814, 484.607 753.428, 483.241 749.067, 481.870 744.729, 480.496 740.417, 479.117 736.130, 477.734 731.868, 476.347 727.632, 474.957 723.423, 473.563 719.241, 472.166 715.086, 470.766 710.958, 469.363 706.859, 467.957 702.787, 466.549 698.745, 465.138 694.732, 463.724 690.748, 462.309 686.794, 460.891 682.870, 459.472 678.976, 458.051 675.114, 456.628 671.283, 455.203 667.483, 453.778 665.728, 453.114 663.715, 452.351 " />
            <path fill="none" stroke-width="3.0" stroke-linecap="butt" stroke-opacity="1.0" stroke="rgb(0, 0, 0)" stroke-linejoin="round" d=" M 1153.127, 568.484 1151.653, 568.306 1148.473, 567.923 1143.801, 567.348 1139.110, 566.760 1134.401, 566.158 1133.361, 566.022 1129.675, 565.542 1124.932, 564.912 1120.172, 564.270 1115.397, 563.613 1110.606, 562.944 1105.800, 562.261 1100.980, 561.564 1096.146, 560.855 1091.299, 560.132 1086.439, 559.396 1081.567, 558.648 1076.683, 557.886 1071.788, 557.111 1066.882, 556.324 1061.966, 555.523 1057.040, 554.711 1052.106, 553.885 1047.162, 553.047 1042.211, 552.197 1037.252, 551.334 1032.287, 550.459 1027.315, 549.571 1022.337, 548.672 1017.354, 547.761 1012.366, 546.838 1007.374, 545.903 1002.379, 544.956 997.381, 543.998 992.380, 543.028 987.377, 542.047 982.373, 541.054 977.369, 540.051 972.364, 539.036 967.359, 538.010 962.355, 536.974 957.353, 535.927 952.353, 534.869 947.356, 533.801 942.361, 532.722 937.371, 531.633 932.384, 530.534 927.403, 529.425 922.427, 528.307 917.457, 527.178 912.493, 526.040 907.537, 524.892 902.588, 523.735 897.647, 522.569 892.715, 521.394 887.793, 520.210 882.880, 519.017 877.977, 517.815 873.086, 516.605 868.206, 515.386 863.338, 514.159 858.482, 512.924 853.639, 511.682 848.810, 510.431 843.996, 509.173 839.195, 507.907 834.410, 506.634 829.641, 505.354 824.888, 504.066 820.151, 502.772 815.432, 501.471 810.730, 500.163 806.047, 498.849 801.382, 497.528 796.736, 496.202 792.110, 494.869 787.505, 493.531 782.919, 492.187 781.544, 491.780 778.355, 490.837 773.813, 489.482 769.292, 488.122 765.218, 486.885 764.794, 486.757 " />
            <path fill="none" stroke-width="3.0" stroke-linecap="butt" stroke-opacity="1.0" stroke="rgb(0, 0, 0)" stroke-linejoin="round" d=" M 1255.075, 577.451 1254.348, 577.411 1251.041, 577.227 1246.978, 576.990 1242.888, 576.738 1238.770, 576.473 1234.624, 576.193 1230.451, 575.900 1226.252, 575.593 1222.026, 575.272 1217.775, 574.937 1213.498, 574.588 1209.196, 574.225 1204.869, 573.849 1200.518, 573.458 1196.143, 573.053 1191.744, 572.635 1187.323, 572.203 1182.878, 571.757 1178.412, 571.297 1173.924, 570.823 1169.414, 570.336 1164.884, 569.835 1160.333, 569.320 1155.763, 568.792 1151.653, 568.306 " />
            <path fill="none" stroke-width="3.0" stroke-linecap="butt" stroke-opacity="1.0" stroke="rgb(0, 0, 0)" stroke-linejoin="round" d=" M 1308.512, 578.988 1307.596, 578.983 1304.974, 578.970 1301.404, 578.938 1297.801, 578.893 1294.166, 578.834 1290.499, 578.762 1286.800, 578.677 1283.070, 578.578 1279.310, 578.465 1275.518, 578.339 1271.696, 578.199 1267.844, 578.046 1263.963, 577.879 1260.051, 577.698 1256.111, 577.503 1254.348, 577.411 " />
            <path fill="none" stroke-width="3.0" stroke-linecap="butt" stroke-opacity="1.0" stroke="rgb(0, 0, 0)" stroke-linejoin="round" d=" M 1341.484, 578.321 1340.045, 578.378 1338.346, 578.445 1335.173, 578.557 1331.966, 578.656 1328.724, 578.741 1325.448, 578.814 1322.139, 578.875 1318.796, 578.922 1315.419, 578.956 1312.009, 578.977 1308.566, 578.985 1307.596, 578.983 " />
            <path fill="none" stroke-width="3.0" stroke-linecap="butt" stroke-opacity="1.0" stroke="rgb(0, 0, 0)" stroke-linejoin="round" d=" M 1364.223, 576.813 1361.426, 577.047 1361.103, 577.072 1358.593, 577.269 1355.724, 577.478 1352.821, 577.676 1349.881, 577.861 1346.907, 578.034 1343.898, 578.194 1340.854, 578.343 1340.045, 578.378 " />
            <path fill="none" stroke-width="3.0" stroke-linecap="butt" stroke-opacity="1.0" stroke="rgb(0, 0, 0)" stroke-linejoin="round" d=" M 533.667, 387.118 532.981, 386.319 " />
        </g>
    </g>
</svg>
