<?xml version="1.0" encoding="UTF-8" standalone="no"?>
<!-- Created with Inkscape (http://www.inkscape.org/) -->

<svg
   width="6in"
   height="2in"
   viewBox="0 0 152.4 50.8"
   version="1.1"
   id="svg1"
   inkscape:version="1.3.2 (091e20e, 2023-11-25)"
   sodipodi:docname="cone-construction.svg"
   inkscape:export-filename="cone-construction.pdf"
   inkscape:export-xdpi="96"
   inkscape:export-ydpi="96"
   xmlns:inkscape="http://www.inkscape.org/namespaces/inkscape"
   xmlns:sodipodi="http://sodipodi.sourceforge.net/DTD/sodipodi-0.dtd"
   xmlns="http://www.w3.org/2000/svg"
   xmlns:svg="http://www.w3.org/2000/svg">
  <sodipodi:namedview
     id="namedview1"
     pagecolor="#ffffff"
     bordercolor="#000000"
     borderopacity="0.25"
     inkscape:showpageshadow="2"
     inkscape:pageopacity="0.0"
     inkscape:pagecheckerboard="0"
     inkscape:deskcolor="#d1d1d1"
     inkscape:document-units="mm"
     inkscape:zoom="1.0304909"
     inkscape:cx="266.8631"
     inkscape:cy="261.52583"
     inkscape:window-width="1728"
     inkscape:window-height="1051"
     inkscape:window-x="0"
     inkscape:window-y="38"
     inkscape:window-maximized="0"
     inkscape:current-layer="layer1" />
  <defs
     id="defs1">
    <marker
       style="overflow:visible"
       id="ArrowWideRounded"
       refX="0"
       refY="0"
       orient="auto-start-reverse"
       inkscape:stockid="Wide, rounded arrow"
       markerWidth="1"
       markerHeight="1"
       viewBox="0 0 1 1"
       inkscape:isstock="true"
       inkscape:collect="always"
       preserveAspectRatio="xMidYMid">
      <path
         style="fill:none;stroke:context-stroke;stroke-width:1;stroke-linecap:round"
         d="M 3,-3 0,0 3,3"
         transform="rotate(180,0.125,0)"
         sodipodi:nodetypes="ccc"
         id="path2" />
    </marker>
    <inkscape:path-effect
       effect="bspline"
       id="path-effect1"
       is_visible="true"
       lpeversion="1.3"
       weight="33.333333"
       steps="2"
       helper_size="0"
       apply_no_weight="true"
       apply_with_weight="true"
       only_selected="false"
       uniform="false" />
    <inkscape:path-effect
       effect="bspline"
       id="path-effect60"
       is_visible="true"
       lpeversion="1.3"
       weight="33.333333"
       steps="2"
       helper_size="0"
       apply_no_weight="true"
       apply_with_weight="true"
       only_selected="false"
       uniform="false" />
    <marker
       style="overflow:visible"
       id="ArrowWideRounded-8"
       refX="0"
       refY="0"
       orient="auto-start-reverse"
       inkscape:stockid="Wide, rounded arrow"
       markerWidth="1"
       markerHeight="1"
       viewBox="0 0 1 1"
       inkscape:isstock="true"
       inkscape:collect="always"
       preserveAspectRatio="xMidYMid">
      <path
         style="fill:none;stroke:context-stroke;stroke-width:1;stroke-linecap:round"
         d="M 3,-3 0,0 3,3"
         transform="rotate(180,0.125,0)"
         sodipodi:nodetypes="ccc"
         id="path2-6" />
    </marker>
    <inkscape:path-effect
       effect="bspline"
       id="path-effect1-9"
       is_visible="true"
       lpeversion="1.3"
       weight="33.333333"
       steps="2"
       helper_size="0"
       apply_no_weight="true"
       apply_with_weight="true"
       only_selected="false"
       uniform="false" />
    <inkscape:path-effect
       effect="bspline"
       id="path-effect1-9-8"
       is_visible="true"
       lpeversion="1.3"
       weight="33.333333"
       steps="2"
       helper_size="0"
       apply_no_weight="true"
       apply_with_weight="true"
       only_selected="false"
       uniform="false" />
    <inkscape:path-effect
       effect="bspline"
       id="path-effect1-9-8-6"
       is_visible="true"
       lpeversion="1.3"
       weight="33.333333"
       steps="2"
       helper_size="0"
       apply_no_weight="true"
       apply_with_weight="true"
       only_selected="false"
       uniform="false" />
  </defs>
  <g
     inkscape:label="Layer 1"
     inkscape:groupmode="layer"
     id="layer1">
    <path
       style="fill:none;stroke:#808080;stroke-width:0.352778;stroke-linecap:butt;stroke-linejoin:round;stroke-dasharray:0.705554, 0.705554;stroke-dashoffset:0;stroke-opacity:1"
       d="m 15.590941,14.201818 c 2.326972,3.5e-5 4.820208,4.994826 4.820243,11.198317 1.7e-5,6.20359 -2.493234,11.198281 -4.820243,11.198315"
       id="path18-7"
       sodipodi:nodetypes="ccc" />
    <path
       style="fill:none;stroke:#808080;stroke-width:0.352778;stroke-linecap:butt;stroke-linejoin:round;stroke-dasharray:0.705554, 0.705554;stroke-dashoffset:0;stroke-opacity:1"
       d="m 63.469272,14.378129 c 2.326972,3.5e-5 4.820208,4.994826 4.820243,11.198317 1.7e-5,6.20359 -2.493234,11.198281 -4.820243,11.198315"
       id="path18-7-6"
       sodipodi:nodetypes="ccc" />
    <path
       style="fill:none;stroke:#000000;stroke-width:0.352778;stroke-linecap:round;stroke-linejoin:round;stroke-dasharray:none;stroke-dashoffset:3.06667"
       d="m 15.590941,36.59845 c -2.756726,-3.4e-5 -5.478987,-4.999323 -5.478967,-11.198315 4.1e-5,-6.198894 2.722286,-11.198281 5.478967,-11.198318"
       id="path17"
       sodipodi:nodetypes="ccc" />
    <path
       style="fill:none;stroke:#000000;stroke-width:0.352778;stroke-linecap:butt;stroke-linejoin:round;stroke-dasharray:none;stroke-dashoffset:0;stroke-opacity:1"
       d="m 44.78247,14.201952 c 2.326972,3.7e-5 4.820208,4.994826 4.820243,11.198317 1.7e-5,6.20359 -2.493234,11.198281 -4.820243,11.198315"
       id="path18-7-1"
       sodipodi:nodetypes="ccc" />
    <path
       style="fill:none;stroke:#000000;stroke-width:0.352778;stroke-linecap:round;stroke-linejoin:round;stroke-dasharray:none;stroke-dashoffset:3.06667"
       d="m 44.78247,36.598584 c -2.756726,-3.4e-5 -5.478987,-4.999323 -5.478967,-11.198315 4.1e-5,-6.198894 2.722286,-11.19828 5.478967,-11.198318"
       id="path17-7"
       sodipodi:nodetypes="ccc" />
    <path
       style="fill:#0000ff;fill-opacity:1;fill-rule:nonzero;stroke:#000000;stroke-width:0.352999;stroke-linecap:round;stroke-linejoin:round;stroke-dasharray:none;stroke-dashoffset:0;stroke-opacity:1"
       d="m 44.78247,36.598585 c -9.730509,-4.5e-5 -19.461019,-9e-5 -29.191528,-1.35e-4"
       id="path53" />
    <path
       style="fill:#0000ff;fill-opacity:1;fill-rule:nonzero;stroke:#000000;stroke-width:0.352999;stroke-linecap:round;stroke-linejoin:round;stroke-dasharray:none;stroke-dashoffset:0;stroke-opacity:1"
       d="m 44.78247,14.201953 c -9.730509,-4.5e-5 -19.461019,-8.9e-5 -29.191528,-1.34e-4"
       id="path54" />
    <path
       style="fill:none;stroke:#000000;stroke-width:0.352778;stroke-linecap:butt;stroke-linejoin:round;stroke-dasharray:none;stroke-dashoffset:0;stroke-opacity:1"
       d="m 64.178545,14.378227 c -2.326972,3.7e-5 -4.820208,4.994826 -4.820243,11.198317 -1.7e-5,6.20359 2.493234,11.198281 4.820243,11.198315"
       id="path18-7-1-6"
       sodipodi:nodetypes="ccc" />
    <path
       style="fill:none;fill-opacity:1;fill-rule:nonzero;stroke:#000000;stroke-width:0.352999;stroke-linecap:round;stroke-linejoin:round;stroke-dasharray:none;stroke-dashoffset:0;stroke-opacity:1"
       d="m 64.178545,14.378228 c 0,0 0.9689,0.06796 1.435478,0.191856 3.985793,1.058397 9.319765,6.602459 14.594065,8.635251 4.234321,1.631968 13.338485,2.723962 13.338485,2.723962"
       id="path54-3"
       sodipodi:nodetypes="csac" />
    <path
       style="fill:none;fill-opacity:1;fill-rule:nonzero;stroke:#000000;stroke-width:0.352999;stroke-linecap:round;stroke-linejoin:round;stroke-dasharray:none;stroke-dashoffset:0;stroke-opacity:1"
       d="m 64.178545,36.774859 c 0,0 0.976322,0.05994 1.450706,-0.03457 4.034022,-0.803661 9.422398,-5.826422 14.578837,-7.7502 4.27396,-1.59454 13.338485,-3.060792 13.338485,-3.060792"
       id="path54-3-3"
       sodipodi:nodetypes="csac" />
    <path
       style="fill:#0000ff;fill-opacity:1;stroke:#000000;stroke-width:0.352999;stroke-linejoin:round;stroke-dasharray:none;stroke-opacity:1;marker-end:url(#ArrowWideRounded)"
       d="m 44.782467,17.829231 c 0,1.66792 0,3.33584 0,5.00376"
       id="path1"
       inkscape:path-effect="#path-effect1"
       inkscape:original-d="m 44.782467,17.829231 c 0,1.66792 0,3.33584 0,5.00376"
       sodipodi:nodetypes="cc"
       transform="translate(-0.24140159,0.03448594)" />
    <path
       style="fill:#0000ff;fill-opacity:1;stroke:#000000;stroke-width:0.352999;stroke-linejoin:round;stroke-dasharray:none;stroke-opacity:1;marker-end:url(#ArrowWideRounded-8)"
       d="m 44.782467,17.829231 c 0,1.984507 -10e-7,3.969015 -10e-7,5.953522"
       id="path1-7"
       inkscape:path-effect="#path-effect1-9"
       inkscape:original-d="m 44.782467,17.829231 c 0,1.984507 0,3.969015 -10e-7,5.953522"
       sodipodi:nodetypes="cc"
       transform="rotate(180,44.661766,24.982505)" />
    <path
       style="color:#000000;fill:#000000;fill-opacity:1;stroke-linecap:round;stroke-linejoin:round;stroke-dasharray:3.17499, 3.17499;-inkscape-stroke:none"
       d="m 93.183865,25.4 a 0.52916503,0.52916503 0 0 0 -0.5293,0.529297 0.52916503,0.52916503 0 0 0 0.5293,0.529297 0.52916503,0.52916503 0 0 0 0.52929,-0.529297 A 0.52916503,0.52916503 0 0 0 93.183865,25.4 Z"
       id="path2-7-1" />
    <path
       style="fill:none;stroke:#808080;stroke-width:0.352778;stroke-linecap:butt;stroke-linejoin:round;stroke-dasharray:0.705554, 0.705554;stroke-dashoffset:0;stroke-opacity:1"
       d="m 107.69731,14.378129 c 2.32697,3.5e-5 4.8202,4.994826 4.82024,11.198317 2e-5,6.20359 -2.49323,11.198281 -4.82024,11.198315"
       id="path18-7-6-3"
       sodipodi:nodetypes="ccc" />
    <path
       style="fill:none;stroke:#000000;stroke-width:0.352778;stroke-linecap:butt;stroke-linejoin:round;stroke-dasharray:none;stroke-dashoffset:0;stroke-opacity:1"
       d="m 108.40658,14.378227 c -2.32697,3.7e-5 -4.82021,4.994826 -4.82024,11.198317 -2e-5,6.20359 2.49323,11.198281 4.82024,11.198315"
       id="path18-7-1-6-8"
       sodipodi:nodetypes="ccc" />
    <path
       style="fill:none;stroke:#000000;stroke-width:0.352778;stroke-linecap:butt;stroke-linejoin:round;stroke-dasharray:none;stroke-dashoffset:0;stroke-opacity:1"
       d="m 127.25436,16.904494 c 0.1302,-0.755142 -1.04798,-1.908623 -2.68551,-2.336505 -1.63754,-0.427881 -3.09583,0.03666 -3.2264,0.791748"
       id="path18-7-1-6-8-9"
       sodipodi:nodetypes="ccc" />
    <path
       style="fill:none;stroke:#000000;stroke-width:0.352778;stroke-linecap:butt;stroke-linejoin:round;stroke-dasharray:none;stroke-dashoffset:0;stroke-opacity:1"
       d="m 127.26987,16.82837 c -0.13019,0.755149 -1.5889,1.219612 -3.2264,0.791747 -1.63755,-0.427872 -2.81609,-1.581402 -2.68551,-2.336503"
       id="path18-7-1-6-8-9-8"
       sodipodi:nodetypes="ccc" />
    <path
       style="fill:none;fill-opacity:1;fill-rule:nonzero;stroke:#000000;stroke-width:0.352999;stroke-linecap:round;stroke-linejoin:round;stroke-dasharray:none;stroke-dashoffset:0;stroke-opacity:1"
       d="m 108.40658,14.378228 c 0,0 0.9689,0.06796 1.43548,0.191856 3.76119,0.998754 5.06472,3.72612 7.91524,3.390237 1.48526,-0.175011 3.02875,-1.251542 3.60066,-2.676707 m 5.8964,1.62088 c -0.82292,1.592067 -0.92565,4.093117 0.18933,5.585502 2.17231,2.907582 10.33092,3.439301 10.33092,3.439301"
       id="path54-3-35"
       sodipodi:nodetypes="csaccac" />
    <path
       style="fill:none;fill-opacity:1;fill-rule:nonzero;stroke:#000000;stroke-width:0.352999;stroke-linecap:round;stroke-linejoin:round;stroke-dasharray:none;stroke-dashoffset:0;stroke-opacity:1"
       d="m 108.40658,36.774859 c 0,0 0.97632,0.05994 1.45071,-0.03457 5.35632,-1.06709 8.5128,-5.618341 13.23331,-7.443308 4.68389,-1.810813 14.68401,-3.367684 14.68401,-3.367684"
       id="path54-3-3-1"
       sodipodi:nodetypes="csac" />
    <path
       style="color:#000000;fill:#000000;fill-opacity:1;stroke-linecap:round;stroke-linejoin:round;stroke-dasharray:3.17499, 3.17499;-inkscape-stroke:none"
       d="m 137.50276,25.4 a 0.52916503,0.52916503 0 0 0 -0.5293,0.529297 0.52916503,0.52916503 0 0 0 0.5293,0.529297 0.52916503,0.52916503 0 0 0 0.52929,-0.529297 A 0.52916503,0.52916503 0 0 0 137.50276,25.4 Z"
       id="path2-7-1-5" />
    <text
       xml:space="preserve"
       style="font-size:3.88056px;fill:#000000;fill-opacity:1;fill-rule:nonzero;stroke:none;stroke-width:0.176389;stroke-linecap:round;stroke-linejoin:round;stroke-dasharray:0.352777, 0.352777;stroke-dashoffset:0;stroke-opacity:1"
       x="23.605103"
       y="43.097095"
       id="text35-9-5-8-3"><tspan
         sodipodi:role="line"
         id="tspan35-3-6-6-1"
         style="fill:#000000;fill-opacity:1;fill-rule:nonzero;stroke:none;stroke-width:0.176389"
         x="23.605103"
         y="43.097095">$M\times [0,1]$</tspan></text>
    <text
       xml:space="preserve"
       style="font-size:3.88056px;fill:#000000;fill-opacity:1;fill-rule:nonzero;stroke:none;stroke-width:0.176389;stroke-linecap:round;stroke-linejoin:round;stroke-dasharray:0.352777, 0.352777;stroke-dashoffset:0;stroke-opacity:1"
       x="63.634232"
       y="43.097095"
       id="text35-9-5-8-3-6"><tspan
         sodipodi:role="line"
         id="tspan35-3-6-6-1-0"
         style="fill:#000000;fill-opacity:1;fill-rule:nonzero;stroke:none;stroke-width:0.176389"
         x="63.634232"
         y="43.097095">$\mathrm{C}M$</tspan></text>
    <text
       xml:space="preserve"
       style="font-size:3.88056px;fill:#000000;fill-opacity:1;fill-rule:nonzero;stroke:none;stroke-width:0.176389;stroke-linecap:round;stroke-linejoin:round;stroke-dasharray:0.352777, 0.352777;stroke-dashoffset:0;stroke-opacity:1"
       x="103.11626"
       y="43.078148"
       id="text35-9-5-8-3-6-5"><tspan
         sodipodi:role="line"
         id="tspan35-3-6-6-1-0-8"
         style="fill:#000000;fill-opacity:1;fill-rule:nonzero;stroke:none;stroke-width:0.176389"
         x="103.11626"
         y="43.078148">$\mathrm{C}M\setminus \Int(D^{n+1})$</tspan></text>
    <text
       xml:space="preserve"
       style="font-size:3.88056px;fill:#000000;fill-opacity:1;fill-rule:nonzero;stroke:none;stroke-width:0.176389;stroke-linecap:round;stroke-linejoin:round;stroke-dasharray:0.352777, 0.352777;stroke-dashoffset:0;stroke-opacity:1"
       x="124.01136"
       y="11.882788"
       id="text35-9-5-8-3-6-5-1"><tspan
         sodipodi:role="line"
         id="tspan35-3-6-6-1-0-8-0"
         style="fill:#000000;fill-opacity:1;fill-rule:nonzero;stroke:none;stroke-width:0.176389"
         x="124.01136"
         y="11.882788">$S^n$</tspan></text>
  </g>
</svg>
