<?xml version="1.0" encoding="UTF-8" standalone="no"?>
<!-- Created with Inkscape (http://www.inkscape.org/) -->

<svg
   width="6in"
   height="1.1in"
   viewBox="0 0 152.4 27.940001"
   version="1.1"
   id="svg1"
   inkscape:version="1.3.2 (091e20e, 2023-11-25)"
   sodipodi:docname="congruence-vs-homeomorphism.svg"
   inkscape:export-filename="congruence-vs-homeomorphism.pdf"
   inkscape:export-xdpi="96"
   inkscape:export-ydpi="96"
   xmlns:inkscape="http://www.inkscape.org/namespaces/inkscape"
   xmlns:sodipodi="http://sodipodi.sourceforge.net/DTD/sodipodi-0.dtd"
   xmlns="http://www.w3.org/2000/svg"
   xmlns:svg="http://www.w3.org/2000/svg">
  <sodipodi:namedview
     id="namedview1"
     pagecolor="#ffffff"
     bordercolor="#000000"
     borderopacity="0.25"
     inkscape:showpageshadow="2"
     inkscape:pageopacity="0.0"
     inkscape:pagecheckerboard="0"
     inkscape:deskcolor="#d1d1d1"
     inkscape:document-units="mm"
     inkscape:zoom="0.98749264"
     inkscape:cx="333.67337"
     inkscape:cy="109.87424"
     inkscape:window-width="1728"
     inkscape:window-height="1051"
     inkscape:window-x="0"
     inkscape:window-y="38"
     inkscape:window-maximized="0"
     inkscape:current-layer="layer1" />
  <defs
     id="defs1">
    <inkscape:path-effect
       effect="spiro"
       id="path-effect7"
       is_visible="true"
       lpeversion="1" />
    <inkscape:path-effect
       effect="simplify"
       id="path-effect6"
       is_visible="true"
       lpeversion="1.3"
       threshold="17.2414"
       steps="1"
       smooth_angles="360"
       helper_size="0"
       simplify_individual_paths="false"
       simplify_just_coalesce="false" />
    <inkscape:path-effect
       effect="knot"
       id="path-effect5"
       is_visible="true"
       lpeversion="1"
       switcher_size="14.8"
       interruption_width="3"
       prop_to_stroke_width="true"
       add_stroke_width="inkscape_1.0_and_up"
       both="false"
       inverse_width="false"
       add_other_stroke_width="inkscape_1.0_and_up"
       crossing_points_vector="" />
    <inkscape:path-effect
       effect="spiro"
       id="path-effect4"
       is_visible="true"
       lpeversion="1" />
    <inkscape:path-effect
       effect="simplify"
       id="path-effect3"
       is_visible="true"
       lpeversion="1.3"
       threshold="17.2414"
       steps="1"
       smooth_angles="360"
       helper_size="0"
       simplify_individual_paths="false"
       simplify_just_coalesce="false" />
    <marker
       style="overflow:visible"
       id="ArrowWideRounded-3"
       refX="0"
       refY="0"
       orient="auto-start-reverse"
       inkscape:stockid="Wide, rounded arrow"
       markerWidth="1"
       markerHeight="1"
       viewBox="0 0 1 1"
       inkscape:isstock="true"
       inkscape:collect="always"
       preserveAspectRatio="xMidYMid">
      <path
         style="fill:none;stroke:context-stroke;stroke-width:1;stroke-linecap:round"
         d="M 3,-3 0,0 3,3"
         transform="rotate(180,0.125,0)"
         sodipodi:nodetypes="ccc"
         id="path2-1" />
    </marker>
    <inkscape:path-effect
       effect="simplify"
       id="path-effect3-7"
       is_visible="true"
       lpeversion="1.3"
       threshold="17.2414"
       steps="1"
       smooth_angles="360"
       helper_size="0"
       simplify_individual_paths="false"
       simplify_just_coalesce="false" />
    <inkscape:path-effect
       effect="spiro"
       id="path-effect4-1"
       is_visible="true"
       lpeversion="1" />
    <marker
       style="overflow:visible"
       id="ArrowWideRounded-3-0"
       refX="0"
       refY="0"
       orient="auto-start-reverse"
       inkscape:stockid="Wide, rounded arrow"
       markerWidth="1"
       markerHeight="1"
       viewBox="0 0 1 1"
       inkscape:isstock="true"
       inkscape:collect="always"
       preserveAspectRatio="xMidYMid">
      <path
         style="fill:none;stroke:context-stroke;stroke-width:1;stroke-linecap:round"
         d="M 3,-3 0,0 3,3"
         transform="rotate(180,0.125,0)"
         sodipodi:nodetypes="ccc"
         id="path2-1-2" />
    </marker>
    <inkscape:path-effect
       effect="simplify"
       id="path-effect3-7-6"
       is_visible="true"
       lpeversion="1.3"
       threshold="17.2414"
       steps="1"
       smooth_angles="360"
       helper_size="0"
       simplify_individual_paths="false"
       simplify_just_coalesce="false" />
    <inkscape:path-effect
       effect="spiro"
       id="path-effect4-1-6"
       is_visible="true"
       lpeversion="1" />
  </defs>
  <g
     inkscape:label="Layer 1"
     inkscape:groupmode="layer"
     id="layer1">
    <path
       style="fill:none;fill-opacity:1;stroke:#000000;stroke-width:0.352779;stroke-linecap:square;stroke-linejoin:round;stroke-dasharray:none;stroke-opacity:1;paint-order:stroke markers fill"
       d="M 18.577716,24.47541 31.644523,24.34437 7.0348147,1.3991524 Z"
       id="path1"
       sodipodi:nodetypes="cccc" />
    <path
       style="fill:none;fill-opacity:1;stroke:#000000;stroke-width:0.352779;stroke-linecap:square;stroke-linejoin:round;stroke-dasharray:none;stroke-opacity:1;paint-order:stroke markers fill"
       d="M 46.162925,12.022641 43.285072,24.725993 71.282757,6.037931 Z"
       id="path1-0"
       sodipodi:nodetypes="cccc" />
    <path
       style="fill:none;fill-opacity:1;stroke:#000000;stroke-width:0.352777;stroke-linecap:round;stroke-linejoin:round;stroke-dasharray:none;stroke-opacity:1;marker-end:url(#ArrowWideRounded-3);paint-order:stroke markers fill"
       d="m 34.506625,13.988862 c 2.731727,-0.01884 5.463639,-0.01083 8.195209,0.02402 1.047179,0.01336 2.094307,0.03067 3.141355,0.05192"
       id="path3-9"
       inkscape:path-effect="#path-effect3-7;#path-effect4-1"
       inkscape:original-d="m 34.506625,13.988862 c 2.785204,-0.04229 7.389667,-0.0018 11.336564,0.07594"
       sodipodi:nodetypes="cc"
       transform="translate(75.319261,-2.7313102)" />
    <ellipse
       style="fill:none;fill-opacity:1;stroke:#000000;stroke-width:0.352777;stroke-linecap:square;stroke-linejoin:round;stroke-dasharray:none;stroke-opacity:1;paint-order:stroke markers fill"
       id="path4"
       cx="98.214958"
       cy="12.323315"
       rx="8.275094"
       ry="8.4677" />
    <path
       style="fill:none;fill-opacity:1;stroke:#000000;stroke-width:0.352777;stroke-linecap:square;stroke-linejoin:round;stroke-dasharray:none;stroke-opacity:1;paint-order:stroke markers fill"
       d="m 130.71389,13.27117 c -0.69698,-0.271191 -1.30705,-0.789669 -1.6293,-1.464563 -0.20802,-0.435637 -0.29337,-0.932487 -0.22041,-1.409693 0.073,-0.4772047 0.30762,-0.9318029 0.66932,-1.2515161 0.21821,-0.1928724 0.48113,-0.3361415 0.76343,-0.4076987 0.2823,-0.071557 0.58364,-0.070532 0.86348,0.010122 0.343,0.098859 0.64152,0.3107875 0.91881,0.5355932 0.99947,0.8103178 1.83528,1.8455528 2.9747,2.4432948 0.28704,0.150578 0.5927,0.271808 0.91297,0.321724 0.32026,0.04992 0.65675,0.02561 0.95368,-0.104375 0.29612,-0.129635 0.54266,-0.36064 0.71353,-0.635039 0.17087,-0.2744 0.26845,-0.590671 0.30807,-0.911485 0.10317,-0.8354991 -0.19861,-1.7090934 -0.78611,-2.3120385 -0.36247,-0.3719912 -0.82325,-0.6412213 -1.31442,-0.8100678 -0.49117,-0.1688465 -1.01254,-0.239755 -1.53188,-0.2461842 -0.85463,-0.01058 -1.71027,0.1505839 -2.56072,0.065584 -0.34709,-0.03469 -0.69199,-0.1110508 -1.01143,-0.251162 -0.31944,-0.1401113 -0.61319,-0.3457073 -0.83442,-0.6153901 -0.32228,-0.3928687 -0.47698,-0.9108031 -0.46172,-1.4187208 0.0153,-0.5079176 0.194,-1.0043137 0.47348,-1.428696 0.43859,-0.6659563 1.11144,-1.1502704 1.8327,-1.4903274 1.31639,-0.6206463 2.82505,-0.7952541 4.26388,-0.5765151 0.48782,0.074162 0.97461,0.1943142 1.41001,0.4264668 0.43541,0.2321525 0.81846,0.5847762 1.02091,1.0347581 0.0979,0.2176145 0.15174,0.4520052 0.20437,0.6847545 0.107,0.4732412 0.21197,0.9488907 0.38226,1.4032144 0.17028,0.4543236 0.40962,0.890026 0.75394,1.2318622 0.20137,0.1999211 0.43842,0.3663402 0.70224,0.4708174 0.26383,0.1044772 0.55501,0.1454557 0.83508,0.099798 0.38554,-0.062855 0.73144,-0.2859418 1.00197,-0.5677428 0.43096,-0.4489168 0.68353,-1.034514 0.9456,-1.5989373 0.26207,-0.5644234 0.55638,-1.1386782 1.04085,-1.5292512 0.3721,-0.2999834 0.8383,-0.4720539 1.31302,-0.5275773 0.47473,-0.055523 0.95813,0.00161 1.41981,0.125283 0.32495,0.087045 0.64717,0.2103541 0.90805,0.4227545 0.13044,0.1062002 0.24415,0.2341782 0.32649,0.3808505 0.0823,0.1466723 0.13271,0.3123579 0.137,0.4805071 0.008,0.3051517 -0.13696,0.599829 -0.34358,0.8245178 -0.20663,0.2246887 -0.47135,0.3874145 -0.74157,0.5294039 -0.36644,0.1925539 -0.74967,0.3525121 -1.11095,0.554593 -0.36128,0.2020809 -0.70512,0.4515618 -0.94831,0.7865493 -0.10505,0.1447018 -0.19072,0.3055598 -0.23393,0.4790731 -0.0432,0.1735133 -0.0422,0.3604829 0.0204,0.5279634 0.0492,0.1315141 0.13479,0.2475558 0.23726,0.3435579 0.10246,0.096002 0.22159,0.1727829 0.34552,0.2388008 0.53467,0.2848334 1.15016,0.3701183 1.75207,0.4388232 0.6019,0.068705 1.21645,0.1283299 1.77202,0.3698697 0.34812,0.1513453 0.66703,0.3737211 0.91746,0.6589765 0.25044,0.2852554 0.43097,0.634061 0.50365,1.006631 0.0763,0.391412 0.0324,0.802822 -0.10677,1.176556 -0.13912,0.373734 -0.37136,0.710058 -0.65806,0.987255 -0.61861,0.598107 -1.49223,0.912371 -2.35223,0.883924 -0.65257,-0.02159 -1.2938,-0.232344 -1.84921,-0.57561 -0.55541,-0.343267 -1.02608,-0.81636 -1.39344,-1.356134 -0.15882,-0.233356 -0.30555,-0.486378 -0.53714,-0.647775 -0.13451,-0.09375 -0.2928,-0.151749 -0.45531,-0.173509 -0.16251,-0.02176 -0.32907,-0.0078 -0.48747,0.03457 -0.3168,0.08466 -0.59572,0.28009 -0.82284,0.516618 -0.33556,0.349452 -0.57189,0.804295 -0.61283,1.287038 -0.0205,0.241372 0.008,0.487492 0.0894,0.715632 0.0814,0.22814 0.21633,0.437845 0.39483,0.601604 0.19258,0.176674 0.4314,0.296949 0.67924,0.379868 0.24784,0.08292 0.50595,0.130227 0.76331,0.175695 0.94899,0.167663 1.90938,0.314366 2.87217,0.272772 0.50766,-0.02193 1.01181,-0.09611 1.5192,-0.123539 0.50739,-0.02743 1.0256,-0.0065 1.50701,0.15616 0.65784,0.222225 1.22035,0.714424 1.52606,1.337873 0.20311,0.414226 0.2943,0.879265 0.28978,1.340588 -0.005,0.461324 -0.10295,0.919143 -0.26287,1.351883 -0.33364,0.90281 -0.94269,1.703895 -1.73155,2.255337 -0.78885,0.551443 -1.75497,0.848779 -2.71709,0.822327 -0.50067,-0.01376 -1.00274,-0.114727 -1.45413,-0.331771 -0.88277,-0.424465 -1.49709,-1.244973 -2.07831,-2.033413 -0.25904,-0.351392 -0.51981,-0.703884 -0.82833,-1.012744 -0.30851,-0.30886 -0.66893,-0.574745 -1.08008,-0.721462 -0.35489,-0.126638 -0.7408,-0.16095 -1.11427,-0.110955 -0.37347,0.05 -0.73431,0.183297 -1.0571,0.37769 -0.57785,0.347998 -1.02333,0.881224 -1.38257,1.452147 -0.35924,0.570924 -0.642,1.185979 -0.96833,1.776333 -0.59524,1.076837 -1.3569,2.091397 -2.37935,2.775853 -0.28795,0.19276 -0.59482,0.358001 -0.9173,0.484807 -0.60612,0.238341 -1.26753,0.338289 -1.91609,0.278615 -0.64856,-0.05967 -1.28307,-0.279909 -1.82303,-0.6441 -0.68928,-0.464904 -1.21114,-1.153771 -1.54885,-1.9135 -0.18719,-0.421092 -0.32151,-0.868949 -0.35909,-1.328235 -0.0376,-0.459286 0.0242,-0.930888 0.21359,-1.351008 0.26631,-0.590872 0.767,-1.047293 1.31187,-1.398249 0.54487,-0.350955 1.14197,-0.611855 1.70931,-0.925186 0.43778,-0.241777 0.86329,-0.51933 1.19994,-0.889157 0.33666,-0.369827 0.58011,-0.841807 0.60137,-1.341462 0.0144,-0.338314 -0.0747,-0.67989 -0.24981,-0.969729 -0.17509,-0.28984 -0.43517,-0.527126 -0.73838,-0.677867 -0.21257,-0.105676 -0.4433,-0.168829 -0.66453,-0.254908 z"
       id="path5"
       inkscape:path-effect="#path-effect6;#path-effect7"
       inkscape:original-d="m 130.71389,13.27117 c -2.97502,-0.626518 -1.97973,-6.1069742 1.13735,-4.2074448 1.53494,1.4631798 4.97524,5.1935078 6.09093,1.3338088 0.19012,-3.446987 -3.60556,-3.590329 -6.07821,-3.3061782 -3.31338,0.1549771 -2.83056,-4.5216979 -0.16814,-5.1830619 2.20234,-0.7592152 5.57573,-1.35226548 6.9124,1.1457029 0.0866,1.8452716 1.56046,4.9690057 3.71409,3.0439483 0.18443,-2.8897722 4.3338,-5.38703892 6.09082,-2.2463707 -0.18612,1.8803953 -4.98335,2.2271153 -2.93314,4.2774985 2.20423,0.081081 6.2948,0.9150015 4.80411,3.9795481 -1.54606,2.849131 -5.25837,1.364772 -6.41165,-0.961066 -2.68692,-1.112663 -3.6822,3.454866 -0.6378,3.468515 2.41074,1.120276 6.42797,-1.303178 7.53677,1.930093 0.88082,3.07166 -2.26936,6.125694 -5.32018,5.37063 -2.77003,-0.484472 -3.30928,-5.548248 -6.80082,-3.740246 -2.16406,1.723071 -2.57377,5.13702 -5.33268,6.324113 -2.03915,1.260478 -4.74888,0.0981 -5.59855,-2.040444 -1.2859,-2.272088 0.51497,-4.512462 2.79565,-5.040486 2.16587,-0.641217 2.67954,-3.526253 0.19905,-4.14856 z"
       transform="translate(-4.814548,0.86737156)" />
    <path
       style="fill:none;fill-opacity:1;stroke:#000000;stroke-width:0.352778;stroke-linecap:square;stroke-linejoin:round;stroke-dasharray:none;stroke-opacity:1;paint-order:stroke markers fill"
       id="path7"
       sodipodi:type="arc"
       sodipodi:cx="18.529606"
       sodipodi:cy="24.451567"
       sodipodi:rx="1.7597072"
       sodipodi:ry="1.7709939"
       sodipodi:start="4.2694214"
       sodipodi:end="0.0033994899"
       sodipodi:arc-type="slice"
       d="m 17.775356,22.851503 a 1.7597072,1.7709939 0 0 1 1.697337,0.104885 1.7597072,1.7709939 0 0 1 0.81661,1.501199 l -1.759697,-0.006 z" />
    <path
       style="fill:none;fill-opacity:1;stroke:#000000;stroke-width:0.352778;stroke-linecap:square;stroke-linejoin:round;stroke-dasharray:none;stroke-opacity:1;paint-order:stroke markers fill"
       id="path7-6"
       sodipodi:type="arc"
       sodipodi:cx="46.162922"
       sodipodi:cy="12.022641"
       sodipodi:rx="1.7597072"
       sodipodi:ry="1.7709939"
       sodipodi:start="6.0511812"
       sodipodi:end="1.8016086"
       sodipodi:arc-type="slice"
       d="m 47.875482,11.615439 a 1.7597072,1.7709939 0 0 1 -0.467518,1.658738 1.7597072,1.7709939 0 0 1 -1.647607,0.472493 l 0.402565,-1.724029 z" />
    <path
       style="fill:none;fill-opacity:1;stroke:#000000;stroke-width:0.352777;stroke-linecap:square;stroke-linejoin:round;stroke-dasharray:none;stroke-opacity:1;marker-end:url(#ArrowWideRounded-3-0);paint-order:stroke markers fill"
       d="m 34.506625,13.988862 c 2.731727,-0.01884 5.463639,-0.01083 8.195209,0.02402 1.047179,0.01336 2.094307,0.03067 3.141355,0.05192"
       id="path3-9-7"
       inkscape:path-effect="#path-effect3-7-6;#path-effect4-1-6"
       inkscape:original-d="m 34.506625,13.988862 c 2.785204,-0.04229 7.389667,-0.0018 11.336564,0.07594"
       sodipodi:nodetypes="cc"
       transform="translate(-5.5566679,-1.3715602)" />
  </g>
</svg>
