<?xml version="1.0" encoding="UTF-8" standalone="no"?>
<!-- Created with Inkscape (http://www.inkscape.org/) -->

<svg
   width="6in"
   height="2in"
   viewBox="0 0 152.4 50.8"
   version="1.1"
   id="svg1"
   inkscape:version="1.3.2 (091e20e, 2023-11-25)"
   sodipodi:docname="connected-sum.svg"
   inkscape:export-filename="connected-sum.pdf"
   inkscape:export-xdpi="96"
   inkscape:export-ydpi="96"
   xmlns:inkscape="http://www.inkscape.org/namespaces/inkscape"
   xmlns:sodipodi="http://sodipodi.sourceforge.net/DTD/sodipodi-0.dtd"
   xmlns="http://www.w3.org/2000/svg"
   xmlns:svg="http://www.w3.org/2000/svg">
  <sodipodi:namedview
     id="namedview1"
     pagecolor="#ffffff"
     bordercolor="#000000"
     borderopacity="0.25"
     inkscape:showpageshadow="2"
     inkscape:pageopacity="0.0"
     inkscape:pagecheckerboard="0"
     inkscape:deskcolor="#d1d1d1"
     inkscape:document-units="mm"
     inkscape:zoom="3.6149573"
     inkscape:cx="203.46022"
     inkscape:cy="71.231824"
     inkscape:window-width="1728"
     inkscape:window-height="1051"
     inkscape:window-x="0"
     inkscape:window-y="38"
     inkscape:window-maximized="0"
     inkscape:current-layer="layer1" />
  <defs
     id="defs1">
    <inkscape:path-effect
       effect="bspline"
       id="path-effect2"
       is_visible="true"
       lpeversion="1.3"
       weight="33.333333"
       steps="2"
       helper_size="0"
       apply_no_weight="true"
       apply_with_weight="true"
       only_selected="false"
       uniform="false" />
  </defs>
  <g
     inkscape:label="Layer 1"
     inkscape:groupmode="layer"
     id="layer1">
    <path
       style="fill:none;stroke:#808080;stroke-width:0.352778;stroke-linecap:butt;stroke-linejoin:round;stroke-dasharray:0.705555, 0.705555;stroke-dashoffset:0;stroke-opacity:1"
       d="m 8.8567066,39.194301 c 2.95e-5,-0.74666 5.1189724,-1.54667 11.4766664,-1.54668 6.357789,-1e-5 11.237447,0.656678 11.237481,1.403348"
       id="path18-1"
       sodipodi:nodetypes="ccc" />
    <path
       id="path19"
       style="fill:none;stroke:#000000;stroke-width:0.352777;stroke-linejoin:round"
       d="M 8.8567066,39.194301 C 8.6803637,32.84025 2.5327918,30.329765 2.5269478,24.925017 2.5157204,14.541526 19.136431,14.533788 20.544976,14.533788 c 1.04399,0 17.309518,-0.283232 17.355572,10.19596 0.02461,5.600017 -6.153329,7.08816 -6.329694,14.321221"
       sodipodi:nodetypes="csssc" />
    <path
       d="m 14.85248,23.552823 c 1.672724,-1.053542 7.35274,-1.577864 10.861627,-0.03493 m 2.932809,-1.745428 c -1.012586,0.921952 -1.891659,1.484837 -2.932809,1.745428 -1.763636,0.441422 -3.56077,0.835292 -5.390994,0.845422 -1.87039,0.01035 -3.722603,-0.114286 -5.470633,-0.810492 -1.07289,-0.427314 -2.180659,-0.800648 -3.057114,-1.780358"
       style="display:inline;fill:none;stroke:#000000;stroke-width:0.352776;stroke-dasharray:none;stroke-opacity:1"
       id="path1" />
    <path
       d="m 96.412189,25.824727 c 1.672724,-1.053542 7.352741,-1.577864 10.861631,-0.03493 m 2.93281,-1.745428 c -1.01259,0.921952 -1.89166,1.484837 -2.93281,1.745428 -1.76364,0.441422 -3.56077,0.835292 -5.391,0.845422 -1.87039,0.01035 -3.722601,-0.114286 -5.470631,-0.810492 -1.07289,-0.427314 -2.180659,-0.800648 -3.057114,-1.780358"
       style="display:inline;fill:none;stroke:#000000;stroke-width:0.352776;stroke-dasharray:none;stroke-opacity:1"
       id="path1-1" />
    <path
       style="color:#000000;fill:#0000ff;stroke-linecap:round;stroke-linejoin:round;stroke-dasharray:3.17499, 3.17499;-inkscape-stroke:none"
       d="m 34.475212,23.942867 a 0.52916503,0.52916503 0 0 0 -0.5293,0.529297 0.52916503,0.52916503 0 0 0 0.5293,0.529297 0.52916503,0.52916503 0 0 0 0.52929,-0.529297 0.52916503,0.52916503 0 0 0 -0.52929,-0.529297 z"
       id="path2-1" />
    <path
       style="color:#000000;fill:#0000ff;fill-opacity:0.15;stroke-width:1;stroke-linecap:round;stroke-linejoin:round;stroke-dasharray:3.17499, 3.17499;-inkscape-stroke:none"
       d="m 34.475228,22.273576 a 2.2430032,2.1980395 0 0 0 -2.243575,2.198589 2.2430032,2.1980395 0 0 0 2.243575,2.198587 2.2430032,2.1980395 0 0 0 2.243533,-2.198587 2.2430032,2.1980395 0 0 0 -2.243533,-2.198589 z"
       id="path2-1-2" />
    <path
       id="path19-2"
       style="fill:none;stroke:#000000;stroke-width:0.352777;stroke-linejoin:round"
       d="m 42.034351,24.729748 c -0.09463,10.869859 15.844526,10.713276 17.355572,10.78177 2.04767,0.09282 18.101708,-0.303475 18.018028,-10.586501 -0.0845,-10.383153 -16.609483,-10.391229 -18.018028,-10.391229 -1.04399,0 -17.264335,-0.282936 -17.355572,10.19596 z"
       sodipodi:nodetypes="sssss" />
    <path
       d="m 67.089949,25.869676 c -2.268777,-1.053542 -9.972786,-1.577864 -14.732016,-0.03493 m -3.977875,-1.745428 c 1.373407,0.921952 2.565725,1.484837 3.977875,1.745428 2.392083,0.441422 4.8296,0.835292 7.311999,0.845422 2.536877,0.01035 5.049101,-0.114286 7.420017,-0.810492 1.455199,-0.427314 2.957705,-0.800648 4.146473,-1.780358"
       style="display:inline;fill:none;stroke:#000000;stroke-width:0.352776;stroke-dasharray:none;stroke-opacity:1"
       id="path1-6" />
    <path
       style="color:#000000;fill:#0000ff;stroke-linecap:round;stroke-linejoin:round;stroke-dasharray:3.17499, 3.17499;-inkscape-stroke:none"
       d="m 46.038188,27.60188 a 0.52916503,0.52916503 0 0 1 0.5293,0.529297 0.52916503,0.52916503 0 0 1 -0.5293,0.529297 0.52916503,0.52916503 0 0 1 -0.52929,-0.529297 0.52916503,0.52916503 0 0 1 0.52929,-0.529297 z"
       id="path2-1-8" />
    <path
       style="color:#000000;fill:#0000ff;fill-opacity:0.15;stroke-width:1;stroke-linecap:round;stroke-linejoin:round;stroke-dasharray:3.17499, 3.17499;-inkscape-stroke:none"
       d="m 46.038172,25.932589 a 2.2430032,2.1980395 0 0 1 2.243575,2.198589 2.2430032,2.1980395 0 0 1 -2.243575,2.198587 2.2430032,2.1980395 0 0 1 -2.243533,-2.198587 2.2430032,2.1980395 0 0 1 2.243533,-2.198589 z"
       id="path2-1-2-9" />
    <path
       d="m 140.2026,26.435199 c -1.8683,-1.008709 -8.21243,-1.510719 -12.13158,-0.03344 m -3.27572,-1.671152 c 1.13099,0.882719 2.11283,1.421651 3.27572,1.671152 1.96984,0.422638 3.9771,0.799747 6.02131,0.809446 2.08908,0.0099 4.15786,-0.109423 6.11027,-0.776002 1.19833,-0.40913 2.43562,-0.766577 3.41455,-1.704596"
       style="display:inline;fill:none;stroke:#000000;stroke-width:0.352776;stroke-dasharray:none;stroke-opacity:1"
       id="path1-6-1" />
    <path
       id="path19-8"
       style="fill:none;stroke:#000000;stroke-width:0.352777;stroke-linejoin:round"
       d="m 113.13153,39.908046 c 0.0383,-10.469815 29.54058,-0.232322 34.64501,-11.249086 1.49151,-3.219086 -0.99189,-8.028074 -4.03735,-9.848035 -7.77149,-4.644222 -18.03065,3.968383 -27.01238,2.831114 -5.49382,-0.695628 -10.04011,-6.098353 -15.56949,-5.795197 -4.536317,0.248711 -9.94793,2.163586 -12.176918,6.122328 -2.96654,5.268654 1.403011,16.593983 1.437019,18.082219"
       sodipodi:nodetypes="caaaaac" />
    <text
       xml:space="preserve"
       style="font-size:3.88056px;fill:#000000;fill-opacity:1;fill-rule:nonzero;stroke:none;stroke-width:0.176389;stroke-linecap:round;stroke-linejoin:round;stroke-dasharray:0.352777, 0.352777;stroke-dashoffset:0;stroke-opacity:1"
       x="16.830215"
       y="11.713794"
       id="text35-9"><tspan
         sodipodi:role="line"
         id="tspan35-3"
         style="fill:#000000;fill-opacity:1;fill-rule:nonzero;stroke:none;stroke-width:0.176389"
         x="16.830215"
         y="11.713794">$M_1$</tspan></text>
    <text
       xml:space="preserve"
       style="font-size:3.88056px;fill:#000000;fill-opacity:1;fill-rule:nonzero;stroke:none;stroke-width:0.176389;stroke-linecap:round;stroke-linejoin:round;stroke-dasharray:0.352777, 0.352777;stroke-dashoffset:0;stroke-opacity:1"
       x="53.969376"
       y="11.713794"
       id="text35-9-7"><tspan
         sodipodi:role="line"
         id="tspan35-3-0"
         style="fill:#000000;fill-opacity:1;fill-rule:nonzero;stroke:none;stroke-width:0.176389"
         x="53.969376"
         y="11.713794">$M_2$</tspan></text>
    <text
       xml:space="preserve"
       style="font-size:3.88056px;fill:#000000;fill-opacity:1;fill-rule:nonzero;stroke:none;stroke-width:0.176389;stroke-linecap:round;stroke-linejoin:round;stroke-dasharray:0.352777, 0.352777;stroke-dashoffset:0;stroke-opacity:1"
       x="105.29542"
       y="11.713794"
       id="text35-9-7-3"><tspan
         sodipodi:role="line"
         id="tspan35-3-0-8"
         style="fill:#000000;fill-opacity:1;fill-rule:nonzero;stroke:none;stroke-width:0.176389"
         x="105.29542"
         y="11.713794">$M_1\+M_2$</tspan></text>
    <path
       style="fill:none;stroke:#000000;stroke-width:0.352778;stroke-linecap:round;stroke-linejoin:round;stroke-dasharray:none;stroke-dashoffset:3.06667"
       d="m 31.570854,39.050969 c -3.4e-5,0.88456 -5.123589,1.758054 -11.476664,1.758048 -6.352981,-1.3e-5 -11.2374539,-0.730176 -11.2374834,-1.614716"
       id="path17-2"
       sodipodi:nodetypes="ccc" />
    <path
       style="fill:none;stroke:#808080;stroke-width:0.352778;stroke-linecap:butt;stroke-linejoin:round;stroke-dasharray:0.705555, 0.705555;stroke-dashoffset:0;stroke-opacity:1"
       d="m 90.417381,40.051378 c 3e-5,-0.74666 5.118973,-1.54667 11.476669,-1.54668 6.35779,-10e-6 11.23744,0.656678 11.23748,1.403348"
       id="path18-1-0"
       sodipodi:nodetypes="ccc" />
    <path
       style="fill:none;stroke:#000000;stroke-width:0.352778;stroke-linecap:round;stroke-linejoin:round;stroke-dasharray:none;stroke-dashoffset:3.06667"
       d="m 113.13153,39.908046 c -4e-5,0.88456 -5.12359,1.758054 -11.47667,1.758048 -6.352976,-1.3e-5 -11.237449,-0.730176 -11.237479,-1.614716"
       id="path17-2-1"
       sodipodi:nodetypes="ccc" />
  </g>
</svg>
