<?xml version="1.0" encoding="UTF-8" standalone="no"?>
<!-- Created with Inkscape (http://www.inkscape.org/) -->

<svg
   width="6in"
   height="1.6in"
   viewBox="0 0 152.4 40.640001"
   version="1.1"
   id="svg1"
   inkscape:version="1.3.2 (091e20e, 2023-11-25)"
   sodipodi:docname="doubling-manifold.svg"
   inkscape:export-filename="doubling-manifold.pdf"
   inkscape:export-xdpi="96"
   inkscape:export-ydpi="96"
   xmlns:inkscape="http://www.inkscape.org/namespaces/inkscape"
   xmlns:sodipodi="http://sodipodi.sourceforge.net/DTD/sodipodi-0.dtd"
   xmlns="http://www.w3.org/2000/svg"
   xmlns:svg="http://www.w3.org/2000/svg">
  <sodipodi:namedview
     id="namedview1"
     pagecolor="#ffffff"
     bordercolor="#000000"
     borderopacity="0.25"
     inkscape:showpageshadow="2"
     inkscape:pageopacity="0.0"
     inkscape:pagecheckerboard="0"
     inkscape:deskcolor="#d1d1d1"
     inkscape:document-units="mm"
     inkscape:zoom="1.1699358"
     inkscape:cx="337.62537"
     inkscape:cy="-103.85185"
     inkscape:window-width="1728"
     inkscape:window-height="1051"
     inkscape:window-x="0"
     inkscape:window-y="38"
     inkscape:window-maximized="0"
     inkscape:current-layer="layer1"
     showgrid="false" />
  <defs
     id="defs1">
    <marker
       style="overflow:visible"
       id="ArrowWideRounded"
       refX="0"
       refY="0"
       orient="auto-start-reverse"
       inkscape:stockid="Wide, rounded arrow"
       markerWidth="1"
       markerHeight="1"
       viewBox="0 0 1 1"
       inkscape:isstock="true"
       inkscape:collect="always"
       preserveAspectRatio="xMidYMid">
      <path
         style="fill:none;stroke:context-stroke;stroke-width:1;stroke-linecap:round"
         d="M 3,-3 0,0 3,3"
         transform="rotate(180,0.125,0)"
         sodipodi:nodetypes="ccc"
         id="path2" />
    </marker>
    <inkscape:path-effect
       effect="bspline"
       id="path-effect6"
       is_visible="true"
       lpeversion="1.3"
       weight="33.333333"
       steps="2"
       helper_size="0"
       apply_no_weight="true"
       apply_with_weight="true"
       only_selected="false"
       uniform="false" />
    <inkscape:path-effect
       effect="bspline"
       id="path-effect5"
       is_visible="true"
       lpeversion="1.3"
       weight="33.333333"
       steps="2"
       helper_size="0"
       apply_no_weight="true"
       apply_with_weight="true"
       only_selected="false"
       uniform="false" />
    <inkscape:path-effect
       effect="bspline"
       id="path-effect2"
       is_visible="true"
       lpeversion="1.3"
       weight="33.333333"
       steps="2"
       helper_size="0"
       apply_no_weight="true"
       apply_with_weight="true"
       only_selected="false"
       uniform="false" />
  </defs>
  <g
     inkscape:label="Layer 1"
     inkscape:groupmode="layer"
     id="layer1">
    <path
       d="m 17.430378,15.730366 c 1.46718,-0.829917 6.449241,-1.242947 9.526952,-0.02751 m 2.572427,-1.374945 c -0.888163,0.726259 -1.659213,1.169667 -2.572427,1.374945 -1.546916,0.347725 -3.123225,0.657992 -4.728548,0.665972 -1.640558,0.0082 -3.265171,-0.09003 -4.798404,-0.638457 -0.941054,-0.336613 -1.912701,-0.630703 -2.681457,-1.40246"
       style="display:inline;fill:none;stroke:#000000;stroke-width:0.352776;stroke-dasharray:none;stroke-opacity:1"
       id="path1-1-1" />
    <text
       xml:space="preserve"
       style="font-size:3.88056px;fill:#000000;fill-opacity:1;fill-rule:nonzero;stroke:none;stroke-width:0.176389;stroke-linecap:round;stroke-linejoin:round;stroke-dasharray:0.352777, 0.352777;stroke-dashoffset:0;stroke-opacity:1"
       x="25.526846"
       y="4.218277"
       id="text35-9"><tspan
         sodipodi:role="line"
         id="tspan35-3"
         style="fill:#000000;fill-opacity:1;fill-rule:nonzero;stroke:none;stroke-width:0.176389"
         x="25.526846"
         y="4.218277">$M$</tspan></text>
    <text
       xml:space="preserve"
       style="font-size:3.88056px;fill:#000000;fill-opacity:1;fill-rule:nonzero;stroke:none;stroke-width:0.176389;stroke-linecap:round;stroke-linejoin:round;stroke-dasharray:0.352777, 0.352777;stroke-dashoffset:0;stroke-opacity:1"
       x="96.299492"
       y="4.1699591"
       id="text35-9-3"><tspan
         sodipodi:role="line"
         id="tspan35-3-7"
         style="fill:#000000;fill-opacity:1;fill-rule:nonzero;stroke:none;stroke-width:0.176389"
         x="96.299492"
         y="4.1699591">$M\cup_{\partial M} M$</tspan></text>
    <path
       d="m 44.633348,18.75481 c -3.87781,-0.09846 -7.648429,0.751741 -10.901004,3.149583 m -3.021073,-2.31187 c 0.691666,0.962266 0.972247,1.452134 3.021073,2.31187 3.47056,1.45633 7.173694,2.894028 10.775284,2.927448"
       style="display:inline;fill:none;stroke:#000000;stroke-width:0.352776;stroke-dasharray:none;stroke-opacity:1"
       id="path1-1-1-4-1-3-2"
       sodipodi:nodetypes="cccsc" />
    <path
       id="path4-8"
       d="m 43.024691,8.6675575 c 0.290553,0 0.579442,0.345262 0.82443,0.931387 0.216277,-0.585131 0.46782,-0.931387 0.712807,-0.931387 z m 0.82443,0.931387 c 0.386053,0.9242935 0.662769,2.4497455 0.662769,4.1813075 0,1.73213 -0.276716,3.257583 -0.662769,4.181877 0.216277,0.585555 0.46782,0.931387 0.712807,0.931387 0.748489,0 1.48772,-2.282366 1.48772,-5.113264 0,-2.830331 -0.739231,-5.1126945 -1.48772,-5.1126945 -0.244987,0 -0.49653,0.346256 -0.712807,0.931387 z m -0.82443,-0.931387 c -0.631976,0 -1.308477,2.2806615 -1.308477,5.1126945 0,2.832601 0.676501,5.113264 1.308477,5.113264 0.290553,0 0.579442,-0.345264 0.82443,-0.931387 -0.341735,-0.923727 -0.59567,-2.448045 -0.59567,-4.181877 0,-1.733264 0.253935,-3.257582 0.59567,-4.1813075 -0.244988,-0.586125 -0.533877,-0.931387 -0.82443,-0.931387 z m 0.82443,9.2945715 c -0.244988,0.586123 -0.533877,0.931387 -0.82443,0.931387 h 1.537237 c -0.244987,0 -0.49653,-0.345832 -0.712807,-0.931387 z"
       style="fill:#0000ff;fill-opacity:0.15;fill-rule:nonzero;stroke:none;stroke-width:0.853;stroke-dasharray:none" />
    <path
       id="path19"
       style="fill:none;stroke:#000000;stroke-width:0.352777;stroke-linejoin:round"
       d="M 44.633348,34.780844 C 28.269428,36.379808 8.2910579,27.918506 10.381428,16.06337 12.209847,5.6938355 34.099142,8.5940375 44.507628,8.8058065"
       sodipodi:nodetypes="cac" />
    <path
       style="fill:none;stroke:#0000ff;stroke-width:0.352778;stroke-linecap:butt;stroke-linejoin:round;stroke-dasharray:none;stroke-dashoffset:0;stroke-opacity:1"
       d="m 44.633348,18.75481 c -0.654911,-1.3e-5 -1.356616,-2.242156 -1.356625,-5.026884 -9e-6,-2.784771 0.575986,-4.9221045 1.230905,-4.9221195"
       id="path18-1-0"
       sodipodi:nodetypes="ccc" />
    <path
       style="fill:none;stroke:#0000ff;stroke-width:0.352778;stroke-linecap:round;stroke-linejoin:round;stroke-dasharray:none;stroke-dashoffset:3.06667;stroke-opacity:1"
       d="m 44.507628,8.8058065 c 0.775866,1.5e-5 1.542025,2.2441785 1.54202,5.0268835 -1.1e-5,2.782664 -0.640452,4.922107 -1.4163,4.92212"
       id="path17-2-0"
       sodipodi:nodetypes="ccc" />
    <path
       style="fill:none;stroke:#0000ff;stroke-width:0.352778;stroke-linecap:round;stroke-linejoin:round;stroke-dasharray:none;stroke-dashoffset:3.06667;stroke-opacity:1"
       d="m 105.19413,8.0884775 c 0.88456,1.9e-5 1.75805,2.8488815 1.75804,6.3813975 -10e-6,3.532464 -0.83929,6.260167 -1.72383,6.260183"
       id="path17-2-0-3"
       sodipodi:nodetypes="ccc" />
    <path
       style="color:#000000;display:inline;fill:#0000ff;fill-opacity:0.15;stroke-width:1;stroke-linecap:round;stroke-linejoin:round;stroke-dashoffset:3.06667;-inkscape-stroke:none"
       d="m 103.55463,8.1516785 c 0,0 0.24757,-1.242417 1.52547,2.1562515 0.35614,1.025177 0.61639,2.545586 0.61638,4.22461 0,1.693312 -0.2194,3.189992 -0.53546,4.18164 -0.15804,0.495824 -0.35047,0.865002 -0.47359,1.027344 -0.009,0.01071 -0.95669,1.039063 -0.95669,1.039063 0,0 0.5764,8.16e-4 1.28884,6.74e-4 1.76079,0.326913 2.16993,-0.141855 2.6355,-1.531919 0.39823,-1.249432 0.62113,-2.877648 0.62114,-4.716796 0,-1.853489 -0.27085,-3.522302 -0.71633,-4.8046885 -0.22273,-0.641193 -0.48011,-1.184929 -0.84007,-1.646484 -2.95712,0.125399 -3.16519,0.07031 -3.16519,0.07031 z"
       id="path17-2-0-3-1"
       sodipodi:nodetypes="cssssccssssc" />
    <path
       style="color:#000000;display:inline;fill:#0000ff;fill-opacity:0.15;stroke-width:1;stroke-linecap:round;stroke-linejoin:round;stroke-dashoffset:3.06667;-inkscape-stroke:none"
       d="m 103.55463,25.621611 c 0,0 0.24757,-1.242417 1.52547,2.156251 0.35614,1.025177 0.61639,2.545586 0.61638,4.22461 0,1.693312 -0.2194,3.189992 -0.53546,4.18164 -0.15804,0.495824 -0.35047,0.865002 -0.47359,1.027344 -0.009,0.01071 -0.95669,1.039063 -0.95669,1.039063 0,0 0.5764,8.16e-4 1.28884,6.74e-4 1.76079,0.326913 2.16993,-0.141855 2.6355,-1.531919 0.39823,-1.249432 0.62113,-2.877648 0.62114,-4.716796 0,-1.853489 -0.27085,-3.522302 -0.71633,-4.804688 -0.22273,-0.641193 -0.48011,-1.184929 -0.84007,-1.646484 -2.95712,0.125399 -3.16519,0.07031 -3.16519,0.07031 z"
       id="path17-2-0-3-1-9"
       sodipodi:nodetypes="cssssccssssc" />
    <path
       style="fill:none;stroke:#0000ff;stroke-width:0.352778;stroke-linecap:round;stroke-linejoin:round;stroke-dasharray:none;stroke-dashoffset:3.06667;stroke-opacity:1"
       d="m 105.27213,25.560532 c 0.88456,1.9e-5 1.75805,2.848881 1.75804,6.381397 -1e-5,3.532464 -0.73017,6.24839 -1.61471,6.248406"
       id="path17-2-0-3-8"
       sodipodi:nodetypes="ccc" />
    <path
       id="path4"
       d="m 43.024691,24.693591 c 0.290553,0 0.579442,0.345262 0.82443,0.931387 0.216277,-0.585131 0.46782,-0.931387 0.712807,-0.931387 z m 0.82443,0.931387 c 0.386053,0.924294 0.662769,2.449747 0.662769,4.181308 0,1.732131 -0.276716,3.257582 -0.662769,4.181877 0.216277,0.585555 0.46782,0.931387 0.712807,0.931387 0.748489,0 1.48772,-2.282365 1.48772,-5.113264 0,-2.830331 -0.739231,-5.112695 -1.48772,-5.112695 -0.244987,0 -0.49653,0.346256 -0.712807,0.931387 z m -0.82443,-0.931387 c -0.631976,0 -1.308477,2.280662 -1.308477,5.112695 0,2.832601 0.676501,5.113264 1.308477,5.113264 0.290553,0 0.579442,-0.345264 0.82443,-0.931387 -0.341735,-0.923727 -0.59567,-2.448045 -0.59567,-4.181877 0,-1.733264 0.253935,-3.257582 0.59567,-4.181308 -0.244988,-0.586125 -0.533877,-0.931387 -0.82443,-0.931387 z m 0.82443,9.294572 c -0.244988,0.586123 -0.533877,0.931387 -0.82443,0.931387 h 1.537237 c -0.244987,0 -0.49653,-0.345832 -0.712807,-0.931387 z"
       style="fill:#0000ff;fill-opacity:0.15;fill-rule:nonzero;stroke:none;stroke-width:0.352778"
       inkscape:label="path4" />
    <path
       style="fill:none;stroke:#0000ff;stroke-width:0.352778;stroke-linecap:butt;stroke-linejoin:round;stroke-dasharray:none;stroke-dashoffset:0;stroke-opacity:1"
       d="m 44.633348,34.780844 c -0.654911,-1.2e-5 -1.356616,-2.242157 -1.356625,-5.026884 -9e-6,-2.78477 0.575986,-4.922105 1.230905,-4.922119"
       id="path18-1"
       sodipodi:nodetypes="ccc" />
    <path
       style="fill:none;stroke:#0000ff;stroke-width:0.352778;stroke-linecap:round;stroke-linejoin:round;stroke-dasharray:none;stroke-dashoffset:3.06667;stroke-opacity:1"
       d="m 44.507628,24.831841 c 0.775866,1.4e-5 1.542025,2.244179 1.54202,5.026883 -1.1e-5,2.782664 -0.640452,4.922108 -1.4163,4.92212"
       id="path17-2"
       sodipodi:nodetypes="ccc" />
    <path
       d="m 74.947091,16.377143 c 1.672724,-1.053542 7.352743,-1.577864 10.861623,-0.03493 m 2.93281,-1.745428 c -1.01259,0.921952 -1.89166,1.484837 -2.93281,1.745428 -1.76363,0.441422 -3.56077,0.835292 -5.39099,0.845422 -1.87039,0.01035 -3.722603,-0.114286 -5.470633,-0.810492 -1.07289,-0.427314 -2.180659,-0.800648 -3.057114,-1.780358"
       style="display:inline;fill:none;stroke:#000000;stroke-width:0.352776;stroke-dasharray:none;stroke-opacity:1"
       id="path1-1-1-4" />
    <path
       d="m 131.25532,14.870932 c -1.67272,-1.053542 -7.35273,-1.577864 -10.86161,-0.03493 m -2.93281,-1.745428 c 1.01259,0.921952 1.89166,1.484837 2.93281,1.745428 1.76363,0.441422 3.56077,0.835292 5.39099,0.845422 1.87039,0.01035 3.7226,-0.114286 5.47062,-0.810492 1.07289,-0.427314 2.18066,-0.800648 3.05712,-1.780358"
       style="display:inline;fill:none;stroke:#000000;stroke-width:0.352776;stroke-dasharray:none;stroke-opacity:1"
       id="path1-1-1-4-1" />
    <path
       d="m 116.03749,23.400449 c -3.29167,-2.807843 -14.46907,-4.205237 -21.374014,-0.09309 M 90.49671,20.624775 c 1.939958,1.923873 2.11794,1.988071 4.166766,2.682584 3.47056,1.176454 7.007064,2.226175 10.608654,2.253173 3.68065,0.02758 7.32552,-0.304589 10.76536,-2.160079 2.11129,-1.138854 2.61371,-1.259011 3.97378,-3.067417"
       style="display:inline;fill:none;stroke:#000000;stroke-width:0.352776;stroke-dasharray:none;stroke-opacity:1"
       id="path1-1-1-4-1-3"
       sodipodi:nodetypes="cccsssc" />
    <path
       id="path19-9-8"
       style="fill:none;stroke:#000000;stroke-width:0.352777;stroke-linejoin:round"
       d="m 137.66725,10.326226 c -1.93851,-6.327454 -9.14283,-2.6222375 -19.71523,-2.3366455 -8.46136,0.206321 -16.91766,0.032 -25.379295,0 -15.73489,-0.05951 -22.221801,-1.656792 -24.488587,6.4767785 -2.298045,8.24573 19.025896,24.849695 37.331322,23.723976 18.07222,-1.111378 36.41343,-14.280158 32.25179,-27.864109 z"
       sodipodi:nodetypes="assasa" />
    <path
       style="fill:none;fill-opacity:0.15;stroke:#000000;stroke-width:0.352778;stroke-linecap:round;stroke-linejoin:round;stroke-dasharray:none;stroke-dashoffset:0;stroke-opacity:0.953642;marker-end:url(#ArrowWideRounded)"
       d="M 48.879542,25.571402 C 53.401986,25.514268 57.924427,25.457134 62.446868,25.4"
       id="path6"
       inkscape:path-effect="#path-effect6"
       inkscape:original-d="M 48.879542,25.571402 C 53.401986,25.514268 57.924427,25.457134 62.446868,25.4"
       transform="translate(0.86981396,-2.381317)" />
  </g>
</svg>
