<?xml version="1.0" encoding="UTF-8" standalone="no"?>
<!-- Created with Inkscape (http://www.inkscape.org/) -->

<svg
   width="6in"
   height="2in"
   viewBox="0 0 152.4 50.8"
   version="1.1"
   id="svg1"
   inkscape:version="1.3.2 (091e20e, 2023-11-25)"
   sodipodi:docname="handle-inversion.svg"
   xmlns:inkscape="http://www.inkscape.org/namespaces/inkscape"
   xmlns:sodipodi="http://sodipodi.sourceforge.net/DTD/sodipodi-0.dtd"
   xmlns:xlink="http://www.w3.org/1999/xlink"
   xmlns="http://www.w3.org/2000/svg"
   xmlns:svg="http://www.w3.org/2000/svg">
  <sodipodi:namedview
     id="namedview1"
     pagecolor="#ffffff"
     bordercolor="#000000"
     borderopacity="0.25"
     inkscape:showpageshadow="2"
     inkscape:pageopacity="0.0"
     inkscape:pagecheckerboard="0"
     inkscape:deskcolor="#d1d1d1"
     inkscape:document-units="mm"
     inkscape:zoom="0.88263882"
     inkscape:cx="141.62078"
     inkscape:cy="224.8938"
     inkscape:window-width="1728"
     inkscape:window-height="1051"
     inkscape:window-x="0"
     inkscape:window-y="38"
     inkscape:window-maximized="0"
     inkscape:current-layer="layer1" />
  <defs
     id="defs1">
    <linearGradient
       id="linearGradient5"
       inkscape:collect="always">
      <stop
         style="stop-color:#ffffff;stop-opacity:1;"
         offset="0"
         id="stop5" />
      <stop
         style="stop-color:#ffffff;stop-opacity:0;"
         offset="1"
         id="stop6" />
    </linearGradient>
    <inkscape:path-effect
       effect="bspline"
       id="path-effect4"
       is_visible="true"
       lpeversion="1.3"
       weight="33.333333"
       steps="2"
       helper_size="0"
       apply_no_weight="true"
       apply_with_weight="true"
       only_selected="false"
       uniform="false" />
    <inkscape:path-effect
       effect="bend_path"
       id="path-effect3"
       is_visible="true"
       lpeversion="1"
       bendpath="m 11.942254,29.012254 c 0,0 14.052391,-1.083122 21.092506,-1.084072 7.077277,-9.55e-4 21.204137,1.084072 21.204137,1.084072"
       prop_scale="1"
       scale_y_rel="false"
       vertical="false"
       hide_knot="false"
       bendpath-nodetypes="cac" />
    <inkscape:path-effect
       effect="bspline"
       id="path-effect2"
       is_visible="true"
       lpeversion="1.3"
       weight="33.333333"
       steps="2"
       helper_size="0"
       apply_no_weight="true"
       apply_with_weight="true"
       only_selected="false"
       uniform="false" />
    <linearGradient
       inkscape:collect="always"
       xlink:href="#linearGradient5"
       id="linearGradient6"
       x1="-31.5804"
       y1="-28.719429"
       x2="-23.848188"
       y2="-28.719429"
       gradientUnits="userSpaceOnUse" />
    <inkscape:path-effect
       effect="bend_path"
       id="path-effect3-7"
       is_visible="true"
       lpeversion="1"
       bendpath="m 11.942254,29.012254 c 0,0 14.052391,-1.083122 21.092506,-1.084072 7.077277,-9.55e-4 21.204137,1.084072 21.204137,1.084072"
       prop_scale="1"
       scale_y_rel="false"
       vertical="false"
       hide_knot="false"
       bendpath-nodetypes="cac" />
    <linearGradient
       inkscape:collect="always"
       xlink:href="#linearGradient5"
       id="linearGradient10"
       gradientUnits="userSpaceOnUse"
       x1="-31.5804"
       y1="-28.719429"
       x2="-23.848188"
       y2="-28.719429"
       gradientTransform="translate(-56.438057,1.4376843)" />
    <inkscape:path-effect
       effect="fill_between_many"
       method="originald"
       linkedpaths="#path2-1-6,0,1|#path2-5,0,1|"
       id="path-effect10" />
  </defs>
  <g
     inkscape:label="Layer 1"
     inkscape:groupmode="layer"
     id="layer1">
    <path
       style="fill:none;fill-opacity:1;stroke:#000000;stroke-width:0.352777;stroke-linecap:round;stroke-linejoin:round;stroke-dasharray:none;stroke-opacity:1"
       d="m 23.243965,29.320801 c -0.576798,-8.863147 3.804099,-17.346928 10.563871,-17.310891 6.789363,0.03619 10.794089,6.332195 10.42414,17.498804"
       id="path2"
       sodipodi:nodetypes="cac" />
    <path
       style="fill:none;fill-opacity:1;stroke:#000000;stroke-width:0.352777;stroke-linecap:round;stroke-linejoin:round;stroke-dasharray:none;stroke-opacity:1"
       d="M 30.63134,29.545955 C 30.808753,25.4 29.839687,17.798484 33.890966,17.83682 c 3.953259,0.03741 3.006595,8.631394 2.96397,11.483981"
       id="path2-1"
       sodipodi:nodetypes="cac" />
    <path
       id="path3"
       style="display:inline;fill:#fafafa;fill-opacity:1;stroke:#000000;stroke-width:0.352777;stroke-linecap:round;stroke-linejoin:round"
       d="m 53.663956,34.755251 c -0.0085,-6.45e-4 -0.01703,-0.0013 -0.02557,-0.0019 -0.151573,-0.01149 -0.303833,-0.02289 -0.456774,-0.03427 -0.560077,-0.04166 -1.121285,-0.08233 -1.683599,-0.122322 -1.859205,-0.132203 -3.717909,-0.256095 -5.576098,-0.3706 0,0 -10e-7,0 -2e-6,0 -4.40949,-0.268348 -8.704691,-0.536603 -12.886376,-0.533286 0,0 -10e-7,0 -10e-7,0 -4.158463,-0.0044 -8.43067,0.261282 -12.817046,0.527142 -1e-6,0 -1e-6,0 -2e-6,0 -1.848382,0.113441 -3.697288,0.23622 -5.546703,0.367267 -10e-7,0 -10e-7,0 -2e-6,10e-7 -0.559361,0.03964 -1.117619,0.07996 -1.674749,0.12126 -10e-7,0 -10e-7,0 -2e-6,0 -0.152141,0.01128 -0.303602,0.02259 -0.454378,0.03397 -0.03987,3.85e-4 -0.07938,7.53e-4 -0.118529,0.0011 -0.02624,0.276735 -0.115944,-0.379207 -0.245853,-1.969303 -0.179178,-2.064796 -0.416168,-5.085725 -0.683775,-8.63182 -0.01801,-0.7809 0.0023,-1.07407 0.05212,-0.878951 0.04193,-0.0058 0.08351,-0.01161 0.124731,-0.01735 0.157444,-0.01189 0.314221,-0.0236 0.470328,-0.03517 10e-7,0 2e-6,0 2e-6,0 0.571709,-0.04239 1.142446,-0.08361 1.712185,-0.123984 10e-7,0 10e-7,0 2e-6,0 1.883438,-0.13348 3.768562,-0.258663 5.655357,-0.37448 1e-6,0 2e-6,0 3e-6,0 4.386112,-0.272585 8.894222,-0.545595 13.524755,-0.548979 10e-7,0 2e-6,0 2e-6,0 4.653759,0.0044 9.184865,0.279859 13.594093,0.554932 1.896604,0.116871 3.791527,0.243157 5.684756,0.377783 0,0 1e-6,1e-6 2e-6,1e-6 0.572691,0.04072 1.146378,0.08229 1.721033,0.125034 0.156907,0.01167 0.314484,0.02347 0.472725,0.03546 0.02243,0.0017 0.04496,0.0034 0.0676,0.0051 -0.304195,3.831059 -0.607533,7.662183 -0.91024,11.493357 z"
       inkscape:path-effect="#path-effect3"
       inkscape:original-d="m 54.199146,34.782312 -42.256892,-0.01084 0.03975,-11.529276 42.256893,0.01084 z"
       transform="translate(0.05952711,1.2423322)" />
    <ellipse
       style="fill:#ffffff;fill-opacity:1;stroke:#000000;stroke-width:0.352778;stroke-linecap:round;stroke-linejoin:round;stroke-dasharray:none;stroke-opacity:1"
       id="path1-3"
       cx="-41.320351"
       cy="-28.372833"
       rx="3.6897163"
       ry="2.7481973"
       transform="matrix(-0.99967573,-0.02546442,0.02690939,-0.99963788,0,0)" />
    <ellipse
       style="fill:url(#linearGradient6);fill-opacity:1;stroke:#000000;stroke-width:0.352778;stroke-linecap:round;stroke-linejoin:round;stroke-dasharray:none;stroke-opacity:1"
       id="path1-3-8"
       cx="-27.714294"
       cy="-28.719429"
       rx="3.6897163"
       ry="2.7481973"
       transform="matrix(-0.99967573,-0.02546442,0.02690939,-0.99963788,0,0)" />
    <path
       id="path3-5"
       style="display:inline;fill:#fafafa;fill-opacity:1;stroke:#000000;stroke-width:0.352777;stroke-linecap:round;stroke-linejoin:round"
       d="m 43.932558,22.53043 c 0.940421,0.05886 1.817347,0.133267 2.695519,0.188052 1.896604,0.116871 3.791527,0.243157 5.684756,0.377783 l 2e-6,1e-6 c 0.572691,0.04072 1.146378,0.08229 1.721033,0.125034 0.156907,0.01167 0.314484,0.02347 0.472725,0.03546 0.02243,0.0017 0.04496,0.0034 0.0676,0.0051 -0.304195,3.831059 -0.607533,7.662183 -0.91024,11.493357 l -0.02557,-0.0019 c -0.151573,-0.01149 -0.303833,-0.02289 -0.456774,-0.03427 -0.560077,-0.04166 -1.121285,-0.08233 -1.683599,-0.122322 -1.859205,-0.132203 -3.717909,-0.256095 -5.576098,-0.3706 h -2e-6 C 41.51242,33.957777 37.217219,33.689522 33.035534,33.692839 h -10e-7 c -4.158463,-0.0044 -8.43067,0.261282 -12.817046,0.527142 h -2e-6 c -1.848382,0.113441 -3.697288,0.23622 -5.546703,0.367267 l -2e-6,10e-7 c -0.559361,0.03964 -1.117619,0.07996 -1.674749,0.12126 h -2e-6 c -0.152141,0.01128 -0.303602,0.02259 -0.454378,0.03397 -0.03987,3.85e-4 -0.07938,7.53e-4 -0.118529,0.0011 -0.02624,0.276735 -0.115944,-0.379207 -0.245853,-1.969303 -0.179178,-2.064796 -0.416168,-5.085725 -0.683775,-8.63182 -0.01801,-0.7809 0.0023,-1.07407 0.05212,-0.878951 0.04193,-0.0058 0.08351,-0.01161 0.124731,-0.01735 0.157444,-0.01189 0.314221,-0.0236 0.470328,-0.03517 h 2e-6 c 0.57171,-0.04239 1.142447,-0.08361 1.712187,-0.123984 1.883438,-0.13348 3.768562,-0.258663 5.655358,-0.37448 h 2e-6 c 4.386112,-0.272585 8.894222,-0.545595 13.524755,-0.548979 h 2e-6 c 1.436377,0.05863 2.421314,-0.02366 3.836606,0.02149"
       transform="translate(56.517969,1.2423302)"
       sodipodi:nodetypes="ccssssccccccsssssssssccccccsssssssc" />
    <path
       inkscape:original-d="M 0,0"
       inkscape:path-effect="#path-effect10"
       d="m 87.133506,23.430956 c 0.199442,-2.838413 0.93698,-5.615703 3.215902,-5.594138 3.953259,0.03741 3.006595,8.631394 2.96397,11.483981 l 7.377042,0.187913 c 0.36995,-11.166609 -3.634779,-17.462604 -10.424142,-17.498804 -5.205869,-0.02775 -9.075525,5.34795 -10.281719,11.708081 z"
       id="path10"
       style="stroke-width:1.000125;stroke-dasharray:none;fill:#ffffff;fill-opacity:1" />
    <path
       style="fill:none;fill-opacity:1;stroke:#000000;stroke-width:0.352777;stroke-linecap:round;stroke-linejoin:round;stroke-dasharray:none;stroke-opacity:1"
       d="m 87.133506,23.430956 c 0.199442,-2.838413 0.93698,-5.615703 3.215902,-5.594138 3.953259,0.03741 3.006595,8.631394 2.96397,11.483981"
       id="path2-1-6"
       sodipodi:nodetypes="csc" />
    <path
       id="path1-3-3"
       style="fill:#ffffff;stroke:#000000;stroke-width:0.352778;stroke-linecap:round;stroke-linejoin:round"
       transform="matrix(-0.99967573,-0.02546442,0.02690939,-0.99963788,0,0)"
       d="m -101.44812,-26.93515 c 0,-1.517786 1.65194,-2.748195 3.689712,-2.748197 2.037774,0 3.689717,1.230409 3.689717,2.748197"
       sodipodi:nodetypes="csc" />
    <ellipse
       style="fill:url(#linearGradient10);fill-opacity:1;stroke:#000000;stroke-width:0.352778;stroke-linecap:round;stroke-linejoin:round;stroke-dasharray:none;stroke-opacity:1"
       id="path1-3-8-0"
       cx="-84.152351"
       cy="-27.281746"
       rx="3.6897163"
       ry="2.7481973"
       transform="matrix(-0.99967573,-0.02546442,0.02690939,-0.99963788,0,0)" />
    <path
       style="fill:none;fill-opacity:1;stroke:#000000;stroke-width:0.352777;stroke-linecap:round;stroke-linejoin:round;stroke-dasharray:none;stroke-opacity:1"
       d="m 79.984559,23.717989 c 1.206194,-6.360131 5.07585,-11.735834 10.281719,-11.708081 6.789363,0.0362 10.794092,6.332195 10.424142,17.498804"
       id="path2-5"
       sodipodi:nodetypes="csc" />
  </g>
</svg>
