<?xml version="1.0" encoding="UTF-8" standalone="no"?>
<!-- Created with Inkscape (http://www.inkscape.org/) -->

<svg
   width="6in"
   height="2in"
   viewBox="0 0 152.4 50.799999"
   version="1.1"
   id="svg1"
   inkscape:version="1.3.2 (091e20e, 2023-11-25)"
   sodipodi:docname="handle-inversion.svg"
   inkscape:export-filename="handle-inversion.pdf"
   inkscape:export-xdpi="96"
   inkscape:export-ydpi="96"
   xmlns:inkscape="http://www.inkscape.org/namespaces/inkscape"
   xmlns:sodipodi="http://sodipodi.sourceforge.net/DTD/sodipodi-0.dtd"
   xmlns:xlink="http://www.w3.org/1999/xlink"
   xmlns="http://www.w3.org/2000/svg"
   xmlns:svg="http://www.w3.org/2000/svg">
  <sodipodi:namedview
     id="namedview1"
     pagecolor="#ffffff"
     bordercolor="#000000"
     borderopacity="0.25"
     inkscape:showpageshadow="2"
     inkscape:pageopacity="0.0"
     inkscape:pagecheckerboard="0"
     inkscape:deskcolor="#d1d1d1"
     inkscape:document-units="mm"
     inkscape:zoom="0.68132753"
     inkscape:cx="453.52637"
     inkscape:cy="104.94219"
     inkscape:window-width="1728"
     inkscape:window-height="1051"
     inkscape:window-x="0"
     inkscape:window-y="38"
     inkscape:window-maximized="0"
     inkscape:current-layer="layer1"
     showgrid="false" />
  <defs
     id="defs1">
    <inkscape:path-effect
       effect="bspline"
       id="path-effect8"
       is_visible="true"
       lpeversion="1.3"
       weight="33.333333"
       steps="2"
       helper_size="0"
       apply_no_weight="true"
       apply_with_weight="true"
       only_selected="false"
       uniform="false" />
    <marker
       style="overflow:visible"
       id="ArrowWideRounded"
       refX="0"
       refY="0"
       orient="auto-start-reverse"
       inkscape:stockid="Wide, rounded arrow"
       markerWidth="1"
       markerHeight="1"
       viewBox="0 0 1 1"
       inkscape:isstock="true"
       inkscape:collect="always"
       preserveAspectRatio="xMidYMid">
      <path
         style="fill:none;stroke:context-stroke;stroke-width:1;stroke-linecap:round"
         d="M 3,-3 0,0 3,3"
         transform="rotate(180,0.125,0)"
         sodipodi:nodetypes="ccc"
         id="path7" />
    </marker>
    <inkscape:path-effect
       effect="bspline"
       id="path-effect6"
       is_visible="true"
       lpeversion="1.3"
       weight="33.333333"
       steps="2"
       helper_size="0"
       apply_no_weight="true"
       apply_with_weight="true"
       only_selected="false"
       uniform="false" />
    <inkscape:path-effect
       effect="bspline"
       id="path-effect5"
       is_visible="true"
       lpeversion="1.3"
       weight="33.333333"
       steps="2"
       helper_size="0"
       apply_no_weight="true"
       apply_with_weight="true"
       only_selected="false"
       uniform="false" />
    <linearGradient
       id="linearGradient5"
       inkscape:collect="always">
      <stop
         style="stop-color:#ffffff;stop-opacity:1;"
         offset="0"
         id="stop5" />
      <stop
         style="stop-color:#ffffff;stop-opacity:0;"
         offset="1"
         id="stop6" />
    </linearGradient>
    <inkscape:path-effect
       effect="bspline"
       id="path-effect4"
       is_visible="true"
       lpeversion="1.3"
       weight="33.333333"
       steps="2"
       helper_size="0"
       apply_no_weight="true"
       apply_with_weight="true"
       only_selected="false"
       uniform="false" />
    <inkscape:path-effect
       effect="bend_path"
       id="path-effect3"
       is_visible="true"
       lpeversion="1"
       bendpath="m 11.942254,29.012254 c 0,0 14.052391,-1.083122 21.092506,-1.084072 7.077277,-9.55e-4 21.204137,1.084072 21.204137,1.084072"
       prop_scale="0.95995004"
       scale_y_rel="false"
       vertical="false"
       hide_knot="false"
       bendpath-nodetypes="cac" />
    <inkscape:path-effect
       effect="bspline"
       id="path-effect2"
       is_visible="true"
       lpeversion="1.3"
       weight="33.333333"
       steps="2"
       helper_size="0"
       apply_no_weight="true"
       apply_with_weight="true"
       only_selected="false"
       uniform="false" />
    <inkscape:path-effect
       effect="bend_path"
       id="path-effect3-7"
       is_visible="true"
       lpeversion="1"
       bendpath="m 11.942254,29.012254 c 0,0 14.052391,-1.083122 21.092506,-1.084072 7.077277,-9.55e-4 21.204137,1.084072 21.204137,1.084072"
       prop_scale="1"
       scale_y_rel="false"
       vertical="false"
       hide_knot="false"
       bendpath-nodetypes="cac" />
    <inkscape:path-effect
       effect="fill_between_many"
       method="originald"
       linkedpaths="#path2-1-6,0,1|#path2-5,0,1"
       id="path-effect10"
       is_visible="true"
       lpeversion="0"
       join="true"
       close="true"
       autoreverse="true" />
    <inkscape:path-effect
       effect="bend_path"
       id="path-effect3-6"
       is_visible="true"
       lpeversion="1"
       bendpath="m 11.942254,29.012254 c 0,0 14.052391,-1.083122 21.092506,-1.084072 7.077277,-9.55e-4 21.204137,1.084072 21.204137,1.084072"
       prop_scale="1"
       scale_y_rel="false"
       vertical="false"
       hide_knot="false"
       bendpath-nodetypes="cac" />
    <inkscape:path-effect
       effect="bspline"
       id="path-effect6-5"
       is_visible="true"
       lpeversion="1.3"
       weight="33.333333"
       steps="2"
       helper_size="0"
       apply_no_weight="true"
       apply_with_weight="true"
       only_selected="false"
       uniform="false" />
    <inkscape:path-effect
       effect="bspline"
       id="path-effect6-52"
       is_visible="true"
       lpeversion="1.3"
       weight="33.333333"
       steps="2"
       helper_size="0"
       apply_no_weight="true"
       apply_with_weight="true"
       only_selected="false"
       uniform="false" />
    <inkscape:path-effect
       effect="bspline"
       id="path-effect6-52-1"
       is_visible="true"
       lpeversion="1.3"
       weight="33.333333"
       steps="2"
       helper_size="0"
       apply_no_weight="true"
       apply_with_weight="true"
       only_selected="false"
       uniform="false" />
    <inkscape:path-effect
       effect="bspline"
       id="path-effect8-5"
       is_visible="true"
       lpeversion="1.3"
       weight="33.333333"
       steps="2"
       helper_size="0"
       apply_no_weight="true"
       apply_with_weight="true"
       only_selected="false"
       uniform="false" />
    <linearGradient
       inkscape:collect="always"
       xlink:href="#linearGradient5"
       id="linearGradient1"
       gradientUnits="userSpaceOnUse"
       gradientTransform="matrix(0.77879203,0,0,0.74679642,132.90842,1.497124)"
       x1="-31.5804"
       y1="-28.719429"
       x2="-23.848188"
       y2="-28.719429" />
    <inkscape:path-effect
       effect="fill_between_many"
       method="originald"
       linkedpaths="#path2-1-6-8,0,1|#path2-5-4,0,1|"
       id="path-effect1" />
    <marker
       style="overflow:visible"
       id="ArrowWideRounded-48"
       refX="0"
       refY="0"
       orient="auto-start-reverse"
       inkscape:stockid="Wide, rounded arrow"
       markerWidth="1"
       markerHeight="1"
       viewBox="0 0 1 1"
       inkscape:isstock="true"
       inkscape:collect="always"
       preserveAspectRatio="xMidYMid">
      <path
         style="fill:none;stroke:context-stroke;stroke-width:1;stroke-linecap:round"
         d="M 3,-3 0,0 3,3"
         transform="rotate(180,0.125,0)"
         sodipodi:nodetypes="ccc"
         id="path7-3" />
    </marker>
    <inkscape:path-effect
       effect="bspline"
       id="path-effect8-9"
       is_visible="true"
       lpeversion="1.3"
       weight="33.333333"
       steps="2"
       helper_size="0"
       apply_no_weight="true"
       apply_with_weight="true"
       only_selected="false"
       uniform="false" />
    <inkscape:path-effect
       effect="fill_between_many"
       method="originald"
       linkedpaths="#path2-5-4-8,0,1|#path2-1-6-8-9,0,1|"
       id="path-effect7" />
  </defs>
  <g
     inkscape:label="Layer 1"
     inkscape:groupmode="layer"
     id="layer1">
    <path
       style="fill:none;fill-opacity:1;stroke:#000000;stroke-width:0.352777;stroke-linecap:round;stroke-linejoin:round;stroke-dasharray:none;stroke-opacity:1"
       d="m 43.250922,17.101047 c -0.44815,-6.591564 2.95564,-12.9009914 8.207727,-12.8741905 5.275077,0.026915 8.386597,4.7092832 8.099161,13.0139425"
       id="path2-55"
       sodipodi:nodetypes="cac" />
    <path
       style="fill:none;fill-opacity:1;stroke:#000000;stroke-width:0.352777;stroke-linecap:round;stroke-linejoin:round;stroke-dasharray:none;stroke-opacity:1"
       d="m 48.990632,17.268495 c 0.137843,-3.083366 -0.615085,-8.7366493 2.532605,-8.7081383 3.071533,0.02782 2.336011,6.4192083 2.302893,8.5406903"
       id="path2-1-5"
       sodipodi:nodetypes="cac" />
    <path
       style="fill:#fafafa;fill-opacity:1;stroke:#000000;stroke-width:0.352778;stroke-linecap:square;stroke-dasharray:none"
       d="m 51.485277,12.987705 c -13.356565,-7e-5 -24.184182,5.750436 -24.183848,12.843955 0.01384,1.270557 0.382594,2.532991 1.094219,3.746059 3.009288,-5.47175 12.449348,-9.235396 23.182722,-9.242693 10.615418,0.0014 19.988014,3.679309 23.108691,9.067918 C 75.329299,28.243 75.659915,27.040703 75.669132,25.83166 75.66947,18.738142 64.841854,12.987635 51.485277,12.987705 Z"
       id="path60-1" />
    <path
       style="fill:#bfbfbf;fill-opacity:0;stroke:#000000;stroke-width:0.352778;stroke-linecap:square;stroke-dasharray:none"
       d="m 27.394471,33.17898 c -0.03102,-2.449108 -0.06206,-4.898216 -0.09308,-7.347323"
       id="path59-1" />
    <path
       style="fill:#bfbfbf;fill-opacity:0;stroke:#000000;stroke-width:0.352778;stroke-linecap:square;stroke-dasharray:none"
       d="m 75.66909,25.831657 0.0926,7.347323"
       id="path58-0" />
    <path
       style="fill:none;fill-opacity:0;stroke:#000000;stroke-width:0.352778;stroke-linecap:square;stroke-dasharray:none"
       d="m 75.761689,33.17898 c -1.58e-4,4.525034 -4.44787,8.379348 -11.066507,10.788763 -3.371525,1.227353 -5.575223,1.756626 -8.351378,1.279454 -2.045986,-0.351669 -3.531208,-1.30179 -5.534644,-2.952147 -1.844597,-1.519512 -2.922112,-2.650866 -4.653378,-3.501944 -2.151752,-1.057788 -4.80401,-1.248045 -6.906787,-1.886015 -5.102721,-1.54813 -9.043047,-4.176584 -10.853344,-7.329372 -0.711629,-1.213067 -1.080379,-2.475504 -1.094222,-3.746059"
       id="path65-2"
       sodipodi:nodetypes="csasascc" />
    <path
       style="fill:#ffffff;fill-opacity:1;fill-rule:nonzero;stroke:#ffffff;stroke-width:1.411;stroke-linecap:round;stroke-linejoin:miter;stroke-dasharray:none;stroke-dashoffset:0.0709085;stroke-opacity:1"
       d="m 49.664495,43.094663 c 0,0 0.765855,-0.528881 1.144665,-0.799613 0.423664,-0.302789 0.88876,-0.681498 1.261639,-0.922339"
       id="path66-0"
       sodipodi:nodetypes="cac"
       inkscape:label="path66" />
    <path
       style="fill:#bfbfbf;fill-opacity:0;stroke:#000000;stroke-width:0.352778;stroke-linecap:square;stroke-dasharray:none"
       d="m 27.394523,33.17898 c 1.37e-4,3.830146 3.148014,7.291791 8.166911,9.61931 3.681957,1.707508 6.076477,2.294679 9.198027,2.013136 2.164025,-0.195181 3.862761,-0.874031 6.049699,-2.516376 1.515466,-1.138083 3.049558,-2.18546 4.660046,-3.131035 6.207779,-3.644815 14.317653,-0.771597 19.217813,-9.761073 0.642238,-1.159944 0.97259,-2.362242 0.982071,-3.571285 l 0.0926,7.347323"
       id="path57-7"
       sodipodi:nodetypes="csascccc" />
    <ellipse
       style="fill:#ffffff;fill-opacity:1;stroke:#0000ff;stroke-width:0.352779;stroke-linecap:round;stroke-linejoin:round;stroke-dasharray:none;stroke-opacity:1"
       id="path1-3-4"
       cx="-57.152668"
       cy="-15.784057"
       rx="2.8666916"
       ry="2.0439148"
       transform="matrix(-0.99970288,-0.0243751,0.0281118,-0.99960479,0,0)" />
    <ellipse
       style="fill:none;fill-opacity:1;stroke:#000000;stroke-width:0.352779;stroke-linecap:round;stroke-linejoin:round;stroke-dasharray:none;stroke-opacity:1"
       id="path1-3-8-2"
       cx="-46.581566"
       cy="-16.041832"
       rx="2.8666916"
       ry="2.0439148"
       transform="matrix(-0.99970288,-0.0243751,0.0281118,-0.99960479,0,0)" />
    <path
       style="fill:#fafafa;fill-opacity:1;stroke:#000000;stroke-width:0.353;stroke-linecap:round;stroke-dasharray:none"
       d="m 98.516397,13.399024 c -8.540757,1.9821 -15.019655,6.7366 -15.019407,12.003202 0.01384,1.270557 0.382594,2.532991 1.094219,3.746059 3.009288,-5.47175 12.449348,-9.235396 23.182731,-9.242693 10.61542,0.0014 19.98801,3.679309 23.10869,9.067918 0.64224,-1.159944 0.97286,-2.362241 0.98207,-3.571284 3.4e-4,-7.093518 -10.82728,-12.844025 -24.18386,-12.843955 -1.10198,-6e-6 -2.55647,0.03726 -3.61935,0.113065"
       id="path60-1-2"
       sodipodi:nodetypes="cccccccc" />
    <path
       style="fill:#bfbfbf;fill-opacity:0;stroke:#000000;stroke-width:0.352778;stroke-linecap:square;stroke-dasharray:none"
       d="m 83.590032,32.749546 c -0.03102,-2.449108 -0.06206,-4.898216 -0.09308,-7.347323"
       id="path59-1-0" />
    <path
       style="fill:#bfbfbf;fill-opacity:0;stroke:#000000;stroke-width:0.352778;stroke-linecap:square;stroke-dasharray:none"
       d="m 131.86466,25.402223 0.0926,7.347323"
       id="path58-0-4" />
    <path
       style="fill:none;fill-opacity:0;stroke:#000000;stroke-width:0.352778;stroke-linecap:square;stroke-dasharray:none"
       d="m 131.95726,32.749546 c -1.6e-4,4.525034 -4.44787,8.379348 -11.06651,10.788763 -3.37153,1.227353 -5.57522,1.756626 -8.35138,1.279454 -2.04598,-0.351669 -3.53121,-1.30179 -5.53464,-2.952147 -1.84461,-1.519512 -2.92212,-2.650866 -4.65339,-3.501944 -2.15175,-1.057788 -4.804007,-1.248045 -6.906784,-1.886015 -5.102721,-1.54813 -9.043047,-4.176584 -10.853344,-7.329372 -0.711629,-1.213067 -1.080379,-2.475504 -1.094222,-3.746059"
       id="path65-2-4"
       sodipodi:nodetypes="csasascc" />
    <path
       style="fill:#ffffff;fill-opacity:1;fill-rule:nonzero;stroke:#ffffff;stroke-width:1.411;stroke-linecap:round;stroke-linejoin:miter;stroke-dasharray:none;stroke-dashoffset:0.0709085;stroke-opacity:1"
       d="m 105.86006,42.665229 c 0,0 0.76586,-0.528881 1.14467,-0.799613 0.42366,-0.302789 0.88876,-0.681498 1.26164,-0.922339"
       id="path66-0-5"
       sodipodi:nodetypes="cac"
       inkscape:label="path66" />
    <path
       style="fill:#bfbfbf;fill-opacity:0;stroke:#000000;stroke-width:0.352778;stroke-linecap:square;stroke-dasharray:none"
       d="m 83.590084,32.749546 c 1.37e-4,3.830146 3.148014,7.291791 8.166911,9.61931 3.681957,1.707508 6.076477,2.294679 9.198025,2.013136 2.16403,-0.195181 3.86276,-0.874031 6.04971,-2.516376 1.51546,-1.138083 3.04956,-2.18546 4.66004,-3.131035 6.20778,-3.644815 14.31766,-0.771597 19.21782,-9.761073 0.64224,-1.159944 0.97259,-2.362242 0.98207,-3.571285 l 0.0926,7.347323"
       id="path57-7-9"
       sodipodi:nodetypes="csascccc" />
    <path
       style="fill:none;stroke:#0000ff;stroke-width:0.352999;stroke-linecap:butt;stroke-linejoin:round;stroke-dasharray:none;stroke-dashoffset:0;stroke-opacity:1;marker-end:url(#ArrowWideRounded)"
       d="m 45.405011,29.751204 c 1.625095,0.35493 3.269349,0.714044 4.716352,1.260261 1.447003,0.546217 2.765811,1.305605 4.069249,2.056143"
       id="path8"
       inkscape:path-effect="#path-effect8"
       inkscape:original-d="m 45.405011,29.751204 c 1.625095,0.35493 3.269349,0.714044 4.875283,1.064789 1.288072,0.741689 2.60688,1.501077 3.910318,2.251615"
       transform="translate(15.722674,-11.694574)"
       sodipodi:nodetypes="cac" />
    <path
       style="fill:none;stroke:#0000ff;stroke-width:0.352999;stroke-linecap:butt;stroke-linejoin:round;stroke-dasharray:none;stroke-dashoffset:0;stroke-opacity:1;marker-end:url(#ArrowWideRounded-48)"
       d="m 45.405011,29.751204 c 1.625095,0.35493 3.269349,0.714044 4.716352,1.260261 1.447003,0.546217 2.765811,1.305605 4.069249,2.056143"
       id="path8-5"
       inkscape:path-effect="#path-effect8-9"
       inkscape:original-d="m 45.405011,29.751204 c 1.625095,0.35493 3.269349,0.714044 4.875283,1.064789 1.288072,0.741689 2.60688,1.501077 3.910318,2.251615"
       transform="rotate(-48,58.651679,-22.044154)"
       sodipodi:nodetypes="cac" />
    <path
       style="fill:none;fill-opacity:1;stroke:#000000;stroke-width:0.352777;stroke-linecap:round;stroke-linejoin:round;stroke-dasharray:none;stroke-opacity:1"
       d="m 103.10879,12.472193 c -0.012,-0.16346 -0.0264,-0.325574 -0.0437,-0.485571 -0.20691,-1.914752 -0.82005,-3.5262685 -2.45803,-3.5114063 -3.078848,0.027936 -2.34157,6.4456893 -2.308377,8.5759233"
       id="path2-1-6-8"
       sodipodi:nodetypes="cssc"
       transform="translate(5.8250251,0.10301289)" />
    <path
       inkscape:original-d="M 0,0"
       inkscape:path-effect="#path-effect7"
       d="M 89.385503,0.64578941 C 84.097868,0.67282251 80.978934,5.3744995 81.267056,13.713419 l 5.74535,-0.140329 c -0.03319,-2.130234 -0.770471,-8.5479873 2.308377,-8.5759233 z"
       id="path9"
       style="fill:#ffffff;fill-opacity:1;stroke:none"
       transform="translate(17.111302,3.5810619)" />
    <path
       id="path1-3-3-8-9"
       style="fill:#ffffff;stroke:#8080ff;stroke-width:0.352778;stroke-linecap:butt;stroke-linejoin:round;stroke-dasharray:0.705556, 0.705556;stroke-dashoffset:0;stroke-opacity:1"
       d="m 98.378374,17.154159 c 0.03178,-1.133031 1.343723,-2.020121 2.930246,-1.981372 1.58653,0.03875 2.84688,0.988668 2.81508,2.1217"
       sodipodi:nodetypes="csc" />
    <ellipse
       style="fill:url(#linearGradient1);fill-opacity:1;stroke:#000000;stroke-width:0.352778;stroke-linecap:round;stroke-linejoin:round;stroke-dasharray:none;stroke-opacity:1"
       id="path1-3-8-0-1"
       cx="111.32476"
       cy="-19.950443"
       rx="2.8735216"
       ry="2.0523438"
       transform="matrix(0.99970185,-0.02441747,-0.02806301,-0.99960616,0,0)" />
    <path
       style="fill:none;fill-opacity:1;stroke:#000000;stroke-width:0.352777;stroke-linecap:round;stroke-linejoin:round;stroke-dasharray:none;stroke-opacity:1"
       d="M 108.67931,12.867114 C 107.73992,8.1175415 104.72618,4.1031132 100.67178,4.1238384 95.384145,4.1508715 92.265211,8.8525485 92.553333,17.191468"
       id="path2-5-4"
       sodipodi:nodetypes="csc"
       transform="translate(5.8250251,0.10301289)" />
    <path
       style="fill:none;fill-opacity:1;stroke:#000000;stroke-width:0.352777;stroke-linecap:round;stroke-linejoin:round;stroke-dasharray:none;stroke-opacity:1"
       d="m 89.320783,4.9971668 c -3.078848,0.027936 -2.34157,6.4456892 -2.308377,8.5759232"
       id="path2-1-6-8-9"
       sodipodi:nodetypes="cc"
       transform="translate(17.111302,3.5810618)" />
    <path
       style="fill:none;fill-opacity:1;stroke:#000000;stroke-width:0.352777;stroke-linecap:round;stroke-linejoin:round;stroke-dasharray:none;stroke-opacity:1"
       d="M 89.385503,0.64578951 C 84.097868,0.67282261 80.978934,5.3744996 81.267056,13.713419"
       id="path2-5-4-8"
       sodipodi:nodetypes="cc"
       transform="translate(17.111302,3.5810618)" />
    <path
       id="path1-3-3-88"
       style="fill:#ffffff;stroke:#0000ff;stroke-width:0.352778;stroke-linecap:round;stroke-linejoin:round;stroke-opacity:1"
       d="m 98.378366,17.294482 c 0.03178,1.13303 1.343724,2.02012 2.930254,1.98137 1.58653,-0.03875 2.84688,-0.988667 2.81507,-2.121698"
       sodipodi:nodetypes="csc" />
  </g>
</svg>
