<?xml version="1.0" encoding="UTF-8" standalone="no"?>
<!-- Created with Inkscape (http://www.inkscape.org/) -->

<svg
   width="6in"
   height="2in"
   viewBox="0 0 152.4 50.8"
   version="1.1"
   id="svg1"
   inkscape:version="1.3.2 (091e20e, 2023-11-25)"
   sodipodi:docname="join-vector-bundle.svg"
   inkscape:export-filename="join-vector-bundle.pdf"
   inkscape:export-xdpi="96"
   inkscape:export-ydpi="96"
   xmlns:inkscape="http://www.inkscape.org/namespaces/inkscape"
   xmlns:sodipodi="http://sodipodi.sourceforge.net/DTD/sodipodi-0.dtd"
   xmlns="http://www.w3.org/2000/svg"
   xmlns:svg="http://www.w3.org/2000/svg">
  <sodipodi:namedview
     id="namedview1"
     pagecolor="#ffffff"
     bordercolor="#000000"
     borderopacity="0.25"
     inkscape:showpageshadow="2"
     inkscape:pageopacity="0.0"
     inkscape:pagecheckerboard="0"
     inkscape:deskcolor="#d1d1d1"
     inkscape:document-units="mm"
     inkscape:zoom="1.5966519"
     inkscape:cx="309.39743"
     inkscape:cy="82.986154"
     inkscape:window-width="1728"
     inkscape:window-height="1051"
     inkscape:window-x="0"
     inkscape:window-y="38"
     inkscape:window-maximized="0"
     inkscape:current-layer="svg1" />
  <defs
     id="defs1">
    <inkscape:path-effect
       effect="bspline"
       id="path-effect3"
       is_visible="true"
       lpeversion="1.3"
       weight="33.333333"
       steps="2"
       helper_size="0"
       apply_no_weight="true"
       apply_with_weight="true"
       only_selected="false"
       uniform="false" />
    <inkscape:path-effect
       effect="bspline"
       id="path-effect2"
       is_visible="true"
       lpeversion="1.3"
       weight="33.333333"
       steps="2"
       helper_size="0"
       apply_no_weight="true"
       apply_with_weight="true"
       only_selected="false"
       uniform="false" />
    <inkscape:path-effect
       effect="bspline"
       id="path-effect1"
       is_visible="true"
       lpeversion="1.3"
       weight="33.333333"
       steps="2"
       helper_size="0"
       apply_no_weight="true"
       apply_with_weight="true"
       only_selected="false"
       uniform="false" />
    <inkscape:path-effect
       effect="bspline"
       id="path-effect1-9"
       is_visible="true"
       lpeversion="1.3"
       weight="33.333333"
       steps="2"
       helper_size="0"
       apply_no_weight="true"
       apply_with_weight="true"
       only_selected="false"
       uniform="false" />
    <inkscape:path-effect
       effect="bspline"
       id="path-effect2-9"
       is_visible="true"
       lpeversion="1.3"
       weight="33.333333"
       steps="2"
       helper_size="0"
       apply_no_weight="true"
       apply_with_weight="true"
       only_selected="false"
       uniform="false" />
    <inkscape:path-effect
       effect="bspline"
       id="path-effect2-94"
       is_visible="true"
       lpeversion="1.3"
       weight="33.333333"
       steps="2"
       helper_size="0"
       apply_no_weight="true"
       apply_with_weight="true"
       only_selected="false"
       uniform="false" />
    <inkscape:path-effect
       effect="bspline"
       id="path-effect2-1"
       is_visible="true"
       lpeversion="1.3"
       weight="33.333333"
       steps="2"
       helper_size="0"
       apply_no_weight="true"
       apply_with_weight="true"
       only_selected="false"
       uniform="false" />
    <inkscape:path-effect
       effect="bspline"
       id="path-effect2-94-6"
       is_visible="true"
       lpeversion="1.3"
       weight="33.333333"
       steps="2"
       helper_size="0"
       apply_no_weight="true"
       apply_with_weight="true"
       only_selected="false"
       uniform="false" />
    <inkscape:path-effect
       effect="bspline"
       id="path-effect3-0"
       is_visible="true"
       lpeversion="1.3"
       weight="33.333333"
       steps="2"
       helper_size="0"
       apply_no_weight="true"
       apply_with_weight="true"
       only_selected="false"
       uniform="false" />
    <inkscape:path-effect
       effect="bspline"
       id="path-effect2-94-3"
       is_visible="true"
       lpeversion="1.3"
       weight="33.333333"
       steps="2"
       helper_size="0"
       apply_no_weight="true"
       apply_with_weight="true"
       only_selected="false"
       uniform="false" />
    <inkscape:path-effect
       effect="bspline"
       id="path-effect3-1"
       is_visible="true"
       lpeversion="1.3"
       weight="33.333333"
       steps="2"
       helper_size="0"
       apply_no_weight="true"
       apply_with_weight="true"
       only_selected="false"
       uniform="false" />
    <inkscape:path-effect
       effect="bspline"
       id="path-effect3-1-1"
       is_visible="true"
       lpeversion="1.3"
       weight="33.333333"
       steps="2"
       helper_size="0"
       apply_no_weight="true"
       apply_with_weight="true"
       only_selected="false"
       uniform="false" />
    <inkscape:path-effect
       effect="fill_between_many"
       method="originald"
       linkedpaths="#path17-1-5-0-8,0,1|#path17-1-5-0,0,1|"
       id="path-effect4" />
    <inkscape:path-effect
       effect="fill_between_many"
       method="originald"
       linkedpaths="#path3,0,1|#path3-1,0,1|"
       id="path-effect5" />
  </defs>
  <g
     inkscape:label="Layer 1"
     inkscape:groupmode="layer"
     id="layer1" />
  <path
     id="path1-4-0"
     style="fill:#d9d9ff;fill-opacity:1;stroke:#808080;stroke-width:0.353;stroke-linejoin:round;stroke-dasharray:0.70599997, 0.70599997;stroke-opacity:1;stroke-dashoffset:0"
     d="m 68.817796,6.3072027 c 4.580877,2e-5 8.275339,1.426733 8.275366,2.7952058 V 22.503739 c -2.7e-5,1.368473 -3.694489,2.719852 -8.275366,2.719872 -4.58095,1e-5 -8.291519,-1.618303 -8.291544,-2.986799 V 8.8354815 c 2.5e-5,-1.3684958 3.710594,-2.5282888 8.291544,-2.5282788 z"
     sodipodi:nodetypes="sccsccs" />
  <path
     style="fill:none;stroke:#808080;stroke-width:0.352778;stroke-linecap:butt;stroke-linejoin:round;stroke-dasharray:0.705554, 0.705554;stroke-dashoffset:0;stroke-opacity:1"
     d="m 83.696548,40.161146 c -5e-5,-2.326972 -6.840721,-4.820208 -15.336781,-4.820243 -8.496196,-1.7e-5 -15.336731,2.493234 -15.336777,4.820243"
     id="path18-1"
     sodipodi:nodetypes="ccc" />
  <path
     style="fill:none;stroke:#000000;stroke-width:0.352778;stroke-linecap:round;stroke-linejoin:round;stroke-dasharray:none;stroke-dashoffset:3.06667"
     d="m 53.02299,40.161146 c 4.6e-5,2.756726 6.846878,5.478987 15.336777,5.478967 8.489765,-4.1e-5 15.336731,-2.722286 15.336781,-5.478967"
     id="path17-1"
     sodipodi:nodetypes="ccc" />
  <path
     style="fill:none;stroke:#000000;stroke-width:0.352778;stroke-linecap:butt;stroke-linejoin:round;stroke-dasharray:none;stroke-dashoffset:0;stroke-opacity:1"
     d="m 101.90822,20.12603 c -1.81004,3e-5 -3.749428,4.136525 -3.749451,9.274018 -1.6e-5,5.137577 1.939371,9.273986 3.749451,9.274016"
     id="path18-1-0"
     sodipodi:nodetypes="ccc" />
  <path
     style="fill:none;stroke:#808080;stroke-width:0.352778;stroke-linecap:butt;stroke-linejoin:round;stroke-dasharray:0.70555597, 0.70555597;stroke-dashoffset:0;stroke-opacity:1"
     d="m 135.18152,20.114053 c -1.81004,3e-5 -3.74942,4.136525 -3.74945,9.274018 -1e-5,5.137577 1.93937,9.273986 3.74945,9.274016"
     id="path18-1-0-4"
     sodipodi:nodetypes="ccc" />
  <path
     style="fill:none;stroke:#000000;stroke-width:0.352778;stroke-linecap:round;stroke-linejoin:round;stroke-dasharray:none;stroke-dashoffset:3.06667"
     d="m 101.90822,38.674064 c 2.14434,-3e-5 4.26187,-4.140248 4.26186,-9.274016 -4e-5,-5.133684 -2.11755,-9.273988 -4.26186,-9.274018"
     id="path17-1-5"
     sodipodi:nodetypes="ccc" />
  <path
     d="m 114.09054,44.000248 c -3.63778,-4.8e-5 -7.23008,-6.507034 -7.23006,-14.575536 7e-5,-8.06837 3.59233,-14.57549 7.23006,-14.575538 l 7.01276,-0.02466 c 4.01903,4.8e-5 7.98782,6.507168 7.9879,14.575538 2e-5,8.068502 -3.96882,14.575488 -7.9879,14.575536 z"
     id="path4"
     style="stroke:none;fill:#d9d9ff;fill-opacity:1" />
  <path
     style="fill:none;stroke:#000000;stroke-width:0.352778;stroke-linecap:round;stroke-linejoin:round;stroke-dasharray:none;stroke-dashoffset:3.06667"
     d="m 134.61564,38.662087 c 2.14435,-3e-5 4.26188,-4.140248 4.26187,-9.274016 -4e-5,-5.133684 -2.11755,-9.273988 -4.26187,-9.274018"
     id="path17-1-5-8"
     sodipodi:nodetypes="ccc" />
  <path
     d="m 83.696548,40.161146 c -1.9e-5,-5.009372 -0.796309,-11.436165 -4.270934,-15.528339 -2.614589,-3.079283 -7.132863,-5.059911 -11.009045,-5.065908 -4.394725,-0.0068 -8.303432,2.321294 -10.915815,5.435373 -3.386231,4.036539 -4.477749,10.521229 -4.477764,15.158874"
     style="fill:none;stroke:#000000;stroke-width:0.352778;stroke-linecap:round;stroke-linejoin:round;stroke-dasharray:none;stroke-dashoffset:3.06667"
     id="path15-5"
     sodipodi:nodetypes="casac" />
  <path
     style="color:#000000;fill:#0000ff;stroke-linecap:round;stroke-linejoin:round;stroke-dasharray:3.17499, 3.17499;-inkscape-stroke:none"
     d="m 69.032646,8.1297976 c -0.292351,-7.4e-5 -0.529369,0.236939 -0.5293,0.52929 -7.4e-5,0.292356 0.236945,0.529375 0.5293,0.5293 0.292351,6.9e-5 0.529365,-0.236948 0.52929,-0.5293 6.9e-5,-0.292347 -0.236942,-0.529359 -0.52929,-0.52929 z"
     id="path2-1-9-2"
     sodipodi:nodetypes="ccccc" />
  <path
     style="fill:#0000ff;fill-opacity:1;stroke:#0000f2;stroke-width:0.352777;stroke-linejoin:round;stroke-dasharray:none;stroke-opacity:1"
     d="m 58.916209,21.981367 c 0.07431,-4.05754 0.148623,-8.115081 0.222934,-12.172621"
     id="path2-2"
     inkscape:path-effect="#path-effect2-94"
     inkscape:original-d="m 58.916209,21.981367 c 0.07431,-4.05754 0.148623,-8.115081 0.222934,-12.172621"
     sodipodi:nodetypes="cc"
     transform="translate(9.893498,-1.1496534)" />
  <path
     style="color:#000000;fill:#0000ff;stroke-linecap:round;stroke-linejoin:round;stroke-dasharray:3.17499, 3.17499;-inkscape-stroke:none"
     d="m 68.809712,20.302419 c -0.292351,-7.4e-5 -0.529369,0.236939 -0.5293,0.52929 -7.4e-5,0.292356 0.236945,0.529375 0.5293,0.5293 0.292351,6.9e-5 0.529365,-0.236948 0.52929,-0.5293 6.9e-5,-0.292347 -0.236942,-0.529359 -0.52929,-0.52929 z"
     id="path2-1-2"
     sodipodi:nodetypes="ccccc" />
  <path
     id="path2-1-7-4"
     style="color:#000000;fill:#8080ff;fill-opacity:1;stroke-linecap:round;stroke-linejoin:round;stroke-dasharray:3.17499, 3.17499;-inkscape-stroke:none"
     d="m 64.186892,21.363147 c -0.292298,0.0055 -0.524724,0.247059 -0.519043,0.539354 0.0055,0.292303 0.247066,0.524729 0.539365,0.519042 0.292298,-0.0055 0.524718,-0.247067 0.519031,-0.539365 -0.0055,-0.292294 -0.247062,-0.524711 -0.539353,-0.519031 z m -0.17696,-11.6461334 0.01109,12.1758604 0.351612,-7.73e-4 -0.0091,-12.1739854 z m 0.16614,-0.528524 c -0.292298,0.0055 -0.524722,0.247058 -0.519041,0.539355 0.0055,0.2923034 0.247066,0.5247274 0.539363,0.5190414 0.292298,-0.0055 0.52472,-0.2470684 0.519032,-0.5393644 -0.0055,-0.292294 -0.247061,-0.524713 -0.539354,-0.519032 z" />
  <path
     id="path2-1-7-2-97"
     style="color:#000000;fill:#8080ff;fill-opacity:1;stroke-linecap:round;stroke-linejoin:round;stroke-dasharray:3.17499, 3.17499;-inkscape-stroke:none"
     d="m 66.842654,22.064863 c -0.292298,0.0055 -0.524724,0.247059 -0.519043,0.539354 0.0055,0.292303 0.247066,0.524729 0.539365,0.519042 0.292298,-0.0055 0.524718,-0.247067 0.519031,-0.539365 -0.0055,-0.292294 -0.247062,-0.524711 -0.539353,-0.519031 z m -0.17696,-11.646133 0.01109,12.17586 0.351612,-7.73e-4 -0.0091,-12.173985 z m 0.16614,-0.5285244 c -0.292298,0.0055 -0.524722,0.2470584 -0.519041,0.5393554 0.0055,0.292303 0.247066,0.524727 0.539363,0.519041 0.292298,-0.0055 0.52472,-0.247068 0.519032,-0.539364 -0.0055,-0.292294 -0.247061,-0.5247134 -0.539354,-0.5190324 z" />
  <path
     id="path2-1-7-2-9-72"
     style="color:#000000;fill:#8080ff;fill-opacity:1;stroke-linecap:round;stroke-linejoin:round;stroke-dasharray:3.17499, 3.17499;-inkscape-stroke:none"
     d="m 71.27818,20.304557 c -0.292298,0.0055 -0.524724,0.247059 -0.519043,0.539354 0.0055,0.292303 0.247066,0.524729 0.539365,0.519042 0.292298,-0.0055 0.524718,-0.247067 0.519031,-0.539365 -0.0055,-0.292294 -0.247062,-0.524711 -0.539353,-0.519031 z m -0.17696,-11.6461335 0.01109,12.1758605 0.351612,-7.73e-4 -0.0091,-12.1739855 z m 0.16614,-0.528524 c -0.292298,0.0055 -0.524722,0.247058 -0.519041,0.539355 0.0055,0.2923031 0.247066,0.5247271 0.539363,0.5190411 0.292298,-0.0055 0.52472,-0.247068 0.519032,-0.5393641 -0.0055,-0.292294 -0.247061,-0.524713 -0.539354,-0.519032 z" />
  <path
     id="path2-1-7-2-9-7-0"
     style="color:#000000;fill:#8080ff;fill-opacity:1;stroke-linecap:round;stroke-linejoin:round;stroke-dasharray:3.17499, 3.17499;-inkscape-stroke:none"
     d="m 73.756813,22.064863 c -0.292298,0.0055 -0.524724,0.247059 -0.519043,0.539354 0.0055,0.292303 0.247066,0.524729 0.539365,0.519042 0.292298,-0.0055 0.524718,-0.247067 0.519031,-0.539365 -0.0055,-0.292294 -0.247062,-0.524711 -0.539353,-0.519031 z m -0.17696,-11.646133 0.01109,12.17586 0.351612,-7.73e-4 -0.0091,-12.173985 z m 0.16614,-0.5285244 c -0.292298,0.0055 -0.524722,0.2470584 -0.519041,0.5393554 0.0055,0.292303 0.247066,0.524727 0.539363,0.519041 0.292298,-0.0055 0.52472,-0.247068 0.519032,-0.539364 -0.0055,-0.292294 -0.247061,-0.5247134 -0.539354,-0.5190324 z" />
  <path
     style="fill:none;stroke:#808080;stroke-width:0.352778;stroke-linecap:butt;stroke-linejoin:round;stroke-dasharray:0.70555597, 0.70555597;stroke-dashoffset:0;stroke-opacity:1"
     d="m 60.526252,8.8354816 c 2.5e-5,1.3684964 3.710594,2.9868094 8.291544,2.9867994 4.580877,-2e-5 8.275339,-1.351399 8.275366,-2.7198724"
     id="path17-6-6-9"
     sodipodi:nodetypes="ccc"
     inkscape:label="path17-6-6" />
  <path
     id="path1-4-0-1"
     style="fill:#d9d9ff;fill-opacity:1;stroke:#808080;stroke-width:0.353;stroke-linejoin:round;stroke-dasharray:0.706, 0.706;stroke-dashoffset:0;stroke-opacity:1"
     d="m 34.142742,6.307203 c 4.580877,2e-5 8.275339,1.426733 8.275366,2.795206 v 13.40133 c -2.7e-5,1.368473 -3.694489,2.719852 -8.275366,2.719872 -4.58095,1e-5 -8.291519,-1.618303 -8.291544,-2.986799 V 8.835482 c 2.5e-5,-1.368496 3.710594,-2.528289 8.291544,-2.528279 z"
     sodipodi:nodetypes="sccsccs" />
  <path
     style="fill:none;stroke:#808080;stroke-width:0.352778;stroke-linecap:butt;stroke-linejoin:round;stroke-dasharray:0.705554, 0.705554;stroke-dashoffset:0;stroke-opacity:1"
     d="m 49.021494,40.161146 c -5e-5,-2.326972 -6.840721,-4.820208 -15.336781,-4.820243 -8.496196,-1.7e-5 -15.336731,2.493234 -15.336777,4.820243"
     id="path18-1-4"
     sodipodi:nodetypes="ccc" />
  <path
     style="fill:none;stroke:#000000;stroke-width:0.352778;stroke-linecap:round;stroke-linejoin:round;stroke-dasharray:none;stroke-dashoffset:3.06667"
     d="m 18.347936,40.161146 c 4.6e-5,2.756726 6.846878,5.478987 15.336777,5.478967 8.489765,-4.1e-5 15.336731,-2.722286 15.336781,-5.478967"
     id="path17-1-0"
     sodipodi:nodetypes="ccc" />
  <path
     d="M 49.021494,40.161146 C 49.021475,35.151774 48.225185,28.724981 44.75056,24.632807 42.135971,21.553524 37.617697,19.572896 33.741515,19.566899 29.34679,19.560099 25.438083,21.888193 22.8257,25.002272 19.439469,29.038811 18.347951,35.523501 18.347936,40.161146"
     style="fill:none;stroke:#000000;stroke-width:0.352778;stroke-linecap:round;stroke-linejoin:round;stroke-dasharray:none;stroke-dashoffset:3.06667"
     id="path15-5-0"
     sodipodi:nodetypes="casac" />
  <path
     style="color:#000000;fill:#0000ff;stroke-linecap:round;stroke-linejoin:round;stroke-dasharray:3.17499, 3.17499;-inkscape-stroke:none"
     d="m 34.357592,8.129798 c -0.292351,-7.4e-5 -0.529369,0.236939 -0.5293,0.52929 -7.4e-5,0.292356 0.236945,0.529375 0.5293,0.5293 0.292351,6.9e-5 0.529365,-0.236948 0.52929,-0.5293 6.9e-5,-0.292347 -0.236942,-0.529359 -0.52929,-0.52929 z"
     id="path2-1-9-2-8"
     sodipodi:nodetypes="ccccc" />
  <path
     style="fill:#0000ff;fill-opacity:1;stroke:#0000f2;stroke-width:0.352777;stroke-linejoin:round;stroke-dasharray:none;stroke-opacity:1"
     d="m 58.916209,21.981367 c 0.07431,-4.05754 0.148623,-8.115081 0.222934,-12.172621"
     id="path2-2-7"
     inkscape:path-effect="#path-effect2-94-3"
     inkscape:original-d="m 58.916209,21.981367 c 0.07431,-4.05754 0.148623,-8.115081 0.222934,-12.172621"
     sodipodi:nodetypes="cc"
     transform="translate(-24.781556,-1.1496531)" />
  <path
     style="fill:none;stroke:#ffffff;stroke-width:0.352778;stroke-linecap:round;stroke-linejoin:round;stroke-dasharray:none;stroke-dashoffset:3.06667;stroke-opacity:1"
     d="m 113.88673,38.686396 c 2.14434,-3e-5 4.26187,-4.140248 4.26186,-9.274016 -4e-5,-5.133683 -2.11755,-9.273987 -4.26186,-9.274018"
     id="path17-1-5-6-0"
     sodipodi:nodetypes="ccc" />
  <path
     style="color:#000000;fill:#0000ff;stroke-linecap:round;stroke-linejoin:round;stroke-dasharray:3.17499, 3.17499;-inkscape-stroke:none"
     d="m 34.134658,20.302419 c -0.292351,-7.4e-5 -0.529369,0.236939 -0.5293,0.52929 -7.4e-5,0.292356 0.236945,0.529375 0.5293,0.5293 0.292351,6.9e-5 0.529365,-0.236948 0.52929,-0.5293 6.9e-5,-0.292347 -0.236942,-0.529359 -0.52929,-0.52929 z"
     id="path2-1-2-3"
     sodipodi:nodetypes="ccccc" />
  <path
     id="path2-1-7-4-8"
     style="color:#000000;fill:#8080ff;fill-opacity:1;stroke-linecap:round;stroke-linejoin:round;stroke-dasharray:3.17499, 3.17499;-inkscape-stroke:none"
     d="m 29.511838,21.363147 c -0.292298,0.0055 -0.524724,0.247059 -0.519043,0.539354 0.0055,0.292303 0.247066,0.524729 0.539365,0.519042 0.292298,-0.0055 0.524718,-0.247067 0.519031,-0.539365 -0.0055,-0.292294 -0.247062,-0.524711 -0.539353,-0.519031 z m -0.17696,-11.646133 0.01109,12.17586 0.351612,-7.73e-4 -0.0091,-12.173985 z m 0.16614,-0.528524 c -0.292298,0.0055 -0.524722,0.247058 -0.519041,0.539355 0.0055,0.292303 0.247066,0.524727 0.539363,0.519041 0.292298,-0.0055 0.52472,-0.247068 0.519032,-0.539364 -0.0055,-0.292294 -0.247061,-0.524713 -0.539354,-0.519032 z" />
  <path
     id="path2-1-7-2-97-4"
     style="color:#000000;fill:#8080ff;fill-opacity:1;stroke-linecap:round;stroke-linejoin:round;stroke-dasharray:3.17499, 3.17499;-inkscape-stroke:none"
     d="m 32.1676,22.064863 c -0.292298,0.0055 -0.524724,0.247059 -0.519043,0.539354 0.0055,0.292303 0.247066,0.524729 0.539365,0.519042 0.292298,-0.0055 0.524718,-0.247067 0.519031,-0.539365 -0.0055,-0.292294 -0.247062,-0.524711 -0.539353,-0.519031 z m -0.17696,-11.646133 0.01109,12.17586 0.351612,-7.73e-4 -0.0091,-12.173985 z m 0.16614,-0.528524 c -0.292298,0.0055 -0.524722,0.247058 -0.519041,0.539355 0.0055,0.292303 0.247066,0.524727 0.539363,0.519041 0.292298,-0.0055 0.52472,-0.247068 0.519032,-0.539364 -0.0055,-0.292294 -0.247061,-0.524713 -0.539354,-0.519032 z" />
  <path
     id="path2-1-7-2-9-72-5"
     style="color:#000000;fill:#8080ff;fill-opacity:1;stroke-linecap:round;stroke-linejoin:round;stroke-dasharray:3.17499, 3.17499;-inkscape-stroke:none"
     d="m 36.603126,20.304557 c -0.292298,0.0055 -0.524724,0.247059 -0.519043,0.539354 0.0055,0.292303 0.247066,0.524729 0.539365,0.519042 0.292298,-0.0055 0.524718,-0.247067 0.519031,-0.539365 -0.0055,-0.292294 -0.247062,-0.524711 -0.539353,-0.519031 z m -0.17696,-11.646133 0.01109,12.17586 0.351612,-7.73e-4 -0.0091,-12.173985 z M 36.592306,8.1299 c -0.292298,0.0055 -0.524722,0.247058 -0.519041,0.539355 0.0055,0.292303 0.247066,0.524727 0.539363,0.519041 0.292298,-0.0055 0.52472,-0.247068 0.519032,-0.539364 C 37.12616,8.356638 36.884599,8.124219 36.592306,8.1299 Z" />
  <path
     style="display:inline;fill:none;stroke:#8080ff;stroke-width:0.352778;stroke-linecap:round;stroke-linejoin:round;stroke-dasharray:none;stroke-dashoffset:3.06667;stroke-opacity:1"
     d="m 116.19405,38.686397 c 2.14434,-3e-5 4.26187,-4.140248 4.26186,-9.274016 -4e-5,-5.133684 -2.11755,-9.273988 -4.26186,-9.274018"
     id="path17-1-5-6"
     sodipodi:nodetypes="ccc" />
  <path
     id="path2-1-7-2-9-7-0-2"
     style="color:#000000;fill:#8080ff;fill-opacity:1;stroke-linecap:round;stroke-linejoin:round;stroke-dasharray:3.17499, 3.17499;-inkscape-stroke:none"
     d="m 39.081759,22.064863 c -0.292298,0.0055 -0.524724,0.247059 -0.519043,0.539354 0.0055,0.292303 0.247066,0.524729 0.539365,0.519042 0.292298,-0.0055 0.524718,-0.247067 0.519031,-0.539365 -0.0055,-0.292294 -0.247062,-0.524711 -0.539353,-0.519031 z m -0.17696,-11.646133 0.01109,12.17586 0.351612,-7.73e-4 -0.0091,-12.173985 z m 0.16614,-0.528524 c -0.292298,0.0055 -0.524722,0.247058 -0.519041,0.539355 0.0055,0.292303 0.247066,0.524727 0.539363,0.519041 0.292298,-0.0055 0.52472,-0.247068 0.519032,-0.539364 -0.0055,-0.292294 -0.247061,-0.524713 -0.539354,-0.519032 z" />
  <path
     style="fill:none;stroke:#808080;stroke-width:0.352778;stroke-linecap:butt;stroke-linejoin:round;stroke-dasharray:0.705556, 0.705556;stroke-dashoffset:0;stroke-opacity:1"
     d="m 25.851198,8.835482 c 2.5e-5,1.368496 3.710594,2.986809 8.291544,2.986799 4.580877,-2e-5 8.275339,-1.351399 8.275366,-2.719872"
     id="path17-6-6-9-9"
     sodipodi:nodetypes="ccc"
     inkscape:label="path17-6-6" />
  <path
     d="m 107.83092,20.12603 c 3.63048,-0.01618 3.35092,-0.03235 6.98141,-0.04853 2.33182,3.523852 2.99358,3.347535 3.31659,8.479905 0.0825,1.310274 -0.0728,4.319619 -0.98516,6.667116 -0.77002,1.981391 -2.31585,3.449543 -2.31585,3.449543 l -6.99699,10e-7 c 0,0 -0.97044,-3.802441 -0.97044,-9.249353 0,-6.273706 0.97044,-9.298682 0.97044,-9.298682 z"
     id="path5"
     style="fill:#ffffff;fill-opacity:1;stroke-width:1"
     sodipodi:nodetypes="ccssccsc" />
  <path
     style="fill:#808080;fill-opacity:1;stroke:#000000;stroke-width:0.352777;stroke-linejoin:round;stroke-dasharray:none;stroke-opacity:1"
     d="m 99.123311,16.749305 c 6.124899,0 12.249809,0 18.374719,0 m 6.78447,0.03424 c 2.51608,-0.01541 5.4787,-0.03355 7.54823,-0.04622"
     id="path3-1"
     inkscape:path-effect="#path-effect3-0"
     inkscape:original-d="m 99.123311,16.749305 c 6.124899,0 12.249809,0 18.374719,0 m 6.78447,0.03424 c 0,0 5.4787,-0.03355 7.54823,-0.04622"
     sodipodi:nodetypes="cccc"
     transform="translate(2.78491,21.924759)" />
  <path
     style="fill:#808080;fill-opacity:1;stroke:#000000;stroke-width:0.352777;stroke-linejoin:round;stroke-dasharray:none;stroke-opacity:1"
     d="m 99.549197,16.683121 c 6.116163,-0.01618 12.232323,-0.03235 18.348483,-0.04853 m 6.92352,0.02791 c 2.47847,0.0029 5.41449,0.0063 7.43542,0.0086"
     id="path3"
     inkscape:path-effect="#path-effect3"
     inkscape:original-d="m 99.549197,16.683121 c 6.116163,-0.01618 12.232323,-0.03235 18.348483,-0.04853 m 6.92352,0.02791 c 0,0 5.41449,0.0063 7.43542,0.0086"
     sodipodi:nodetypes="cccc"
     transform="translate(2.3590243,3.4429095)" />
  <path
     id="path2-1-7-4-0"
     style="color:#000000;fill:#8080ff;fill-opacity:1;stroke-linecap:round;stroke-linejoin:round;stroke-dasharray:3.17499, 3.17499;-inkscape-stroke:none"
     d="m 116.71309,19.599009 c -0.29229,0.0055 -0.52472,0.247059 -0.51904,0.539354 0.005,0.292303 0.24707,0.524729 0.53937,0.519042 0.29229,-0.0055 0.52471,-0.247067 0.51903,-0.539365 -0.006,-0.292294 -0.24706,-0.524711 -0.53936,-0.519031 z m -0.23484,-4.749835 0.069,5.279562 0.35162,-7.73e-4 -0.0669,-5.277687 z m 0.16614,-0.528524 c -0.29229,0.0055 -0.52472,0.247058 -0.51904,0.539355 0.005,0.292304 0.24707,0.524728 0.53937,0.519042 0.29229,-0.0055 0.52472,-0.247069 0.51903,-0.539365 -0.005,-0.292294 -0.24706,-0.524713 -0.53936,-0.519032 z"
     sodipodi:nodetypes="ccccccccccccccc" />
  <path
     id="path2-1-7-4-0-1"
     style="color:#000000;fill:#8080ff;fill-opacity:1;stroke-linecap:round;stroke-linejoin:round;stroke-dasharray:3.17499, 3.17499;-inkscape-stroke:none"
     d="m 117.27674,43.383625 c -0.29229,0.0055 -0.52472,0.247059 -0.51904,0.539354 0.005,0.292303 0.24707,0.524729 0.53937,0.519042 0.29229,-0.0055 0.52471,-0.247067 0.51903,-0.539365 -0.006,-0.292294 -0.24706,-0.524711 -0.53936,-0.519031 z m -0.23484,-4.749835 0.069,5.279562 0.35162,-7.73e-4 -0.0669,-5.277687 z m 0.16614,-0.528524 c -0.29229,0.0055 -0.52472,0.247058 -0.51904,0.539355 0.005,0.292304 0.24707,0.524728 0.53937,0.519042 0.29229,-0.0055 0.52472,-0.247069 0.51903,-0.539365 -0.005,-0.292294 -0.24706,-0.524713 -0.53936,-0.519032 z"
     sodipodi:nodetypes="ccccccccccccccc" />
  <path
     id="path2-1-7-4-0-1-2"
     style="color:#000000;fill:#8080ff;fill-opacity:1;stroke-linecap:round;stroke-linejoin:round;stroke-dasharray:3.17499, 3.17499;-inkscape-stroke:none"
     d="m 125.18573,29.369869 c 0.005,0.29229 0.24706,0.52472 0.53936,0.51904 0.2923,-0.005 0.52472,-0.24707 0.51904,-0.53937 -0.005,-0.29229 -0.24707,-0.52471 -0.53937,-0.51903 -0.29229,0.006 -0.52471,0.24706 -0.51903,0.53936 z m -4.74983,0.23484 5.27956,-0.069 -7.7e-4,-0.35162 -5.27769,0.0669 z m -0.52853,-0.16614 c 0.005,0.29229 0.24706,0.52472 0.53936,0.51904 0.2923,-0.005 0.52473,-0.24707 0.51904,-0.53937 -0.005,-0.29229 -0.24707,-0.52472 -0.53937,-0.51903 -0.29229,0.005 -0.52471,0.24706 -0.51903,0.53936 z"
     sodipodi:nodetypes="ccccccccccccccc" />
  <path
     id="path2-1-7-4-0-1-2-4"
     style="color:#000000;fill:#8080ff;fill-opacity:1;stroke-linecap:round;stroke-linejoin:round;stroke-dasharray:3.17499, 3.17499;-inkscape-stroke:none"
     d="m 122.62521,19.9492 c 0.21371,0.199436 0.54905,0.186792 0.74801,-0.02742 0.19947,-0.213752 0.18679,-0.54909 -0.0272,-0.748053 -0.21374,-0.199434 -0.54906,-0.186775 -0.74805,0.02742 -0.19872,0.214415 -0.18676,0.549069 0.0272,0.748034 z m -3.13057,3.579877 3.61783,-3.845724 -0.25344,-0.243721 -3.61806,3.842925 z m -0.48668,0.264768 c 0.21375,0.199428 0.54906,0.186786 0.74805,-0.02742 0.19941,-0.213724 0.18677,-0.549085 -0.0272,-0.74805 -0.21373,-0.199432 -0.54907,-0.186777 -0.74802,0.02742 -0.19946,0.213737 -0.18679,0.54907 0.0272,0.748036 z"
     sodipodi:nodetypes="ccccccccccccccc" />
  <path
     id="path2-1-7-4-0-1-2-4-6"
     style="color:#000000;fill:#8080ff;fill-opacity:1;stroke-linecap:round;stroke-linejoin:round;stroke-dasharray:3.17499, 3.17499;-inkscape-stroke:none"
     d="m 122.97778,37.967451 c 0.21371,-0.199436 0.54905,-0.186792 0.74801,0.02742 0.19947,0.213752 0.18679,0.54909 -0.0272,0.748053 -0.21374,0.199434 -0.54906,0.186775 -0.74805,-0.02742 -0.19872,-0.214415 -0.18676,-0.549069 0.0272,-0.748034 z m -3.13057,-3.579877 3.61783,3.845724 -0.25344,0.243721 -3.61806,-3.842925 z m -0.48668,-0.264768 c 0.21375,-0.199428 0.54906,-0.186786 0.74805,0.02742 0.19941,0.213724 0.18677,0.549085 -0.0272,0.74805 -0.21373,0.199432 -0.54907,0.186777 -0.74802,-0.02742 -0.19946,-0.213737 -0.18679,-0.54907 0.0272,-0.748036 z"
     sodipodi:nodetypes="ccccccccccccccc" />
  <path
     id="path2-1-7-4-0-1-2-4-6-3"
     style="color:#000000;fill:#8080ff;fill-opacity:1;stroke-linecap:round;stroke-linejoin:round;stroke-dasharray:3.17499, 3.17499;-inkscape-stroke:none"
     d="m 112.56507,40.343411 c -0.21371,-0.199436 -0.54904,-0.186792 -0.748,0.02742 -0.19948,0.213752 -0.1868,0.54909 0.0272,0.748053 0.21374,0.199434 0.54906,0.186775 0.74806,-0.02742 0.19871,-0.214415 0.18676,-0.549069 -0.0272,-0.748034 z m 1.22175,-1.49319 -1.709,1.759037 0.25344,0.243721 1.9734,-2.001502 z"
     sodipodi:nodetypes="ccccccccccc" />
  <path
     id="path2-1-7-4-0-1-2-4-6-3-7"
     style="color:#000000;fill:#8080ff;fill-opacity:1;stroke-linecap:round;stroke-linejoin:round;stroke-dasharray:3.17499, 3.17499;-inkscape-stroke:none"
     d="m 112.50027,18.468783 c -0.21371,0.199436 -0.54904,0.186792 -0.748,-0.02742 -0.19948,-0.213752 -0.1868,-0.54909 0.0272,-0.748053 0.21374,-0.199434 0.54906,-0.186775 0.74806,0.02742 0.19871,0.214415 0.18676,0.549069 -0.0272,0.748034 z m 1.22175,1.49319 -1.709,-1.759037 0.25344,-0.243721 1.9734,2.001502 z"
     sodipodi:nodetypes="ccccccccccc" />
  <path
     id="path3-6-8"
     style="display:inline;fill:none;fill-opacity:1;stroke:#808080;stroke-width:0.352777;stroke-linejoin:round;stroke-dasharray:0.705554, 0.705554;stroke-dashoffset:0;stroke-opacity:1"
     d="m 110.14601,17.935401 h 6.80361 m -6.80361,-29.101746 h 6.80361 m 0,29.101746 c 4.12431,-4.8e-5 8.19706,-6.496022 8.19705,-14.550871 -7e-5,-8.054717 -4.0728,-14.550827 -8.19705,-14.550874 m -12.39881,5.276855 c 1.39553,-2.960136 3.56997,-5.588705 5.5952,-5.276856 4.28761,0.311921 8.19698,6.496158 8.19705,14.550875 1e-5,8.054849 -4.00789,14.670797 -8.19705,14.550871 -1.92672,-0.119999 -4.19967,-2.316719 -5.5952,-5.276855"
     sodipodi:nodetypes="cccccccccccc"
     transform="translate(3.94453,26.015519)" />
</svg>
