<?xml version="1.0" encoding="UTF-8" standalone="no"?>
<!-- Created with Inkscape (http://www.inkscape.org/) -->

<svg
   width="6in"
   height="0.69999999in"
   viewBox="0 0 152.4 17.78"
   version="1.1"
   id="svg1"
   xml:space="preserve"
   inkscape:version="1.3.2 (091e20e, 2023-11-25)"
   sodipodi:docname="knots.svg"
   inkscape:export-filename="knots.pdf"
   inkscape:export-xdpi="96"
   inkscape:export-ydpi="96"
   xmlns:inkscape="http://www.inkscape.org/namespaces/inkscape"
   xmlns:sodipodi="http://sodipodi.sourceforge.net/DTD/sodipodi-0.dtd"
   xmlns="http://www.w3.org/2000/svg"
   xmlns:svg="http://www.w3.org/2000/svg"><sodipodi:namedview
     id="namedview1"
     pagecolor="#ffffff"
     bordercolor="#000000"
     borderopacity="0.25"
     inkscape:showpageshadow="2"
     inkscape:pageopacity="0.0"
     inkscape:pagecheckerboard="0"
     inkscape:deskcolor="#d1d1d1"
     inkscape:document-units="mm"
     inkscape:zoom="1.05778"
     inkscape:cx="279.35866"
     inkscape:cy="248.16125"
     inkscape:window-width="1728"
     inkscape:window-height="1051"
     inkscape:window-x="0"
     inkscape:window-y="38"
     inkscape:window-maximized="0"
     inkscape:current-layer="layer1"
     showgrid="false" /><defs
     id="defs1" /><g
     inkscape:label="Layer 1"
     inkscape:groupmode="layer"
     id="layer1"><path
       style="fill:none;stroke:#090909;stroke-width:0.352778;stroke-linecap:round;stroke-linejoin:round;stroke-dasharray:none"
       d="m 78.633571,9.0663888 c 2.039767,1.3775492 4.563231,2.0741342 7.019111,1.9246402 l 0.172468,-0.0195"
       id="path136" /><path
       style="fill:none;stroke:#090909;stroke-width:0.352778;stroke-linecap:round;stroke-linejoin:round;stroke-dasharray:none"
       d="m 91.366884,8.4736798 c 0.134585,1.222591 0.706218,2.4637112 0.21135,3.6857752 -0.67939,2.045267 -2.643859,3.626757 -4.777368,3.872777 -1.591961,0.236355 -2.564964,-1.295083 -2.853628,-2.652805 -0.145627,-0.542373 -0.270645,-1.092342 -0.364174,-1.645846"
       id="path135" /><path
       style="fill:none;stroke:#090909;stroke-width:0.352778;stroke-linecap:round;stroke-linejoin:round;stroke-dasharray:none"
       d="m 109.24707,6.6132988 c 0.9604,2.199122 1.6979,4.8041502 0.73837,7.1284422 -0.5796,1.358411 -2.09026,1.972591 -3.49194,1.875167 -1.95286,-0.09097 -4.01399,-0.945934 -5.15017,-2.593542 -0.72746,-1.020746 -0.69788,-2.556864 0.30326,-3.3911632 0.2255,-0.216791 0.47891,-0.403411 0.74734,-0.563397"
       id="path133" /><path
       style="fill:none;stroke:#090909;stroke-width:0.352778;stroke-linecap:round;stroke-linejoin:round;stroke-dasharray:none"
       d="m 83.794589,15.332165 c -2.064979,0.813364 -4.681158,1.179599 -6.536073,-0.312569 -1.380083,-1.164246 -1.123163,-3.24185 -0.48215,-4.730222 0.751498,-1.5802072 2.033673,-3.2064292 3.859358,-3.4975192 1.493425,-0.125119 2.283845,1.487572 2.489065,2.741139 l 0.04115,0.212589 0.03636,0.209869"
       id="path131" /><path
       style="fill:none;stroke:#090909;stroke-width:0.352778;stroke-linecap:round;stroke-linejoin:round;stroke-dasharray:none"
       d="m 98.036679,6.1475988 c 2.245621,1.231246 4.925021,1.79009 6.774911,3.659581 0.79782,0.8722532 0.71433,2.2046572 0.0359,3.1170512 -0.29692,0.466357 -0.6975,0.873589 -1.18447,1.14026"
       id="path129" /><path
       style="fill:none;stroke:#090909;stroke-width:0.352778;stroke-linecap:round;stroke-linejoin:round;stroke-dasharray:none"
       d="m 98.54432,3.9461123 c -1.907343,2.5025865 -3.360331,5.7060425 -2.722371,8.9113037 0.268636,1.328912 1.336962,2.500878 2.72849,2.622525 1.249683,0.204164 2.504271,-0.122314 3.694171,-0.481197 l 0.13913,0.01206 0.1371,0.02746"
       id="path126" /><path
       style="fill:none;stroke:#090909;stroke-width:0.352778;stroke-linecap:round;stroke-linejoin:round;stroke-dasharray:none"
       d="m 84.302229,3.3933203 c -0.480279,1.851704 0.737898,3.5333395 1.497989,5.1210885 0.780345,1.472793 1.447392,3.4356972 0.368288,4.9357882 -0.249074,0.358622 -0.557195,0.673263 -0.893299,0.950569"
       id="path124" /><path
       style="fill:none;stroke:#090909;stroke-width:0.352778;stroke-linecap:round;stroke-linejoin:round;stroke-dasharray:none"
       d="m 107.72419,2.8877173 c 0.72733,-0.677674 2.211,-0.81738 2.4749,0.390699 0.3922,1.153182 -0.58988,2.090936 -1.50122,2.60484 -1.4565,0.8851945 -3.06957,1.4773595 -4.62006,2.1673825 l -0.16092,0.04445"
       id="path122" /><path
       style="fill:none;stroke:#090909;stroke-width:0.352778;stroke-linecap:round;stroke-linejoin:round;stroke-dasharray:none"
       d="m 96.640707,5.2585523 c -1.098345,-0.620491 -1.126244,-2.836054 0.304714,-2.995177 1.159371,0.09352 2.038362,1.001766 2.949316,1.638715 1.165153,0.920142 2.695813,1.973657 4.231563,1.292525 0.8033,-0.319486 1.47933,-0.872256 2.20187,-1.333162"
       id="path121" /><path
       style="fill:none;stroke:#090909;stroke-width:0.352778;stroke-linecap:round;stroke-linejoin:round;stroke-dasharray:none"
       d="m 85.10602,2.0808953 c 1.136065,-0.177273 2.270669,-0.693806 3.429016,-0.31398 1.745498,0.32667 3.481868,1.850004 3.249621,3.762597 -0.215729,2.0840365 -1.725688,3.8658375 -3.497173,4.8760127 -0.271498,0.136683 -0.558113,0.244736 -0.854772,0.31198"
       id="path117" /><path
       style="fill:none;stroke:#090909;stroke-width:0.352778;stroke-linecap:round;stroke-linejoin:round;stroke-dasharray:none"
       d="m 77.279872,7.8809718 c -1.036507,-1.293863 -1.73882,-3.3145515 -0.675162,-4.7922955 1.201699,-1.406356 3.256663,-1.570974 4.98068,-1.404995 3.268488,0.422266 6.157911,2.406721 8.307584,4.8252055 0.175167,0.280767 0.492933,0.562344 0.500589,0.90638"
       id="path116" /><path
       style="fill:none;stroke:#090909;stroke-width:0.352778;stroke-linecap:round;stroke-linejoin:round;stroke-dasharray:none"
       d="m 99.728807,2.7183523 c 1.349783,-1.262188 3.485403,-2.01200997 5.195683,-1.013562 1.4511,0.743274 2.46705,2.073105 3.43421,3.34206"
       id="path114" /><path
       style="fill:none;stroke:#090909;stroke-width:0.352778;stroke-linecap:round;stroke-linejoin:round;stroke-dasharray:none"
       d="m 69.251643,7.4315238 c 1.987208,1.417433 4.441026,3.6545162 3.585009,6.6701942 -0.556013,1.36104 -2.151792,1.841452 -3.499534,1.584414 C 66.651969,15.202104 64.038251,13.713145 62.558597,11.374654 61.947513,10.396432 61.67678,9.2489578 61.594732,8.1088968"
       id="path22"
       sodipodi:nodetypes="ccccc" /><path
       style="fill:none;stroke:#090909;stroke-width:0.352778;stroke-linecap:round;stroke-linejoin:round;stroke-dasharray:none"
       d="m 64.429059,14.501681 c -1.801749,0.805767 -3.875416,1.765605 -5.852329,0.989309 -1.360364,-0.601431 -1.904026,-2.335058 -1.319088,-3.666985 0.76379,-2.0383982 2.501196,-3.5546902 4.293366,-4.6950572 1.889327,-1.1932175 4.337845,-1.4471855 6.304624,-0.290141"
       id="path19" /><path
       style="fill:none;stroke:#090909;stroke-width:0.352778;stroke-linecap:round;stroke-linejoin:round;stroke-dasharray:none"
       d="m 61.42552,6.4577798 c -0.0071,-2.1995035 0.827776,-5.2369775 3.74417,-5.0550495 1.823197,0.385438 2.649918,2.321159 3.139926,3.926879 0.461915,1.8269475 0.557485,3.8695635 -0.202396,5.6287077 -0.527719,1.025091 -1.323762,1.996454 -2.345934,2.532502 l -0.147733,-0.0052"
       id="path5"
       sodipodi:nodetypes="cccccc" /><path
       style="fill:none;stroke:#090909;stroke-width:0.352778;stroke-dasharray:none"
       d="m 46.337032,1.7413033 c 3.52077,-0.382567 7.021764,2.271228 7.670926,5.7461675 0.775938,3.2876922 -1.214615,6.8559142 -4.318845,8.0927772 -3.099137,1.374921 -6.992607,0.08292 -8.786651,-2.756427 -2.022845,-3.0301552 -1.239286,-7.5504897 1.74506,-9.6638727 1.068824,-0.798758 2.358799,-1.304531 3.68951,-1.418645 z"
       id="path4" /></g></svg>
