<?xml version="1.0" encoding="UTF-8" standalone="no"?>
<!-- Created with Inkscape (http://www.inkscape.org/) -->

<svg
   width="6in"
   height="2in"
   viewBox="0 0 152.4 50.8"
   version="1.1"
   id="svg1"
   inkscape:version="1.3.2 (091e20e, 2023-11-25)"
   sodipodi:docname="plumbing-multiple-points.svg"
   inkscape:export-filename="plumbing-multiple-points.pdf"
   inkscape:export-xdpi="96"
   inkscape:export-ydpi="96"
   xmlns:inkscape="http://www.inkscape.org/namespaces/inkscape"
   xmlns:sodipodi="http://sodipodi.sourceforge.net/DTD/sodipodi-0.dtd"
   xmlns="http://www.w3.org/2000/svg"
   xmlns:svg="http://www.w3.org/2000/svg">
  <sodipodi:namedview
     id="namedview1"
     pagecolor="#ffffff"
     bordercolor="#000000"
     borderopacity="0.25"
     inkscape:showpageshadow="2"
     inkscape:pageopacity="0.0"
     inkscape:pagecheckerboard="0"
     inkscape:deskcolor="#d1d1d1"
     inkscape:document-units="mm"
     inkscape:zoom="1.6790743"
     inkscape:cx="304.03658"
     inkscape:cy="89.037158"
     inkscape:window-width="1728"
     inkscape:window-height="1051"
     inkscape:window-x="0"
     inkscape:window-y="38"
     inkscape:window-maximized="0"
     inkscape:current-layer="layer1" />
  <defs
     id="defs1">
    <inkscape:path-effect
       effect="bspline"
       id="path-effect2"
       is_visible="true"
       lpeversion="1.3"
       weight="33.333333"
       steps="2"
       helper_size="0"
       apply_no_weight="true"
       apply_with_weight="true"
       only_selected="false"
       uniform="false" />
  </defs>
  <g
     inkscape:label="Layer 1"
     inkscape:groupmode="layer"
     id="layer1">
    <path
       style="fill:#bfbfbf;fill-opacity:0;stroke:#0000ff;stroke-width:0.264583;stroke-linecap:butt;stroke-linejoin:round;stroke-dasharray:none;stroke-dashoffset:0;stroke-opacity:1"
       d="m 99.16063,30.00795 c 0,6.456559 -10.24928,11.678012 -22.95787,11.662362 -12.70859,-0.01565 -22.96339,-5.234108 -22.96339,-11.690667 0,-6.456559 10.2548,-11.706252 22.96339,-11.690601 12.70859,0.01565 22.95787,5.262347 22.95787,11.718906 z"
       id="path64" />
    <path
       style="fill:#bfbfbf;fill-opacity:0;stroke:#000000;stroke-width:0.352778;stroke-linecap:square;stroke-dasharray:none"
       d="M 76.159957,38.385732 C 66.075498,38.376705 57.183395,35.004691 54.241915,30.074094"
       id="path63" />
    <path
       style="fill:#bfbfbf;fill-opacity:0;stroke:#000000;stroke-width:0.352778;stroke-linecap:square;stroke-dasharray:none"
       d="m 53.291583,33.364335 c -0.02945,-2.23759 -0.05891,-4.47518 -0.08836,-6.712769"
       id="path59" />
    <path
       id="path58"
       style="fill:#bfbfbf;fill-opacity:0;stroke:#000000;stroke-width:0.352778;stroke-linecap:square;stroke-dasharray:none"
       d="m 53.203217,26.651564 c 0.01314,1.160825 0.363181,2.314229 1.038697,3.42253 2.941481,4.930597 11.833584,8.302611 21.918043,8.311638 10.210069,-0.006 19.18531,-3.458205 22.024498,-8.471318 0.60964,-1.059766 0.92349,-2.158226 0.93224,-3.262849 l 0.08787,6.712769 C 99.204305,39.844912 88.926574,45.098418 76.248323,45.0985 63.569874,45.098564 53.291826,39.845016 53.291585,33.364333 M 74.929768,10.15667 c -2.406447,0.09012 -7.323541,4.329249 -4.76175,5.433023 1.007213,0.433968 7.246987,1.17683 9.77754,-0.507843 2.26098,-1.505209 -2.674225,-5.012871 -5.01579,-4.92518 z m 5.519964,11.670979 c 0.927532,2.277175 -2.993962,4.931741 -5.452522,4.968156 -2.382368,0.03529 -6.165372,-2.391307 -5.42381,-4.655597 0.624654,-1.907321 10.383975,-1.52134 10.876332,-0.312559 z m -26.207817,8.246446 c -0.675516,-1.108301 -1.025557,-2.261705 -1.038697,-3.42253 -1.02e-4,-2.075287 1.163361,-4.06481 3.114923,-5.79367 1.711623,-1.516302 4.112953,-2.467173 5.789923,-4.772673 3.109751,-4.275288 5.055053,-11.5605359 12.889146,-11.6770577 3.342033,-0.049708 6.832739,1.8276529 9.177573,4.6455963 1.701676,2.0450184 1.983807,4.6710714 3.705179,6.4594534 1.853735,1.925897 4.751354,2.814593 6.798771,4.252698 2.765522,1.942502 4.438088,4.330782 4.437962,6.885653 -0.0088,1.104624 -0.3226,2.203084 -0.93224,3.26285 -1.410192,-2.343658 -3.9991,-4.294446 -7.488767,-5.71331 -1.445738,-0.587823 -3.046079,-1.084347 -4.211996,-0.310919 -1.165916,0.773429 -2.266071,2.722005 -3.688275,4.364373 -2.09127,2.41501 -4.878876,4.167936 -7.785898,4.264937 -7.07591,0.236094 -7.742622,-6.07477 -12.395317,-7.037669 -1.30585,-0.270252 -2.514221,-0.471583 -3.977155,0.432153 -1.973792,1.219321 -3.526726,2.640362 -4.395132,4.160115 z"
       sodipodi:nodetypes="ccccccccassassasccssssasccscssasc" />
    <path
       id="path1"
       style="fill-opacity:0;fill-rule:evenodd;stroke:#0000ff;stroke-width:0.264583;stroke-linecap:round;stroke-linejoin:round;stroke-dasharray:none;stroke-opacity:1"
       d="M 84.317668,19.048047 C 84.218438,23.76543 79.865534,29.716251 75.148533,29.832246 70.476322,29.94714 65.802565,24.276685 65.552409,19.609761 65.272771,14.392821 69.772212,7.1427475 74.996477,7.1013035 80.047273,7.0612355 84.423891,13.99821 84.317668,19.048047 Z"
       sodipodi:nodetypes="aaaaa" />
    <g
       id="path2"
       transform="translate(-15.015296,5.0959326)">
      <path
         style="color:#000000;fill:#000000;fill-opacity:0;fill-rule:evenodd;stroke-linecap:round;stroke-linejoin:round;-inkscape-stroke:none"
         d="m 99.332964,13.952114 c 0,0 0,0 0,0"
         id="path3" />
      <path
         style="color:#000000;fill:#0000ff;fill-rule:evenodd;stroke-linecap:round;stroke-linejoin:round;-inkscape-stroke:none"
         d="m 99.332031,13.423828 a 0.52916664,0.52916664 0 0 0 -0.527344,0.527344 0.52916664,0.52916664 0 0 0 0.527344,0.529297 0.52916664,0.52916664 0 0 0 0.529297,-0.529297 0.52916664,0.52916664 0 0 0 -0.529297,-0.527344 z"
         id="path4" />
    </g>
    <g
       id="path2-9"
       transform="translate(-33.780555,5.6576466)">
      <path
         style="color:#000000;fill:#000000;fill-opacity:0;fill-rule:evenodd;stroke-linecap:round;stroke-linejoin:round;-inkscape-stroke:none"
         d="m 99.332964,13.952114 c 0,0 0,0 0,0"
         id="path3-5" />
      <path
         style="color:#000000;fill:#0000ff;fill-rule:evenodd;stroke-linecap:round;stroke-linejoin:round;-inkscape-stroke:none"
         d="m 99.332031,13.423828 a 0.52916664,0.52916664 0 0 0 -0.527344,0.527344 0.52916664,0.52916664 0 0 0 0.527344,0.529297 0.52916664,0.52916664 0 0 0 0.529297,-0.529297 0.52916664,0.52916664 0 0 0 -0.529297,-0.527344 z"
         id="path4-6" />
    </g>
  </g>
</svg>
