<?xml version="1.0" encoding="UTF-8" standalone="no"?>
<!-- Created with Inkscape (http://www.inkscape.org/) -->

<svg
   width="6in"
   height="1.75in"
   viewBox="0 0 152.4 44.45"
   version="1.1"
   id="svg1"
   inkscape:version="1.3.2 (091e20e, 2023-11-25)"
   sodipodi:docname="plumbing-multiple-points.svg"
   inkscape:export-filename="plumbing-multiple-points.pdf"
   inkscape:export-xdpi="96"
   inkscape:export-ydpi="96"
   xmlns:inkscape="http://www.inkscape.org/namespaces/inkscape"
   xmlns:sodipodi="http://sodipodi.sourceforge.net/DTD/sodipodi-0.dtd"
   xmlns="http://www.w3.org/2000/svg"
   xmlns:svg="http://www.w3.org/2000/svg">
  <sodipodi:namedview
     id="namedview1"
     pagecolor="#ffffff"
     bordercolor="#000000"
     borderopacity="0.25"
     inkscape:showpageshadow="2"
     inkscape:pageopacity="0.0"
     inkscape:pagecheckerboard="0"
     inkscape:deskcolor="#d1d1d1"
     inkscape:document-units="mm"
     inkscape:zoom="2.2049247"
     inkscape:cx="228.806"
     inkscape:cy="84.583387"
     inkscape:window-width="1728"
     inkscape:window-height="1051"
     inkscape:window-x="0"
     inkscape:window-y="38"
     inkscape:window-maximized="0"
     inkscape:current-layer="layer1"
     showgrid="false" />
  <defs
     id="defs1">
    <inkscape:path-effect
       effect="bspline"
       id="path-effect2"
       is_visible="true"
       lpeversion="1.3"
       weight="33.333333"
       steps="2"
       helper_size="0"
       apply_no_weight="true"
       apply_with_weight="true"
       only_selected="false"
       uniform="false" />
  </defs>
  <g
     inkscape:label="Layer 1"
     inkscape:groupmode="layer"
     id="layer1">
    <path
       style="fill:#bfbfbf;fill-opacity:0;stroke:#0000ff;stroke-width:0.264583;stroke-linecap:butt;stroke-linejoin:round;stroke-dasharray:none;stroke-dashoffset:0;stroke-opacity:1"
       d="m 99.157732,28.208002 c 0,6.456559 -10.24928,11.678012 -22.95787,11.662362 -12.70859,-0.01565 -22.96339,-5.234108 -22.96339,-11.690667 0,-6.456559 10.2548,-11.706252 22.96339,-11.690601 12.70859,0.01565 22.95787,5.262347 22.95787,11.718906 z"
       id="path64"
       sodipodi:nodetypes="sssss" />
    <path
       style="fill:#bfbfbf;fill-opacity:0;stroke:#000000;stroke-width:0.352778;stroke-linecap:square;stroke-dasharray:none"
       d="M 76.157059,36.585784 C 66.0726,36.576757 57.180497,33.204743 54.239017,28.274146"
       id="path63"
       sodipodi:nodetypes="cc" />
    <path
       style="fill:#bfbfbf;fill-opacity:0;stroke:#000000;stroke-width:0.352778;stroke-linecap:square;stroke-dasharray:none"
       d="m 53.288685,31.564387 c -0.02945,-2.23759 -0.05891,-4.47518 -0.08836,-6.712769"
       id="path59"
       sodipodi:nodetypes="cc" />
    <path
       id="path58"
       style="fill:#bfbfbf;fill-opacity:0;stroke:#000000;stroke-width:0.352778;stroke-linecap:square;stroke-dasharray:none"
       d="m 53.200319,24.851616 c 0.01314,1.160825 0.363181,2.314229 1.038697,3.42253 2.941481,4.930597 11.833584,8.302611 21.918043,8.311638 10.210069,-0.006 19.18531,-3.458205 22.024498,-8.471318 0.60964,-1.059766 0.92349,-2.158226 0.93224,-3.262849 l 0.08787,6.712769 C 99.201407,38.044964 88.923676,43.29847 76.245425,43.298552 63.566976,43.298616 53.288928,38.045068 53.288687,31.564385 M 79.062941,7.5794084 c -1.994932,-1.6325516 -5.845527,-1.4079072 -7.725149,0.356178 -1.379474,1.2946805 -2.058968,5.0216516 -0.620065,5.6416176 1.007213,0.433968 6.69438,1.389371 9.224933,-0.295302 2.26098,-1.505209 0.608724,-4.4844271 -0.879719,-5.7024936 z m 1.273002,11.9492836 c 0.547108,1.343201 -0.149745,4.440366 -1.681062,5.693896 -1.608297,1.316546 -4.406643,1.581008 -6.211058,0.549505 -1.936045,-1.10675 -4.306755,-4.33339 -2.873321,-6.041733 2.054764,-2.448833 10.273084,-1.410449 10.765441,-0.201668 z m -26.096926,8.745455 c -0.675516,-1.108301 -1.025557,-2.261705 -1.038697,-3.42253 -1.02e-4,-2.075287 1.163361,-4.06481 3.114923,-5.79367 1.711623,-1.516302 4.112953,-2.467173 5.789923,-4.772673 1.8113,-2.490177 2.19516,-9.3720251 5.910242,-11.6348952 4.080172,-2.48524749 10.559835,-2.83677119 14.332108,0.094818 3.247631,2.5238686 3.811319,7.7950602 6.686394,10.9680692 1.581328,1.745196 3.594508,2.814593 5.641925,4.252698 2.765522,1.942502 4.438088,4.330782 4.437962,6.885653 -0.0088,1.104624 -0.3226,2.203084 -0.93224,3.26285 -1.410192,-2.343658 -4.00154,-4.28846 -7.488767,-5.71331 -4.784676,-1.954976 -6.542367,7.357056 -10.954509,9.120069 -2.76015,1.102906 -6.022835,1.34362 -8.897607,0.588292 -4.704336,-1.236034 -6.867569,-11.293657 -12.206525,-7.995486 -1.973792,1.219321 -3.526726,2.640362 -4.395132,4.160115 z"
       sodipodi:nodetypes="ccccccccaassasaassccssasasccsaasc" />
    <path
       id="path1"
       style="fill-opacity:0;fill-rule:evenodd;stroke:#0000ff;stroke-width:0.264583;stroke-linecap:round;stroke-linejoin:round;stroke-dasharray:none;stroke-opacity:1"
       d="m 84.31477,17.248099 c -0.22906,4.712864 -1.477396,8.183794 -4.567166,10.340636 -2.527498,1.764343 -6.56871,2.149154 -9.228277,0.590995 -3.307299,-1.937645 -4.738065,-7.46708 -4.969816,-10.369917 -0.274643,-3.440081 0.920642,-9.9143782 4.548784,-12.4187085 2.77405,-1.9147917 7.373908,-1.8514492 10.111516,0.1150898 3.367476,2.4189986 4.266907,8.4098647 4.104959,11.7419047 z"
       sodipodi:nodetypes="saasaas" />
    <g
       id="path2"
       transform="translate(-15.018194,3.2959845)">
      <path
         style="color:#000000;fill:#000000;fill-opacity:0;fill-rule:evenodd;stroke-linecap:round;stroke-linejoin:round;-inkscape-stroke:none"
         d="m 99.332964,13.952114 c 0,0 0,0 0,0"
         id="path3" />
      <path
         style="color:#000000;fill:#0000ff;fill-rule:evenodd;stroke-linecap:round;stroke-linejoin:round;-inkscape-stroke:none"
         d="m 99.332031,13.423828 a 0.52916664,0.52916664 0 0 0 -0.527344,0.527344 0.52916664,0.52916664 0 0 0 0.527344,0.529297 0.52916664,0.52916664 0 0 0 0.529297,-0.529297 0.52916664,0.52916664 0 0 0 -0.529297,-0.527344 z"
         id="path4" />
    </g>
    <g
       id="path2-9"
       transform="translate(-33.783453,3.8576985)">
      <path
         style="color:#000000;fill:#000000;fill-opacity:0;fill-rule:evenodd;stroke-linecap:round;stroke-linejoin:round;-inkscape-stroke:none"
         d="m 99.332964,13.952114 c 0,0 0,0 0,0"
         id="path3-5" />
      <path
         style="color:#000000;fill:#0000ff;fill-rule:evenodd;stroke-linecap:round;stroke-linejoin:round;-inkscape-stroke:none"
         d="m 99.332031,13.423828 a 0.52916664,0.52916664 0 0 0 -0.527344,0.527344 0.52916664,0.52916664 0 0 0 0.527344,0.529297 0.52916664,0.52916664 0 0 0 0.529297,-0.529297 0.52916664,0.52916664 0 0 0 -0.529297,-0.527344 z"
         id="path4-6" />
    </g>
  </g>
</svg>
