<?xml version="1.0" encoding="UTF-8" standalone="no"?>
<!-- Created with Inkscape (http://www.inkscape.org/) -->

<svg
   width="6in"
   height="2in"
   viewBox="0 0 152.4 50.8"
   version="1.1"
   id="svg1"
   inkscape:version="1.3.2 (091e20e, 2023-11-25)"
   sodipodi:docname="reeb-homomorphism.svg"
   inkscape:export-filename="reeb-homomorphism.pdf"
   inkscape:export-xdpi="96"
   inkscape:export-ydpi="96"
   xmlns:inkscape="http://www.inkscape.org/namespaces/inkscape"
   xmlns:sodipodi="http://sodipodi.sourceforge.net/DTD/sodipodi-0.dtd"
   xmlns:xlink="http://www.w3.org/1999/xlink"
   xmlns="http://www.w3.org/2000/svg"
   xmlns:svg="http://www.w3.org/2000/svg">
  <sodipodi:namedview
     id="namedview1"
     pagecolor="#ffffff"
     bordercolor="#000000"
     borderopacity="0.25"
     inkscape:showpageshadow="2"
     inkscape:pageopacity="0.0"
     inkscape:pagecheckerboard="0"
     inkscape:deskcolor="#d1d1d1"
     inkscape:document-units="mm"
     inkscape:zoom="0.85668153"
     inkscape:cx="365.94696"
     inkscape:cy="185.01625"
     inkscape:window-width="1728"
     inkscape:window-height="1051"
     inkscape:window-x="0"
     inkscape:window-y="38"
     inkscape:window-maximized="0"
     inkscape:current-layer="layer1"
     showgrid="true">
    <inkscape:grid
       id="grid7"
       units="mm"
       originx="0"
       originy="0"
       spacingx="1"
       spacingy="1"
       empcolor="#0099e5"
       empopacity="0.30196078"
       color="#0099e5"
       opacity="0.14901961"
       empspacing="5"
       dotted="false"
       gridanglex="30"
       gridanglez="30"
       visible="true" />
  </sodipodi:namedview>
  <defs
     id="defs1">
    <linearGradient
       id="linearGradient6"
       inkscape:collect="always">
      <stop
         style="stop-color:#000000;stop-opacity:0.13655761;"
         offset="0"
         id="stop6" />
      <stop
         style="stop-color:#000000;stop-opacity:0.03129446;"
         offset="0.23742691"
         id="stop7" />
    </linearGradient>
    <marker
       style="overflow:visible"
       id="ArrowWide"
       refX="0"
       refY="0"
       orient="auto-start-reverse"
       inkscape:stockid="Wide arrow"
       markerWidth="1"
       markerHeight="1"
       viewBox="0 0 1 1"
       inkscape:isstock="true"
       inkscape:collect="always"
       preserveAspectRatio="xMidYMid">
      <path
         style="fill:none;stroke:context-stroke;stroke-width:1;stroke-linecap:butt"
         d="M 3,-3 0,0 3,3"
         transform="rotate(180,0.125,0)"
         sodipodi:nodetypes="ccc"
         id="path6" />
    </marker>
    <inkscape:path-effect
       effect="bspline"
       id="path-effect5"
       is_visible="true"
       lpeversion="1.3"
       weight="33.333333"
       steps="2"
       helper_size="0"
       apply_no_weight="true"
       apply_with_weight="true"
       only_selected="false"
       uniform="false" />
    <inkscape:path-effect
       effect="bspline"
       id="path-effect2"
       is_visible="true"
       lpeversion="1.3"
       weight="33.333333"
       steps="2"
       helper_size="0"
       apply_no_weight="true"
       apply_with_weight="true"
       only_selected="false"
       uniform="false" />
    <inkscape:path-effect
       effect="bspline"
       id="path-effect1"
       is_visible="true"
       lpeversion="1.3"
       weight="33.333333"
       steps="2"
       helper_size="0"
       apply_no_weight="true"
       apply_with_weight="true"
       only_selected="false"
       uniform="false" />
    <linearGradient
       inkscape:collect="always"
       xlink:href="#linearGradient6"
       id="linearGradient7"
       x1="53.26107"
       y1="25.22361"
       x2="93.675018"
       y2="25.22361"
       gradientUnits="userSpaceOnUse"
       gradientTransform="rotate(-90,73.468046,25.223609)" />
    <marker
       style="overflow:visible"
       id="ArrowWide-9"
       refX="0"
       refY="0"
       orient="auto-start-reverse"
       inkscape:stockid="Wide arrow"
       markerWidth="1"
       markerHeight="1"
       viewBox="0 0 1 1"
       inkscape:isstock="true"
       inkscape:collect="always"
       preserveAspectRatio="xMidYMid">
      <path
         style="fill:none;stroke:context-stroke;stroke-width:1;stroke-linecap:butt"
         d="M 3,-3 0,0 3,3"
         transform="rotate(180,0.125,0)"
         sodipodi:nodetypes="ccc"
         id="path6-4" />
    </marker>
    <inkscape:path-effect
       effect="bspline"
       id="path-effect5-1"
       is_visible="true"
       lpeversion="1.3"
       weight="33.333333"
       steps="2"
       helper_size="0"
       apply_no_weight="true"
       apply_with_weight="true"
       only_selected="false"
       uniform="false" />
    <marker
       style="overflow:visible"
       id="ArrowWide-9-5"
       refX="0"
       refY="0"
       orient="auto-start-reverse"
       inkscape:stockid="Wide arrow"
       markerWidth="1"
       markerHeight="1"
       viewBox="0 0 1 1"
       inkscape:isstock="true"
       inkscape:collect="always"
       preserveAspectRatio="xMidYMid">
      <path
         style="fill:none;stroke:context-stroke;stroke-width:1;stroke-linecap:butt"
         d="M 3,-3 0,0 3,3"
         transform="rotate(180,0.125,0)"
         sodipodi:nodetypes="ccc"
         id="path6-4-5" />
    </marker>
    <marker
       style="overflow:visible"
       id="ArrowWide-9-5-3"
       refX="0"
       refY="0"
       orient="auto-start-reverse"
       inkscape:stockid="Wide arrow"
       markerWidth="1"
       markerHeight="1"
       viewBox="0 0 1 1"
       inkscape:isstock="true"
       inkscape:collect="always"
       preserveAspectRatio="xMidYMid">
      <path
         style="fill:none;stroke:context-stroke;stroke-width:1;stroke-linecap:butt"
         d="M 3,-3 0,0 3,3"
         transform="rotate(180,0.125,0)"
         sodipodi:nodetypes="ccc"
         id="path6-4-5-5" />
    </marker>
    <marker
       style="overflow:visible"
       id="ArrowWide-9-5-3-7"
       refX="0"
       refY="0"
       orient="auto-start-reverse"
       inkscape:stockid="Wide arrow"
       markerWidth="1"
       markerHeight="1"
       viewBox="0 0 1 1"
       inkscape:isstock="true"
       inkscape:collect="always"
       preserveAspectRatio="xMidYMid">
      <path
         style="fill:none;stroke:context-stroke;stroke-width:1;stroke-linecap:butt"
         d="M 3,-3 0,0 3,3"
         transform="rotate(180,0.125,0)"
         sodipodi:nodetypes="ccc"
         id="path6-4-5-5-8" />
    </marker>
    <marker
       style="overflow:visible"
       id="ArrowWide-9-5-3-7-8"
       refX="0"
       refY="0"
       orient="auto-start-reverse"
       inkscape:stockid="Wide arrow"
       markerWidth="1"
       markerHeight="1"
       viewBox="0 0 1 1"
       inkscape:isstock="true"
       inkscape:collect="always"
       preserveAspectRatio="xMidYMid">
      <path
         style="fill:none;stroke:context-stroke;stroke-width:1;stroke-linecap:butt"
         d="M 3,-3 0,0 3,3"
         transform="rotate(180,0.125,0)"
         sodipodi:nodetypes="ccc"
         id="path6-4-5-5-8-7" />
    </marker>
    <marker
       style="overflow:visible"
       id="ArrowWide-9-5-3-7-8-4"
       refX="0"
       refY="0"
       orient="auto-start-reverse"
       inkscape:stockid="Wide arrow"
       markerWidth="1"
       markerHeight="1"
       viewBox="0 0 1 1"
       inkscape:isstock="true"
       inkscape:collect="always"
       preserveAspectRatio="xMidYMid">
      <path
         style="fill:none;stroke:context-stroke;stroke-width:1;stroke-linecap:butt"
         d="M 3,-3 0,0 3,3"
         transform="rotate(180,0.125,0)"
         sodipodi:nodetypes="ccc"
         id="path6-4-5-5-8-7-9" />
    </marker>
    <marker
       style="overflow:visible"
       id="ArrowWide-9-5-3-7-8-4-8"
       refX="0"
       refY="0"
       orient="auto-start-reverse"
       inkscape:stockid="Wide arrow"
       markerWidth="1"
       markerHeight="1"
       viewBox="0 0 1 1"
       inkscape:isstock="true"
       inkscape:collect="always"
       preserveAspectRatio="xMidYMid">
      <path
         style="fill:none;stroke:context-stroke;stroke-width:1;stroke-linecap:butt"
         d="M 3,-3 0,0 3,3"
         transform="rotate(180,0.125,0)"
         sodipodi:nodetypes="ccc"
         id="path6-4-5-5-8-7-9-2" />
    </marker>
  </defs>
  <g
     inkscape:label="Layer 1"
     inkscape:groupmode="layer"
     id="layer1">
    <path
       style="fill:none;stroke:#808080;stroke-width:0.352778;stroke-linecap:butt;stroke-linejoin:round;stroke-dasharray:0.705554, 0.705554;stroke-dashoffset:0;stroke-opacity:1"
       d="m 91.969962,25.222267 c -5.6e-5,-1.255464 -8.252476,-2.600633 -18.501918,-2.600652 -10.249604,-9e-6 -18.501858,1.345168 -18.501914,2.600652"
       id="path18"
       sodipodi:nodetypes="ccc" />
    <path
       style="fill:none;stroke:#000000;stroke-width:0.352778;stroke-linecap:round;stroke-linejoin:round;stroke-dasharray:none;stroke-dashoffset:3.06667"
       d="m 54.96613,25.222267 c 5.6e-5,1.487328 8.259908,2.956062 18.501914,2.956052 10.241848,-2.3e-5 18.501862,-1.468747 18.501918,-2.956052"
       id="path17"
       sodipodi:nodetypes="ccc" />
    <path
       id="path15"
       style="fill:url(#linearGradient7);stroke:#000000;stroke-width:0.352778;stroke-linecap:round;stroke-linejoin:round;stroke-dasharray:none;stroke-dashoffset:3.06667"
       d="m 73.468048,5.1930221 c -10.218228,3e-5 -18.501764,8.9678729 -18.501918,20.0303619 -7.7e-5,11.062664 8.283527,20.03078 18.501918,20.030812 m 0,0 C 83.686436,45.254163 91.970039,36.286048 91.969962,25.223384 91.96981,14.160895 83.686273,5.1930521 73.468048,5.1930221" />
    <path
       style="fill:#000000;fill-opacity:0;fill-rule:evenodd;stroke:#000000;stroke-width:0.352778;stroke-linecap:round;stroke-linejoin:round;stroke-dasharray:none;marker-mid:url(#ArrowWide)"
       d="m 73.468269,6.7216929 c 0,2.8926496 0,5.7852991 0,8.8253531 0,3.040053 0,6.22751 0,9.57498 0,3.34747 0,6.854953 0,9.982205 0,3.127252 0,5.874273 0,8.621294"
       id="path1"
       inkscape:path-effect="#path-effect1"
       inkscape:original-d="m 73.468269,6.7216929 c 0,2.8926496 0,5.7852991 0,8.6779491 0,3.187457 0,6.374914 0,9.562371 0,3.507483 0,7.014966 0,10.522449 0,2.747021 0,5.494042 0,8.241063"
       transform="translate(47.084786)"
       sodipodi:nodetypes="ccccc" />
    <g
       id="path2"
       transform="translate(-21.866865,-8.5699301)">
      <path
         style="color:#000000;fill:#000000;fill-opacity:0;fill-rule:evenodd;stroke-linecap:round;stroke-linejoin:round;-inkscape-stroke:none"
         d="m 142.41957,15.115841 c 0,0 0,0 0,0"
         id="path3" />
      <path
         style="color:#000000;fill:#000000;fill-rule:evenodd;stroke-linecap:round;stroke-linejoin:round;-inkscape-stroke:none"
         d="m 142.41992,14.585938 a 0.52916664,0.52916664 0 0 0 -0.5293,0.529296 0.52916664,0.52916664 0 0 0 0.5293,0.529297 0.52916664,0.52916664 0 0 0 0.5293,-0.529297 0.52916664,0.52916664 0 0 0 -0.5293,-0.529296 z"
         id="path4" />
    </g>
    <g
       id="path2-13"
       transform="translate(-68.951522,-9.9228189)">
      <path
         style="color:#000000;fill:#000000;fill-opacity:0;fill-rule:evenodd;stroke-linecap:round;stroke-linejoin:round;-inkscape-stroke:none"
         d="m 142.41957,15.115841 c 0,0 0,0 0,0"
         id="path3-8" />
      <path
         style="color:#000000;fill:#000000;fill-rule:evenodd;stroke-linecap:round;stroke-linejoin:round;-inkscape-stroke:none"
         d="m 142.41992,14.585938 a 0.52916664,0.52916664 0 0 0 -0.5293,0.529296 0.52916664,0.52916664 0 0 0 0.5293,0.529297 0.52916664,0.52916664 0 0 0 0.5293,-0.529297 0.52916664,0.52916664 0 0 0 -0.5293,-0.529296 z"
         id="path4-4" />
    </g>
    <g
       id="path2-13-6"
       transform="translate(-68.951522,30.138355)">
      <path
         style="color:#000000;fill:#000000;fill-opacity:0;fill-rule:evenodd;stroke-linecap:round;stroke-linejoin:round;-inkscape-stroke:none"
         d="m 142.41957,15.115841 c 0,0 0,0 0,0"
         id="path3-8-0" />
      <path
         style="color:#000000;fill:#000000;fill-rule:evenodd;stroke-linecap:round;stroke-linejoin:round;-inkscape-stroke:none"
         d="m 142.41992,14.585938 a 0.52916664,0.52916664 0 0 0 -0.5293,0.529296 0.52916664,0.52916664 0 0 0 0.5293,0.529297 0.52916664,0.52916664 0 0 0 0.5293,-0.529297 0.52916664,0.52916664 0 0 0 -0.5293,-0.529296 z"
         id="path4-4-3" />
    </g>
    <g
       id="path2-1"
       transform="translate(-21.866515,28.609684)">
      <path
         style="color:#000000;fill:#000000;fill-opacity:0;fill-rule:evenodd;stroke-linecap:round;stroke-linejoin:round;-inkscape-stroke:none"
         d="m 142.41957,15.115841 c 0,0 0,0 0,0"
         id="path3-7" />
      <path
         style="color:#000000;fill:#000000;fill-rule:evenodd;stroke-linecap:round;stroke-linejoin:round;-inkscape-stroke:none"
         d="m 142.41992,14.585938 a 0.52916664,0.52916664 0 0 0 -0.5293,0.529296 0.52916664,0.52916664 0 0 0 0.5293,0.529297 0.52916664,0.52916664 0 0 0 0.5293,-0.529297 0.52916664,0.52916664 0 0 0 -0.5293,-0.529296 z"
         id="path4-2" />
    </g>
    <path
       style="fill:#000000;fill-opacity:0;fill-rule:evenodd;stroke:#000000;stroke-width:0.385803;stroke-linecap:round;stroke-linejoin:round;stroke-dasharray:none;marker-end:url(#ArrowWide)"
       d="m 103.4303,25.223639 c 4.33445,-10e-6 8.6689,-2e-5 13.00335,-3e-5"
       id="path5"
       inkscape:path-effect="#path-effect5"
       inkscape:original-d="m 103.4303,25.223639 c 4.33445,-10e-6 8.6689,-2e-5 13.00335,-3e-5"
       transform="matrix(0.83612453,0,0,1,13.767626,-0.00106116)"
       sodipodi:nodetypes="cc" />
    <path
       style="fill:#000000;fill-opacity:0;fill-rule:evenodd;stroke:#000000;stroke-width:0.385803;stroke-linecap:round;stroke-linejoin:round;stroke-dasharray:none;marker-end:url(#ArrowWide-9)"
       d="m 103.4303,25.223639 c 1.45265,-9e-6 2.90531,-1.9e-5 4.35796,-2.8e-5"
       id="path5-7"
       transform="matrix(0,0.83612453,-1,0,98.691659,-79.403675)"
       sodipodi:nodetypes="cc" />
    <path
       style="fill:#000000;fill-opacity:0;fill-rule:evenodd;stroke:#000000;stroke-width:0.352778;stroke-linecap:round;stroke-linejoin:round;stroke-dasharray:none;marker-end:url(#ArrowWide-9-5)"
       d="m 73.468022,12.399803 c 9e-6,1.214596 1.9e-5,2.429201 2.8e-5,3.643797"
       id="path5-7-1"
       sodipodi:nodetypes="cc" />
    <path
       style="fill:#000000;fill-opacity:0;fill-rule:evenodd;stroke:#000000;stroke-width:0.352778;stroke-linecap:round;stroke-linejoin:round;stroke-dasharray:none;marker-end:url(#ArrowWide-9-5-3)"
       d="m 73.556219,17.751569 c 9e-6,1.214596 1.9e-5,2.429201 2.8e-5,3.643797"
       id="path5-7-1-2"
       sodipodi:nodetypes="cc" />
    <path
       style="fill:#000000;fill-opacity:0;fill-rule:evenodd;stroke:#000000;stroke-width:0.352778;stroke-linecap:round;stroke-linejoin:round;stroke-dasharray:none;marker-end:url(#ArrowWide-9-5-3-7)"
       d="m 73.468024,23.103335 c 9e-6,1.214596 1.9e-5,2.429201 2.8e-5,3.643797"
       id="path5-7-1-2-1"
       sodipodi:nodetypes="cc" />
    <path
       style="fill:#000000;fill-opacity:0;fill-rule:evenodd;stroke:#000000;stroke-width:0.352778;stroke-linecap:round;stroke-linejoin:round;stroke-dasharray:none;marker-end:url(#ArrowWide-9-5-3-7-8)"
       d="m 73.468024,29.243311 c 9e-6,1.214596 1.9e-5,2.429201 2.8e-5,3.643797"
       id="path5-7-1-2-1-7"
       sodipodi:nodetypes="cc" />
    <path
       style="fill:#000000;fill-opacity:0;fill-rule:evenodd;stroke:#000000;stroke-width:0.352778;stroke-linecap:round;stroke-linejoin:round;stroke-dasharray:none;marker-end:url(#ArrowWide-9-5-3-7-8-4)"
       d="m 73.468376,34.200972 c 9e-6,1.214596 1.9e-5,2.429201 2.8e-5,3.643797"
       id="path5-7-1-2-1-7-5"
       sodipodi:nodetypes="cc" />
    <path
       style="fill:#000000;fill-opacity:0;fill-rule:evenodd;stroke:#000000;stroke-width:0.352778;stroke-linecap:round;stroke-linejoin:round;stroke-dasharray:none;marker-end:url(#ArrowWide-9-5-3-7-8-4-8)"
       d="m 73.468376,39.550827 c 9e-6,1.214596 1.9e-5,2.429201 2.8e-5,3.643797"
       id="path5-7-1-2-1-7-5-8"
       sodipodi:nodetypes="cc" />
    <text
       xml:space="preserve"
       style="font-size:3.88056px;fill:#000000;fill-opacity:1;fill-rule:evenodd;stroke:none;stroke-width:0.352777;stroke-linecap:butt;stroke-linejoin:bevel;stroke-dasharray:none;paint-order:stroke fill markers"
       x="102.59669"
       y="23.596319"
       id="text7"><tspan
         sodipodi:role="line"
         id="tspan7"
         style="fill:#000000;fill-opacity:1;stroke:none;stroke-width:0.352778"
         x="102.59669"
         y="23.596319">$f$</tspan></text>
    <text
       xml:space="preserve"
       style="font-size:3.88056px;fill:#000000;fill-opacity:1;fill-rule:evenodd;stroke:none;stroke-width:0.352777;stroke-linecap:butt;stroke-linejoin:bevel;stroke-dasharray:none;paint-order:stroke fill markers"
       x="122.90073"
       y="10.094288"
       id="text7-0"><tspan
         sodipodi:role="line"
         id="tspan7-0"
         style="fill:#000000;fill-opacity:1;stroke:none;stroke-width:0.352778"
         x="122.90073"
         y="10.094288">$[0,1]$</tspan></text>
  </g>
</svg>
