<?xml version="1.0" encoding="UTF-8" standalone="no"?>
<!-- Created with Inkscape (http://www.inkscape.org/) -->

<svg
   width="6in"
   height="2in"
   viewBox="0 0 152.4 50.8"
   version="1.1"
   id="svg1"
   inkscape:version="1.3.2 (091e20e, 2023-11-25)"
   sodipodi:docname="title.svg"
   inkscape:export-filename="title.pdf"
   inkscape:export-xdpi="96"
   inkscape:export-ydpi="96"
   xmlns:inkscape="http://www.inkscape.org/namespaces/inkscape"
   xmlns:sodipodi="http://sodipodi.sourceforge.net/DTD/sodipodi-0.dtd"
   xmlns="http://www.w3.org/2000/svg"
   xmlns:svg="http://www.w3.org/2000/svg">
  <sodipodi:namedview
     id="namedview1"
     pagecolor="#ffffff"
     bordercolor="#000000"
     borderopacity="0.25"
     inkscape:showpageshadow="2"
     inkscape:pageopacity="0.0"
     inkscape:pagecheckerboard="0"
     inkscape:deskcolor="#d1d1d1"
     inkscape:document-units="mm"
     inkscape:zoom="0.90908548"
     inkscape:cx="293.15175"
     inkscape:cy="134.7508"
     inkscape:window-width="1728"
     inkscape:window-height="1051"
     inkscape:window-x="0"
     inkscape:window-y="38"
     inkscape:window-maximized="0"
     inkscape:current-layer="layer2"
     showgrid="false" />
  <defs
     id="defs1">
    <inkscape:path-effect
       effect="simplify"
       id="path-effect6"
       is_visible="true"
       lpeversion="1.3"
       threshold="17.2414"
       steps="1"
       smooth_angles="360"
       helper_size="0"
       simplify_individual_paths="false"
       simplify_just_coalesce="false" />
    <inkscape:path-effect
       effect="bspline"
       id="path-effect5"
       is_visible="true"
       lpeversion="1.3"
       weight="33.333333"
       steps="2"
       helper_size="0"
       apply_no_weight="true"
       apply_with_weight="true"
       only_selected="false"
       uniform="false" />
    <inkscape:path-effect
       effect="bspline"
       id="path-effect4"
       is_visible="true"
       lpeversion="1.3"
       weight="33.333333"
       steps="2"
       helper_size="0"
       apply_no_weight="true"
       apply_with_weight="true"
       only_selected="false"
       uniform="false" />
    <inkscape:path-effect
       effect="bspline"
       id="path-effect3"
       is_visible="true"
       lpeversion="1.3"
       weight="33.333333"
       steps="2"
       helper_size="0"
       apply_no_weight="true"
       apply_with_weight="true"
       only_selected="false"
       uniform="false" />
    <marker
       style="overflow:visible"
       id="ArrowWide"
       refX="0"
       refY="0"
       orient="auto-start-reverse"
       inkscape:stockid="Wide arrow"
       markerWidth="1"
       markerHeight="1"
       viewBox="0 0 1 1"
       inkscape:isstock="true"
       inkscape:collect="always"
       preserveAspectRatio="xMidYMid">
      <path
         style="fill:none;stroke:context-stroke;stroke-width:1;stroke-linecap:butt"
         d="M 3,-3 0,0 3,3"
         transform="rotate(180,0.125,0)"
         sodipodi:nodetypes="ccc"
         id="path2" />
    </marker>
    <inkscape:path-effect
       effect="bspline"
       id="path-effect1"
       is_visible="true"
       lpeversion="1.3"
       weight="33.333333"
       steps="2"
       helper_size="0"
       apply_no_weight="true"
       apply_with_weight="true"
       only_selected="false"
       uniform="false" />
    <inkscape:path-effect
       effect="simplify"
       id="path-effect4-4"
       is_visible="true"
       lpeversion="1.3"
       threshold="17.2414"
       steps="1"
       smooth_angles="360"
       helper_size="0"
       simplify_individual_paths="false"
       simplify_just_coalesce="false" />
    <inkscape:path-effect
       effect="simplify"
       id="path-effect2-1"
       is_visible="true"
       lpeversion="1.3"
       threshold="17.2414"
       steps="1"
       smooth_angles="360"
       helper_size="0"
       simplify_individual_paths="false"
       simplify_just_coalesce="false" />
    <inkscape:path-effect
       effect="bspline"
       id="path-effect1-5"
       is_visible="true"
       lpeversion="1.3"
       weight="33.333333"
       steps="2"
       helper_size="0"
       apply_no_weight="true"
       apply_with_weight="true"
       only_selected="false"
       uniform="false" />
    <inkscape:path-effect
       effect="bspline"
       id="path-effect1-5-9"
       is_visible="true"
       lpeversion="1.3"
       weight="33.333333"
       steps="2"
       helper_size="0"
       apply_no_weight="true"
       apply_with_weight="true"
       only_selected="false"
       uniform="false" />
    <inkscape:path-effect
       effect="bspline"
       id="path-effect1-5-9-1"
       is_visible="true"
       lpeversion="1.3"
       weight="33.333333"
       steps="2"
       helper_size="0"
       apply_no_weight="true"
       apply_with_weight="true"
       only_selected="false"
       uniform="false" />
    <inkscape:path-effect
       effect="bspline"
       id="path-effect1-5-9-1-4"
       is_visible="true"
       lpeversion="1.3"
       weight="33.333333"
       steps="2"
       helper_size="0"
       apply_no_weight="true"
       apply_with_weight="true"
       only_selected="false"
       uniform="false" />
    <inkscape:path-effect
       effect="bspline"
       id="path-effect1-5-9-1-4-9"
       is_visible="true"
       lpeversion="1.3"
       weight="33.333333"
       steps="2"
       helper_size="0"
       apply_no_weight="true"
       apply_with_weight="true"
       only_selected="false"
       uniform="false" />
    <inkscape:path-effect
       effect="bspline"
       id="path-effect1-5-9-1-4-1"
       is_visible="true"
       lpeversion="1.3"
       weight="33.333333"
       steps="2"
       helper_size="0"
       apply_no_weight="true"
       apply_with_weight="true"
       only_selected="false"
       uniform="false" />
    <inkscape:path-effect
       effect="bspline"
       id="path-effect3-5"
       is_visible="true"
       lpeversion="1.3"
       weight="33.333333"
       steps="2"
       helper_size="0"
       apply_no_weight="true"
       apply_with_weight="true"
       only_selected="false"
       uniform="false" />
    <inkscape:path-effect
       effect="fill_between_many"
       method="originald"
       linkedpaths="#path5,0,1|#path8,0,1|"
       id="path-effect9" />
    <inkscape:path-effect
       effect="bspline"
       id="path-effect3-0"
       is_visible="true"
       lpeversion="1.3"
       weight="33.333333"
       steps="2"
       helper_size="0"
       apply_no_weight="true"
       apply_with_weight="true"
       only_selected="false"
       uniform="false" />
    <inkscape:path-effect
       effect="bspline"
       id="path-effect3-2"
       is_visible="true"
       lpeversion="1.3"
       weight="33.333333"
       steps="2"
       helper_size="0"
       apply_no_weight="true"
       apply_with_weight="true"
       only_selected="false"
       uniform="false" />
  </defs>
  <g
     inkscape:label="Layer 1"
     inkscape:groupmode="layer"
     id="layer1">
    <g
       id="g1">
      <path
         style="color:#000000;fill:#000000;fill-rule:evenodd;stroke-width:1;stroke-linecap:round;stroke-linejoin:bevel;-inkscape-stroke:none;paint-order:stroke fill markers"
         d="m 90.745338,41.867378 a 0.93738076,0.94841516 0 0 0 -0.93761,0.948655 0.93738076,0.94841516 0 0 0 0.93761,0.948636 0.93738076,0.94841516 0 0 0 0.93761,-0.948636 0.93738076,0.94841516 0 0 0 -0.93761,-0.948655 z"
         id="path7" />
      <path
         style="color:#000000;fill:#000000;fill-rule:evenodd;stroke-width:1;stroke-linecap:round;stroke-linejoin:bevel;-inkscape-stroke:none;paint-order:stroke fill markers"
         d="m 90.745338,36.17371 a 0.93738076,0.94841516 0 0 0 -0.93761,0.948655 0.93738076,0.94841516 0 0 0 0.93761,0.948636 0.93738076,0.94841516 0 0 0 0.93761,-0.948636 0.93738076,0.94841516 0 0 0 -0.93761,-0.948655 z"
         id="path7-9" />
      <path
         style="color:#000000;fill:#000000;fill-rule:evenodd;stroke-width:1;stroke-linecap:round;stroke-linejoin:bevel;-inkscape-stroke:none;paint-order:stroke fill markers"
         d="m 90.745338,30.480041 a 0.93738076,0.94841516 0 0 0 -0.93761,0.948655 0.93738076,0.94841516 0 0 0 0.93761,0.948636 0.93738076,0.94841516 0 0 0 0.93761,-0.948636 0.93738076,0.94841516 0 0 0 -0.93761,-0.948655 z"
         id="path7-9-3" />
      <path
         style="color:#000000;fill:#000000;fill-rule:evenodd;stroke-width:1;stroke-linecap:round;stroke-linejoin:bevel;-inkscape-stroke:none;paint-order:stroke fill markers"
         d="m 90.745338,24.786372 a 0.93738076,0.94841516 0 0 0 -0.93761,0.948655 0.93738076,0.94841516 0 0 0 0.93761,0.948636 0.93738076,0.94841516 0 0 0 0.93761,-0.948636 0.93738076,0.94841516 0 0 0 -0.93761,-0.948655 z"
         id="path7-9-3-5" />
      <path
         style="fill:#000000;fill-opacity:1;fill-rule:evenodd;stroke:#000000;stroke-width:0.529167;stroke-linejoin:bevel;stroke-dasharray:none;stroke-opacity:1;paint-order:stroke fill markers"
         d="m 45.081134,41.095657 c 0,-1.897891 0,-3.795779 0,-5.693669"
         id="path1"
         transform="translate(45.664201,1.7203674)"
         inkscape:original-d="m 45.081134,41.095657 c 0,-1.897891 0,-3.795779 0,-5.693669"
         inkscape:path-effect="#path-effect1" />
      <path
         style="fill:#000000;fill-opacity:1;fill-rule:evenodd;stroke:#000000;stroke-width:0.529167;stroke-linejoin:bevel;stroke-dasharray:none;stroke-opacity:1;paint-order:stroke fill markers"
         d="m 45.081134,41.095657 c 0,-1.897891 0,-3.795779 0,-5.693669"
         id="path1-6"
         transform="translate(45.664201,-3.9733017)"
         inkscape:original-d="m 45.081134,41.095657 c 0,-1.897891 0,-3.795779 0,-5.693669"
         inkscape:path-effect="#path-effect1-5" />
      <path
         style="fill:#000000;fill-opacity:1;fill-rule:evenodd;stroke:#000000;stroke-width:0.529167;stroke-linejoin:bevel;stroke-dasharray:none;stroke-opacity:1;paint-order:stroke fill markers"
         d="m 45.081134,41.095657 c 0,-1.897891 0,-3.795779 0,-5.693669"
         id="path1-6-7"
         transform="translate(45.664201,-9.6669706)"
         inkscape:original-d="m 45.081134,41.095657 c 0,-1.897891 0,-3.795779 0,-5.693669"
         inkscape:path-effect="#path-effect1-5-9" />
      <path
         style="color:#000000;fill:#000000;fill-rule:evenodd;stroke-width:1;stroke-linecap:round;stroke-linejoin:bevel;-inkscape-stroke:none;paint-order:stroke fill markers"
         d="m 90.745338,19.092703 a 0.93738076,0.94841516 0 0 0 -0.93761,0.948655 0.93738076,0.94841516 0 0 0 0.93761,0.948636 0.93738076,0.94841516 0 0 0 0.93761,-0.948636 0.93738076,0.94841516 0 0 0 -0.93761,-0.948655 z"
         id="path7-9-3-5-7" />
      <path
         style="color:#000000;fill:#000000;fill-rule:evenodd;stroke-width:1;stroke-linecap:round;stroke-linejoin:bevel;-inkscape-stroke:none;paint-order:stroke fill markers"
         d="m 96.620906,19.092703 a 0.93738076,0.94841516 0 0 0 -0.93761,0.948655 0.93738076,0.94841516 0 0 0 0.93761,0.948636 0.93738076,0.94841516 0 0 0 0.93761,-0.948636 0.93738076,0.94841516 0 0 0 -0.93761,-0.948655 z"
         id="path7-9-3-5-7-6" />
      <path
         style="color:#000000;fill:#000000;fill-rule:evenodd;stroke-width:1;stroke-linecap:round;stroke-linejoin:bevel;-inkscape-stroke:none;paint-order:stroke fill markers"
         d="m 90.745338,13.399035 a 0.93738076,0.94841516 0 0 0 -0.93761,0.948655 0.93738076,0.94841516 0 0 0 0.93761,0.948636 0.93738076,0.94841516 0 0 0 0.93761,-0.948636 0.93738076,0.94841516 0 0 0 -0.93761,-0.948655 z"
         id="path7-9-3-5-7-3" />
      <path
         style="color:#000000;fill:#000000;fill-rule:evenodd;stroke-width:1;stroke-linecap:round;stroke-linejoin:bevel;-inkscape-stroke:none;paint-order:stroke fill markers"
         d="m 90.745338,7.7053672 a 0.93738076,0.94841516 0 0 0 -0.93761,0.9486552 0.93738076,0.94841516 0 0 0 0.93761,0.9486355 0.93738076,0.94841516 0 0 0 0.93761,-0.9486355 0.93738076,0.94841516 0 0 0 -0.93761,-0.9486552 z"
         id="path7-9-3-5-7-3-8" />
      <path
         style="fill:#000000;fill-opacity:1;fill-rule:evenodd;stroke:#000000;stroke-width:0.529167;stroke-linejoin:bevel;stroke-dasharray:none;stroke-opacity:1;paint-order:stroke fill markers"
         d="m 45.081134,41.095657 c 0,-1.897891 0,-3.795779 0,-5.693669"
         id="path1-6-7-1"
         transform="translate(45.664201,-15.36064)"
         inkscape:original-d="m 45.081134,41.095657 c 0,-1.897891 0,-3.795779 0,-5.693669"
         inkscape:path-effect="#path-effect1-5-9-1" />
      <path
         style="fill:#000000;fill-opacity:1;fill-rule:evenodd;stroke:#000000;stroke-width:0.529167;stroke-linejoin:bevel;stroke-dasharray:none;stroke-opacity:1;paint-order:stroke fill markers"
         d="m 45.081134,41.095657 c 0,-1.897891 0,-3.795779 0,-5.693669"
         id="path1-6-7-1-0"
         transform="translate(45.664201,-21.054308)"
         inkscape:original-d="m 45.081134,41.095657 c 0,-1.897891 0,-3.795779 0,-5.693669"
         inkscape:path-effect="#path-effect1-5-9-1-4" />
      <path
         style="fill:#000000;fill-opacity:1;fill-rule:evenodd;stroke:#000000;stroke-width:0.529167;stroke-linejoin:bevel;stroke-dasharray:none;stroke-opacity:1;paint-order:stroke fill markers"
         d="m 45.081134,41.095657 c 0,-1.897891 0,-3.795779 0,-5.693669"
         id="path1-6-7-1-0-3"
         transform="rotate(-90,60.323865,4.7986176)"
         inkscape:original-d="m 45.081134,41.095657 c 0,-1.897891 0,-3.795779 0,-5.693669"
         inkscape:path-effect="#path-effect1-5-9-1-4-1" />
      <path
         style="fill:#000000;fill-opacity:1;fill-rule:evenodd;stroke:#000000;stroke-width:0.529167;stroke-linejoin:bevel;stroke-dasharray:none;stroke-opacity:1;paint-order:stroke fill markers"
         d="m 45.081134,41.095657 c 0,-1.897891 0,-3.795779 0,-5.693669"
         id="path1-6-7-1-0-1"
         transform="translate(45.664201,-26.747975)"
         inkscape:original-d="m 45.081134,41.095657 c 0,-1.897891 0,-3.795779 0,-5.693669"
         inkscape:path-effect="#path-effect1-5-9-1-4-9" />
    </g>
    <g
       inkscape:groupmode="layer"
       id="layer2"
       inkscape:label="Knot">
      <g
         id="g4"
         transform="rotate(-1.9999962,36.076852,32.857372)">
        <path
           style="fill:none;fill-rule:evenodd;stroke:#000000;stroke-width:0.508;stroke-linecap:round;stroke-linejoin:bevel;stroke-dasharray:none;stroke-opacity:1;paint-order:stroke fill markers"
           d="m 5.6998573,15.750607 c 0.719736,4.384048 2.086257,9.309158 2.112377,14.042623 0.02357,4.271533 -0.655997,7.987481 -1.766293,12.692487"
           id="path6"
           sodipodi:nodetypes="cac" />
        <path
           style="fill:none;fill-rule:evenodd;stroke:#000000;stroke-width:0.508;stroke-linecap:round;stroke-linejoin:bevel;stroke-dasharray:none;stroke-opacity:1;paint-order:stroke fill markers"
           d="m 34.049227,21.891971 c -3.538001,3.246807 -15.17729,9.526984 -22.153467,15.117873 -2.0842027,1.670333 -2.5700487,1.9244 -5.8498157,5.475873"
           id="path6-3"
           sodipodi:nodetypes="cac" />
        <path
           style="fill:none;fill-rule:evenodd;stroke:#000000;stroke-width:0.380999;stroke-linecap:round;stroke-linejoin:bevel;stroke-dasharray:none;stroke-opacity:1;paint-order:stroke fill markers"
           d="m 28.5867,15.923238 c -2.171924,2.032151 -5.390365,4.629094 -5.985766,5.290328"
           id="path6-3-1"
           sodipodi:nodetypes="cc" />
        <path
           style="fill:none;fill-rule:evenodd;stroke:#000000;stroke-width:0.380999;stroke-linecap:round;stroke-linejoin:bevel;stroke-dasharray:none;stroke-opacity:1;paint-order:stroke fill markers"
           d="M 18.913575,19.871597 C 14.731683,26.691262 10.267752,35.086691 6.0459443,42.485717"
           id="path6-3-3"
           sodipodi:nodetypes="cc" />
        <path
           style="fill:none;fill-rule:evenodd;stroke:#000000;stroke-width:0.380999;stroke-linecap:round;stroke-linejoin:bevel;stroke-dasharray:none;stroke-opacity:1;paint-order:stroke fill markers"
           d="m 17.386477,12.192463 c -1.35241,4.698986 -1.060478,4.311633 -2.445517,8.007482"
           id="path6-3-3-9"
           sodipodi:nodetypes="cc" />
        <path
           id="path3-4"
           style="fill:none;fill-rule:evenodd;stroke:#0000ff;stroke-width:0.507999;stroke-linecap:round;stroke-linejoin:bevel;stroke-dasharray:none;stroke-opacity:1;paint-order:stroke fill markers"
           inkscape:label="Knot"
           d="m 17.386477,12.192463 c -1.722979,8.324334 12.338139,14.453544 16.66275,9.699508 1.618284,-1.778978 -2.389369,-4.93296 -4.201941,-5.864828 m -7.853033,3.367392 c 4.089715,-0.746707 9.789488,-4.835434 8.352533,-8.552043 C 28.865027,7.0100154 19.49747,6.8944312 18.041633,10.111415 m 9.661834,4.705718 C 1.5314039,1.4794213 -1.4576413,23.073893 18.913576,19.871598" />
      </g>
    </g>
    <g
       id="g3">
      <path
         id="path17-0-0"
         style="fill:none;fill-opacity:1;fill-rule:nonzero;stroke:#000000;stroke-width:0.493889;stroke-linecap:round;stroke-linejoin:round;stroke-dasharray:none;stroke-dashoffset:3.06667"
         d="m 121.28367,29.473639 c -0.29961,1.891967 0.17913,3.882978 1.13981,4.035113 0.96063,0.152111 2.03129,-1.59347 2.33093,-3.485402 m 0,0 c 0.25292,-1.597023 -0.25007,-3.430741 -1.2114,-3.583025 -0.96136,-0.152283 -2.00638,1.43627 -2.25934,3.033314" />
      <path
         id="path17-0-0-7"
         style="fill:none;fill-opacity:1;fill-rule:nonzero;stroke:#000000;stroke-width:0.493889;stroke-linecap:round;stroke-linejoin:round;stroke-dasharray:none;stroke-dashoffset:3.06667"
         d="m 135.20587,29.473639 c 0.29961,1.891967 -0.17913,3.882978 -1.13981,4.035113 -0.96063,0.152111 -2.03129,-1.59347 -2.33093,-3.485402 m 0,0 c -0.25292,-1.597023 0.25007,-3.430741 1.2114,-3.583025 0.96136,-0.152283 2.00638,1.43627 2.25934,3.033314"
         sodipodi:nodetypes="csccsc" />
      <path
         id="path15-1"
         style="fill:none;stroke:#000000;stroke-width:0.493998;stroke-linecap:round;stroke-linejoin:round;stroke-dasharray:none;stroke-dashoffset:3.06667"
         d="m 120.10452,10.148702 c -10e-6,-2.1627583 -1.83237,-3.9160261 -4.09272,-3.9160587 -2.26039,-1.64e-5 -4.09282,1.7532659 -4.09282,3.9160587 m 0,0 c 0,2.162793 1.83243,3.916075 4.09282,3.916059 2.26035,-3.3e-5 4.09271,-1.7533 4.09272,-3.916059" />
      <path
         style="fill:none;fill-opacity:1;fill-rule:nonzero;stroke:#000000;stroke-width:0.352778;stroke-linecap:round;stroke-linejoin:round;stroke-dasharray:none;stroke-dashoffset:3.06667"
         d="m 112.33398,8.615663 c 1e-5,0.3774856 1.64188,0.750251 3.67777,0.7502488 2.03585,-4.4e-6 3.67776,-0.3727687 3.67777,-0.7502488"
         id="path17-0-7"
         sodipodi:nodetypes="ccc" />
      <path
         style="fill:none;fill-opacity:1;fill-rule:nonzero;stroke:#000000;stroke-width:0.352778;stroke-linecap:butt;stroke-linejoin:round;stroke-dasharray:0.70556, 0.70556;stroke-dashoffset:0;stroke-opacity:0.5"
         d="m 112.33398,8.6244574 c 1e-5,-0.3774845 1.64188,-0.7502517 3.67777,-0.7502489 2.03585,4.3e-6 3.67776,0.3727686 3.67777,0.7502489"
         id="path17-0-7-9"
         sodipodi:nodetypes="ccc" />
      <path
         style="fill:none;fill-opacity:1;fill-rule:nonzero;stroke:#000000;stroke-width:0.352778;stroke-linecap:round;stroke-linejoin:round;stroke-dasharray:none;stroke-dashoffset:3.06667"
         d="m 112.36347,11.810086 c 10e-6,0.377486 1.64188,0.750251 3.67777,0.750249 2.03585,-4e-6 3.67776,-0.372769 3.67777,-0.750249"
         id="path17-0-7-4"
         sodipodi:nodetypes="ccc" />
      <path
         style="fill:none;fill-opacity:1;fill-rule:nonzero;stroke:#000000;stroke-width:0.352778;stroke-linecap:butt;stroke-linejoin:round;stroke-dasharray:0.70556, 0.70556;stroke-dashoffset:0;stroke-opacity:0.5"
         d="m 112.36347,11.818881 c 10e-6,-0.377485 1.64188,-0.750252 3.67777,-0.75025 2.03585,4e-6 3.67776,0.372769 3.67777,0.75025"
         id="path17-0-7-9-7"
         sodipodi:nodetypes="ccc" />
      <path
         d="m 121.62298,26.099817 c 2.09696,-0.875083 9.21752,-1.310591 13.61632,-0.02901 m 3.67662,-1.449771 c -1.2694,0.765783 -2.37142,1.233322 -3.67662,1.449771 -0.80936,0.134221 -1.40684,0.261876 -2.29277,0.369518 m -9.40352,0 c -0.66473,-0.09719 -1.27517,-0.170332 -1.92003,-0.340502 -1.34499,-0.354927 -2.73371,-0.665027 -3.83245,-1.478784"
         style="display:inline;fill:none;stroke:#000000;stroke-width:0.494;stroke-dasharray:none;stroke-opacity:1"
         id="path1-8"
         sodipodi:nodetypes="cccsccsc" />
      <path
         id="path17-0-5"
         style="fill:none;fill-opacity:1;fill-rule:nonzero;stroke:#000000;stroke-width:0.493889;stroke-linecap:round;stroke-linejoin:round;stroke-dasharray:none;stroke-dashoffset:3.06667"
         d="m 126.65229,10.282703 c 2e-5,0.571325 0.71094,1.135507 1.59248,1.135503 0.88153,-9e-6 1.59247,-0.564188 1.59248,-1.135503 m 0,0 c -1e-5,-0.4822594 -1.02666,-0.5874796 -1.59244,-0.5874842 -0.56581,-4.6e-6 -1.5925,0.1052171 -1.59252,0.5874842"
         sodipodi:nodetypes="csccac" />
      <path
         style="fill:none;fill-opacity:1;fill-rule:nonzero;stroke:#0000ff;stroke-width:0.494001;stroke-linejoin:bevel;stroke-dasharray:none;stroke-opacity:1;paint-order:stroke fill markers;stroke-linecap:round"
         d="m 128.55192,11.746278 c 0,-0.971796 0,-1.9435913 0,-2.9153881"
         id="path3-0"
         inkscape:path-effect="#path-effect3-0"
         inkscape:original-d="m 128.55192,11.746278 c 0,0 0,-1.9435913 0,-2.9153881"
         transform="translate(-0.30711,31.029262)"
         sodipodi:nodetypes="cc" />
      <path
         id="path19"
         style="fill:none;stroke:#000000;stroke-width:0.494;stroke-linejoin:round;stroke-dasharray:none"
         d="m 122.42348,33.508752 c -4.95052,-0.70855 -10.38862,-2.502875 -10.33709,-8.193579 0.0781,-8.624359 15.3516,-8.631066 16.65347,-8.631066 0.96493,0 15.95684,-0.235011 16.04119,8.468873 0.0556,5.734279 -6.02792,7.616044 -10.71499,8.355772"
         sodipodi:nodetypes="csssc"
         inkscape:label="path19" />
      <path
         style="fill:#ffffff;fill-opacity:1;fill-rule:nonzero;stroke:#000000;stroke-width:0.493889;stroke-linecap:round;stroke-linejoin:round;stroke-dasharray:none;stroke-dashoffset:3.06667"
         d="m 126.59093,38.940904 c 2e-5,0.571325 1.02315,0.919248 1.65388,0.919248 0.63073,0 1.65387,-0.347933 1.65388,-0.919248"
         id="path9"
         sodipodi:nodetypes="cac" />
      <path
         inkscape:original-d="M 0,0"
         inkscape:path-effect="#path-effect9"
         d="m 129.83725,10.282703 0.0614,28.658201 -3.30772,0 0.0614,-28.6582 z"
         id="path10"
         style="fill:#ffffff;fill-opacity:1" />
      <path
         style="fill:#ffffff;fill-opacity:1;fill-rule:nonzero;stroke:#000000;stroke-width:0.493889;stroke-linecap:round;stroke-linejoin:round;stroke-dasharray:none;stroke-dashoffset:3.06667"
         d="m 126.65233,10.282704 -0.0614,28.6582"
         id="path8" />
      <path
         style="fill:#ffffff;fill-opacity:1;fill-rule:nonzero;stroke:#000000;stroke-width:0.493889;stroke-linecap:round;stroke-linejoin:round;stroke-dasharray:none;stroke-dashoffset:3.06667"
         d="m 129.83725,10.282703 0.0614,28.658201"
         id="path5" />
      <path
         style="fill:none;fill-opacity:1;fill-rule:nonzero;stroke:#ffffff;stroke-width:1;stroke-linecap:round;stroke-linejoin:bevel;stroke-dasharray:none;stroke-opacity:1;paint-order:stroke fill markers"
         d="m 128.55192,13.64517 c 0,-1.60476 0,-3.20952 0,-4.8142801"
         id="path3"
         inkscape:path-effect="#path-effect3"
         inkscape:original-d="m 128.55192,13.64517 c 0,0 0,-3.20952 0,-4.8142801"
         transform="translate(-0.30713,-3.5608801)"
         sodipodi:nodetypes="cc" />
      <path
         style="fill:none;fill-opacity:1;fill-rule:nonzero;stroke:#0000ff;stroke-width:0.494001;stroke-linecap:round;stroke-linejoin:bevel;stroke-dasharray:none;stroke-opacity:1;paint-order:stroke fill markers"
         d="m 128.55192,13.64517 c 0,-1.60476 0,-3.20952 0,-4.8142801"
         id="path3-6"
         inkscape:path-effect="#path-effect3-2"
         inkscape:original-d="m 128.55192,13.64517 c 0,0 0,-3.20952 0,-4.8142801"
         transform="translate(-0.30713,-3.5608801)"
         sodipodi:nodetypes="cc" />
      <path
         style="fill:none;fill-opacity:1;fill-rule:nonzero;stroke:#000000;stroke-width:0.493889;stroke-linecap:round;stroke-linejoin:round;stroke-dasharray:none;stroke-dashoffset:3.06667"
         d="m 126.65233,10.282704 c 2e-5,0.324464 0.71094,0.64487 1.59248,0.644868 0.88153,-5e-6 1.59247,-0.32041 1.59248,-0.644868"
         id="path17-0-5-3" />
      <path
         style="fill:none;fill-opacity:1;fill-rule:nonzero;stroke:#ffffff;stroke-width:1;stroke-linecap:round;stroke-linejoin:round;stroke-dasharray:none;stroke-dashoffset:3.06667;stroke-opacity:1"
         d="m 123.00716,29.973715 c 2.0598,0.53973 3.53983,0.760553 5.33636,0.755764 1.73137,-0.0046 2.88258,-0.210585 5.13886,-0.755764"
         id="path17-9"
         sodipodi:nodetypes="cac" />
      <path
         style="fill:none;fill-opacity:1;fill-rule:nonzero;stroke:#0000ff;stroke-width:0.494;stroke-linecap:round;stroke-linejoin:round;stroke-dasharray:none;stroke-dashoffset:3.06667;stroke-opacity:1"
         d="m 123.00716,29.973715 c 2.0598,0.53973 3.53983,0.760553 5.33636,0.755764 1.73137,-0.0046 2.88258,-0.210585 5.13886,-0.755764"
         id="path17-9-3"
         sodipodi:nodetypes="cac" />
      <path
         id="path17-0-0-7-7"
         style="fill:none;fill-opacity:1;fill-rule:nonzero;stroke:#000000;stroke-width:0.493889;stroke-linecap:round;stroke-linejoin:round;stroke-dasharray:none;stroke-dashoffset:3.06667"
         d="m 135.20587,29.473639 c 0.29961,1.891967 -0.17913,3.882978 -1.13981,4.035113 m -1.11953,-7.068427 c 0.96136,-0.152283 2.00638,1.43627 2.25934,3.033314"
         sodipodi:nodetypes="cccc" />
      <path
         id="path17-0-0-6"
         style="fill:none;fill-opacity:1;fill-rule:nonzero;stroke:#000000;stroke-width:0.493889;stroke-linecap:round;stroke-linejoin:round;stroke-dasharray:none;stroke-dashoffset:3.06667"
         d="m 121.28367,29.473639 c -0.29961,1.891967 0.17913,3.882978 1.13981,4.035113 m 1.11953,-7.068427 c -0.96136,-0.152283 -2.00638,1.43627 -2.25934,3.033314"
         sodipodi:nodetypes="cccc"
         inkscape:label="path17-0-0-6" />
      <path
         id="path19-8"
         style="display:none;fill:none;stroke:#000000;stroke-width:0.494001;stroke-linejoin:round;stroke-dasharray:none"
         d="m 121.26106,36.96502 c -2.28127,1.12374 -5.02464,0.729548 -6.91965,-0.642118 -3.56986,-2.583971 -5.56232,-5.911923 -5.52501,-12.224918 0.0932,-15.7854279 17.97204,-10.085321 19.52714,-10.085321 1.15261,0 19.42633,-6.1425295 19.52708,9.788452 0.0419,6.607789 -2.43333,10.336997 -6.3483,13.067436 -1.81356,1.264832 -4.47312,1.350143 -6.54705,0.563821"
         sodipodi:nodetypes="casssac"
         inkscape:label="path19" />
      <path
         style="color:#000000;fill:#0000ff;fill-opacity:1;fill-rule:evenodd;stroke-width:0.999995;stroke-linecap:round;stroke-linejoin:bevel;-inkscape-stroke:none;paint-order:stroke fill markers"
         d="m 116.01175,5.6111703 a 0.56642308,0.63216692 0 0 0 -0.56656,0.6323269 0.56642308,0.63216692 0 0 0 0.56656,0.6323135 0.56642308,0.63216692 0 0 0 0.56656,-0.6323135 0.56642308,0.63216692 0 0 0 -0.56656,-0.6323269 z"
         id="path7-9-3-5-7-3-8-4"
         inkscape:label="path7-9-3-5-7-3-8-4" />
      <path
         style="color:#000000;fill:#0000ff;fill-opacity:1;fill-rule:evenodd;stroke-width:0.999995;stroke-linecap:round;stroke-linejoin:bevel;-inkscape-stroke:none;paint-order:stroke fill markers"
         d="m 116.04124,13.470403 a 0.56642308,0.63216692 0 0 0 -0.56656,0.632327 0.56642308,0.63216692 0 0 0 0.56656,0.632314 0.56642308,0.63216692 0 0 0 0.56656,-0.632314 0.56642308,0.63216692 0 0 0 -0.56656,-0.632327 z"
         id="path7-9-3-5-7-3-8-4-8"
         inkscape:label="path7-9-3-5-7-3-8-4" />
    </g>
    <g
       id="g2">
      <path
         style="fill:none;stroke:#808080;stroke-width:0.494;stroke-linecap:butt;stroke-linejoin:round;stroke-dasharray:0.987997, 0.987997;stroke-dashoffset:0;stroke-opacity:1"
         d="m 75.080295,21.651065 c -5e-5,-1.697855 -6.840724,-3.517023 -15.336784,-3.517048 -8.496196,-1.3e-5 -15.336731,1.819166 -15.336777,3.517048"
         id="path18"
         sodipodi:nodetypes="ccc" />
      <path
         style="fill:#ffffff;fill-opacity:1;fill-rule:nonzero;stroke:#000000;stroke-width:0.494;stroke-linecap:round;stroke-linejoin:round;stroke-dasharray:none;stroke-dashoffset:3.06667"
         d="m 44.406734,21.651065 c 4.6e-5,2.011421 6.846878,3.997695 15.336777,3.997681 8.489765,-3e-5 15.336734,-1.986293 15.336784,-3.997681"
         id="path17"
         sodipodi:nodetypes="ccc" />
      <path
         style="fill:none;stroke:#000000;stroke-width:0.493889;stroke-linecap:butt;stroke-linejoin:round;stroke-dasharray:none;stroke-dashoffset:0;stroke-opacity:1"
         d="m 75.080355,30.468882 c -5e-5,-1.697855 -6.840727,-3.517023 -15.336787,-3.517048 -8.496196,-1.3e-5 -15.336731,1.819166 -15.336777,3.517048"
         id="path18-2"
         sodipodi:nodetypes="ccc" />
      <path
         style="fill:none;fill-opacity:1;fill-rule:nonzero;stroke:#000000;stroke-width:0.493889;stroke-linecap:round;stroke-linejoin:round;stroke-dasharray:none;stroke-dashoffset:3.06667"
         d="m 44.406791,30.468882 c 4.6e-5,2.011421 6.846878,3.997695 15.336777,3.997681 8.489765,-3e-5 15.336737,-1.986293 15.336787,-3.997681"
         id="path17-0"
         sodipodi:nodetypes="ccc" />
      <path
         d="m 44.406792,30.468882 c 2.6e-5,7.828579 6.866623,14.174867 15.33695,14.174808 8.470192,-1.17e-4 15.336583,-6.346354 15.336613,-14.174808"
         style="fill:none;stroke:#000000;stroke-width:0.493889;stroke-linecap:round;stroke-linejoin:round;stroke-dasharray:none;stroke-dashoffset:3.06667"
         id="path16"
         sodipodi:nodetypes="ccc" />
      <path
         d="M 75.080295,21.651065 C 75.080265,13.82261 68.213876,7.4763723 59.743684,7.4762543 51.273357,7.4761953 44.406759,13.822485 44.406734,21.651065"
         style="fill:none;stroke:#000000;stroke-width:0.494;stroke-linecap:round;stroke-linejoin:round;stroke-dasharray:none;stroke-dashoffset:3.06667"
         id="path15"
         sodipodi:nodetypes="ccc" />
      <path
         style="fill:none;fill-opacity:1;fill-rule:nonzero;stroke:#ffffff;stroke-width:1.2;stroke-linecap:round;stroke-linejoin:round;stroke-dasharray:none;stroke-dashoffset:3.06667;stroke-opacity:1"
         d="m 46.425672,27.150997 c 2.641926,1.198965 7.605529,2.09609 13.311247,2.096081 5.715236,-2e-5 10.685984,-0.900175 13.324555,-2.102167"
         id="path17-5-2"
         sodipodi:nodetypes="ccc" />
      <path
         style="fill:none;fill-opacity:1;fill-rule:nonzero;stroke:#0000ff;stroke-width:0.4942;stroke-linecap:round;stroke-linejoin:round;stroke-dasharray:none;stroke-dashoffset:3.06667;stroke-opacity:1;marker-mid:url(#ArrowWide)"
         d="m 46.425672,27.150997 c 2.641926,1.198965 7.605529,2.09609 13.311247,2.096081 5.715236,-2e-5 10.685984,-0.900175 13.324555,-2.102167"
         id="path17-5"
         sodipodi:nodetypes="ccc" />
    </g>
  </g>
</svg>
