<?xml version="1.0" encoding="UTF-8" standalone="no"?>
<!-- Created with Inkscape (http://www.inkscape.org/) -->

<svg
   width="6in"
   height="1in"
   viewBox="0 0 152.4 25.399999"
   version="1.1"
   id="svg1"
   xml:space="preserve"
   inkscape:version="1.3.2 (091e20e, 2023-11-25)"
   sodipodi:docname="torus-knot.svg"
   inkscape:export-filename="torus-knot.pdf"
   inkscape:export-xdpi="96"
   inkscape:export-ydpi="96"
   xmlns:inkscape="http://www.inkscape.org/namespaces/inkscape"
   xmlns:sodipodi="http://sodipodi.sourceforge.net/DTD/sodipodi-0.dtd"
   xmlns="http://www.w3.org/2000/svg"
   xmlns:svg="http://www.w3.org/2000/svg"><sodipodi:namedview
     id="namedview1"
     pagecolor="#ffffff"
     bordercolor="#000000"
     borderopacity="0.25"
     inkscape:showpageshadow="2"
     inkscape:pageopacity="0.0"
     inkscape:pagecheckerboard="0"
     inkscape:deskcolor="#d1d1d1"
     inkscape:document-units="mm"
     inkscape:zoom="2.4463374"
     inkscape:cx="274.08321"
     inkscape:cy="30.862464"
     inkscape:window-width="1728"
     inkscape:window-height="1051"
     inkscape:window-x="0"
     inkscape:window-y="38"
     inkscape:window-maximized="0"
     inkscape:current-layer="layer1"
     showgrid="false" /><defs
     id="defs1" /><g
     inkscape:label="Layer 1"
     inkscape:groupmode="layer"
     id="layer1"><path
       style="fill:none;stroke:#090909;stroke-width:0.352778;stroke-linecap:round;stroke-linejoin:round;stroke-dasharray:none"
       d="m 65.139526,9.0371529 c 2.13604,1.6806531 4.773636,4.3331681 3.853508,7.9088681 -0.597656,1.613788 -2.31295,2.183412 -3.761631,1.878639 -2.886253,-0.573916 -5.695725,-2.339379 -7.286198,-5.112129 -0.656851,-1.15988 -0.947861,-2.520443 -1.036054,-3.8722161"
       id="path22"
       sodipodi:nodetypes="ccccc" /><path
       style="fill:none;stroke:#090909;stroke-width:0.352778;stroke-linecap:round;stroke-linejoin:round;stroke-dasharray:none"
       d="m 59.955755,17.420254 c -1.936691,0.955404 -4.165665,2.093488 -6.290639,1.173028 -1.462248,-0.713117 -2.046627,-2.768687 -1.417881,-4.347959 0.820994,-2.416929 2.688523,-4.2148 4.614918,-5.5669361 2.030828,-1.4148002 4.662727,-1.7159307 6.776808,-0.3440208"
       id="path19" /><path
       style="fill:none;stroke:#090909;stroke-width:0.352778;stroke-linecap:round;stroke-linejoin:round;stroke-dasharray:none"
       d="m 56.727266,7.8825814 c -0.0076,-2.6079559 0.889772,-6.2094962 4.02459,-5.9937849 1.959745,0.457016 2.848383,2.752205 3.37509,4.6561099 0.49651,2.1662166 0.599238,4.5881516 -0.217554,6.6739726 -0.567243,1.215457 -1.422905,2.3672 -2.521633,3.002796 l -0.158797,-0.0059"
       id="path5"
       sodipodi:nodetypes="cccccc" /><path
       style="fill:none;stroke:#121212;stroke-width:0.352777;stroke-linecap:round;stroke-dasharray:none"
       d="M 93.510921,9.7039369 C 92.977311,8.8019872 92.504099,7.95546 92.256483,6.9427024 91.941589,5.6547707 91.896215,4.3611248 91.029401,3.229318 90.029103,1.9232211 88.497621,1.0752359 86.806374,1.633806 86.186554,1.8385147 85.678969,2.1592492 85.181029,2.5628131 m 7.009299,10.9497239 c 0.214724,-0.714508 0.664582,-1.939014 1.210152,-2.66602 0.953331,-1.2703771 1.690398,-2.3672294 1.978067,-3.9038146 0.05115,-0.2732027 0.07235,-0.4829092 0.0533,-0.7617198 C 95.407307,5.8217921 95.354557,5.4775661 95.226955,5.1336177 94.710343,3.7411232 93.14244,3.042664 91.682408,3.0388881 M 91.580824,6.0857675 C 90.846196,5.9968435 89.944131,5.7494844 89.244391,5.3616638 87.836329,4.5812673 86.535214,3.3820476 84.876276,3.1468868 84.379302,3.0764388 84.01347,3.0101707 83.555683,3.0554188 83.232197,3.0873918 82.967075,3.1537338 82.641427,3.233065 81.1276,3.6018429 80.267491,5.0889857 80.20341,6.4666275 M 90.260232,3.324533 88.431718,4.0862529 M 84.368356,3.705393 83.555683,5.6096926 m 3.758611,-0.7617198 c -2.064255,1.31594 -4.655671,0.9800201 -6.704549,2.2134549 -1.544514,0.9298054 -2.586651,2.6187282 -1.79669,4.2611633 0.244897,0.509177 0.574224,0.930471 0.984018,1.33301 M 92.698249,6.1809826 94.831514,6.9427024 M 83.352516,6.8474874 c -0.01056,0.4794964 -0.250656,1.4379299 -0.596884,1.9995147 -0.734245,1.1909489 -1.704392,2.2243899 -2.247001,3.5229539 -0.213463,0.51086 -0.337314,1.079192 -0.296052,1.618655 0.09145,1.195617 0.806437,2.451898 2.022511,2.985459 0.656491,0.288041 1.27046,0.222535 1.828513,0.347066 M 95.847355,7.6092073 c 1.77638,1.3814346 1.619849,4.0015027 -0.203561,5.2864887 -1.657368,1.167975 -3.424491,1.089297 -5.281979,1.610867 -0.749075,0.210335 -1.358281,0.654089 -2.031681,1.005488 m -7.821972,-7.7124138 0.914256,1.9042997 m 12.901176,0.8569341 0.812672,1.809085 m -13.00276,-1.713869 c 0.405416,0.49302 0.840891,1.017736 1.038807,1.618654 0.830385,2.521253 0.7614,6.192686 4.446733,6.608479 0.504546,0.05692 1.056665,-0.01085 1.52376,-0.210047 0.542503,-0.231356 0.994667,-0.58794 1.422178,-0.971178 m -7.618805,-3.618169 -2.133265,-0.666505 m 14.628104,0.285645 c -0.005,0.568085 -0.03573,0.993813 -0.228407,1.52344 -0.450825,1.239233 -1.883534,2.066491 -3.225451,2.093261 -0.52844,0.01054 -1.106773,-0.0943 -1.625345,-0.252879 -1.480651,-0.45279 -2.547465,-1.353213 -3.860194,-2.08077 -0.690495,-0.382697 -1.61976,-0.499267 -2.336433,-0.711762 m 7.821972,0.57129 -0.609504,1.71387 m -4.164947,-0.285645 -1.828513,0.856934"
       id="path1" /><text
       xml:space="preserve"
       style="font-size:3.88056px;fill:#000000;fill-opacity:1;fill-rule:evenodd;stroke:#ffffff;stroke-width:0.352777;stroke-linecap:round;stroke-linejoin:round;stroke-dasharray:none;paint-order:stroke fill markers"
       x="55.630463"
       y="23.690672"
       id="text1"><tspan
         sodipodi:role="line"
         id="tspan1"
         style="fill:#000000;fill-opacity:1;stroke-width:0.352778"
         x="55.630463"
         y="23.690672">$(2,3)$</tspan></text><text
       xml:space="preserve"
       style="font-size:3.88056px;fill:#000000;fill-opacity:1;fill-rule:evenodd;stroke:#ffffff;stroke-width:0.352777;stroke-linecap:round;stroke-linejoin:round;stroke-dasharray:none;paint-order:stroke fill markers"
       x="82.128799"
       y="23.690672"
       id="text1-3"><tspan
         sodipodi:role="line"
         id="tspan1-6"
         style="fill:#000000;fill-opacity:1;stroke-width:0.352778"
         x="82.128799"
         y="23.690672">$(3,8)$</tspan></text></g></svg>
